<svg width="34" height="33" viewBox="0 0 34 33" fill="none" xmlns="http://www.w3.org/2000/svg">
<g clip-path="url(#clip0_165_5324)">
<path fill-rule="evenodd" clip-rule="evenodd" d="M33.9998 16.4997C33.9998 7.38703 26.389 0 17 0C7.61103 0 0 7.38703 0 16.4997C0 25.6115 7.61103 33 17 33.0002C26.3888 33.0002 33.9998 25.6115 33.9998 16.4997ZM19.7929 9.37842C22.277 9.56232 24.3809 11.1597 24.3809 11.1597C24.3809 11.1597 26.7292 14.4659 27.1336 20.9565C24.7641 23.6077 21.1692 23.6284 21.1692 23.6284L20.4176 22.6557C21.6928 22.225 23.1343 21.4546 24.3809 20.0661C22.8941 21.1573 20.6532 22.2925 17.0399 22.2925C13.4267 22.2925 11.184 21.1559 9.699 20.0661C10.9441 21.4546 12.3855 22.225 13.6623 22.6557L12.9106 23.6284C12.9106 23.6284 9.31423 23.6077 6.94629 20.9565C7.34917 14.4659 9.69922 11.1597 9.69922 11.1597C9.69922 11.1597 11.6791 9.61797 14.2872 9.37842L14.5105 9.81275C12.4595 10.2626 11.2325 11.1114 10.1579 12.0503C12.0126 11.131 13.8464 10.2691 17.0399 10.2691C20.2335 10.2691 22.0657 11.131 23.9221 12.0503C22.8446 11.1114 21.8153 10.3467 19.568 9.81275L19.7929 9.37842ZM12.4519 17.3937C12.4519 18.3781 13.1702 19.175 14.0576 19.175C14.9451 19.175 15.6636 18.3783 15.6636 17.3937C15.6636 16.4102 14.9451 15.6127 14.0576 15.6127C13.1704 15.6127 12.4519 16.4102 12.4519 17.3937ZM18.4163 17.3937C18.4163 18.3781 19.1348 19.175 20.0222 19.175C20.908 19.175 21.6279 18.3783 21.6279 17.3937C21.6279 16.4102 20.9095 15.6127 20.0222 15.6127C19.1348 15.6127 18.4163 16.4102 18.4163 17.3937Z" fill="#353535"/>
</g>
<defs>
<clipPath id="clip0_165_5324">
<rect width="34" height="33" fill="white"/>
</clipPath>
</defs>
</svg>
