<svg width="34" height="33" viewBox="0 0 34 33" fill="none" xmlns="http://www.w3.org/2000/svg">
<path fill-rule="evenodd" clip-rule="evenodd" d="M17.1045 0.197266C26.104 0.197266 33.3994 7.49267 33.3994 16.4922C33.3994 25.4917 26.104 32.7871 17.1045 32.7871C8.10497 32.7871 0.80957 25.4917 0.80957 16.4922C0.80957 7.49267 8.10497 0.197266 17.1045 0.197266ZM12.3181 10.3422C15.7148 10.3422 18.468 13.0961 18.468 16.4922C18.468 19.8883 15.7148 22.6422 12.3181 22.6422C8.92195 22.6422 6.16872 19.8883 6.16872 16.4922C6.16872 13.0961 8.92195 10.3422 12.3181 10.3422ZM22.1581 10.8282C23.8769 10.8282 25.2698 13.3639 25.2698 16.4922C25.2698 19.6204 23.8769 22.1562 22.1581 22.1562C20.4394 22.1562 19.0465 19.6204 19.0465 16.4922C19.0465 13.3639 20.4394 10.8282 22.1581 10.8282ZM26.9567 11.3135C27.5549 11.3135 28.0403 13.6318 28.0403 16.4922C28.0403 19.3526 27.5549 21.6708 26.9567 21.6708C26.3578 21.6708 25.8725 19.3526 25.8725 16.4922C25.8725 13.6318 26.3578 11.3135 26.9567 11.3135Z" fill="#353535"/>
</svg>
