<svg width="29" height="29" viewBox="0 0 29 29" fill="none" xmlns="http://www.w3.org/2000/svg">
<path fill-rule="evenodd" clip-rule="evenodd" d="M14.5241 0C6.5558 0 0.0961914 6.45961 0.0961914 14.4279C0.0961914 22.3963 6.5558 28.8559 14.5241 28.8559C22.4925 28.8559 28.9521 22.3963 28.9521 14.4279C28.9521 6.45961 22.4925 0 14.5241 0ZM14.1223 12.2264L14.092 11.7272C14.0012 10.4333 14.7985 9.25139 16.06 8.79291C16.5242 8.62989 17.3114 8.60951 17.8261 8.75215C18.0279 8.81328 18.4114 9.01705 18.6839 9.20045L19.1784 9.53667L19.7234 9.36347C20.0261 9.27177 20.4298 9.11894 20.6115 9.01705C20.783 8.92536 20.9344 8.87441 20.9344 8.90498C20.9344 9.07819 20.561 9.66912 20.2482 9.99516C19.8243 10.4536 19.9454 10.4944 20.8032 10.1887C21.3179 10.0155 21.328 10.0155 21.2271 10.2091C21.1665 10.311 20.8537 10.6676 20.5206 10.9936C19.9555 11.554 19.9252 11.6151 19.9252 12.0838C19.9252 12.8072 19.5821 14.3151 19.239 15.1404C18.6032 16.689 17.2407 18.2886 15.8783 19.0935C13.9608 20.2245 11.4075 20.5097 9.25793 19.8475C8.54139 19.6233 7.31016 19.0528 7.31016 18.9509C7.31016 18.9203 7.68357 18.8796 8.13771 18.8694C9.08636 18.849 10.035 18.5841 10.8424 18.1154L11.3873 17.7894L10.7616 17.5754C9.87354 17.2698 9.07627 16.5668 8.87443 15.9045C8.81388 15.6906 8.83406 15.6804 9.39921 15.6804L9.98455 15.6702L9.49004 15.4358C8.9047 15.1404 8.36983 14.6411 8.10743 14.1317C7.91568 13.7649 7.67347 12.8378 7.74412 12.7664C7.7643 12.7359 7.97624 12.797 8.21844 12.8785C8.9148 13.1332 9.00562 13.0721 8.60194 12.6442C7.84504 11.8699 7.61292 10.7185 7.97624 9.62837L8.1478 9.13932L8.81388 9.80157C10.1763 11.1363 11.7809 11.931 13.6177 12.1653L14.1223 12.2264Z" fill="currentColor"/>
</svg>
