<svg width="29" height="29" viewBox="0 0 29 29" fill="none" xmlns="http://www.w3.org/2000/svg">
<path fill-rule="evenodd" clip-rule="evenodd" d="M14.572 0C22.5404 0 28.9999 6.45954 28.9999 14.4279C28.9999 22.3963 22.5404 28.8559 14.572 28.8559C6.60358 28.8559 0.144043 22.3963 0.144043 14.4279C0.144043 6.45954 6.60358 0 14.572 0ZM10.334 8.98259C13.3415 8.98259 15.7793 11.4209 15.7793 14.4279C15.7793 17.4349 13.3415 19.8733 10.334 19.8733C7.32695 19.8733 4.88917 17.4349 4.88917 14.4279C4.88917 11.4209 7.32695 8.98259 10.334 8.98259ZM19.0466 9.41289C20.5685 9.41289 21.8018 11.6581 21.8018 14.4279C21.8018 17.1978 20.5685 19.443 19.0466 19.443C17.5248 19.443 16.2915 17.1978 16.2915 14.4279C16.2915 11.6581 17.5248 9.41289 19.0466 9.41289ZM23.2954 9.84262C23.8251 9.84262 24.2548 11.8953 24.2548 14.4279C24.2548 16.9606 23.8251 19.0133 23.2954 19.0133C22.7651 19.0133 22.3354 16.9606 22.3354 14.4279C22.3354 11.8953 22.7651 9.84262 23.2954 9.84262Z" fill="currentColor"/>
</svg>
