<svg width="29" height="29" viewBox="0 0 29 29" fill="none" xmlns="http://www.w3.org/2000/svg">
<g clip-path="url(#clip0_723_3347)">
<path fill-rule="evenodd" clip-rule="evenodd" d="M28.9038 14.4277C28.9038 6.45937 22.4445 0 14.476 0C6.50759 0 0.0480957 6.45937 0.0480957 14.4277C0.0480957 22.3952 6.50759 28.8559 14.476 28.8561C22.4443 28.8561 28.9038 22.3952 28.9038 14.4277ZM16.8458 8.20065C18.9541 8.36145 20.7397 9.75823 20.7397 9.75823C20.7397 9.75823 22.7327 12.6493 23.0759 18.3247C21.065 20.643 18.0139 20.6611 18.0139 20.6611L17.376 19.8106C18.4583 19.4339 19.6817 18.7603 20.7397 17.5461C19.4779 18.5004 17.576 19.493 14.5094 19.493C11.4428 19.493 9.53947 18.4991 8.27914 17.5461C9.33585 18.7603 10.5592 19.4339 11.6428 19.8106L11.0049 20.6611C11.0049 20.6611 7.95258 20.643 5.94291 18.3247C6.28484 12.6493 8.27933 9.75823 8.27933 9.75823C8.27933 9.75823 9.9597 8.41012 12.1732 8.20065L12.3627 8.58044C10.622 8.97377 9.58063 9.71597 8.66864 10.537C10.2427 9.73316 11.799 8.97944 14.5094 8.97944C17.2198 8.97944 18.7748 9.73316 20.3504 10.537C19.4358 9.71597 18.5622 9.04731 16.655 8.58044L16.8458 8.20065ZM10.6156 15.2094C10.6156 16.0701 11.2251 16.767 11.9783 16.767C12.7315 16.767 13.3413 16.0703 13.3413 15.2094C13.3413 14.3494 12.7315 13.652 11.9783 13.652C11.2253 13.652 10.6156 14.3494 10.6156 15.2094ZM15.6775 15.2094C15.6775 16.0701 16.2873 16.767 17.0405 16.767C17.7922 16.767 18.4033 16.0703 18.4033 15.2094C18.4033 14.3494 17.7935 13.652 17.0405 13.652C16.2873 13.652 15.6775 14.3494 15.6775 15.2094Z" fill="currentColor"/>
</g>
<defs>
<clipPath id="clip0_723_3347">
<rect width="28.8559" height="28.8559" fill="white" transform="translate(0.0480957)"/>
</clipPath>
</defs>
</svg>
