<svg width="29" height="29" viewBox="0 0 29 29" fill="none" xmlns="http://www.w3.org/2000/svg">
<path fill-rule="evenodd" clip-rule="evenodd" d="M14.4279 28.8559C22.3963 28.8559 28.8559 22.3963 28.8559 14.4279C28.8559 6.45961 22.3963 0 14.4279 0C6.45961 0 0 6.45961 0 14.4279C0 22.3963 6.45961 28.8559 14.4279 28.8559ZM14.0314 7H14.9689C15.0339 7.00846 15.099 7.01651 15.164 7.02456C15.3112 7.04276 15.4583 7.06095 15.6046 7.08395C17.6682 7.40682 19.3197 8.41946 20.5601 10.0925C21.4438 11.2839 21.9064 12.6347 21.99 14.1137C22.0218 14.7022 21.9817 15.2923 21.8706 15.871C21.7703 15.8379 21.671 15.8044 21.5723 15.771L21.5722 15.771C21.3347 15.6908 21.1003 15.6116 20.863 15.542C20.7074 15.4965 20.6387 15.4325 20.7001 15.2684C20.7107 15.2401 20.7101 15.2077 20.7095 15.1708C20.7091 15.1526 20.7088 15.1333 20.7098 15.1129C20.6211 15.1129 20.5332 15.1136 20.446 15.1143C20.2362 15.116 20.0301 15.1176 19.8243 15.1093C19.6698 15.105 19.5166 15.0795 19.3691 15.0336C18.4545 14.7345 17.5413 14.4309 16.6436 14.1324C16.3582 14.0375 16.0743 13.9431 15.7924 13.8496H17.0885C17.0149 13.2164 16.9433 12.5995 16.8728 11.9919L15.135 12.1577V13.8601H15.4543C14.6302 13.9949 14.1121 14.463 13.8876 15.3013L13.8691 15.1202H11.9118C11.984 15.7583 12.055 16.3847 12.1275 17.0234L12.2015 17.0135L12.2019 17.0134C12.2427 17.0079 12.2734 17.0038 12.3036 17.0005C12.4184 16.988 12.5332 16.9748 12.6479 16.9616L12.648 16.9616L12.6481 16.9616C12.9258 16.9296 13.2035 16.8976 13.482 16.8766L13.5099 16.8745C13.8756 16.8472 13.8765 16.8471 13.8765 16.4636V15.9262C13.9215 16.0155 13.9577 16.109 13.9845 16.2053C14.0656 16.4489 14.1456 16.6927 14.2257 16.9366L14.2258 16.937C14.4238 17.5402 14.6218 18.1433 14.8356 18.7408C15.0299 19.2838 15.1828 19.825 15.1224 20.408C15.1239 20.4435 15.1294 20.4787 15.1388 20.513L15.366 20.3492L15.8787 21.8899C15.7567 21.9013 15.6364 21.9143 15.5173 21.9272L15.5171 21.9272C15.2608 21.9549 15.0099 21.9821 14.7584 21.9909C13.1659 22.042 11.6925 21.6413 10.3697 20.7505C8.59988 19.5588 7.5104 17.9072 7.11681 15.8056C7.08144 15.6169 7.05777 15.4266 7.03404 15.2358C7.02291 15.1464 7.01178 15.0568 6.99941 14.9673V14.0298C7.00968 13.9508 7.01912 13.8717 7.02857 13.7926C7.04912 13.6206 7.06967 13.4485 7.09862 13.2778C7.36277 11.7174 8.04751 10.3675 9.159 9.24131C10.2808 8.10422 11.6306 7.39009 13.2067 7.11418C13.3918 7.08237 13.578 7.05864 13.7646 7.03487L13.7646 7.03487C13.8535 7.02355 13.9425 7.01222 14.0314 7ZM8.29199 15.1217C8.29581 15.8669 8.86697 17.4698 9.24852 17.8514L10.8921 17.2667L10.655 15.1223L8.29199 15.1217ZM9.23326 11.1442C8.71757 11.966 8.38533 12.8622 8.28407 13.8493H10.6562L10.8948 11.7359L9.23326 11.1442ZM18.1046 11.7359L18.3415 13.8493H20.715C20.6122 12.886 20.2862 11.96 19.7629 11.1448L18.1046 11.7359ZM12.1237 11.9898C12.0535 12.606 11.9831 13.2221 11.9115 13.8485L11.9115 13.8493H13.87V12.1592L12.1237 11.9898ZM12.4547 10.7735L13.8668 10.9041V8.46554C13.1069 9.07107 12.7653 9.88881 12.4544 10.7735H12.4547ZM15.1347 10.9056V8.46783C15.8911 9.0704 16.2301 9.8901 16.545 10.7726L15.1347 10.9056ZM13.8694 18.0921L12.4486 18.2277C12.4829 18.3156 12.515 18.4002 12.5461 18.4823C12.6122 18.6565 12.674 18.8195 12.7438 18.9791C12.9716 19.5004 13.2513 19.9891 13.6798 20.3765C13.7154 20.4088 13.7553 20.4369 13.7992 20.4679L13.7992 20.4679C13.8216 20.4837 13.845 20.5002 13.8694 20.5183V18.0921ZM18.9555 10.1266C18.3846 9.55655 17.7747 9.1286 17.0918 8.82129C17.3266 9.37604 17.5614 9.92815 17.8097 10.5087L18.9555 10.1266ZM11.9059 8.82158C11.2098 9.13721 10.5789 9.58021 10.0457 10.1277L11.1903 10.507L11.9059 8.82158ZM11.9059 20.177C11.6711 19.6245 11.4363 19.0727 11.1883 18.4913L10.0436 18.8728C10.6115 19.442 11.2235 19.8682 11.9059 20.177ZM15.6554 15.1296C15.6279 15.1229 15.5978 15.1155 15.5641 15.1067C15.5404 15.1181 15.5139 15.1288 15.4861 15.14C15.4201 15.1666 15.3473 15.1959 15.2903 15.2435C15.1165 15.387 15.0942 15.5769 15.1649 15.788L16.1124 18.6307C16.4448 19.6242 16.7759 20.6179 17.1056 21.612C17.1537 21.7567 17.2241 21.8788 17.3659 21.9483C17.628 22.0775 17.9062 21.958 18.0236 21.658C18.3455 20.8317 18.6638 20.0039 18.9784 19.1746C18.9927 19.1291 19.0176 19.0877 19.0511 19.0538C19.0846 19.0199 19.1257 18.9945 19.1709 18.9797C19.9961 18.6656 20.8195 18.35 21.6413 18.0328C21.8844 17.9389 22.0067 17.7704 21.9982 17.5529C21.9888 17.3419 21.8612 17.1886 21.6167 17.107C19.6757 16.4595 17.7345 15.8129 15.7933 15.1672C15.7512 15.1531 15.7078 15.1425 15.6554 15.1296Z" fill="currentColor"/>
</svg>
