<svg width="29" height="29" viewBox="0 0 29 29" fill="none" xmlns="http://www.w3.org/2000/svg">
<path fill-rule="evenodd" clip-rule="evenodd" d="M14.4279 28.8559C22.3963 28.8559 28.8559 22.3963 28.8559 14.4279C28.8559 6.45961 22.3963 0 14.4279 0C6.45961 0 0 6.45961 0 14.4279C0 22.3963 6.45961 28.8559 14.4279 28.8559ZM11.7828 21.0407C12.1337 21.0407 12.2941 20.8846 12.4879 20.6959L12.5042 20.68L14.2372 18.9949L17.8426 21.6586C18.5061 22.0247 18.9849 21.8352 19.1502 21.0426L21.517 9.88945C21.7593 8.91795 21.1467 8.47732 20.5119 8.76549L6.6142 14.1244C5.66555 14.5049 5.67108 15.0341 6.44128 15.27L10.0077 16.3831L18.2645 11.174C18.6543 10.9377 19.012 11.0647 18.7184 11.3253L12.0284 17.3625L12.0283 17.3625L12.0283 17.3626L12.0281 17.3628L12.0283 17.363L11.7828 21.0407Z" fill="currentColor"/>
</svg>
