<svg width="57" height="57" viewBox="0 0 57 57" fill="none" xmlns="http://www.w3.org/2000/svg">
<g clip-path="url(#clip0_62_2090)">
<path d="M28.5 0C44.2403 0 56.9996 12.7594 56.9996 28.4995C56.9996 44.2381 44.24 57.0004 28.5 57.0004C12.7597 57 0 44.2381 0 28.4995C0 12.7594 12.7597 0 28.5 0Z" fill="currentColor"/>
<path d="M40.8726 19.276C40.8726 19.276 37.3455 16.5169 33.1809 16.1992L32.804 16.9494C36.5714 17.8717 38.297 19.1925 40.1036 20.8143C36.9914 19.2265 33.9196 17.7376 28.5657 17.7376C23.2119 17.7376 20.1376 19.2265 17.0283 20.8143C18.8298 19.1925 20.8867 17.7264 24.3253 16.9494L23.9509 16.1992C19.5785 16.613 16.2592 19.276 16.2592 19.276C16.2592 19.276 12.3195 24.9868 11.644 36.1977C15.6138 40.777 21.6431 40.8128 21.6431 40.8128L22.9032 39.1328C20.7628 38.3887 18.3462 37.0581 16.2589 34.6597C18.7484 36.5421 22.5083 38.5054 28.5657 38.5054C34.6232 38.5054 38.3801 36.5446 40.8726 34.6597C38.7827 37.0581 36.3662 38.3887 34.2282 39.1328L35.4884 40.8128C35.4884 40.8128 41.5151 40.777 45.4874 36.1977C44.8095 24.9868 40.8726 19.276 40.8726 19.276ZM23.566 33.1206C22.0782 33.1206 20.8741 31.7441 20.8741 30.0438C20.8741 28.345 22.0786 26.9675 23.566 26.9675C25.0538 26.9675 26.2583 28.345 26.2583 30.0438C26.2583 31.7445 25.0538 33.1206 23.566 33.1206ZM33.5655 33.1206C32.0776 33.1206 30.8732 31.7441 30.8732 30.0438C30.8732 28.345 32.0776 26.9675 33.5655 26.9675C35.0529 26.9675 36.2574 28.345 36.2574 30.0438C36.2574 31.7445 35.0504 33.1206 33.5655 33.1206Z" fill="white"/>
</g>
<defs>
<clipPath id="clip0_62_2090">
<rect width="57" height="57" fill="white"/>
</clipPath>
</defs>
</svg>
