<svg width="57" height="58" viewBox="0 0 57 58" fill="none" xmlns="http://www.w3.org/2000/svg">
<path fill-rule="evenodd" clip-rule="evenodd" d="M28.4201 57.7118C44.1161 57.7118 56.8403 44.9877 56.8403 29.2917C56.8403 13.5957 44.1161 0.871582 28.4201 0.871582C12.7241 0.871582 0 13.5957 0 29.2917C0 44.9877 12.7241 57.7118 28.4201 57.7118Z" fill="currentColor"/>
<g clip-path="url(#clip0_825_5110)">
<path d="M27.864 14.9556H29.5567C29.9393 15.0054 30.3235 15.0473 30.7046 15.1071C34.4307 15.6901 37.4128 17.5186 39.6525 20.5396C41.2482 22.6908 42.0834 25.1298 42.2344 27.8005C42.2919 28.863 42.2195 29.9286 42.0187 30.9735C41.4024 30.77 40.8062 30.5575 40.1994 30.3794C39.9185 30.2973 39.7945 30.1817 39.9052 29.8855C39.9339 29.8092 39.9174 29.7164 39.9227 29.6046C39.3774 29.6046 38.8501 29.6194 38.3238 29.5982C38.0449 29.5904 37.7683 29.5444 37.5019 29.4615C35.3253 28.7497 33.153 28.0236 31.0438 27.3235H33.3841C33.251 26.1803 33.1217 25.0662 32.9945 23.9692L29.8566 24.2686V27.3426H30.4332C28.9451 27.5858 28.0097 28.4312 27.6043 29.9448L27.5709 29.6178H24.0366C24.167 30.77 24.2952 31.901 24.4261 33.0543C24.5756 33.0347 24.6609 33.022 24.7441 33.013C25.4532 32.9361 26.1612 32.8428 26.8719 32.7893C27.5826 32.7358 27.5842 32.7533 27.5842 32.0436V31.0732C27.6655 31.2344 27.7308 31.4032 27.7792 31.5772C28.288 33.1047 28.7739 34.64 29.3161 36.1553C29.6669 37.1358 29.943 38.1131 29.8339 39.1656C29.8365 39.2298 29.8465 39.2935 29.8635 39.3554L30.2737 39.0597L31.1996 41.8416C30.5048 41.9062 29.8418 42.0006 29.1767 42.0239C26.3011 42.1161 23.6407 41.3927 21.2522 39.7842C18.0565 37.6324 16.0893 34.6501 15.3786 30.8554C15.2848 30.355 15.2366 29.8484 15.1666 29.3417V27.6489C15.2255 27.1963 15.2694 26.741 15.3458 26.2911C15.8227 23.4736 17.0591 21.0362 19.0661 19.0026C21.0916 16.9494 23.5289 15.6599 26.3748 15.1617C26.8682 15.0769 27.3663 15.0239 27.864 14.9556ZM17.5006 29.6205C17.5075 30.9661 18.5388 33.8604 19.2277 34.5494L22.1955 33.4937C22.053 32.2052 21.9109 30.9211 21.7673 29.6215L17.5006 29.6205ZM19.2002 22.4385C18.269 23.9225 17.6691 25.5406 17.4863 27.323H21.7694C21.9157 26.0266 22.0593 24.7546 22.2003 23.507L19.2002 22.4385ZM35.2188 23.507L35.6465 27.323H39.9323C39.7466 25.5837 39.1579 23.9116 38.2131 22.4396L35.2188 23.507ZM24.4192 23.9654C24.2926 25.0784 24.1654 26.1914 24.0361 27.323H27.5725V24.2713L24.4192 23.9654ZM25.017 21.7692L27.5667 22.005V17.6018C26.1946 18.6952 25.5777 20.1718 25.0165 21.7692H25.017ZM29.8561 17.6055V22.0077L32.4026 21.7676C31.8339 20.1739 31.2218 18.6936 29.8556 17.6055H29.8561ZM27.5714 34.984L25.0059 35.2289C25.1993 35.7244 25.3536 36.1617 25.539 36.5856C25.9503 37.5269 26.4553 38.4094 27.2291 39.1089C27.3261 39.1969 27.4411 39.2679 27.5714 39.3649V34.984ZM36.7552 20.601C35.7244 19.5718 34.6231 18.7991 33.3899 18.2442C33.8139 19.2459 34.2378 20.2428 34.6862 21.2911L36.7552 20.601ZM24.026 18.2447C22.7692 18.8146 21.63 19.6145 20.6671 20.6032L22.7339 21.2879L24.026 18.2447ZM24.026 38.7485C23.602 37.7511 23.1781 36.7547 22.7302 35.7048L20.6634 36.3938C21.6889 37.4214 22.7938 38.191 24.026 38.7485Z" fill="white"/>
<path d="M30.6313 29.5933C30.8077 29.6394 30.9291 29.6638 31.0452 29.7024C34.5503 30.8684 38.0553 32.036 41.5601 33.2052C42.0016 33.3525 42.2321 33.6292 42.2491 34.0102C42.2645 34.4029 42.0435 34.7072 41.6047 34.8768C40.1208 35.4495 38.6339 36.0194 37.144 36.5865C37.0622 36.6133 36.988 36.6592 36.9276 36.7204C36.8671 36.7816 36.8221 36.8564 36.7963 36.9384C36.2282 38.4358 35.6535 39.9306 35.0724 41.4227C34.8604 41.9644 34.358 42.1801 33.8847 41.9469C33.6287 41.8213 33.5015 41.6008 33.4146 41.3395C32.8193 39.5446 32.2215 37.7502 31.6212 35.9564C31.051 34.2452 30.4808 32.5342 29.9105 30.8234C29.7828 30.4423 29.8231 30.0994 30.1368 29.8402C30.2831 29.7183 30.4866 29.6627 30.6313 29.5933Z" fill="white"/>
</g>
<defs>
<clipPath id="clip0_825_5110">
<rect width="27.0848" height="27.0848" fill="white" transform="translate(15.1675 14.9556)"/>
</clipPath>
</defs>
</svg>
