<svg width="57" height="58" viewBox="0 0 57 58" fill="none" xmlns="http://www.w3.org/2000/svg">
<circle cx="29" cy="29" r="28" fill="white"/>
<path fill-rule="evenodd" clip-rule="evenodd" d="M28.5798 0.368164C44.2759 0.368164 56.9999 13.0921 56.9999 28.7883C56.9999 44.4844 44.2759 57.2084 28.5798 57.2084C12.8837 57.2084 0.159668 44.4844 0.159668 28.7883C0.159668 13.0921 12.8837 0.368164 28.5798 0.368164ZM20.2317 18.0621C26.156 18.0621 30.958 22.8651 30.958 28.7883C30.958 34.7115 26.156 39.5145 20.2317 39.5145C14.3086 39.5145 9.50661 34.7115 9.50661 28.7883C9.50661 22.8651 14.3086 18.0621 20.2317 18.0621ZM37.3939 18.9097C40.3917 18.9097 42.821 23.3323 42.821 28.7883C42.821 34.2443 40.3917 38.6669 37.3939 38.6669C34.3962 38.6669 31.9669 34.2443 31.9669 28.7883C31.9669 23.3323 34.3962 18.9097 37.3939 18.9097ZM45.7631 19.7561C46.8065 19.7561 47.653 23.7995 47.653 28.7883C47.653 33.7771 46.8065 37.8204 45.7631 37.8204C44.7186 37.8204 43.8722 33.7771 43.8722 28.7883C43.8722 23.7995 44.7186 19.7561 45.7631 19.7561Z" fill="currentColor"/>
</svg>
