<svg width="26" height="26" viewBox="0 0 26 26" fill="none" xmlns="http://www.w3.org/2000/svg">
<path fill-rule="evenodd" clip-rule="evenodd" d="M26 13C26 20.1797 20.1797 26 13 26C5.8203 26 0 20.1797 0 13C0 5.8203 5.8203 0 13 0C20.1797 0 26 5.8203 26 13ZM12.2172 18.3818C11.8446 18.3818 11.472 18.3823 11.0994 18.3827C10.3541 18.3835 9.6086 18.3843 8.86315 18.3818C7.99241 18.3781 7.30496 17.7956 7.15128 16.9402C7.13552 16.8386 7.12875 16.7359 7.13104 16.6332V9.9537C7.13104 9.07467 7.71428 8.3842 8.57603 8.22939C8.66835 8.21461 8.7618 8.20809 8.85528 8.20989H12.462C12.8836 8.20989 13.1674 8.54726 13.0823 8.93785C13.0223 9.21337 12.7824 9.39967 12.4762 9.40079C11.9647 9.40254 11.4534 9.40196 10.942 9.40138H10.9419C10.6862 9.40109 10.4305 9.40079 10.1747 9.40079H8.92575C8.5348 9.40079 8.32339 9.60921 8.32339 9.99568V16.5908C8.32339 16.978 8.53442 17.1879 8.92313 17.1879H15.5049C15.9022 17.1879 16.1106 16.9795 16.111 16.5826V13.327C16.111 12.9465 16.3707 12.6897 16.7306 12.6995C16.8771 12.7024 17.0172 12.7607 17.1225 12.8626C17.2279 12.9646 17.2907 13.1026 17.2985 13.249C17.3059 13.4211 17.3048 13.5936 17.3037 13.766V13.766C17.3033 13.8276 17.303 13.8892 17.303 13.9507C17.303 14.2484 17.3033 14.5462 17.3037 14.8439L17.3037 14.8485C17.3045 15.4472 17.3052 16.046 17.303 16.6448C17.2988 17.5174 16.7216 18.2034 15.864 18.3582C15.7438 18.3762 15.6222 18.3835 15.5007 18.38C14.4065 18.382 13.312 18.3826 12.2172 18.3818ZM15.9016 8.31731C16.0275 8.31708 16.1535 8.31685 16.2795 8.31685L16.315 8.369C16.2656 8.39798 16.2189 8.4312 16.1753 8.46828L11.9161 12.7291C11.8738 12.7684 11.8338 12.8102 11.7965 12.8543C11.6518 13.0397 11.6113 13.244 11.6966 13.4646C11.7333 13.5701 11.7993 13.6628 11.8868 13.7321C11.9744 13.8013 12.0798 13.8441 12.1907 13.8555C12.4284 13.8887 12.6077 13.7864 12.7694 13.6237C14.199 12.1924 15.6295 10.762 17.0607 9.33241C17.0852 9.30785 17.1108 9.28408 17.1429 9.25435C17.1608 9.2378 17.1806 9.2194 17.2034 9.19798V9.39113C17.2034 9.53649 17.2029 9.68207 17.2024 9.82779C17.2015 10.1197 17.2006 10.4121 17.2034 10.7045C17.2016 10.8005 17.2146 10.8961 17.242 10.9881C17.3365 11.2747 17.6231 11.4369 17.9282 11.3883C18.0696 11.3639 18.1978 11.2902 18.2901 11.1804C18.3825 11.0706 18.4332 10.9316 18.4332 10.788C18.4355 9.74729 18.4355 8.70662 18.4332 7.66595C18.4293 7.51036 18.3652 7.36237 18.2545 7.25318C18.1437 7.144 17.9949 7.08216 17.8395 7.08071H16.2513C16.083 7.08071 15.9147 7.08032 15.7463 7.07994C15.4095 7.07917 15.0726 7.07839 14.7356 7.08071C14.5972 7.08096 14.4628 7.12784 14.3541 7.21381C14.2455 7.29978 14.1688 7.41984 14.1365 7.55469C14.1028 7.69178 14.1181 7.83636 14.1797 7.96336C14.2412 8.09037 14.3453 8.19178 14.4737 8.25002C14.5804 8.29268 14.6944 8.31433 14.8093 8.31376C15.1736 8.31864 15.5376 8.31797 15.9016 8.31731Z" fill="currentColor"/>
</svg>
