<svg width="56" height="57" viewBox="0 0 56 57" fill="none" xmlns="http://www.w3.org/2000/svg">
<path fill-rule="evenodd" clip-rule="evenodd" d="M28 57C43.464 57 56 44.2401 56 28.5C56 12.7599 43.464 0 28 0C12.536 0 0 12.7599 0 28.5C0 44.2401 12.536 57 28 57Z" fill="currentColor"/>
<path fill-rule="evenodd" clip-rule="evenodd" d="M22.8667 41.5627C23.5667 41.5627 23.876 41.2369 24.2667 40.8502L28 37.1552L23.3432 34.2969" fill="white"/>
<path fill-rule="evenodd" clip-rule="evenodd" d="M23.3428 34.2971L34.6268 42.7828C35.9145 43.5059 36.8438 43.1315 37.1646 41.5659L41.7577 19.5347C42.228 17.6157 41.039 16.7453 39.8072 17.3145L12.8362 27.9002C10.9952 28.6518 11.0059 29.6972 12.5006 30.1631L19.422 32.3619L35.4457 22.0722C36.2021 21.6053 36.8964 21.8563 36.3266 22.3711" fill="white"/>
</svg>
