<svg width="56" height="57" viewBox="0 0 56 57" fill="none" xmlns="http://www.w3.org/2000/svg">
<path fill-rule="evenodd" clip-rule="evenodd" d="M0 28.5C0 12.7599 12.536 0 28 0C43.464 0 56 12.7599 56 28.5C56 44.2401 43.464 57 28 57C12.536 57 0 44.2401 0 28.5Z" fill="currentColor"/>
<path fill-rule="evenodd" clip-rule="evenodd" d="M27.1614 23.1653L27.2202 24.1514L26.2409 24.0307C22.6763 23.5678 19.5623 21.998 16.9182 19.3615L15.6256 18.0533L15.2926 19.0193C14.5876 21.1728 15.038 23.447 16.5069 24.9766C17.2904 25.8219 17.1141 25.9426 15.7627 25.4395C15.2926 25.2785 14.8813 25.1577 14.8422 25.2181C14.7051 25.359 15.1751 27.1904 15.5472 27.9149C16.0565 28.9212 17.0945 29.9074 18.2305 30.491L19.1901 30.9539L18.0542 30.9741C16.9574 30.9741 16.9182 30.9942 17.0357 31.4168C17.4274 32.725 18.9747 34.1137 20.6982 34.7175L21.9125 35.1401L20.8549 35.7841C19.2881 36.7099 17.447 37.2332 15.606 37.2734C14.7247 37.2936 14 37.3741 14 37.4345C14 37.6357 16.3894 38.7628 17.78 39.2055C21.9517 40.5137 26.9068 39.9502 30.628 37.7162C33.2721 36.1263 35.9161 32.9665 37.15 29.9074C37.8159 28.2772 38.4818 25.2986 38.4818 23.8697C38.4818 22.9439 38.5405 22.8231 39.6373 21.7162C40.2836 21.0722 40.8908 20.3678 41.0083 20.1665C41.2041 19.7841 41.1846 19.7841 40.1857 20.1263C38.5209 20.73 38.2859 20.6495 39.1085 19.7439C39.7157 19.0998 40.4403 17.9325 40.4403 17.5904C40.4403 17.53 40.1465 17.6307 39.8136 17.8118C39.461 18.013 38.6776 18.3149 38.0901 18.4961L37.0325 18.8382L36.0728 18.1741C35.544 17.8118 34.7997 17.4093 34.408 17.2885C33.4092 17.0068 31.8815 17.047 30.9806 17.369C28.5324 18.2747 26.9851 20.6093 27.1614 23.1653Z" fill="white"/>
</svg>
