<svg width="26" height="26" viewBox="0 0 26 26" fill="none" xmlns="http://www.w3.org/2000/svg">
<path fill-rule="evenodd" clip-rule="evenodd" d="M13 26C20.1797 26 26 20.1797 26 13C26 5.8203 20.1797 0 13 0C5.8203 0 0 5.8203 0 13C0 20.1797 5.8203 26 13 26ZM9.39816 8.82586V9.40087L8.85714 9.40199C7.77997 9.40312 7.00113 10.1757 7.00113 11.2521C6.99962 13.2206 6.99962 15.1892 7.00113 17.158C6.99865 17.2704 7.0062 17.3827 7.02367 17.4938C7.18635 18.3873 7.90058 18.9904 8.80792 18.9983C9.17659 19.0008 9.54526 19 9.91404 18.9992C10.0985 18.9987 10.2829 18.9983 10.4674 18.9983H14.7569C15.464 18.9983 15.999 18.6896 16.3627 18.0887C16.5234 17.8167 16.6053 17.5054 16.5994 17.1896V16.6007H17.1829C18.1977 16.595 18.9912 15.8198 18.9949 14.8058C19.0017 12.8045 19.0017 10.8031 18.9949 8.80183C18.9915 7.78815 18.215 7.0092 17.2028 7.00545C15.2013 6.99818 13.1996 6.99818 11.1978 7.00545C10.1744 7.00883 9.40192 7.80054 9.39816 8.82586ZM10.9585 10.6046C11.2411 10.6037 11.5238 10.6027 11.8065 10.6027L14.7171 10.602C15.1699 10.6022 15.3964 10.8306 15.3964 11.287V17.1084C15.3964 17.5689 15.1649 17.8025 14.7081 17.8025H8.88644C8.43334 17.8025 8.19551 17.5629 8.19551 17.1058C8.19551 16.5924 8.19586 16.0789 8.1962 15.5655C8.19715 14.1434 8.1981 12.7213 8.19175 11.2994C8.18987 10.8938 8.4401 10.5899 8.89546 10.5978C9.58299 10.6093 10.2707 10.6069 10.9585 10.6046ZM16.7756 15.3959C16.7184 15.397 16.6597 15.3981 16.599 15.3981L16.6001 15.2084V11.2712C16.6001 10.1715 15.8232 9.39749 14.7216 9.39749H10.6102C10.6102 9.32078 10.608 9.24495 10.6057 9.16994C10.6008 9.0011 10.5959 8.83637 10.617 8.67488C10.6481 8.43263 10.8168 8.27714 11.0565 8.21743C11.1392 8.20029 11.2236 8.19311 11.3079 8.19602H17.0878C17.5729 8.1964 17.8017 8.42437 17.8017 8.91262C17.8017 9.42146 17.8013 9.9303 17.8009 10.4391C17.7999 11.8566 17.7989 13.2741 17.8058 14.6916C17.8084 15.1021 17.5608 15.4307 17.0946 15.3981C16.9909 15.3919 16.886 15.3938 16.7756 15.3959Z" fill="currentColor"/>
</svg>
