<svg width="32" height="33" viewBox="0 0 32 33" fill="none" xmlns="http://www.w3.org/2000/svg">
<path fill-rule="evenodd" clip-rule="evenodd" d="M32 16.5C32 25.6127 24.8366 33 16 33C7.16344 33 0 25.6127 0 16.5C0 7.3873 7.16344 0 16 0C24.8366 0 32 7.3873 32 16.5ZM25.0676 13.5482C26.5377 13.5482 27.7333 14.7761 27.7333 16.2851C27.7333 17.2829 27.2085 18.1546 26.4306 18.632C26.4626 18.8599 26.4798 19.0903 26.4798 19.3234C26.4798 23.2151 21.877 26.3815 16.2198 26.3815C10.562 26.3815 5.9597 23.2151 5.9597 19.3234C5.9597 19.0721 5.97976 18.8238 6.01703 18.5787C5.28577 18.0907 4.8 17.246 4.8 16.2851C4.8 14.7761 5.99566 13.5485 7.46574 13.5482C8.11882 13.5482 8.71795 13.7922 9.18209 14.1946C10.9521 13.0449 13.314 12.323 15.9175 12.2706L17.4397 7.33073C17.5197 7.06798 17.785 6.91359 18.0461 6.97647L21.9883 7.92874C22.3411 7.15601 23.1039 6.61793 23.9889 6.61793C25.207 6.61793 26.1986 7.63549 26.1986 8.88663C26.1986 10.1378 25.2073 11.1553 23.9889 11.1553C22.7951 11.1553 21.8223 10.1779 21.7829 8.96235L18.2746 8.11417L16.9888 12.2869C19.4341 12.4124 21.6422 13.1292 23.3124 14.2308C23.7818 13.8075 24.3952 13.5482 25.0676 13.5482Z" fill="#353535"/>
<path fill-rule="evenodd" clip-rule="evenodd" d="M26.1495 17.5452C25.7745 16.5539 25.0917 15.6471 24.1777 14.8747C24.4342 14.7031 24.7396 14.6025 25.068 14.6025C25.9717 14.6025 26.7069 15.3573 26.7069 16.2853C26.7064 16.787 26.4901 17.237 26.1495 17.5452Z" fill="#353535"/>
<path fill-rule="evenodd" clip-rule="evenodd" d="M23.9888 7.67285C24.6411 7.67285 25.1717 8.21789 25.1717 8.88761C25.1717 9.55733 24.6411 10.1021 23.9888 10.1021C23.3363 10.1021 22.8057 9.55733 22.8057 8.88761C22.8057 8.21789 23.3363 7.67285 23.9888 7.67285Z" fill="#353535"/>
<path fill-rule="evenodd" clip-rule="evenodd" d="M16.2196 25.3272C21.3103 25.3272 25.4529 22.6336 25.4529 19.3236C25.4529 19.212 25.4474 19.1017 25.4383 18.9912C25.4086 18.6386 25.3293 18.2942 25.2097 17.9598C24.9061 17.1156 24.3304 16.3391 23.5429 15.6731C23.2818 15.4518 22.9982 15.2426 22.6931 15.0476C21.0262 13.9797 18.7394 13.3193 16.2196 13.3193C13.7358 13.3193 11.4794 13.9615 9.81807 15.0026C9.51369 15.1934 9.22936 15.3978 8.96693 15.6143C8.14681 16.2904 7.54637 17.0835 7.23338 17.9477C7.11272 18.2811 7.0335 18.6252 7.00249 18.9771C6.99258 19.0918 6.98633 19.2069 6.98633 19.3236C6.98633 22.6339 11.1281 25.3272 16.2196 25.3272ZM12.8432 16.4199C13.7092 16.4199 14.4113 17.1656 14.4113 18.0545C14.4113 18.9431 13.7092 19.6636 12.8432 19.6647C11.9777 19.6647 11.2514 18.9431 11.2514 18.0545C11.2514 17.1656 11.9775 16.4199 12.8432 16.4199ZM19.7135 16.4194C18.8478 16.4194 18.1194 17.1648 18.1194 18.0537C18.1194 18.9428 18.8478 19.6639 19.7135 19.6639C20.5795 19.6639 21.2821 18.9433 21.2821 18.0537C21.2816 17.1643 20.5795 16.4194 19.7135 16.4194ZM16.2785 22.8418C17.7116 22.8418 18.6896 22.5526 19.2705 21.957C19.4714 21.7515 19.7967 21.7515 19.9976 21.9575C20.198 22.163 20.198 22.4964 19.9971 22.7027C19.2142 23.5054 17.9977 23.8963 16.2785 23.8963C16.2741 23.8963 16.2702 23.8947 16.266 23.8947C16.2639 23.8947 16.262 23.8951 16.2601 23.8955C16.258 23.8959 16.256 23.8963 16.2537 23.8963C14.5343 23.8963 13.318 23.5054 12.5359 22.7021C12.3353 22.4969 12.3353 22.1632 12.5359 21.957C12.7363 21.7509 13.0616 21.7509 13.262 21.957C13.8421 22.5526 14.8204 22.8418 16.2537 22.8418C16.2558 22.8418 16.2577 22.8421 16.2597 22.8425C16.2617 22.8428 16.2637 22.8431 16.266 22.8431C16.268 22.8431 16.27 22.8428 16.2721 22.8425C16.2741 22.8421 16.2762 22.8418 16.2785 22.8418Z" fill="#353535"/>
<path fill-rule="evenodd" clip-rule="evenodd" d="M5.82715 16.2853C5.82715 15.3576 6.56232 14.6025 7.46584 14.6025C7.77101 14.6025 8.05611 14.6906 8.30134 14.8407C7.38688 15.6035 6.70252 16.5012 6.31657 17.4824C6.01452 17.1771 5.82715 16.7535 5.82715 16.2853Z" fill="#353535"/>
</svg>
