<svg width="33" height="33" viewBox="0 0 33 33" fill="none" xmlns="http://www.w3.org/2000/svg">
<path fill-rule="evenodd" clip-rule="evenodd" d="M16.5 33C25.6127 33 33 25.6127 33 16.5C33 7.3873 25.6127 0 16.5 0C7.3873 0 0 7.3873 0 16.5C0 25.6127 7.3873 33 16.5 33Z" fill="#353535"/>
<path fill-rule="evenodd" clip-rule="evenodd" d="M13.4746 24.063C13.8871 24.063 14.0694 23.8743 14.2996 23.6505L16.4996 21.5113L13.7554 19.8564" fill="white"/>
<path fill-rule="evenodd" clip-rule="evenodd" d="M13.7548 19.8564L20.4043 24.7691C21.1631 25.1878 21.7107 24.971 21.8997 24.0646L24.6064 11.3097C24.8835 10.1987 24.1829 9.6948 23.457 10.0244L7.56335 16.1529C6.47846 16.588 6.48479 17.1933 7.3656 17.463L11.4443 18.736L20.8868 12.7788C21.3326 12.5085 21.7417 12.6538 21.4059 12.9518" fill="white"/>
</svg>
