<svg width="32" height="33" viewBox="0 0 32 33" fill="none" xmlns="http://www.w3.org/2000/svg">
<path fill-rule="evenodd" clip-rule="evenodd" d="M16 0C7.16344 0 0 7.3873 0 16.5C0 25.6127 7.16344 33 16 33C24.8366 33 32 25.6127 32 16.5C32 7.3873 24.8366 0 16 0ZM15.5544 13.9823L15.5208 13.4114C15.4201 11.9316 16.3042 10.58 17.7032 10.0557C18.218 9.86927 19.0909 9.84596 19.6617 10.0091C19.8856 10.079 20.3108 10.312 20.613 10.5218L21.1614 10.9063L21.7658 10.7082C22.1015 10.6033 22.5492 10.4286 22.7506 10.312C22.9409 10.2072 23.1088 10.1489 23.1088 10.1839C23.1088 10.3819 22.6947 11.0577 22.3477 11.4306C21.8777 11.9549 22.012 12.0015 22.9633 11.652C23.534 11.4539 23.5452 11.4539 23.4333 11.6753C23.3662 11.7918 23.0192 12.1996 22.6499 12.5725C22.0232 13.2133 21.9896 13.2832 21.9896 13.8192C21.9896 14.6465 21.6091 16.371 21.2286 17.3148C20.5235 19.0858 19.0126 20.9152 17.5017 21.8356C15.3753 23.129 12.5438 23.4552 10.16 22.6979C9.36538 22.4415 8 21.789 8 21.6725C8 21.6376 8.41409 21.591 8.91772 21.5793C9.96973 21.556 11.0218 21.2531 11.9171 20.7171L12.5214 20.3442L11.8276 20.0995C10.8427 19.75 9.95854 18.946 9.73471 18.1886C9.66756 17.9439 9.68994 17.9323 10.3167 17.9323L10.9658 17.9206L10.4174 17.6527C9.76828 17.3148 9.17513 16.7438 8.88414 16.1612C8.6715 15.7418 8.4029 14.6814 8.48124 14.5999C8.50362 14.5649 8.73865 14.6348 9.00725 14.7281C9.77948 15.0194 9.8802 14.9494 9.43253 14.4601C8.59316 13.5745 8.33575 12.2579 8.73865 11.0111L8.92891 10.4519L9.66756 11.2092C11.1784 12.7356 12.9579 13.6444 14.9948 13.9124L15.5544 13.9823Z" fill="#353535"/>
</svg>
