<svg width="33" height="33" viewBox="0 0 33 33" fill="none" xmlns="http://www.w3.org/2000/svg">
<path fill-rule="evenodd" clip-rule="evenodd" d="M16.5 0C7.3873 0 0 7.3873 0 16.5C0 25.6127 7.3873 33 16.5 33C25.6127 33 33 25.6127 33 16.5C33 7.3873 25.6127 0 16.5 0ZM23.3763 10.8279C24.1336 11.0357 24.73 11.648 24.9324 12.4255C25.3002 13.8348 25.3002 16.7752 25.3002 16.7752C25.3002 16.7752 25.3002 19.7155 24.9324 21.1249C24.73 21.9024 24.1336 22.5147 23.3763 22.7226C22.0039 23.1002 16.5002 23.1002 16.5002 23.1002C16.5002 23.1002 10.9965 23.1002 9.62399 22.7226C8.8667 22.5147 8.2703 21.9024 8.06789 21.1249C7.7002 19.7155 7.7002 16.7752 7.7002 16.7752C7.7002 16.7752 7.7002 13.8348 8.06789 12.4255C8.2703 11.648 8.8667 11.0357 9.62399 10.8279C10.9965 10.4502 16.5002 10.4502 16.5002 10.4502C16.5002 10.4502 22.0039 10.4502 23.3763 10.8279Z" fill="#353535"/>
<path fill-rule="evenodd" clip-rule="evenodd" d="M14.8496 19.7998V14.2998L19.2496 17.0499L14.8496 19.7998Z" fill="#353535"/>
</svg>
