<svg width="74" height="74" viewBox="0 0 74 74" fill="none" xmlns="http://www.w3.org/2000/svg">
<path fill-rule="evenodd" clip-rule="evenodd" d="M53.276 1.04471C53.1522 1.07502 52.5441 1.18171 51.9248 1.28194C46.6311 2.13814 41.7409 5.71824 39.1524 10.6324C38.4477 11.9703 37.5119 14.516 37.5119 15.0952C37.5119 15.3753 37.1748 15.3818 22.4549 15.3818C9.41898 15.3818 7.2794 15.4127 6.51537 15.6115C3.92584 16.2857 1.9313 18.2856 1.25315 20.8876C0.911889 22.1967 0.917444 54.2037 1.259 55.5144C1.95818 58.1972 4.21485 60.3416 6.86804 60.8444C7.37369 60.9403 11.996 60.9976 19.2207 60.9976C30.0807 60.9976 30.7707 61.0132 30.8566 61.2602C32.8826 67.0849 38.3669 71.6992 44.5504 72.7815C46.4171 73.1083 47.0599 73.0761 47.5026 72.6334C48.0566 72.0799 47.9875 71.5038 47.2678 70.6727C45.8741 69.0632 44.8425 67.2323 44.2229 65.268C43.8682 64.1433 43.5173 62.201 43.5173 61.362V60.9976H50.1779C54.0803 60.9976 57.1729 60.9342 57.6463 60.8444C60.4086 60.3209 62.8263 57.9064 63.3352 55.1627C63.4252 54.6777 63.4852 50.4727 63.4852 44.6511V34.948L64.849 34.0717C66.3507 33.1067 68.4149 31.2379 69.4074 29.9448C72.9413 25.3403 73.9341 19.2114 72.0917 13.375C70.7525 9.13253 67.5956 5.26103 63.7658 3.16435C62.5015 2.47231 60.6164 1.78147 58.9812 1.41084C57.8179 1.14735 53.8889 0.89511 53.276 1.04471ZM59.3565 4.02295C62.2047 4.82678 64.2401 6.02585 66.2627 8.09146C68.6772 10.5573 70.0113 13.4135 70.5316 17.2307C70.9356 20.1939 70.427 23.0946 69.001 25.9604C67.5491 28.8785 64.9754 31.4508 62.0589 32.8993C56.7736 35.524 50.5759 35.0147 45.9037 31.5718C44.7912 30.7519 42.9136 28.8477 42.2156 27.8314C40.8863 25.8961 39.9001 23.253 39.5947 20.8073C39.2791 18.28 39.7579 15.1924 40.8763 12.5419C42.6734 8.28323 46.6498 4.98178 51.2492 3.92962C51.8272 3.79742 52.4353 3.65697 52.6004 3.61766C52.7656 3.57819 54.0492 3.56754 55.453 3.5938C57.6387 3.63476 58.1994 3.69643 59.3565 4.02295ZM53.6514 7.07291C47.3615 8.0451 43.2142 12.8021 43.2181 19.0397C43.2221 25.5094 47.6151 30.2762 54.1675 30.9216C55.4132 31.0442 55.8603 30.8842 56.1369 30.2168C56.2745 29.8849 56.2745 29.6886 56.1369 29.3567C55.9073 28.8026 55.5299 28.6294 54.315 28.5212C49.105 28.057 45.6192 24.2365 45.6192 18.9905C45.6192 17.2364 45.877 16.156 46.6931 14.4901C47.803 12.2247 49.7401 10.6278 52.3752 9.80596C54.0161 9.29428 56.3284 9.32399 58.017 9.87844C60.9296 10.8349 63.2246 13.1275 64.1896 16.0453C64.5558 17.1519 64.5916 17.4705 64.601 19.7075L64.6112 22.1575L64.1245 22.5928C63.2672 23.3593 62.5032 23.3596 61.6449 22.5937L61.1581 22.1593L61.0831 17.8578C61.0117 13.7756 60.9927 13.5453 60.7077 13.3371C60.5426 13.2166 60.2627 13.0816 60.0859 13.0372C59.6427 12.926 58.8535 13.3638 58.7494 13.779L58.6633 14.1215L57.7966 13.6922C56.5589 13.0791 55.1793 12.8691 53.9904 13.1133C51.9975 13.5223 50.5013 14.7014 49.6225 16.5552C49.1922 17.4628 49.1473 17.6929 49.1473 18.9908C49.1473 20.3435 49.1789 20.4877 49.7081 21.5579C50.3768 22.9102 51.2558 23.7781 52.5883 24.4012C54.596 25.3403 57.067 25.0459 58.8171 23.6591L59.1783 23.3728L59.6493 23.9898C60.1989 24.7102 61.4458 25.3953 62.449 25.5283C63.9907 25.7327 65.715 24.8098 66.5477 23.3345L67.0134 22.5092L67.0104 19.8083C67.0068 16.6434 66.79 15.6352 65.6251 13.3663C65.0562 12.2581 64.6603 11.7395 63.4927 10.5726C62.3265 9.40697 61.8057 9.00978 60.7019 8.44364C59.9555 8.06085 58.8408 7.6059 58.2246 7.43244C57.1266 7.12333 54.6067 6.92526 53.6514 7.07291ZM56.4289 15.694C57.8619 16.3422 58.5848 17.4453 58.5848 18.983C58.5848 20.5207 57.8619 21.6238 56.4289 22.272C54.7768 23.0194 52.7755 22.2649 51.884 20.5586C51.2208 19.2893 51.5546 17.4159 52.6242 16.4035C53.2339 15.8264 54.2926 15.3884 55.0777 15.3884C55.4492 15.3884 56.0573 15.526 56.4289 15.694ZM37.104 19.8458C37.2589 23.5192 38.3668 26.6445 40.5395 29.5386C45.1429 35.67 53.1911 38.4253 60.1627 36.2567L61.0936 35.9671L61.0508 45.5188L61.008 55.0706L60.6034 55.8369C60.0042 56.9723 59.5517 57.4396 58.5009 58.009L57.5549 58.5218L49.7144 58.5968L41.8738 58.6718L41.5321 59.0142C41.2132 59.3335 41.1905 59.4801 41.1938 61.19C41.1995 64.0384 41.7813 66.359 43.1205 68.8749C43.4939 69.5767 43.7817 70.1508 43.7598 70.1508C43.7378 70.1508 43.2521 69.9918 42.6803 69.7973C38.2444 68.2891 34.7317 64.8172 33.1388 60.3667C32.8798 59.643 32.5651 58.9655 32.4396 58.8613C32.2612 58.7134 29.4432 58.6553 19.5854 58.5968L6.95947 58.5218L6.19273 58.1174C5.05666 57.5185 4.58914 57.0663 4.01938 56.016L3.50637 55.0706V38.1897V21.3088L3.91098 20.5425C4.13348 20.1209 4.48254 19.5777 4.68673 19.3352C5.0969 18.848 6.3852 18.0944 7.10029 17.9233C7.35312 17.8629 14.1879 17.8064 22.2885 17.7979L37.0169 17.7826L37.104 19.8458ZM7.66945 25.0855C7.35612 25.2115 7.00301 26.0395 7.09924 26.4226C7.14819 26.6178 7.3354 26.9143 7.51512 27.0816C7.83656 27.381 8.00381 27.3859 17.8442 27.3859C27.6847 27.3859 27.8519 27.381 28.1734 27.0816C28.7775 26.5192 28.7308 25.6872 28.0665 25.1775C27.8845 25.0378 25.4711 24.9963 17.8442 25.0017C12.3531 25.0056 7.7744 25.0433 7.66945 25.0855ZM7.66945 31.0876C7.35612 31.2136 7.00301 32.0416 7.09924 32.4247C7.14819 32.6199 7.3354 32.9164 7.51512 33.0837C7.83881 33.3852 7.98204 33.388 22.6486 33.388C37.3151 33.388 37.4583 33.3852 37.782 33.0837C38.3861 32.5213 38.3394 31.6893 37.6751 31.1795C37.4913 31.0385 34.0519 30.9983 22.6486 31.0038C14.515 31.0077 7.7744 31.0454 7.66945 31.0876ZM7.66945 37.0897C7.35612 37.2157 7.00301 38.0437 7.09924 38.4268C7.14819 38.622 7.3354 38.9185 7.51512 39.0858C7.83355 39.3825 8.01747 39.3901 14.8415 39.3901C21.6656 39.3901 21.8495 39.3825 22.168 39.0858C22.7721 38.5234 22.7254 37.6914 22.0611 37.1816C21.8814 37.0437 20.1081 37.0005 14.8415 37.0059C11.0018 37.0098 7.7744 37.0475 7.66945 37.0897Z" fill="url(#paint0_linear_165_5237)" stroke="url(#paint1_linear_165_5237)" stroke-width="0.5"/>
<defs>
<linearGradient id="paint0_linear_165_5237" x1="37" y1="1" x2="37" y2="73" gradientUnits="userSpaceOnUse">
<stop stop-color="#A031F1"/>
<stop offset="1" stop-color="#D623FF"/>
</linearGradient>
<linearGradient id="paint1_linear_165_5237" x1="37" y1="1" x2="37" y2="73" gradientUnits="userSpaceOnUse">
<stop stop-color="#A031F1"/>
<stop offset="1" stop-color="#D623FF"/>
</linearGradient>
</defs>
</svg>
