<svg width="72" height="72" viewBox="0 0 72 72" fill="none" xmlns="http://www.w3.org/2000/svg">
<path fill-rule="evenodd" clip-rule="evenodd" d="M18.8479 0.233878C17.2181 0.669763 15.7252 1.91851 14.9979 3.45409C14.5312 4.43947 14.3532 5.64491 14.3497 7.84739L14.3469 9.56984H28.2015H42.0561V8.37467V7.1795H29.3777H16.6992L16.7967 6.10512C16.913 4.8215 17.3423 3.88238 18.0968 3.26061C19.1783 2.36944 18.72 2.39882 31.532 2.39882H43.1814V1.20365V0.00848259L31.4014 0.0177627C21.4972 0.0254962 19.4983 0.0599452 18.8479 0.233878ZM50.1088 0.225722C48.5578 0.643188 47.453 1.46026 46.5431 2.86255C45.6242 4.27861 45.5725 4.7602 45.5725 11.927C45.5725 15.8733 45.6299 18.5459 45.7256 19.0637C46.2222 21.7491 48.334 23.6317 51.2265 23.9674C51.9722 24.054 52.4647 24.1747 52.4647 24.2709C52.4647 24.3586 52.2748 25.3676 52.0427 26.5131C51.5324 29.032 51.5287 29.1758 51.966 29.6128C52.6412 30.2879 52.8511 30.1968 57.8799 27.0439L62.5216 24.1339L64.8424 24.0436C66.6777 23.9723 67.3338 23.8921 67.9789 23.6598C69.5774 23.0838 70.9801 21.735 71.614 20.1638C71.944 19.3459 71.9457 19.3109 71.9895 12.5226C72.0202 7.7709 71.9842 5.44876 71.871 4.86411C71.4427 2.65375 69.6859 0.795608 67.4656 0.204631C66.3938 -0.080663 51.1782 -0.0621027 50.1088 0.225722ZM67.5852 2.77312C68.2484 3.13153 68.9269 3.82094 69.2925 4.50795C69.5357 4.96492 69.5573 5.48152 69.5947 11.7324C69.6398 19.2284 69.6344 19.2794 68.7096 20.3596C67.8313 21.3852 67.2473 21.5582 64.3501 21.6512L61.8183 21.7325L58.1964 24.0102C56.2043 25.2629 54.5745 26.2347 54.5745 26.1699C54.5745 26.1051 54.7011 25.4369 54.8558 24.6852C55.2211 22.9108 55.2163 22.3974 54.8314 21.9875C54.55 21.6883 54.4091 21.6622 53.08 21.6622C52.2851 21.6622 51.314 21.5934 50.9221 21.5095C49.8939 21.289 48.9858 20.6172 48.4678 19.6936L48.034 18.9203V12.0305V5.14068L48.3629 4.47322C48.5437 4.10609 48.9479 3.5864 49.261 3.31854C50.3402 2.39503 50.1336 2.41359 59.0052 2.44283C66.9311 2.46885 67.029 2.47264 67.5852 2.77312ZM58.352 4.94763C58.0986 5.04043 57.6282 5.61833 56.8751 6.76176L55.7701 8.43964L53.4386 8.44231C51.2007 8.44484 51.0957 8.45763 50.8222 8.76135C50.0901 9.57448 50.2596 9.95047 52.2687 11.9703L53.8871 13.5974L53.3258 15.8285C52.8183 17.8459 52.7823 18.1024 52.9511 18.5061C53.0764 18.8058 53.2929 19.0069 53.6099 19.118C54.0591 19.2755 54.1976 19.2268 56.4382 18.1245L58.7942 16.9654L61.1609 18.1308L63.5274 19.296L64.0452 19.0799C64.9217 18.7137 64.9448 18.4158 64.2965 15.8287L63.7322 13.5772L65.4828 11.8075C66.6631 10.6146 67.2336 9.93641 67.2336 9.72648C67.2336 9.30859 66.8759 8.64028 66.5943 8.5323C66.4691 8.48435 65.3603 8.44498 64.1304 8.44498H61.8941L60.7745 6.77441C59.899 5.46802 59.5565 5.0694 59.2036 4.9465C58.9554 4.85989 58.7458 4.79422 58.7381 4.80027C58.7302 4.80632 58.5565 4.87268 58.352 4.94763ZM59.6393 9.41813C60.0531 10.0306 60.5414 10.6001 60.7247 10.6836C60.908 10.767 61.512 10.8353 62.067 10.8353H63.076L62.2157 11.7141C61.7423 12.1975 61.3143 12.7302 61.2644 12.898C61.2145 13.0658 61.3028 13.7091 61.4608 14.3275C61.6187 14.946 61.748 15.518 61.748 15.5986C61.748 15.6793 61.0834 15.4222 60.2711 15.0274L58.7942 14.3096L57.3173 15.0274C56.505 15.4222 55.8415 15.7004 55.8428 15.6455C55.8442 15.5905 55.9697 15.0711 56.1217 14.4911C56.5299 12.9342 56.5213 12.899 55.4657 11.8059L54.5284 10.8353H55.5294C56.08 10.8353 56.6977 10.7591 56.9021 10.666C57.1148 10.5691 57.5747 10.0279 57.9773 9.40055C58.3641 8.79762 58.7271 8.30437 58.7839 8.30437C58.8407 8.30437 59.2256 8.8055 59.6393 9.41813ZM8.87216 9.93388L8.43936 10.2979V16.7992V23.3004L8.75583 23.5853C8.92983 23.7419 9.17499 23.906 9.30059 23.95C9.42606 23.994 11.922 23.6871 14.8469 23.2679C17.7719 22.8487 20.2124 22.5058 20.2702 22.5058C20.3282 22.5058 20.3957 23.8819 20.4204 25.564C20.4705 28.9673 20.5375 29.243 21.5431 30.1884C22.5421 31.1272 22.6465 31.1486 26.4785 31.1992L29.9597 31.2452V43.8961C29.9597 57.8211 29.9196 57.1881 30.8204 57.5021C31.5245 57.7474 40.6641 57.7144 41.2628 57.4642C42.0035 57.1549 42.0665 56.8217 42.0239 53.4386L41.9858 50.4165L40.8288 50.3758L39.6717 50.335L39.6332 52.7661L39.5947 55.1972L38.4361 55.238L37.2775 55.2788L37.2405 50.4573L37.2035 45.6359H36.0079H34.8124L34.7754 50.4573L34.7384 55.2788L33.5798 55.238L32.4212 55.1972L32.3509 42.3013C32.2848 30.1688 32.2656 29.3907 32.0296 29.1545C31.8036 28.9282 31.3683 28.8966 27.6217 28.8332L23.4646 28.7629L23.1255 28.3683C22.7905 27.9787 22.7863 27.9376 22.7863 25.047V22.1203L23.5247 22.0269C23.9308 21.9756 24.464 21.898 24.7095 21.8545L25.1556 21.7755L25.2018 23.7541C25.2445 25.5936 25.2702 25.7553 25.568 26.0526L25.8883 26.3725L33.8667 26.4428C42.8597 26.5221 42.3614 26.4598 43.4476 27.638C44.2944 28.5563 44.4473 29.2589 44.4473 32.2334V34.7387H45.6568H46.8664L46.8081 31.7508C46.7556 29.0656 46.7176 28.681 46.4328 27.9558C46.0195 26.9029 45.2158 25.8474 44.3089 25.1661C43.5476 24.5943 42.0743 24.0525 41.2806 24.0525H40.8161L41.2998 23.1034C41.857 22.0104 42.0544 20.9888 42.0544 19.2015C42.0544 16.6694 41.5143 15.061 40.2344 13.7813C37.9282 11.4759 34.0877 11.4759 31.7815 13.7813C30.487 15.0755 29.9621 16.6627 29.9606 19.2878C29.9594 21.0685 30.1355 21.9535 30.7207 23.1075L31.204 24.0608L29.4214 24.0214L27.6389 23.9822L27.5686 18.9065C27.4912 13.3248 27.5168 13.4747 26.6028 13.2334C25.8952 13.0467 9.60779 9.56984 9.44027 9.56984C9.36586 9.56984 9.11015 9.73365 8.87216 9.93388ZM1.20627 10.7781C1.06772 11.3653 1.00864 11.8942 1.07503 11.9537C1.20444 12.0696 5.20765 13.085 5.53523 13.085C5.66393 13.085 5.82977 12.6961 6.01445 11.9612L6.29675 10.8373L5.78574 10.7033C4.01263 10.238 1.81587 9.71045 1.65144 9.71045C1.5264 9.71045 1.369 10.0877 1.20627 10.7781ZM18.0996 13.8578C21.8764 14.6696 25.014 15.3339 25.0719 15.3342C25.1299 15.3345 25.1774 16.2523 25.1774 17.3736C25.1774 18.495 25.1299 19.4127 25.0719 19.413C25.014 19.4133 21.8391 19.8562 18.0169 20.3972C14.1947 20.9383 11.0141 21.3809 10.9489 21.3809C10.8838 21.3809 10.8305 19.3562 10.8305 16.8815C10.8305 13.0737 10.8615 12.382 11.0316 12.382C11.1422 12.382 14.3229 13.0461 18.0996 13.8578ZM37.6958 14.8892C39.0852 15.5747 39.665 16.8442 39.665 19.2015C39.665 20.7589 39.4564 21.6648 38.9144 22.4611C37.5371 24.4846 34.4773 24.4826 33.099 22.4574C32.5033 21.5821 32.3033 20.5325 32.3796 18.682C32.4341 17.3587 32.4928 17.0733 32.8553 16.3647C33.331 15.4349 34.0823 14.8318 35.1179 14.5488C35.9846 14.312 36.7237 14.4096 37.6958 14.8892ZM0 16.8112V18.0063H2.39115H4.7823V16.8112V15.616H2.39115H0V16.8112ZM3.13972 21.0778C2.04289 21.3605 1.10288 21.6352 1.05084 21.688C0.927063 21.8139 1.42231 23.9119 1.57577 23.9119C1.64061 23.9119 2.72802 23.6532 3.99224 23.3368L6.29098 22.7617L6.0115 21.6495C5.76957 20.6866 5.69192 20.5391 5.43298 20.5505C5.26855 20.5578 4.23656 20.795 3.13972 21.0778ZM14.3497 46.1631C14.3514 58.1297 14.4061 66.2538 14.4887 66.8254C14.7467 68.6075 15.8024 70.207 17.3204 71.1152C18.8451 72.0273 18.3508 71.9999 33.2947 71.9999H46.8384V70.8047V69.6096H33.3605C18.5347 69.6096 19.1873 69.6464 18.0968 68.7478C17.8083 68.5102 17.4059 67.9899 17.2026 67.5917C16.8614 66.9235 16.8278 66.697 16.7669 64.6531L16.7009 62.4385H30.5741H44.4473V61.2441V60.0496L30.6278 60.0138L16.8084 59.9779L16.7727 43.2104L16.7369 26.4428H15.5419H14.3469L14.3497 46.1631ZM39.665 32.3428V34.7387H40.8639H42.0629L42.0243 32.3835L41.9858 30.0283L40.8254 29.9876L39.665 29.9467V32.3428ZM55.2778 38.6758C55.2778 42.7745 55.2326 46.128 55.1774 46.128C55.1221 46.128 53.1436 44.2021 50.7809 41.8482C46.8802 37.9619 46.3947 37.5254 45.5014 37.1026C44.6014 36.6766 44.4038 36.6371 43.1814 36.6383C42.0298 36.6396 41.734 36.6918 41.0409 37.0152C39.9781 37.5112 38.9685 38.4764 38.3825 39.5564C37.9239 40.4017 37.9068 40.4892 37.9068 41.98C37.9068 44.4443 37.7822 44.268 43.7894 50.3059L48.8556 55.3979L48.2079 56.7036C47.4102 58.3118 47.179 59.0056 46.891 60.6559C46.389 63.5333 47.1424 66.9791 48.8003 69.388C49.1797 69.9392 49.2296 70.1276 49.2296 71.0058V71.9999H50.4252H51.6207V70.6286C51.6207 69.2794 51.6126 69.2457 51.1165 68.5546C49.4845 66.2804 48.8266 63.5614 49.2797 60.9622C49.5366 59.4884 49.9196 58.4955 50.9068 56.7439C51.2991 56.0479 51.6202 55.3229 51.6205 55.1328C51.6206 54.8655 50.3953 53.5591 46.2132 49.3679C40.5169 43.6592 40.2372 43.3196 40.2307 42.1065C40.2211 40.331 41.4877 39.0427 43.2388 39.0468C43.7803 39.0481 44.2768 39.1413 44.5879 39.2999C44.8587 39.4381 47.9936 42.4547 51.5544 46.0037L58.0285 52.4563L58.8645 51.6117L59.7006 50.7672L58.6848 49.7449L57.6689 48.7226V39.973V31.2235H56.4734H55.2778V38.6758ZM59.9487 37.9932C59.0696 38.713 59.0664 38.7182 59.3305 39.0126C61.3965 41.3153 62.4563 42.9359 63.1101 44.7922L63.5062 45.9171L63.5456 58.9585L63.5848 71.9999H64.7763H65.9676V59.269C65.9676 48.1868 65.9387 46.3975 65.7443 45.4542C65.4641 44.0951 64.8624 42.5232 64.184 41.3785C63.6509 40.4793 61.11 37.2697 60.9309 37.2697C60.8767 37.2697 60.4348 37.5953 59.9487 37.9932ZM34.7716 65.9889L34.8124 67.1489H36.0079H37.2035L37.2443 65.9889L37.2852 64.8289H36.0079H34.7306L34.7716 65.9889Z" fill="url(#paint0_linear_165_5238)"/>
<defs>
<linearGradient id="paint0_linear_165_5238" x1="36" y1="0" x2="36" y2="72" gradientUnits="userSpaceOnUse">
<stop stop-color="#A031F1"/>
<stop offset="1" stop-color="#D623FF"/>
</linearGradient>
</defs>
</svg>
