<svg width="69" height="70" viewBox="0 0 69 70" fill="none" xmlns="http://www.w3.org/2000/svg">
<path fill-rule="evenodd" clip-rule="evenodd" d="M42.2413 0.0697991C36.9796 0.708902 32.5052 2.84221 28.9799 6.39264C26.7064 8.68252 25.3419 10.6779 24.1072 13.5185C21.708 19.0383 21.6194 25.6255 23.8716 31.0355C25.7703 35.5964 29.0902 39.4549 33.2949 41.9873C34.6039 42.7758 36.8459 43.7671 38.0928 44.1089L38.9647 44.3479V54.6737C38.9647 63.5086 38.9957 65.1198 39.179 65.8328C40.0118 69.0702 43.4553 70.7947 46.6615 69.58C47.583 69.2309 48.6488 68.3173 49.2606 67.352C50.1221 65.9924 50.1188 66.0421 50.12 54.6881L50.1211 44.3766L51.5492 43.9139C56.2732 42.3835 60.2539 39.3174 63.0979 35.0183C64.7567 32.5109 65.9571 29.5047 66.5204 26.4472C66.8744 24.5253 66.8774 20.3662 66.5259 18.5414C66.1218 16.4434 65.4885 14.5508 64.5422 12.612C61.2449 5.85674 54.9653 1.25116 47.6084 0.192481C46.2969 0.00372867 43.3415 -0.0637533 42.2413 0.0697991ZM14.1753 2.3529C11.6712 3.2591 10.4063 6.27434 11.557 8.59414C11.755 8.99324 11.8725 9.39334 11.8184 9.48355C11.7642 9.57362 10.5004 11.1278 9.0102 12.9373C6.96118 15.4251 6.24564 16.2045 6.07568 16.1338C4.55676 15.5017 2.70196 15.8322 1.36248 16.9734C1.13438 17.1678 0.734363 17.7272 0.473774 18.2165C0.0411311 19.0289 0 19.2101 0 20.3061C0 21.402 0.0411311 21.5833 0.473774 22.3956C0.999693 23.383 1.44837 23.8235 2.4542 24.3395C3.52695 24.8899 4.82376 24.9406 5.94267 24.476C6.1203 24.4022 6.55824 24.8648 7.83288 26.4724C8.74529 27.6232 9.53765 28.642 9.59343 28.7361C9.64934 28.8302 9.52064 29.2431 9.3076 29.6538C8.97005 30.304 8.92083 30.5548 8.92585 31.6002C8.93073 32.6152 8.98845 32.9113 9.30063 33.5211C9.84453 34.5841 10.2674 35.0276 11.2465 35.5623C12.051 36.0015 12.2248 36.0417 13.3101 36.0389C14.3232 36.0362 14.6008 35.9803 15.2227 35.6533C16.1464 35.1674 16.8332 34.472 17.3131 33.5367C17.6371 32.9049 17.6908 32.6296 17.6908 31.6002C17.6908 30.5768 17.6363 30.294 17.3208 29.6792C16.7782 28.6219 16.3517 28.1714 15.4153 27.6662C14.1952 27.0076 12.8364 26.922 11.6226 27.4273C11.4548 27.4972 10.9885 26.9991 9.75363 25.4309C8.84874 24.2816 8.05847 23.2752 7.9974 23.1943C7.93592 23.1128 8.07018 22.6783 8.29773 22.2214C8.85558 21.1015 8.87998 19.6249 8.35922 18.4924C8.16834 18.0772 8.05624 17.6643 8.11006 17.5748C8.16388 17.4853 9.42737 15.9315 10.9176 14.122C12.9666 11.6342 13.6821 10.8548 13.8521 10.9255C15.0694 11.4321 16.4254 11.3462 17.6508 10.6848C20.3462 9.23014 20.8939 5.69721 18.7574 3.54583C17.5147 2.29445 15.6665 1.81318 14.1753 2.3529ZM48.4829 2.64499C56.6286 4.38611 62.7638 10.7211 64.2878 18.9649C64.6454 20.8993 64.6454 24.2305 64.2878 26.1649C62.7411 34.5315 56.3602 40.9925 48.0972 42.5585C46.1837 42.9212 42.8955 42.9208 40.9864 42.5575C34.65 41.352 29.2649 37.2036 26.4868 31.3878C23.0953 24.2878 24.058 15.9642 28.988 9.76293C31.5663 6.5197 35.5981 3.90428 39.5969 2.88075C40.3635 2.68452 41.429 2.46273 41.9646 2.38805C43.5006 2.1736 46.9059 2.30786 48.4829 2.64499ZM16.4626 4.72296C17.8907 5.40921 18.2028 7.19706 17.0911 8.3228C16.1726 9.25287 14.8695 9.24087 13.9802 8.29428C12.2814 6.4861 14.2469 3.65849 16.4626 4.72296ZM42.5898 4.58277C34.8265 5.57806 28.6864 11.2809 27.0289 19.0355C26.684 20.6491 26.6812 24.5532 27.0241 26.0823C27.8797 29.8996 29.576 32.9888 32.2233 35.5514C39.4508 42.5475 50.6104 42.2709 57.4775 34.9254C61.275 30.8632 62.9777 25.4192 62.1711 19.9184C61.0744 12.4405 55.4648 6.46478 48.0157 4.83943C47.0086 4.61976 43.5703 4.45698 42.5898 4.58277ZM47.6983 7.08906C53.9031 8.45014 58.5551 13.246 59.9027 19.6708C60.133 20.7691 60.1319 24.3681 59.901 25.459C58.5138 32.0097 53.8696 36.7121 47.4001 38.1167C46.3227 38.3505 42.7683 38.3516 41.6836 38.1184C35.2352 36.7318 30.5504 31.9883 29.181 25.459C28.9516 24.3656 28.9516 20.7642 29.181 19.6708C29.8505 16.4784 31.3697 13.5867 33.5223 11.4072C35.7362 9.16548 38.8359 7.5212 41.7533 7.04106C42.3284 6.94634 42.8931 6.84596 43.0081 6.81786C43.4972 6.69843 46.7838 6.88845 47.6983 7.08906ZM49.3458 15.0056L49.0035 15.3521V20.088V24.8237H48.4458H47.8881V21.7821C47.8881 17.7493 48.1551 18.0473 44.5418 18.0473C40.9286 18.0473 41.1956 17.7493 41.1956 21.7821V24.8237H40.6379H40.0802V22.9115C40.0802 21.0693 40.0676 20.9864 39.7379 20.6527C39.3985 20.3089 39.3741 20.3061 36.7339 20.3061C34.0937 20.3061 34.0693 20.3089 33.7299 20.6527L33.3876 20.9991V25.9531V30.9071L33.7299 31.2536L34.0721 31.6002H44.5418H55.0116L55.3537 31.2536L55.696 30.9071V23.1296V15.3521L55.3537 15.0056C55.0143 14.6619 54.9899 14.6591 52.3497 14.6591C49.7096 14.6591 49.6852 14.6619 49.3458 15.0056ZM53.4652 20.8708V24.8237H52.3497H51.2343V20.8708V16.9179H52.3497H53.4652V20.8708ZM5.30841 18.2758C6.73656 18.9621 7.0486 20.7499 5.93695 21.8757C5.0184 22.8058 3.71532 22.7938 2.82605 21.8472C1.12727 20.039 3.09277 17.2114 5.30841 18.2758ZM45.6572 22.5649V24.8237H44.5418H43.4264V22.5649V20.3061H44.5418H45.6572V22.5649ZM37.8493 23.6943V24.8237H36.7339H35.6185V23.6943V22.5649H36.7339H37.8493V23.6943ZM53.4652 28.2119V29.3413H44.5418H35.6185V28.2119V27.0825H44.5418H53.4652V28.2119ZM14.2317 29.5699C15.6599 30.2562 15.9719 32.044 14.8603 33.1698C13.9417 34.0998 12.6387 34.0878 11.7494 33.1412C10.0506 31.3331 12.0161 28.5054 14.2317 29.5699ZM15.9399 38.6461C15.6593 38.8758 15.6004 39.0775 15.541 40.0097L15.4713 41.104L14.7044 41.3608C14.2826 41.502 13.5162 41.8207 13.0012 42.0691L12.0646 42.5207L11.2848 41.7739C10.1765 40.7125 10.0615 40.7534 7.84013 43.0027C5.61878 45.2519 5.57834 45.3683 6.62655 46.4905L7.36413 47.2801L6.9181 48.2284C6.67284 48.7499 6.35802 49.526 6.21859 49.953L5.96497 50.7295L4.88427 50.8001C3.26441 50.906 3.27138 50.8913 3.27138 54.1883C3.27138 57.4853 3.26441 57.4706 4.88427 57.5765L5.96497 57.6471L6.21859 58.4236C6.35802 58.8506 6.67284 59.6267 6.9181 60.1482L7.36413 61.0965L6.62655 61.8861C5.57834 63.0083 5.61878 63.1247 7.84013 65.3739C10.0615 67.6232 10.1765 67.6641 11.2848 66.6027L12.0646 65.8559L13.0012 66.3075C13.5162 66.5559 14.2826 66.8746 14.7044 67.0158L15.4713 67.2726L15.541 68.3669C15.6455 70.0071 15.631 70 18.8872 70C22.1434 70 22.1289 70.0071 22.2335 68.3669L22.3032 67.2726L23.07 67.0158C23.4918 66.8746 24.2582 66.5559 24.7733 66.3075L25.7098 65.8559L26.4896 66.6027C27.5979 67.6641 27.713 67.6232 29.9343 65.3739C32.1557 63.1247 32.1961 63.0083 31.1479 61.8861L30.4103 61.0965L30.8563 60.1482C31.1016 59.6267 31.4164 58.8506 31.5559 58.4236L31.8095 57.6471L32.8902 57.5765C34.51 57.4706 34.5031 57.4853 34.5031 54.1883C34.5031 50.8913 34.51 50.906 32.8902 50.8001L31.8095 50.7295L31.5559 49.953C31.4164 49.526 31.1016 48.7499 30.8563 48.2284L30.4103 47.2801L31.1479 46.4905C32.1961 45.3683 32.1557 45.2519 29.9343 43.0027C27.713 40.7534 27.5979 40.7125 26.4896 41.7739L25.7098 42.5207L24.7733 42.0691C24.2582 41.8207 23.4918 41.502 23.07 41.3608L22.3032 41.104L22.2335 40.0097C22.1289 38.3695 22.1434 38.3766 18.8872 38.3766C16.5185 38.3766 16.2377 38.4023 15.9399 38.6461ZM20.0026 41.5264C20.0026 42.5896 20.2514 42.946 21.1535 43.1753C22.3305 43.4747 23.7108 44.0421 24.6299 44.6044C25.7574 45.2941 26.1122 45.2684 26.9115 44.4397L27.4514 43.8799L28.2535 44.6836L29.0556 45.4874L28.4331 46.1612C28.0907 46.5318 27.8106 46.9655 27.8106 47.1249C27.8106 47.2841 28.0886 47.938 28.4284 48.578C29.1114 49.8644 29.3596 50.4726 29.6976 51.6877C30.0146 52.8278 30.3002 53.0589 31.3923 53.0589H32.2722V54.1883V55.3177H31.3923C30.3423 55.3177 29.9902 55.5696 29.7638 56.483C29.4681 57.6748 28.9077 59.0724 28.3524 60.0031C27.6713 61.1446 27.6966 61.5039 28.5151 62.3133L29.0679 62.8599L28.2742 63.6721L27.4804 64.4843L26.8149 63.8539C26.4489 63.5072 26.0206 63.2236 25.8632 63.2236C25.7059 63.2236 25.0601 63.5051 24.4281 63.8491C23.1576 64.5407 22.5569 64.792 21.3569 65.1342C20.2309 65.4553 20.0026 65.7444 20.0026 66.8502V67.7412H18.8872H17.7718V66.8502C17.7718 65.787 17.5231 65.4306 16.621 65.2013C15.4439 64.9019 14.0636 64.3345 13.1445 63.7722C12.0171 63.0825 11.6622 63.1082 10.8629 63.9369L10.323 64.4967L9.52092 63.693L8.7188 62.8893L9.34134 62.2154C9.68377 61.8448 9.96388 61.4111 9.96388 61.2518C9.96388 61.0925 9.68587 60.4386 9.34608 59.7986C8.66303 58.5122 8.41485 57.9041 8.07688 56.689C7.75982 55.5488 7.47427 55.3177 6.38214 55.3177H5.50221V54.1883V53.0589H6.38214C7.43217 53.0589 7.78422 52.807 8.01065 51.8936C8.30637 50.7018 8.86673 49.3042 9.42207 48.3736C10.1032 47.232 10.0778 46.8727 9.25936 46.0634L8.70653 45.5167L9.50029 44.7045L10.294 43.8923L10.9595 44.5227C11.3255 44.8694 11.7518 45.153 11.9065 45.153C12.0613 45.153 12.7697 44.8405 13.4809 44.4585C14.1922 44.0764 15.3293 43.5905 16.0081 43.3786C17.5798 42.8879 17.7718 42.6863 17.7718 41.5264V40.6354H18.8872H20.0026V41.5264ZM56.2874 44.4648C55.3865 44.8154 54.3413 45.8177 53.8769 46.7766C53.599 47.3502 53.5356 47.6942 53.5384 48.6119C53.5428 50.017 53.8982 50.901 54.8322 51.83C55.6487 52.642 56.6017 53.0765 57.6976 53.1367L58.5432 53.1831L60.2298 57.5033L61.9161 61.8234L61.3659 62.409C60.5147 63.315 60.2377 64.0676 60.2349 65.4824C60.2328 66.5806 60.2728 66.7578 60.7063 67.5719C61.2339 68.5627 61.6714 68.9905 62.7222 69.5433C63.3294 69.8628 63.6086 69.918 64.6193 69.918C65.636 69.918 65.9079 69.8636 66.5319 69.5355C67.4556 69.0496 68.1424 68.3542 68.6223 67.4189C68.9463 66.7871 69 66.5118 69 65.4824C69 64.459 68.9455 64.1762 68.63 63.5614C68.0845 62.4985 67.6604 62.0534 66.6993 61.5347C66.0308 61.1738 65.6337 61.0593 64.9312 61.0249L64.0255 60.9804L62.3111 56.6315C60.6425 52.3985 60.6043 52.2771 60.8745 52.0825C61.3449 51.7438 61.9354 50.7534 62.1848 49.8843C63.2036 46.3357 59.716 43.1307 56.2874 44.4648ZM44.5418 45.1324C45.5771 45.1324 46.7536 45.085 47.1561 45.0268L47.8881 44.9214V47.296V49.6707H44.5418H41.1956V47.296V44.9214L41.9276 45.0268C42.3301 45.085 43.5066 45.1324 44.5418 45.1324ZM17.1132 46.4958C14.1102 47.1565 11.633 49.8855 11.1878 53.0236C10.2894 59.3553 16.6915 64.0614 22.3566 61.2335C23.9374 60.4444 25.0658 59.3018 25.8452 57.7012C28.763 51.7085 23.5902 45.0707 17.1132 46.4958ZM58.8484 46.511C60.2766 47.1973 60.5886 48.9851 59.477 50.1109C58.5584 51.0409 57.2554 51.0289 56.3661 50.0823C54.6673 48.2742 56.6328 45.4465 58.8484 46.511ZM20.3345 48.7546C21.4135 49.0391 22.2382 49.548 22.9871 50.3914C24.1687 51.7222 24.6562 53.389 24.3657 55.1057C24.1523 56.3679 23.7104 57.2261 22.7989 58.149C21.8874 59.072 21.0398 59.5194 19.7932 59.7355C18.0664 60.0351 16.4268 59.5291 15.0772 58.2803C12.8942 56.2601 12.7402 52.6214 14.7444 50.4196C16.1949 48.8262 18.2665 48.2091 20.3345 48.7546ZM47.8584 58.6819L47.8184 65.4344L47.3965 66.1252C47.135 66.5532 46.7148 66.9787 46.2919 67.2434C45.6878 67.6215 45.4867 67.6706 44.5418 67.6706C43.5969 67.6706 43.3959 67.6215 42.7917 67.2434C42.3689 66.9787 41.9486 66.5532 41.6872 66.1252L41.2653 65.4344L41.2253 58.6819L41.1853 51.9295H44.5418H47.8984L47.8584 58.6819ZM65.5409 63.4521C66.9691 64.1384 67.2811 65.9262 66.1695 67.052C65.2509 67.982 63.9479 67.97 63.0586 67.0234C61.3598 65.2153 63.3253 62.3877 65.5409 63.4521Z" fill="white"/>
</svg>
