<svg width="65" height="82" viewBox="0 0 65 82" fill="none" xmlns="http://www.w3.org/2000/svg">
<path fill-rule="evenodd" clip-rule="evenodd" d="M31.741 0.247476C31.5995 0.406691 31.0069 1.48694 30.424 2.64824C29.4303 4.62814 29.3312 4.76516 28.8302 4.85007C28.5365 4.89977 27.3501 5.0614 26.194 5.20919C23.8987 5.5027 23.5261 5.67703 23.5261 6.45766C23.5261 6.85876 23.8531 7.27175 25.448 8.88529L27.3699 10.8295L26.968 13.384C26.5413 16.0952 26.5868 16.6995 27.2174 16.6995C27.3839 16.6995 28.5756 16.1567 29.8656 15.4934C31.1555 14.83 32.2969 14.2872 32.4022 14.2872C32.5074 14.2872 33.5432 14.83 34.7039 15.4934C35.8646 16.1567 36.9784 16.6995 37.1787 16.6995C37.6714 16.6995 38.0803 16.2137 38.0693 15.6415C38.0645 15.3832 37.8952 14.1349 37.6932 12.8676L37.3258 10.5633L39.135 8.84701C40.1301 7.90298 41.027 6.97246 41.1282 6.77915C41.3352 6.38401 41.1356 5.64454 40.7891 5.52232C40.6766 5.48275 39.4206 5.30392 37.9977 5.12508C36.575 4.94625 35.3893 4.74538 35.3629 4.67864C35.3366 4.6119 34.7907 3.54419 34.1501 2.30585C33.0669 0.212417 32.9505 0.0509503 32.4918 0.00624151C32.1727 -0.0247974 31.9074 0.0605998 31.741 0.247476ZM33.1384 4.43676C33.482 5.2108 33.8886 5.97793 34.0417 6.14181C34.2471 6.36117 34.8149 6.50704 36.1993 6.69616C37.2329 6.83737 38.0784 7.00382 38.0784 7.06606C38.0784 7.1283 37.5339 7.6849 36.8684 8.30295C36.2031 8.92115 35.5919 9.60143 35.5104 9.81469C35.4088 10.08 35.4624 10.7515 35.6795 11.9398C35.8541 12.8953 35.9597 13.714 35.9141 13.7595C35.8684 13.8049 35.1343 13.4718 34.2828 13.0192C33.4313 12.5667 32.5896 12.1965 32.4122 12.1965C32.235 12.1965 31.356 12.5628 30.459 13.0106C29.5619 13.4583 28.7995 13.7963 28.7648 13.7616C28.73 13.727 28.8488 12.9084 29.0288 11.9425C29.2088 10.9765 29.3177 10.0294 29.271 9.83768C29.2241 9.64598 28.6037 8.96618 27.8921 8.32707C27.1805 7.68796 26.5983 7.11527 26.5983 7.05432C26.5983 6.99353 27.4452 6.86117 28.4803 6.76017C29.7153 6.63988 30.4554 6.49304 30.6329 6.33319C30.7819 6.19922 31.2176 5.40105 31.6013 4.55963C31.985 3.71804 32.3472 3.02956 32.4064 3.02956C32.4654 3.02956 32.7948 3.66288 33.1384 4.43676ZM12.8826 11.3422C12.7646 11.389 12.1235 12.5231 11.4578 13.8624C10.7921 15.2016 10.1974 16.348 10.1361 16.4096C10.075 16.4712 8.87299 16.7005 7.46498 16.9192C3.51857 17.5323 3.45567 17.7177 6.24954 20.5033L8.21442 22.4621L7.83767 24.8949C7.41146 27.648 7.46853 28.164 8.20876 28.2492C8.45178 28.2772 8.6505 28.2391 8.6505 28.1643C8.6505 28.0895 9.6753 27.5239 10.9278 26.9071L13.2049 25.786L15.4955 26.9678C18.0102 28.2651 18.5939 28.3782 18.9426 27.6355C19.0945 27.3122 19.0518 26.7325 18.7247 24.6797L18.3177 22.1262L20.1943 20.2547C22.9513 17.5054 22.869 17.2684 18.9407 16.6434C17.5303 16.419 16.3601 16.2132 16.3404 16.186C16.3205 16.1588 15.8509 15.1958 15.2968 14.0459C14.0274 11.4115 13.6819 11.0246 12.8826 11.3422ZM50.8066 11.5934C50.6586 11.704 50.054 12.8076 49.4632 14.0459C48.8724 15.2843 48.3749 16.3139 48.3577 16.3338C48.329 16.3674 43.3676 17.182 43.1919 17.182C42.9621 17.182 42.6057 17.7421 42.6057 18.1033C42.6057 18.4182 43.064 18.9806 44.4946 20.4215L46.3836 22.3237L46.0276 24.6177C45.8318 25.8795 45.673 27.0996 45.6748 27.3291C45.6783 27.8159 46.128 28.2788 46.5972 28.2788C46.7777 28.2788 47.9724 27.7394 49.2524 27.0803L51.5796 25.8817L53.8735 27.0803C55.1352 27.7394 56.3104 28.2788 56.4852 28.2788C57.12 28.2788 57.1743 27.5339 56.7384 24.804L56.3369 22.2904L58.2835 20.4456C59.8393 18.971 60.2301 18.513 60.2301 18.1633C60.2301 17.3399 59.9914 17.2317 57.2034 16.7917C55.7611 16.5641 54.5371 16.3779 54.4834 16.3779C54.4297 16.3779 53.9101 15.3829 53.3286 14.1666C52.7472 12.9504 52.1591 11.8287 52.0217 11.6738C51.7293 11.3443 51.1877 11.3086 50.8066 11.5934ZM14.3052 16.192C14.8593 17.319 15.2254 17.8734 15.4782 17.9679C15.6804 18.0435 16.5551 18.2318 17.4223 18.3864C18.2894 18.5409 18.9988 18.7146 18.9988 18.7725C18.9988 18.8304 18.3803 19.4896 17.6244 20.2376C16.8017 21.0516 16.2502 21.7281 16.2505 21.9227C16.2508 22.1016 16.392 22.97 16.564 23.8526C16.7362 24.7351 16.8487 25.4853 16.8143 25.5197C16.7797 25.554 16.0547 25.2119 15.2032 24.7593C14.3517 24.3068 13.4566 23.9388 13.2142 23.9417C12.9719 23.9444 12.0855 24.3032 11.2444 24.7391C10.4032 25.1751 9.68484 25.5014 9.64765 25.4644C9.58346 25.4005 10.0394 22.5699 10.2124 21.9584C10.2706 21.7526 9.869 21.2376 8.82205 20.1759L7.34985 18.6826L9.09159 18.3903C10.0496 18.2296 10.9908 18.0408 11.1834 17.9708C11.4069 17.8896 11.8664 17.2261 12.4541 16.1365C12.9604 15.1976 13.4028 14.4573 13.4372 14.4914C13.4715 14.5257 13.8621 15.2909 14.3052 16.192ZM52.2188 15.9509C52.6046 16.7775 53.0976 17.5926 53.3142 17.7622C53.5697 17.962 54.3471 18.1762 55.5229 18.3708L57.3373 18.6709L55.9542 20.0768C54.3722 21.6849 54.3974 21.5914 54.8778 24.0572C55.0372 24.8755 55.1434 25.5448 55.1137 25.5448C55.0839 25.5448 54.2333 25.1357 53.2232 24.6357L51.387 23.7265L49.6642 24.6214C48.7167 25.1135 47.9428 25.4684 47.9443 25.4099C47.9459 25.3513 48.0547 24.6522 48.1863 23.8562C48.5683 21.5443 48.6042 21.6632 47.0459 20.0794L45.6652 18.676L47.4097 18.3891C48.3692 18.2312 49.2998 18.013 49.4776 17.9038C49.6555 17.7947 50.1619 16.9726 50.603 16.0768C51.0441 15.1809 51.4304 14.448 51.4612 14.448C51.4921 14.448 51.8331 15.1243 52.2188 15.9509ZM3.63806 31.0006C2.23716 31.2831 0.934577 32.3003 0.341816 33.5747C0.000646532 34.3084 0 34.3405 0 51.4373C0 67.5653 0.0169776 68.6009 0.289751 69.1789C0.707562 70.0643 1.75581 71.1316 2.63493 71.5661L3.39552 71.9423L23.4624 71.9862L43.5295 72.0299L42.2536 76.6296C41.0538 80.955 40.9927 81.252 41.2296 81.6115C41.7829 82.4516 41.9992 82.3389 50.0418 77.0227L57.5622 72.0516L59.5041 71.9814C60.9825 71.9278 61.6213 71.8339 62.1803 71.588C63.241 71.1213 64.0334 70.3619 64.5489 69.318L65 68.4042V51.4373V34.4705L64.6281 33.7196C64.1741 32.8027 63.0524 31.7466 62.0372 31.2799L61.2811 30.9324L32.7425 30.9094C17.0463 30.8967 3.94932 30.9377 3.63806 31.0006ZM61.4714 33.1173C61.8546 33.3018 62.3324 33.6818 62.5331 33.9616L62.898 34.4705L62.9426 51.0353C62.992 69.3098 63.0346 68.4857 61.9921 69.3583C61.3108 69.9286 60.5538 70.0909 58.5713 70.0919L56.8317 70.0928L50.2691 74.4463C46.6597 76.8408 43.6832 78.7768 43.6551 78.7483C43.6268 78.72 44.1135 76.9032 44.7365 74.7109C45.8169 70.9098 45.8573 70.7065 45.6082 70.3284L45.347 69.932H24.7299C7.68278 69.932 4.02127 69.894 3.58486 69.7126C2.91675 69.435 2.24218 68.6438 2.01743 67.8743C1.8968 67.4613 1.85832 62.2368 1.89179 50.846C1.94014 34.462 1.94127 34.4123 2.27856 33.9595C2.46466 33.7098 2.85741 33.3428 3.15137 33.1437L3.68592 32.7818H32.2303H60.7748L61.4714 33.1173ZM11.4457 36.9542C5.88687 38.9793 5.59032 46.6938 10.9748 49.2001C14.8743 51.015 19.3291 48.5756 20.1435 44.1795C20.6608 41.387 19.1182 38.4851 16.4562 37.2432C15.5027 36.7982 15.1618 36.7267 13.8246 36.6897C12.6349 36.6567 12.0986 36.7164 11.4457 36.9542ZM15.8652 38.9406C17.4443 39.7403 18.2566 41.1469 18.2527 43.0745C18.2508 43.9943 18.1635 44.4592 17.885 45.0321C17.1207 46.6044 15.7413 47.5649 14.0537 47.6996C10.969 47.9459 8.49155 45.1146 9.12716 42.0692C9.46073 40.4713 10.5596 39.226 12.1597 38.6329C13.1049 38.2825 14.8522 38.4275 15.8652 38.9406ZM24.8197 39.0539C24.6418 39.2309 24.4963 39.489 24.4963 39.6274C24.4963 39.937 24.8054 40.5401 25.046 40.7C25.1438 40.7649 32.4402 40.8191 41.26 40.8206L57.2962 40.823L57.6341 40.3957C58.0182 39.9102 57.9566 39.4499 57.4493 39.0137C57.1424 38.7498 56.1283 38.7323 41.1326 38.7323C25.3586 38.7323 25.1387 38.7366 24.8197 39.0539ZM24.8197 45.4869C24.6418 45.6638 24.4963 45.9219 24.4963 46.0604C24.4963 46.37 24.8054 46.973 25.046 47.1329C25.1438 47.1979 32.4402 47.2521 41.26 47.2535L57.2962 47.2559L57.6341 46.8286C58.0182 46.3431 57.9566 45.8828 57.4493 45.4467C57.1424 45.1828 56.1283 45.1652 41.1326 45.1652C25.3586 45.1652 25.1387 45.1696 24.8197 45.4869ZM13.1779 55.7796C13 55.9565 12.8545 56.2146 12.8545 56.3531C12.8545 56.6626 13.1636 57.2657 13.4042 57.4256C13.5021 57.4905 23.4595 57.5447 35.5317 57.5462C57.2674 57.5486 57.4844 57.5456 57.8047 57.227C57.9826 57.0501 58.1281 56.7244 58.1281 56.5033C58.1281 56.2821 57.9826 55.9565 57.8047 55.7796C57.4846 55.4611 57.2658 55.4579 35.4913 55.4579C13.7168 55.4579 13.498 55.4611 13.1779 55.7796ZM13.1779 62.2125C13 62.3894 12.8545 62.6475 12.8545 62.786C12.8545 63.0956 13.1636 63.6986 13.4042 63.8585C13.5021 63.9235 23.4595 63.9777 35.5317 63.9791C57.2674 63.9815 57.4844 63.9785 57.8047 63.6599C57.9826 63.483 58.1281 63.1573 58.1281 62.9362C58.1281 62.7151 57.9826 62.3894 57.8047 62.2125C57.4846 61.894 57.2658 61.8908 35.4913 61.8908C13.7168 61.8908 13.498 61.894 13.1779 62.2125Z" fill="white"/>
</svg>
