<svg width="91" height="83" viewBox="0 0 91 83" fill="none" xmlns="http://www.w3.org/2000/svg">
<path d="M16.6663 24.3044L11.2982 22.5296L9.50822 17.2325C9.3699 16.8784 9.03187 16.638 8.64727 16.6221C8.25728 16.6221 7.91115 16.8677 7.78632 17.2325L5.99701 22.5296L0.618739 24.3044C0.247647 24.4249 -0.00269003 24.7684 2.1817e-05 25.1539C0.01689 25.5333 0.25979 25.8668 0.618739 26.0033L5.99701 27.7687L7.76749 33.0658C7.89231 33.4293 8.23845 33.6743 8.62844 33.6743C9.01776 33.6743 9.36389 33.4293 9.48872 33.0658L11.278 27.7694L16.6461 26.004L16.6468 26.0033C17.0206 25.8835 17.2736 25.5413 17.2756 25.1539C17.2824 24.7698 17.0361 24.4256 16.6663 24.3044L16.6663 24.3044ZM10.2922 26.213H10.2916C10.0203 26.2988 9.80778 26.5085 9.72074 26.7762L8.64727 29.9542L7.57379 26.7762C7.47393 26.5132 7.26139 26.3075 6.99352 26.213L3.77246 25.1538L6.99352 24.0947C7.26341 23.9981 7.47595 23.7884 7.57379 23.5222L8.64727 20.3441L9.70187 23.5222C9.79768 23.7864 10.0062 23.9955 10.2727 24.0947L13.4937 25.1538L10.2922 26.213Z" fill="white"/>
<path d="M90.3652 30.7963L84.9869 29.0309L83.2164 23.7244C83.0923 23.3596 82.7461 23.1139 82.3555 23.1133C81.9716 23.1299 81.6329 23.3696 81.4952 23.7244L79.7059 29.0309L74.3276 30.7963C73.9586 30.9194 73.7109 31.2609 73.7109 31.6457C73.7109 32.0298 73.9586 32.3714 74.3276 32.4945L79.7059 34.2599L81.4952 39.5664C81.6329 39.9212 81.9716 40.1609 82.3555 40.1775C82.7461 40.1768 83.0923 39.9312 83.2164 39.5664L85.0057 34.2599L90.384 32.4945C90.7531 32.3714 91.0007 32.0298 91.0007 31.6457C91.0007 31.2609 90.7531 30.9194 90.384 30.7963H90.3652ZM83.9911 32.7048H83.9905C83.7226 32.7994 83.5101 33.0051 83.4102 33.268L82.3367 36.4555L81.2821 33.268C81.1957 32.9998 80.9832 32.79 80.7113 32.7048L77.4902 31.6457L80.7113 30.5865V30.5859C80.9832 30.5007 81.1957 30.291 81.2821 30.0227L82.3556 26.8353L83.4291 30.0227H83.4297C83.5296 30.2856 83.7421 30.492 84.01 30.5859L87.2311 31.645L83.9911 32.7048Z" fill="white"/>
<path d="M48.1217 35.6052C48.3687 35.6065 48.6014 35.4933 48.7505 35.2996C49.289 34.5487 49.6857 33.7086 49.9212 32.8184C49.9927 32.4123 49.7377 32.0202 49.3342 31.9157C48.9307 31.8112 48.513 32.0296 48.3734 32.4177C48.1946 33.0994 47.8963 33.7451 47.4935 34.3262C47.223 34.6691 47.283 35.1637 47.6285 35.4333C47.7681 35.5445 47.9422 35.6051 48.1217 35.6051L48.1217 35.6052Z" fill="white"/>
<path d="M45.8572 38.6198C45.5442 38.3129 45.0388 38.3129 44.7251 38.6198C44.0362 39.4946 42.8007 39.7382 41.8237 39.1923C41.4337 38.9554 40.9223 39.0752 40.6821 39.46C40.4419 39.8447 40.5627 40.3487 40.9526 40.5857C41.537 40.9339 42.2056 41.1183 42.8877 41.1203C44.028 41.1076 45.1089 40.6143 45.8571 39.7655C46.0157 39.6157 46.1047 39.4087 46.1047 39.1923C46.1047 38.976 46.0157 38.7696 45.8571 38.6198H45.8572Z" fill="white"/>
<path d="M63.0283 63.2338V56.7151C63.9945 56.781 64.9492 56.9601 65.8723 57.2497C66.3291 57.3602 66.7953 57.1092 66.9485 56.6705C67.1016 56.2325 66.8911 55.7512 66.462 55.5608C65.35 55.2013 64.1963 54.9796 63.0283 54.9017V52.8594C63.0546 52.6071 62.9716 52.3554 62.7996 52.1664C62.6269 51.978 62.3812 51.8701 62.1242 51.8701C61.8664 51.8701 61.6215 51.978 61.4488 52.1664C61.276 52.3554 61.193 52.6071 61.2194 52.8594V54.9977C60.1776 55.1095 59.1926 55.5209 58.3856 56.1806C57.1569 57.2611 56.5975 58.9014 56.9153 60.4944C57.1286 61.3911 57.5894 62.2119 58.2466 62.8657C58.9044 63.5194 59.7323 63.9801 60.6392 64.1977L61.2195 64.4075V71.2697C59.9166 71.1565 58.6629 70.7232 57.5733 70.0095C57.2353 69.6873 56.7043 69.6713 56.348 69.9736C55.9918 70.2758 55.927 70.7964 56.1996 71.1738C56.8959 71.9854 59.1016 72.8628 61.2195 73.0824V75.1156C61.1931 75.3685 61.2761 75.6202 61.4489 75.8086C61.6216 75.9976 61.8665 76.1048 62.1243 76.1048C62.3813 76.1048 62.6269 75.9976 62.7997 75.8086C62.9717 75.6202 63.0547 75.3685 63.0284 75.1156V73.0352C64.3947 72.9327 65.666 72.3056 66.5687 71.2884C67.5248 70.2592 67.8729 68.8145 67.4876 67.4712C67.0039 65.8489 65.4081 64.3411 63.0285 63.234L63.0283 63.2338ZM61.2193 62.5368C60.6208 62.409 60.0689 62.1214 59.6236 61.706C59.1789 61.2906 58.8578 60.7627 58.6951 60.1795C58.5157 59.2169 58.8476 58.2302 59.575 57.5645C60.05 57.1857 60.6168 56.9361 61.2193 56.8396V62.5368ZM65.1751 70.1719H65.1758C64.6232 70.787 63.8567 71.1752 63.0281 71.2597V65.247V65.2477C64.2534 65.8022 65.223 66.7895 65.7465 68.015C65.951 68.7832 65.735 69.6007 65.1757 70.1719L65.1751 70.1719Z" fill="white"/>
<path d="M76.4935 63.234V56.7154C77.4597 56.7819 78.4137 56.9617 79.3375 57.2499C79.5703 57.3538 79.8368 57.3558 80.0716 57.2553C80.3057 57.1554 80.4872 56.963 80.5702 56.724C80.6539 56.4857 80.6316 56.2241 80.5088 56.0024C80.3867 55.7814 80.1755 55.6209 79.9272 55.561C78.8146 55.2028 77.6615 54.9812 76.4935 54.902V52.8596C76.4935 52.3643 76.0867 51.9629 75.584 51.9629C75.082 51.9629 74.6751 52.3643 74.6751 52.8596V54.9979C73.6334 55.1097 72.6476 55.5211 71.8407 56.1809C70.6167 57.2647 70.0588 58.9024 70.3704 60.4946C70.5735 61.4493 71.338 63.2906 74.1043 64.1974L74.6751 64.4071V71.27C73.3716 71.1569 72.1179 70.7235 71.0283 70.0098C70.6855 69.7262 70.1842 69.7316 69.8469 70.0212C69.5095 70.3114 69.4366 70.8007 69.6741 71.1742C70.3806 71.9857 72.5762 72.8631 74.694 73.0827V75.1159C74.694 75.6112 75.1015 76.0133 75.6035 76.0133C76.1055 76.0133 76.5131 75.6112 76.5131 75.1159V73.0355C77.876 72.9323 79.1444 72.3052 80.0433 71.2887C81.0257 70.2735 81.3927 68.8228 81.0109 67.4716C80.4596 65.8492 78.8631 64.3414 76.4936 63.2343L76.4935 63.234ZM74.6752 62.537C74.076 62.4092 73.5241 62.1216 73.0795 61.7062C72.6341 61.2908 72.313 60.7629 72.1504 60.1798C71.9736 59.2151 72.3096 58.2286 73.0403 57.5648C73.5086 57.176 74.072 56.9157 74.6752 56.8112L74.6752 62.537ZM78.631 70.1722C78.0825 70.7873 77.3194 71.1761 76.4935 71.2599V65.2472V65.2479C77.7168 65.8018 78.683 66.7897 79.2019 68.0152C79.407 68.7835 79.1904 69.601 78.6311 70.1721L78.631 70.1722Z" fill="white"/>
<path d="M72.302 45.2152V16.2314C72.2999 15.109 71.8458 14.0338 71.0409 13.241C70.2359 12.4488 69.1448 12.0034 68.0074 12.0034H47.6374L47.9276 11.1447L53.3059 9.36987L53.3052 9.36921C53.6769 9.24938 53.9273 8.90586 53.9246 8.51975C53.9077 8.14029 53.6648 7.80677 53.3052 7.67096L47.9269 5.90555L46.1383 0.608461C46.0128 0.244319 45.6667 0 45.2773 0C44.8874 0 44.5412 0.244319 44.4164 0.608461L42.5879 5.90487L37.2096 7.67028V7.67094C36.8507 7.80675 36.6077 8.14027 36.5909 8.51973C36.5882 8.90584 36.8385 9.24935 37.2096 9.36919L42.5879 11.1447L42.878 12.0034H23.2421C22.1066 12.0061 21.0182 12.4521 20.2154 13.2443C19.4118 14.0372 18.9597 15.111 18.957 16.2313V73.0929C18.9597 74.2133 19.4118 75.2871 20.2154 76.0793C21.0183 76.8721 22.1066 77.3181 23.2421 77.3208H54.6409C58.9443 81.6226 65.0585 83.659 71.1238 82.811C77.1895 81.9629 82.4895 78.3301 85.4117 73.0183C88.3347 67.7059 88.5344 61.3416 85.9502 55.8619C83.366 50.3817 78.3042 46.4327 72.3032 45.2157L72.302 45.2152ZM40.3816 8.51977L43.6121 7.46062H43.6128C43.8773 7.36409 44.0851 7.15839 44.1836 6.89743L45.2571 3.71938L46.3306 6.89743C46.4176 7.16571 46.6302 7.37541 46.9014 7.46062L50.1225 8.51977L46.9014 9.57891V9.57958C46.6349 9.6781 46.4264 9.88781 46.3306 10.1521L45.2571 13.3301L44.1836 10.1521C44.0878 9.88781 43.8793 9.67812 43.6128 9.57958L40.3816 8.51977ZM23.2416 75.5352C22.5851 75.5352 21.9549 75.2776 21.4907 74.8195C21.0264 74.3615 20.7654 73.7398 20.7654 73.092V16.2303C20.7654 15.5826 21.0265 14.9608 21.4907 14.5028C21.9549 14.0447 22.5851 13.7871 23.2416 13.7871H43.5546L44.454 16.4399C44.5795 16.8041 44.9256 17.0484 45.315 17.0484C45.7043 17.0484 46.0504 16.8041 46.1759 16.4399L47.0659 13.7871H68.0076C68.6648 13.7871 69.2943 14.0448 69.7585 14.5028C70.2234 14.9608 70.4839 15.5826 70.4839 16.2303V44.9381C69.8415 44.8742 69.1958 44.8422 68.5495 44.8422C67.7863 44.8469 67.0239 44.8948 66.2669 44.9854V19.0555C66.2669 18.5642 65.8654 18.1641 65.3668 18.1588H25.8152C25.3125 18.1588 24.9057 18.5602 24.9057 19.0555V70.2676C24.9057 70.7636 25.3125 71.165 25.8152 71.165H50.538C51.1911 72.7221 52.0426 74.1913 53.0722 75.536L23.2416 75.5352ZM43.2644 45.7487C42.9898 45.5217 42.5971 45.4983 42.2969 45.6914C41.3657 46.1621 40.3948 46.5515 39.3948 46.8557C38.9212 45.262 37.0151 43.926 35.9126 43.2576C37.9422 41.6865 39.6439 39.7419 40.9231 37.5317C42.359 37.2315 43.5526 36.2536 44.1152 34.9168C44.4242 34.8043 44.7562 34.7683 45.0827 34.8116C45.0827 35.0026 45.0247 35.1358 45.0052 35.193V35.1937C44.9505 35.4067 44.9876 35.6331 45.1091 35.8181C45.2298 36.0032 45.4228 36.1297 45.6428 36.1683C45.8627 36.2069 46.0881 36.1537 46.2662 36.0212C46.445 35.8887 46.559 35.689 46.582 35.47C46.7945 34.2677 47.4335 32.0915 48.2263 31.3851C49.6189 30.1442 50.0736 30.2587 50.0838 30.2587C50.0932 30.2587 50.5386 30.6688 50.5386 33.303C50.5386 34.7822 49.6682 35.3261 48.6715 35.9558V35.9564C47.9961 36.3073 47.4213 36.8192 46.9975 37.4457C46.8943 37.6274 46.8687 37.8431 46.9267 38.0435C46.9847 38.2445 47.1217 38.4136 47.3072 38.5141C47.4914 38.6193 47.7107 38.6459 47.9145 38.5887C48.1189 38.5308 48.291 38.3936 48.3908 38.2092C48.6668 37.8571 49.017 37.5675 49.4157 37.3598L50.0446 37.7698C49.7126 38.1926 49.496 38.6919 49.4157 39.2204C49.411 39.265 49.411 39.3096 49.4157 39.3542C49.2936 41.203 48.7019 42.9917 47.6945 44.5555C47.1345 45.4722 46.5111 46.3489 45.8275 47.1804C45.586 47.4667 45.3053 47.8008 44.8599 48.4399C44.6595 48.7195 44.6265 49.0837 44.7729 49.3946C44.9531 49.6635 45.2587 49.8253 45.5853 49.8239H45.7303C47.3321 49.3733 48.8408 48.6496 50.1895 47.6856C49.1032 49.276 47.8516 50.7505 46.4563 52.0853C46.1709 52.3183 46.0906 52.7164 46.2627 53.0399C46.3956 53.3169 46.6776 53.4946 46.988 53.4979H47.075C48.1006 53.3541 49.1113 53.1178 50.0931 52.7916C49.9184 53.0819 49.7146 53.3535 49.4839 53.6031C48.8732 54.2236 48.1803 54.7601 47.4232 55.1969L46.9975 55.4831C46.6196 55.7261 46.4401 56.1801 46.5515 56.6115C46.6635 57.0436 47.0406 57.3571 47.4914 57.3917C47.88 57.4303 48.2707 57.4496 48.6613 57.449C49.2193 57.4416 49.7753 57.3904 50.3252 57.2965C50.0931 57.8977 49.8994 58.5088 49.7254 59.1386H49.6478C48.8064 59.3104 47.907 59.5108 47.0069 59.7111C43.9505 60.4081 40.149 61.2669 39.1329 60.2743C38.8427 59.9881 38.7847 59.4535 38.9493 58.6806C39.3171 57.0489 42.0835 50.0916 43.4956 46.6365L43.4962 46.6358C43.6251 46.3256 43.5394 45.9688 43.283 45.7484L43.2644 45.7487ZM37.9442 47.371L37.1217 47.6286C36.418 47.9069 35.6461 47.9748 34.9032 47.8237C34.1603 47.6726 33.4788 47.3098 32.943 46.7792C32.58 46.4596 32.352 46.0169 32.3047 45.539C33.08 45.1648 33.8296 44.7408 34.5488 44.2694C35.816 44.9185 37.7504 46.3118 37.9637 47.371L37.9442 47.371ZM39.9656 31.71L40.7686 32.4356V32.4349C40.4332 33.128 39.7612 33.6033 38.9886 33.6951C38.8341 33.4089 38.6694 33.1033 38.5149 32.7978C39.1242 32.6367 39.6451 32.2459 39.9656 31.71H39.9656ZM37.7506 31.2992C37.3248 30.4212 36.9382 29.5717 36.6575 28.8753C37.2573 29.3333 37.9921 29.9538 38.7472 30.6215V30.6221C38.646 31.0702 38.2115 31.3657 37.7506 31.2992L37.7506 31.2992ZM41.9487 33.5514L42.7227 34.3149V34.3156C42.5209 34.7803 42.1977 35.1837 41.7868 35.4859C41.3759 35.7875 40.8908 35.9766 40.382 36.0332C40.2275 35.8041 40.0339 35.4986 39.8112 35.1265C40.6904 34.8682 41.4481 34.3103 41.9487 33.552V33.5514ZM53.8367 41.6638C53.1113 43.9352 49.9679 46.1494 47.7816 47.3904C48.0718 46.9896 48.4685 46.4358 49.0974 45.4818H49.0967C50.2518 43.691 50.9178 41.6367 51.0318 39.517C51.0547 39.1083 51.2983 38.7441 51.6701 38.5624C52.2429 38.4932 52.813 38.7115 53.1882 39.1449C53.5222 39.4644 53.759 39.8692 53.8737 40.3139C53.9884 40.7586 53.9749 41.2259 53.8366 41.664L53.8367 41.6638ZM55.3649 42.1412C55.427 41.9281 55.4756 41.7111 55.51 41.4921C56.1382 41.6252 56.711 41.9408 57.1543 42.3988C57.3466 42.6491 57.4174 42.9706 57.3479 43.2769C57.0092 45.3858 55.7131 47.094 52.5696 49.6803V49.681C51.6324 50.406 50.5662 50.9532 49.4261 51.2934C51.0251 49.6637 52.2464 47.7099 53.0048 45.5675C54.0588 44.6288 54.8684 43.4532 55.365 42.1411L55.3649 42.1412ZM49.9867 55.502C50.2282 55.2823 50.4893 55.0346 50.7606 54.7477V54.7484C51.5183 53.9156 52.1006 52.9422 52.473 51.8851C52.4879 51.8032 52.4879 51.7194 52.473 51.6368C52.8515 51.4151 53.2139 51.1668 53.556 50.8925C56.5348 48.4686 58.0151 46.6553 58.644 44.5935V44.5942C59.0684 44.6142 59.4807 44.7387 59.8437 44.9564C60.6756 45.4523 60.8113 45.911 60.8113 46.3876L60.8106 46.3883C56.7204 48.1404 53.3609 51.2227 51.2928 55.1204C50.8786 55.3175 50.4393 55.4586 49.9866 55.5405L49.9867 55.502ZM60.8011 43.4485C60.2357 43.113 59.6007 42.9072 58.9435 42.8473C58.9125 42.3454 58.731 41.8634 58.4213 41.4633C57.642 40.6092 56.5847 40.0493 55.4322 39.8796C55.25 39.1593 54.8762 38.5002 54.3493 37.9703C53.6658 37.24 52.6854 36.8513 51.6794 36.9112L50.8475 36.348C51.7374 35.5724 52.23 34.4461 52.1922 33.2751C52.1922 31.3665 52.0856 29.362 50.7895 28.7988C49.4933 28.2356 48.1681 29.3427 47.2202 30.1921C46.4098 31.0622 45.835 32.1187 45.5469 33.2657C45.0064 33.1439 44.443 33.1632 43.912 33.3229C42.2387 31.4808 36.7249 26.3849 35.4968 26.5088C35.0016 26.5494 34.6318 26.9741 34.6649 27.4627C34.6649 29.1709 37.9637 35.5365 39.3272 37.2547C37.4636 40.2332 34.7796 42.6264 31.5887 44.1548C30.7534 44.6574 30.4822 45.7286 30.9795 46.56C31.5564 47.7383 32.5597 48.6603 33.7917 49.1443C35.0237 49.6283 36.3947 49.6389 37.6342 49.1749C39.2785 48.6503 40.4587 48.2203 41.3001 47.9154C40.0815 50.931 37.7598 56.7813 37.4313 58.4138V58.4131C37.0757 59.4676 37.3105 60.6293 38.0507 61.4674C38.8536 62.1478 39.8954 62.4906 40.952 62.4214C43.1448 62.257 45.3134 61.8669 47.4233 61.2571L49.3577 60.8184C48.8726 63.6842 49.0547 66.6214 49.89 69.4073H26.6752L26.6745 19.9523H64.3986L64.3993 45.2806C63.79 45.4144 63.1808 45.5575 62.5903 45.7479C62.3744 44.7547 61.7172 43.9106 60.801 43.4479L60.8011 43.4485ZM68.5395 81.3182C63.8786 81.3182 59.4085 79.4921 56.1125 76.2407C52.8165 72.9894 50.9643 68.579 50.9636 63.9809C50.9629 59.3822 52.813 54.9718 56.1084 51.7191C59.403 48.4664 63.8717 46.6385 68.5328 46.6364C73.1937 46.6351 77.6645 48.4598 80.9612 51.7099C84.2586 54.9605 86.112 59.3696 86.1147 63.9684C86.1073 68.5705 84.2472 72.9816 80.9442 76.2315C77.6415 79.4815 73.1654 81.3044 68.5003 81.2996L68.5395 81.3182Z" fill="white"/>
</svg>
