<svg width="85" height="73" viewBox="0 0 85 73" fill="none" xmlns="http://www.w3.org/2000/svg">
<path fill-rule="evenodd" clip-rule="evenodd" d="M8.52105 1.25586C5.64523 1.89448 3.02495 4.02073 1.83334 6.68276C0.951756 8.6519 0.970402 8.12034 1.01824 30.053C1.06218 50.2659 1.06347 50.3347 1.40576 51.2261C2.63305 54.4228 4.7784 56.5581 7.7914 57.5819C8.83659 57.9371 8.9462 57.9405 21.0736 57.9894L33.302 58.0386L30.9436 60.4208C29.6466 61.7309 28.5331 62.9733 28.4692 63.1814C28.1868 64.1022 28.4574 64.4783 32.0802 68.1994C35.4094 71.6191 35.6374 71.8193 36.3015 71.9072L37.0038 72L43.925 65.0934L50.8462 58.187H59.1986C66.7128 58.187 67.5913 58.1599 67.9519 57.9181C68.1724 57.7701 70.4548 55.5711 73.0239 53.0315L77.695 48.4138L79.0233 49.699C81.6698 52.2595 81.6421 52.2386 82.3972 52.2386C82.966 52.2386 83.1666 52.1492 83.5434 51.7281L84 51.2174V43.0247V34.8319L83.4487 34.2812L82.8974 33.7306H74.4334H65.9694L65.4181 34.2812C64.8363 34.8624 64.7213 35.4092 65.0466 36.0492C65.1453 36.2438 66.0748 37.2596 67.1119 38.3065L68.9975 40.2101L65.8392 43.3679L62.6809 46.5257H60.2067H57.7324V27.8529C57.7324 11.8643 57.6978 9.04758 57.4917 8.2572C56.5814 4.76673 53.6863 1.99036 50.1926 1.25764C48.7464 0.954449 36.044 0.900353 35.4671 1.19496C34.5017 1.68814 34.2397 2.90465 34.9371 3.65632C35.1524 3.88841 35.4989 4.11726 35.7073 4.16504C35.9155 4.21282 39.1545 4.27048 42.9049 4.29315L49.7238 4.33429L50.961 4.94522C52.3689 5.64052 53.2622 6.53796 53.9607 7.95886L54.4084 8.86926L54.4515 27.6975L54.4948 46.5257H49.9625C47.1612 46.5257 45.256 46.5912 44.9739 46.6975C44.7229 46.7921 42.7279 48.6506 40.5407 50.8275L36.5639 54.7858H23.4017C14.2738 54.7858 9.97615 54.7299 9.38027 54.6037C6.97191 54.0932 5.06313 52.2991 4.47048 49.9887C4.24899 49.1247 4.22419 46.6489 4.26213 29.1009L4.30526 9.19318L4.69587 8.2214C5.23565 6.87808 6.85273 5.26315 8.19676 4.72495C9.15586 4.34077 9.26401 4.33413 15.8716 4.2538L22.5738 4.17233L23.0466 3.64336C23.7026 2.90983 23.6786 2.27429 22.9683 1.56473L22.417 1.01405L15.9554 1.02685C11.2051 1.0364 9.23628 1.09698 8.52105 1.25586ZM28.3475 1.25845C27.8031 1.56343 27.5732 1.97174 27.5732 2.63368C27.5732 3.31133 27.8095 3.71365 28.3807 4.00875C29.0859 4.37284 29.6151 4.30757 30.2018 3.78394C30.6331 3.39912 30.7278 3.19505 30.7278 2.6502C30.7278 1.44811 29.3975 0.670366 28.3475 1.25845ZM32.4288 9.46107C30.7247 10.6941 29.5824 12.2807 29.1189 14.0577C28.6886 15.708 28.7966 17.3244 29.546 20.4496C30.1494 22.9657 29.804 24.8537 28.5198 26.0597C27.6663 26.8612 26.9947 27.1269 25.8389 27.1202C24.5169 27.1126 23.4936 26.641 22.9196 25.7746C22.4197 25.02 22.2465 23.3969 22.5266 22.0922C22.973 20.0134 21.3854 19.0802 19.6131 20.3796C19.1796 20.6974 18.2942 21.5286 17.6457 22.2267C14.8238 25.2632 13.4412 28.9491 13.6886 32.7756C13.8819 35.7639 15.0919 39.2164 16.7678 41.5625C18.8896 44.5327 22.4421 46.8015 26.1734 47.5695C27.818 47.908 30.8675 47.914 32.4773 47.5818C38.1438 46.4126 42.4052 42.5221 44.0479 37.0179C44.5723 35.2613 44.7555 32.0013 44.4404 30.0402C43.8131 26.1381 41.466 21.4922 38.3674 18.0202C37.6918 17.263 36.8154 16.2225 36.4199 15.7081C35.2096 14.1339 34.7537 12.3874 35.2109 11.0771C35.4358 10.4327 35.293 9.84411 34.7895 9.34122C34.2128 8.76511 33.3287 8.80998 32.4288 9.46107ZM32.5806 15.6664C33.0474 16.7203 33.7022 17.6151 35.4491 19.5862C38.1703 22.6564 39.8752 25.5406 40.7949 28.6296C41.3769 30.584 41.5246 33.6039 41.1259 35.3941C40.5948 37.7785 39.1107 40.2412 37.2733 41.7871C33.4794 44.9791 28.034 45.5236 23.4625 43.1682C20.1607 41.4671 17.808 38.0893 17.0997 34.0331C16.6627 31.5311 16.9909 29.2329 18.0909 27.0937C18.5443 26.2118 19.3038 25.1718 19.3038 25.4329C19.3038 25.5359 19.4521 26.0164 19.6334 26.5005C20.005 27.4926 21.0029 28.7122 21.9124 29.2855C23.5322 30.307 26.0649 30.6562 27.9173 30.1135C29.2219 29.7314 30.7281 28.6681 31.5557 27.545C32.6148 26.1081 32.9655 25.0487 33.0469 23.041C33.1064 21.5756 33.0552 21.1052 32.6766 19.6398C32.2762 18.0901 31.9333 14.9429 32.1647 14.9429C32.2172 14.9429 32.4045 15.2684 32.5806 15.6664ZM80.7571 41.9363V46.9027L79.6477 45.8329C78.4992 44.7253 77.9805 44.4707 77.2471 44.6547C76.9823 44.7209 74.8342 46.714 71.6422 49.855L66.4665 54.9477H58.01H49.5532L43.0222 61.4641L36.4909 67.9807L34.3824 65.8793L32.2738 63.7778L39.2868 56.7713L46.2996 49.7649H55.1304H63.9612L68.3048 45.4371C71.1316 42.6206 72.7069 40.9321 72.816 40.6015C73.0624 39.856 72.7962 39.322 71.5509 38.0631L70.4696 36.9698H75.6133H80.7571V41.9363Z" fill="white" stroke="url(#paint0_linear_215_5320)"/>
<defs>
<linearGradient id="paint0_linear_215_5320" x1="42.5" y1="1" x2="42.5" y2="72" gradientUnits="userSpaceOnUse">
<stop stop-color="#A031F1"/>
<stop offset="1" stop-color="#D623FF"/>
</linearGradient>
</defs>
</svg>
