<svg width="79" height="81" viewBox="0 0 79 81" fill="none" xmlns="http://www.w3.org/2000/svg">
<path fill-rule="evenodd" clip-rule="evenodd" d="M4.22001 0.190153C2.49657 0.814717 1.08986 2.13573 0.450985 3.72963L0.0778575 4.6607L0.0347101 33.5536C-0.00811047 62.3213 -0.00696643 62.4479 0.320725 62.7785C0.738961 63.2004 1.21375 63.2012 1.63051 62.7808C1.95493 62.4535 1.95739 62.2313 1.95739 33.7567C1.95739 8.36588 1.98615 4.99277 2.20761 4.45823C2.60803 3.49121 3.16306 2.87357 4.10332 2.3481L4.98098 1.85775H27.3719C47.6914 1.85775 49.8169 1.88248 50.3468 2.12568C51.7384 2.76426 52.7864 4.24075 52.7864 5.56325V6.22211L31.8256 6.26581L10.8647 6.3095L9.83801 6.78781C8.52038 7.40166 7.18918 8.81254 6.71096 10.1022C6.44309 10.8244 6.37019 11.4007 6.37019 12.7955C6.37019 14.7606 6.45763 14.9657 7.29607 14.9657C8.00506 14.9657 8.168 14.6189 8.168 13.1103C8.168 10.8208 8.94025 9.34312 10.5262 8.59819L11.355 8.20891H33.6642H55.9734L56.8022 8.59819C57.258 8.81221 57.8668 9.27535 58.1553 9.62704C59.151 10.8417 59.1604 10.9492 59.1604 21.0707C59.1604 29.7524 59.1766 30.2631 59.4594 30.5213C59.8359 30.8652 60.3684 30.8711 60.7015 30.5351C60.929 30.3054 60.9583 29.181 60.9583 20.6484C60.9583 11.3152 60.948 10.9931 60.6198 10.1085C59.9007 8.16951 57.7961 6.53242 55.7173 6.29515L54.7896 6.1893L54.705 5.24718C54.5324 3.32699 53.176 1.41109 51.348 0.505568L50.4165 0.0440698L27.617 0.00895033C9.13735 -0.0195739 4.70428 0.0147211 4.22001 0.190153ZM32.9719 10.4727C32.833 10.6315 32.3824 11.4419 31.9707 12.2739C31.5426 13.1383 31.0974 13.8216 30.9312 13.8686C30.7714 13.9137 29.9787 14.0397 29.1697 14.1484C27.544 14.3668 27.2163 14.4887 26.9613 14.9695C26.7087 15.4456 26.972 15.8498 28.4627 17.274L29.7571 18.5106L29.4095 20.3945C29.0244 22.4801 29.0947 22.9574 29.8138 23.1394C30.1227 23.2177 30.6477 23.0149 31.944 22.3165L33.6642 21.3899L35.3844 22.3165C36.6808 23.0149 37.2057 23.2177 37.5146 23.1394C38.2328 22.9577 38.3042 22.4796 37.9242 20.3939L37.5812 18.5106L38.8664 17.274C40.3581 15.8389 40.6173 15.4409 40.3671 14.9695C40.1122 14.4887 39.7845 14.3668 38.1588 14.1484C37.3497 14.0397 36.5569 13.9137 36.3971 13.8686C36.2279 13.8206 35.7577 13.0842 35.2734 12.1088C34.8155 11.1863 34.3579 10.3769 34.2567 10.3103C33.9239 10.0912 33.2292 10.1789 32.9719 10.4727ZM34.1493 14.2107C34.3471 14.7024 34.6323 15.2173 34.7831 15.355C35.0038 15.5564 36.6672 15.9482 37.3255 15.9536C37.4066 15.9545 37.0497 16.4028 36.5322 16.95C35.6892 17.8417 35.6011 18.0003 35.6858 18.4751C35.9053 19.7078 35.9893 20.4067 35.9177 20.4067C35.8755 20.4067 35.4432 20.1854 34.957 19.915C33.8409 19.2944 33.5052 19.2964 32.4077 19.9297C31.9195 20.2115 31.4796 20.4011 31.4299 20.351C31.38 20.3009 31.4235 19.7729 31.5263 19.1777C31.7427 17.924 31.704 17.8186 30.6455 16.7794L29.89 16.0374L31.1641 15.7901L32.4384 15.5428L33.0105 14.4303C33.3251 13.8184 33.6291 13.3175 33.6861 13.3174C33.743 13.317 33.9515 13.7192 34.1493 14.2107ZM20.1587 15.014C19.9911 15.232 19.5326 16.0758 19.14 16.8892L18.4265 18.3681L16.5301 18.631C14.9593 18.8486 14.5837 18.9561 14.3427 19.2563C14.1827 19.4557 14.0517 19.7319 14.0517 19.87C14.0517 20.0084 14.7012 20.7976 15.4952 21.6243L16.9387 23.1272L16.6087 25.0588C16.2881 26.9359 16.2872 26.9996 16.5798 27.3259C16.7454 27.5104 17.0275 27.6614 17.2064 27.6614C17.3855 27.6614 18.2959 27.2718 19.2293 26.7958L20.9262 25.9302L22.541 26.7958C24.3328 27.7564 24.8698 27.8535 25.2398 27.2838C25.4598 26.9449 25.4508 26.7043 25.1509 24.9361L24.8169 22.966L26.217 21.6398C27.3902 20.5286 27.617 20.2309 27.617 19.8033C27.617 19.5226 27.5162 19.2084 27.3928 19.1052C27.2694 19.0019 26.3058 18.7869 25.2515 18.6275L23.3343 18.3376L22.4112 16.5279C21.5583 14.8557 21.4492 14.7146 20.9759 14.6681C20.5922 14.6305 20.3871 14.7172 20.1587 15.014ZM45.7972 14.842C45.7064 14.9555 45.2639 15.7917 44.8136 16.7007L43.9951 18.3531L42.0742 18.638C41.0179 18.7947 40.054 19.0061 39.9324 19.1078C39.8109 19.2097 39.7114 19.5375 39.7114 19.8364C39.7114 20.3068 39.8994 20.5556 41.1121 21.6896L42.5127 22.9996L42.1646 24.9322C41.8441 26.7107 41.8371 26.8964 42.0752 27.2631C42.458 27.8524 42.9543 27.7666 44.7783 26.7958L46.4047 25.9302L48.0838 26.797C49.9244 27.747 50.3023 27.8233 50.7413 27.334C51.024 27.0189 51.0231 26.9345 50.7135 25.0669L50.392 23.1272L51.8344 21.6243C52.6277 20.7976 53.2767 20.0084 53.2767 19.87C53.2767 19.7319 53.1458 19.4557 52.9858 19.2563C52.7447 18.9561 52.3691 18.8486 50.7983 18.631L48.902 18.3681L48.1884 16.8892C47.7958 16.0758 47.3407 15.2361 47.1767 15.0231C46.8497 14.5978 46.074 14.4961 45.7972 14.842ZM6.64068 17.9053C6.39128 18.1833 6.37019 20.3363 6.37019 45.5227V72.8385H5.71121C4.37626 72.8385 2.99145 71.8564 2.34163 70.4489C2.00102 69.7108 1.96049 69.3829 1.95902 67.3562C1.95755 65.3102 1.92552 65.057 1.63051 64.7593C1.20933 64.3344 0.738144 64.3406 0.306016 64.7765C-0.0202049 65.1056 -0.034424 65.253 0.0314413 67.6207C0.0852122 69.5534 0.169219 70.2856 0.403425 70.8599C0.867587 71.9984 1.58034 72.9624 2.4204 73.588C3.24462 74.2017 4.9344 74.817 5.79571 74.817C6.33032 74.817 6.33097 74.8182 6.4001 75.7651C6.54327 77.7275 7.9186 79.6841 9.77034 80.5598L10.7013 81H33.6642H56.6272L57.5457 80.5655C58.7891 79.9772 59.6563 79.1481 60.321 77.9115L60.8765 76.878L60.9257 71.464C60.9785 65.6634 60.9679 65.5816 60.162 65.5862C59.226 65.5918 59.249 65.4659 59.1604 71.0597C59.0683 76.8806 59.0581 76.9299 57.7111 78.1578C56.423 79.3316 57.7841 79.2688 33.6642 79.2688C9.54431 79.2688 10.9054 79.3316 9.61737 78.1578C9.25666 77.829 8.80132 77.2582 8.60569 76.8892L8.24972 76.2185L8.20952 47.1997L8.16948 18.1808L7.82381 17.8923C7.37975 17.5216 6.9808 17.5261 6.64068 17.9053ZM21.4777 18.9007C21.9945 19.9917 22.2386 20.152 23.6537 20.3299C24.1255 20.3891 24.5117 20.484 24.5117 20.5406C24.5117 20.5973 24.1306 21.0331 23.6646 21.5089L22.8175 22.3742L23.0012 23.5711C23.1023 24.2294 23.1611 24.792 23.1322 24.8214C23.1031 24.8505 22.5927 24.6324 21.9977 24.3365L20.9161 23.7985L19.8507 24.3284C19.2647 24.6199 18.7398 24.8585 18.6844 24.8585C18.5844 24.8585 18.6796 23.9449 18.8856 22.9289C18.9825 22.4509 18.9049 22.3079 18.0687 21.4235L17.1446 20.4463L18.08 20.3284C19.5411 20.1442 19.7199 20.0252 20.2923 18.854C20.5791 18.2672 20.8573 17.8145 20.9106 17.8476C20.9638 17.8808 21.219 18.3548 21.4777 18.9007ZM47.7591 19.9741C47.9622 20.1042 48.5919 20.2624 49.1586 20.3259L50.1886 20.4412L49.264 21.4191C48.4368 22.2938 48.3494 22.4529 48.4339 22.9269C48.6679 24.2413 48.7348 24.8585 48.6428 24.8585C48.588 24.8585 48.0637 24.6199 47.4778 24.3284L46.4123 23.7985L45.3307 24.3365C44.7358 24.6324 44.2159 24.8412 44.1754 24.8003C44.1348 24.7594 44.1803 24.2969 44.2764 23.7726C44.5259 22.4108 44.5393 22.4542 43.5435 21.4009L42.6361 20.4412L43.6661 20.3259C45.006 20.176 45.3242 19.9511 45.9483 18.7134L46.4664 17.6862L46.9281 18.7117C47.182 19.276 47.5559 19.8438 47.7591 19.9741ZM47.3112 29.0575C43.148 29.8291 39.2938 32.2225 36.7669 35.6057C32.3884 41.4676 32.0459 49.2409 35.8907 55.4901C36.8352 57.0253 39.3742 59.6464 40.8555 60.6156C44.2924 62.8642 48.3731 63.8893 52.133 63.4482C53.0567 63.3399 54.4067 63.0777 55.1327 62.8655L56.4526 62.4799L57.4785 63.4481C58.8998 64.7894 60.355 65.2058 62.0049 64.7437L62.643 64.565L67.4801 69.4368C72.7813 74.7761 73.0405 74.9731 74.7687 74.9766C76.4783 74.9802 78.0647 73.9328 78.7388 72.3559C79.1219 71.4592 79.0772 69.773 78.6467 68.8799C78.4003 68.3684 76.8028 66.6408 73.4815 63.2932C68.7398 58.5144 68.6753 58.4403 68.8405 57.9623C69.0762 57.2802 68.9123 55.2263 68.5671 54.5368C68.4081 54.2194 67.9119 53.58 67.4644 53.1159L66.6505 52.2719L67.1131 50.4778C67.5317 48.8539 67.5745 48.4331 67.5629 46.0455C67.552 43.7568 67.4946 43.1974 67.1293 41.8215C65.373 35.2055 60.1914 30.3335 53.5627 29.0649C51.9981 28.7655 48.9062 28.7618 47.3112 29.0575ZM53.6433 31.057C59.1114 32.1821 63.6662 36.5143 65.2415 42.0884C65.5613 43.2205 65.6144 43.7932 65.6152 46.1279C65.6164 49.2968 65.4198 50.2752 64.2943 52.6987C63.3912 54.6435 62.4434 55.9863 61.0155 57.3439C58.2458 59.9772 55.0588 61.366 51.3032 61.5762C43.6707 62.0035 36.9776 56.813 35.4243 49.2623C34.975 47.0785 35.0874 44.0279 35.6936 41.9585C36.491 39.2358 37.8451 36.9728 39.8157 35.0696C43.5836 31.4309 48.511 30.0009 53.6433 31.057ZM11.9271 32.278C11.6129 32.5949 11.6002 32.8276 11.6002 38.2706C11.6002 43.5472 11.6206 43.952 11.8991 44.2063C12.1649 44.449 12.8153 44.4791 17.7829 44.4791C23.1498 44.4791 23.3804 44.4663 23.6945 44.1494C24.1404 43.6996 24.1048 43.2501 23.5908 42.8424C23.1773 42.5143 22.9687 42.5006 18.3608 42.5006H13.5614V38.2137V33.9268H17.8108H22.0602V37.3893C22.0602 40.632 22.0809 40.8727 22.3871 41.1816C22.5668 41.3629 22.861 41.5113 23.0408 41.5113C23.2206 41.5113 23.5148 41.3629 23.6945 41.1816C24.0039 40.8694 24.0214 40.632 24.0214 36.7298C24.0214 32.8276 24.0039 32.5902 23.6945 32.278C23.3804 31.9612 23.1498 31.9483 17.8108 31.9483C12.4718 31.9483 12.2412 31.9612 11.9271 32.278ZM47.8833 33.1763C47.299 33.3029 46.504 33.5219 46.1167 33.6629C44.2187 34.3536 41.5551 36.1468 41.0328 37.0856C40.8185 37.4706 40.8229 37.562 41.0733 37.9474C41.4996 38.6037 42.0294 38.5034 43.1936 37.5463C44.4092 36.5468 46.43 35.5112 47.8779 35.1456C48.6668 34.9465 49.4338 34.8973 50.9015 34.9519C54.0705 35.0698 56.1285 35.9737 58.3433 38.2208C60.5338 40.4432 61.4515 42.5308 61.5765 45.5759C61.7369 49.4859 60.3259 52.6451 57.3394 55.0631C55.3765 56.6524 53.1752 57.4085 50.4983 57.4133C48.3916 57.4169 47.4268 57.1919 45.4427 56.2337C44.1625 55.6156 43.6751 55.2615 42.5673 54.1439C41.4736 53.0405 41.0974 52.5172 40.4761 51.2356C39.0547 48.3032 38.8573 45.4574 39.8744 42.5614C40.584 40.541 40.6304 40.1715 40.2218 39.7984C39.7694 39.3855 39.1335 39.5639 38.7419 40.2135C38.2205 41.0785 37.6011 43.2247 37.428 44.7665C37.1327 47.3965 37.622 49.8885 38.9418 52.4758C39.4687 53.5086 39.9711 54.1543 41.2565 55.4511C42.6619 56.8685 43.122 57.2194 44.4511 57.8868C46.7884 59.0603 48.2629 59.3757 50.9804 59.283C52.9091 59.2172 53.3792 59.1427 54.6216 58.7066C61.68 56.229 65.2817 48.6476 62.7422 41.6135C61.3062 37.636 57.9023 34.4777 53.8428 33.3565C52.4901 32.9829 49.2302 32.8843 47.8833 33.1763ZM18.3446 37.0957L17.0013 38.4508L16.4585 37.9201C16.1357 37.6045 15.7469 37.3893 15.4993 37.3893C15.0137 37.3893 14.5421 37.8495 14.5421 38.3234C14.5421 38.6807 16.6556 40.8518 17.0034 40.8518C17.1162 40.8518 18.0795 39.9839 19.144 38.9232C21.1503 36.9242 21.3633 36.5453 20.7806 36.0134C20.1927 35.4766 19.758 35.6696 18.3446 37.0957ZM51.6912 45.0106L48.0461 48.6747L46.8615 47.5007C45.4389 46.091 45.1032 45.9497 44.5356 46.5223C44.3092 46.7507 44.1242 47.0669 44.1242 47.2252C44.1242 47.6842 47.5776 51.0743 48.0454 51.0743C48.3381 51.0743 49.475 50.0287 52.5726 46.9103C56.9261 42.5276 57.1168 42.2646 56.41 41.6193C55.7435 41.0109 55.4862 41.1957 51.6912 45.0106ZM11.9271 47.447C11.6129 47.7639 11.6002 47.9965 11.6002 53.4395C11.6002 58.7162 11.6206 59.121 11.8991 59.3752C12.165 59.6181 12.8204 59.6481 17.8553 59.6481H23.5126L23.767 59.2816C23.9851 58.9675 24.0214 58.1196 24.0214 53.3459C24.0214 47.9965 24.0085 47.7637 23.6945 47.447C23.3804 47.1301 23.1498 47.1172 17.8108 47.1172C12.4718 47.1172 12.2412 47.1301 11.9271 47.447ZM22.0602 53.4651V57.8344H17.8108H13.5614V53.4651V49.0958H17.8108H22.0602V53.4651ZM18.3694 52.2514L17.0067 53.5932L16.4224 53.0758C16.1011 52.7911 15.6683 52.5583 15.4606 52.5583C14.9941 52.5583 14.5421 53.0374 14.5421 53.5315C14.5421 53.9368 16.1776 55.7816 16.6792 55.9422C17.1778 56.1018 17.8203 55.6351 19.486 53.9032C21.1596 52.163 21.3701 51.7205 20.7806 51.1823C20.2122 50.6633 19.7938 50.8488 18.3694 52.2514ZM66.4126 54.7068C66.8284 55.2054 67.1695 56.138 67.1643 56.7627C67.1581 57.5348 66.4494 58.5114 64.4486 60.5055C63.293 61.6571 62.1404 62.6774 61.8874 62.7725C60.8182 63.1749 59.4394 62.865 58.6829 62.0525L58.3292 61.6726L59.4394 61.0016C61.7158 59.6257 64.0033 57.2921 65.2369 55.087C65.5077 54.6031 65.7891 54.207 65.8625 54.207C65.9357 54.207 66.1833 54.4319 66.4126 54.7068ZM72.3505 64.8006C76.3251 68.8282 76.9627 69.5428 77.0621 70.0825C77.2785 71.2564 76.8432 72.3133 75.952 72.7781C75.3747 73.0793 74.2137 73.1082 73.6802 72.8348C73.4699 72.727 71.2573 70.5885 68.7632 68.0827L64.2286 63.5267L65.9001 61.8347C66.8194 60.9041 67.6126 60.1427 67.6626 60.1427C67.7128 60.1427 69.8223 62.2387 72.3505 64.8006ZM11.8569 62.7101C11.6335 62.9356 11.6002 63.7041 11.6002 68.634C11.6002 74.9169 11.5953 74.8879 12.6385 74.7847C13.5131 74.6983 13.5564 74.4304 13.559 69.0874L13.5614 64.2647H17.8108H22.0602V68.634V73.0033H18.5716C15.3995 73.0033 15.0585 73.0307 14.8125 73.3049C14.4716 73.6848 14.4657 74.222 14.7988 74.558C15.0191 74.7801 15.6565 74.817 19.268 74.817C23.1413 74.817 23.5022 74.7928 23.7509 74.5154C23.9915 74.2473 24.0214 73.5928 24.0214 68.6053C24.0214 63.3813 24.001 62.9782 23.7225 62.7239C23.4566 62.481 22.8014 62.451 17.7688 62.451C12.8459 62.451 12.0805 62.4845 11.8569 62.7101ZM18.3748 67.4149L17.0175 68.7514L16.361 68.2192C15.8592 67.8123 15.607 67.7115 15.2914 67.7913C14.7938 67.9175 14.4806 68.4467 14.6058 68.9501C14.7405 69.4912 16.5672 71.1897 17.0145 71.1897C17.5238 71.1897 21.0796 67.6133 21.0796 67.101C21.0796 66.6395 20.5306 66.0784 20.079 66.0784C19.8655 66.0784 19.2097 66.5928 18.3748 67.4149ZM28.3035 68.5846C28.1956 68.6934 28.1074 69.0124 28.1074 69.2935C28.1074 69.5747 28.1956 69.8937 28.3035 70.0025C28.4483 70.1486 29.9426 70.2004 34.0122 70.2004C39.9932 70.2004 40.0383 70.1936 40.0383 69.2935C40.0383 68.3935 39.9932 68.3867 34.0122 68.3867C29.9426 68.3867 28.4483 68.4385 28.3035 68.5846ZM43.0872 68.6883C42.7324 69.0838 42.744 69.5882 43.1156 69.9275C43.3516 70.143 43.7571 70.2004 45.0442 70.2004C46.8144 70.2004 47.0661 70.0952 47.0661 69.3547C47.0661 68.5443 46.7225 68.3867 44.9551 68.3867C43.6151 68.3867 43.3141 68.4353 43.0872 68.6883ZM28.3934 73.1814C28.0604 73.3769 28.0019 74.3149 28.3035 74.6191C28.4483 74.7652 29.9426 74.817 34.0122 74.817C38.8056 74.817 39.5581 74.7832 39.7815 74.558C40.1259 74.2104 40.1063 73.6111 39.7393 73.2762C39.4738 73.0337 38.8418 73.0038 34.0599 73.0083C30.7104 73.0114 28.5714 73.0769 28.3934 73.1814ZM43.0872 73.3049C42.7324 73.7004 42.744 74.2048 43.1156 74.5441C43.3516 74.7596 43.7571 74.817 45.0442 74.817C46.8144 74.817 47.0661 74.7118 47.0661 73.9713C47.0661 73.161 46.7225 73.0033 44.9551 73.0033C43.6151 73.0033 43.3141 73.052 43.0872 73.3049Z" fill="white"/>
</svg>
