<svg width="17" height="14" viewBox="0 0 17 14" fill="none" xmlns="http://www.w3.org/2000/svg">
<path fill-rule="evenodd" clip-rule="evenodd" d="M8.49965 6.0178C7.11806 6.0178 0 2.02369 0 2.02369V1.39999C0 0.627197 0.633848 0 1.41625 0H15.583C16.3662 0 17 0.627197 17 1.39999L16.9887 2.09999C16.9887 2.09999 9.94773 6.0178 8.49965 6.0178Z" fill="white"/>
<path fill-rule="evenodd" clip-rule="evenodd" d="M8.49965 7.943C10.0142 7.943 16.9887 4.2002 16.9887 4.2002L17 12.6001C17 13.3729 16.3662 14.0001 15.583 14.0001H1.41625C0.634555 14.0001 0 13.3729 0 12.6001L0.0113187 4.2002C0.0106113 4.2002 7.11806 7.943 8.49965 7.943Z" fill="white"/>
</svg>
