<svg width="71" height="70" viewBox="0 0 71 70" fill="none" xmlns="http://www.w3.org/2000/svg">
<path fill-rule="evenodd" clip-rule="evenodd" d="M62.1153 1.09091C54.6528 1.69212 48.2809 3.02709 42.9512 5.10592C34.6545 8.34194 28.4434 13.1212 24.0861 19.6217C23.4764 20.5312 22.9071 21.3891 22.8211 21.5279C22.6778 21.7593 22.5654 21.6849 21.4715 20.6348C19.9458 19.17 19.7581 19.0524 18.9461 19.0524C18.3558 19.0524 17.3802 19.4724 10.2376 22.8011C5.81355 24.8629 1.99004 26.6972 1.74091 26.8774C0.828728 27.5369 0.851941 26.8229 1.30985 40.1242C1.53699 46.7221 1.75657 52.3747 1.79773 52.6854C1.96697 53.9597 3.29712 54.7556 4.51309 54.3101C4.72241 54.2334 8.04549 51.0654 11.9119 47.2568L18.9308 40.3425L20.9873 42.3735L23.0438 44.4044L16.1524 51.1901C12.3621 54.9221 9.14365 58.1979 9.00019 58.4693C8.66643 59.101 8.67075 59.5484 9.01732 60.2543C9.48145 61.1997 10.6815 61.6162 11.6139 61.1555C11.8515 61.0382 15.1743 57.8645 18.9978 54.1029L25.9499 47.2636L28.0057 49.2938L30.0616 51.3241L23.0985 58.1763C19.1387 62.0729 16.0536 65.2131 15.9462 65.4566C15.4112 66.6683 16.2076 68.0406 17.546 68.2134C17.8611 68.254 23.5939 68.4705 30.2854 68.6945C43.7753 69.146 43.0512 69.1689 43.7201 68.2694C43.9028 68.0238 45.7631 64.2538 47.8541 59.8916C51.2301 52.8489 51.6561 51.887 51.6561 51.3049C51.6561 50.5042 51.5368 50.3191 50.0513 48.8148C48.9929 47.743 48.9118 47.6244 49.1407 47.4841C50.7369 46.5048 52.9306 44.992 54.0188 44.1204C61.5903 38.0548 66.6219 28.7732 68.8593 16.7443C69.5981 12.7731 70.0787 7.41457 69.9893 4.14462C69.9356 2.17636 69.8397 1.89785 69.0141 1.31726C68.6173 1.03821 68.4466 1.02025 66.0291 1.00175C64.6188 0.99097 62.8576 1.03116 62.1153 1.09091ZM65.9062 6.90969C65.3214 19.0412 61.8634 29.3972 56.0016 36.5709C51.403 42.1987 43.9672 46.5349 35.1324 48.7406L33.5217 49.1428L31.1518 46.8061L28.7821 44.4695L32.3057 40.9761C34.2436 39.0547 35.9287 37.3346 36.05 37.1536C36.3575 36.6956 36.3383 35.5903 36.0147 35.1062C35.8748 34.897 35.5867 34.6129 35.3745 34.475C34.8836 34.1559 33.7626 34.1371 33.2981 34.4402C33.1145 34.5598 31.3701 36.2213 29.4214 38.1321L25.8785 41.6065L23.5083 39.2695L21.1382 36.9325L21.4913 35.5443C22.7271 30.6844 24.8019 25.8181 27.1611 22.2461C32.052 14.8407 39.3925 9.90845 49.6317 7.14736C54.249 5.90235 60.257 5.04205 64.8678 4.96566L66.0008 4.9469L65.9062 6.90969ZM46.5444 14.4718C45.4966 14.7497 44.0383 15.5447 43.2143 16.2873C39.8334 19.334 39.8388 24.7639 43.2255 27.8159C44.7736 29.2109 46.4661 29.8518 48.6195 29.8583C49.7321 29.8616 50.1587 29.7997 51.0487 29.5057C53.6637 28.6418 55.629 26.5902 56.3006 24.0234C56.5747 22.9757 56.5747 21.1173 56.3006 20.0696C55.6057 17.4138 53.3232 15.1552 50.6369 14.4652C49.6448 14.2105 47.5169 14.2138 46.5444 14.4718ZM50.1715 18.5304C51.5629 19.1501 52.3422 20.2973 52.4372 21.8659C52.4906 22.7481 52.4542 22.9776 52.1622 23.5958C50.7248 26.6386 46.4839 26.6386 45.0712 23.5958C44.1961 21.7113 45.0594 19.4575 46.9972 18.5678C47.893 18.1564 49.295 18.1399 50.1715 18.5304ZM19.5667 24.472C20.1437 25.0374 20.6156 25.5656 20.6156 25.6457C20.6156 25.7258 20.3706 26.3559 20.071 27.0461C19.2889 28.8475 18.1612 32.2397 17.5746 34.5552L17.0691 36.5512L11.3918 42.1683C8.26939 45.2575 5.69816 47.769 5.67805 47.7493C5.64863 47.7201 5.23161 36.2344 5.06669 30.9085L5.02796 29.6572L11.6409 26.5608C15.278 24.8578 18.3133 23.4597 18.3859 23.454C18.4585 23.4484 18.9898 23.9064 19.5667 24.472ZM46.1786 50.7117C46.7954 51.3234 47.2104 51.8393 47.169 51.9426C46.9617 52.4598 40.9553 64.9076 40.8804 64.9753C40.8317 65.0193 36.9355 64.9182 32.2221 64.7504C27.5086 64.5827 23.3792 64.4419 23.0454 64.4375L22.4388 64.4296L28.14 58.8069L33.8412 53.1843L35.8995 52.6725C38.3189 52.0707 41.7771 50.9479 43.4911 50.2073C44.1591 49.9187 44.7983 49.6772 44.9112 49.6707C45.0243 49.664 45.5947 50.1326 46.1786 50.7117Z" fill="white" stroke="url(#paint0_linear_167_5098)"/>
<defs>
<linearGradient id="paint0_linear_167_5098" x1="35.5" y1="1" x2="35.5" y2="69" gradientUnits="userSpaceOnUse">
<stop stop-color="#A031F1"/>
<stop offset="1" stop-color="#D623FF"/>
</linearGradient>
</defs>
</svg>
