<svg width="74" height="67" viewBox="0 0 74 67" fill="none" xmlns="http://www.w3.org/2000/svg">
<path fill-rule="evenodd" clip-rule="evenodd" d="M24.0627 0.23268C22.3274 0.841468 21.105 1.94087 20.3306 3.58874L19.8732 4.5621L19.8294 7.8042L19.7856 11.0463H11.8705C6.83493 11.0463 3.64934 11.1034 3.11371 11.2032C1.68503 11.4695 0.691528 12.3133 0.219925 13.661C0.0290006 14.2062 0.000239033 16.1766 0.000239033 28.67C0.000239033 44.489 -0.0389287 43.7699 0.885487 44.9005C1.12931 45.1989 1.58285 45.5735 1.89315 45.7331L2.45725 46.0233V54.8444C2.45725 60.5685 2.51102 63.8797 2.61031 64.2762C2.84647 65.2192 3.61595 66.174 4.49658 66.6163L5.26013 67H37H68.7399L69.5034 66.6163C70.384 66.174 71.1535 65.2192 71.3897 64.2762C71.489 63.8797 71.5427 60.5685 71.5427 54.8444V46.0233L72.1069 45.7331C72.4172 45.5735 72.8707 45.1989 73.1145 44.9005C74.0389 43.7699 73.9998 44.489 73.9998 28.67C73.9998 16.1766 73.971 14.2062 73.7801 13.661C73.3085 12.3133 72.315 11.4695 70.8863 11.2032C70.3507 11.1034 67.1651 11.0463 62.1295 11.0463H54.2144L54.1706 7.7959L54.1268 4.54549L53.5883 3.44769C52.93 2.10553 51.9678 1.15373 50.6181 0.509097L49.6464 0.0450017L37.2168 0.0116335C25.7152 -0.0191119 24.7331 -0.00264631 24.0627 0.23268ZM49.5741 2.75249C50.4475 3.15101 50.9871 3.68651 51.3977 4.5621C51.7207 5.25103 51.7393 5.4473 51.7406 8.16849L51.7421 11.0463H50.5136H49.2851V8.34407C49.2851 5.66922 49.2815 5.63804 48.9303 5.2841L48.5756 4.92638H37H25.4244L25.0697 5.2841C24.7185 5.63804 24.7149 5.66922 24.7149 8.34407V11.0463H23.4864H22.2579L22.2611 8.16849C22.264 5.58908 22.2948 5.22261 22.5587 4.63495C22.954 3.75441 23.4851 3.21046 24.3536 2.79649L25.0763 2.45218L37 2.45392C48.6847 2.45567 48.9368 2.46165 49.5741 2.75249ZM46.8281 9.2249V11.0463H37H27.1719V9.2249V7.40349H37H46.8281V9.2249ZM70.5669 13.6767C71.6011 13.9663 71.5427 13.0694 71.5427 28.6776C71.5427 44.2883 71.6011 43.3918 70.5663 43.6797C69.9937 43.839 42.7949 47.6239 42.2392 47.6215C41.9296 47.6202 41.914 47.5651 41.914 46.4729C41.914 44.6268 41.3374 43.4589 40.0487 42.6951C39.3998 42.3106 39.3307 42.3017 37 42.3017C34.6693 42.3017 34.6002 42.3106 33.9513 42.6951C32.6626 43.4589 32.086 44.6268 32.086 46.4729C32.086 47.5651 32.0704 47.6202 31.7608 47.6215C31.2051 47.6239 4.00633 43.839 3.4337 43.6797C2.39886 43.3918 2.45725 44.2883 2.45725 28.6776C2.45725 13.1988 2.41115 13.963 3.36245 13.686C4.0416 13.4882 69.8611 13.4791 70.5669 13.6767ZM39.076 45.09L39.457 45.4743V49.5274C39.457 52.1877 39.4018 53.7027 39.2966 53.9358C39.0542 54.4719 38.5719 54.6144 37 54.6144C35.4281 54.6144 34.9458 54.4719 34.7034 53.9358C34.5982 53.7027 34.543 52.1877 34.543 49.5274V45.4743L34.924 45.09C35.2924 44.7188 35.3613 44.706 37 44.706C38.6387 44.706 38.7076 44.7188 39.076 45.09ZM18.5724 48.3469C25.5677 49.3134 31.4652 50.1394 31.678 50.1829L32.065 50.2615L32.1116 52.3286C32.1632 54.6146 32.3104 55.1225 33.1747 55.9939C34.0746 56.9009 34.5138 57.0187 37 57.0187C39.4862 57.0187 39.9254 56.9009 40.8253 55.9939C41.6896 55.1225 41.8369 54.6146 41.8885 52.3286L41.935 50.2615L42.322 50.1829C42.5348 50.1394 48.4324 49.3134 55.4276 48.3469C62.4229 47.3805 68.3577 46.5521 68.616 46.5059L69.0857 46.422V54.972C69.0857 63.7493 69.0763 63.9056 68.5202 64.3361C68.1853 64.5953 5.81469 64.5953 5.47982 64.3361C4.92366 63.9056 4.91427 63.7493 4.91427 54.972V46.422L5.38399 46.5059C5.64241 46.5521 11.5771 47.3805 18.5724 48.3469Z" fill="white"/>
</svg>
