<svg width="73" height="73" viewBox="0 0 73 73" fill="none" xmlns="http://www.w3.org/2000/svg">
<path fill-rule="evenodd" clip-rule="evenodd" d="M35.6614 0.273371C35.3722 0.507742 35.2714 0.836805 35.0721 2.19668C34.8787 3.51582 34.7732 3.8698 34.5337 4.00371C32.9827 4.87082 32.2477 5.71225 31.7908 7.14341C31.6457 7.59801 31.5118 7.99015 31.4936 8.01462C31.4485 8.07466 17.205 10.326 16.8695 10.326C16.7235 10.326 16.2661 9.99979 15.8531 9.60112C14.3017 8.104 12.3656 8.11783 10.8485 9.63684C9.54016 10.947 9.33994 12.7013 10.3354 14.1349L10.6056 14.5241L9.05637 17.2249C7.78702 19.4377 7.3843 20.015 6.8275 20.4205C5.11277 21.6693 3.72501 23.628 2.94127 25.9051C2.56542 26.9971 2.52261 27.3304 2.5217 29.173C2.52064 30.9732 2.5683 31.3677 2.90985 32.3902C3.52221 34.2226 4.31263 35.4951 5.67913 36.849C7.08601 38.2429 8.35992 39.0403 10.0947 39.6133C11.1435 39.9597 11.5782 40.0161 13.2825 40.0266C15.5299 40.0404 16.6904 39.7671 18.5955 38.7754C19.9755 38.0569 22.0568 36.0184 22.8132 34.6447C25.5708 29.6356 24.2666 23.6307 19.6872 20.252C19.2547 19.9329 18.7312 19.1581 17.6089 17.1764L16.1088 14.5273L16.3933 14.1273C16.5498 13.9072 16.7253 13.5379 16.7833 13.3062C16.8414 13.0747 16.9654 12.8574 17.0591 12.8232C17.2363 12.7584 31.5973 10.4778 31.8244 10.4783C31.8956 10.4784 32.1479 10.786 32.3851 11.1621C32.6224 11.5379 33.0037 11.9995 33.2325 12.1877L33.6487 12.5298L31.4019 28.641C30.1663 37.5021 29.1531 44.9092 29.1504 45.101C29.1477 45.2929 29.3133 45.6177 29.5182 45.8229L29.8907 46.1961H36.4319H42.9731L43.3457 45.8229C43.5506 45.6177 43.7162 45.2929 43.7135 45.101C43.7107 44.9092 42.6993 37.5021 41.4658 28.641L39.2228 12.5298L39.7955 11.965C40.3941 11.375 41.1361 10.0747 41.14 9.60902C41.1414 9.45992 41.1982 9.25017 41.2662 9.14256C41.3773 8.96746 55.1218 6.67816 56.0627 6.67816C56.2462 6.67816 56.473 6.80097 56.5667 6.95098C56.7083 7.17806 56.4864 7.66839 55.2433 9.87683C53.9876 12.1073 53.6336 12.6172 53.0208 13.0781C51.2159 14.4358 49.8779 16.3175 49.0875 18.6095C48.7095 19.706 48.6685 20.027 48.6713 21.8774C48.674 23.6634 48.7244 24.0802 49.0605 25.0946C49.6652 26.9204 50.457 28.1969 51.8263 29.5534C53.2331 30.9473 54.507 31.7447 56.2418 32.3177C57.2906 32.6641 57.7254 32.7205 59.4296 32.7309C61.677 32.7448 62.8375 32.4715 64.7426 31.4797C66.1226 30.7613 68.2039 28.7228 68.9604 27.3491C71.718 22.34 70.4137 16.3351 65.8343 12.9563C65.4019 12.6373 64.8783 11.8625 63.7561 9.88078L62.256 7.23171L62.5274 6.84094C63.524 5.40583 63.3243 3.652 62.0154 2.34122C60.9426 1.26709 59.8079 0.970254 58.3846 1.39127C57.5858 1.62762 56.2449 2.93262 56.094 3.62039C56.0343 3.8923 55.9065 4.14369 55.8101 4.17896C55.6228 4.2475 41.2681 6.52617 41.0242 6.52617C40.9446 6.52617 40.6772 6.20121 40.4297 5.80421C40.0244 5.15353 39.612 4.79954 38.3937 4.05645C38.0401 3.84077 37.9835 3.66766 37.8038 2.25656C37.6422 0.987277 37.5393 0.629488 37.2532 0.342983C36.8245 -0.0862421 36.1417 -0.116185 35.6614 0.273371ZM60.3472 4.01146C61.1003 4.76534 60.5667 6.07019 59.5055 6.07019C58.8815 6.07019 58.2911 5.47909 58.2911 4.85426C58.2911 4.22942 58.8815 3.63832 59.5055 3.63832C59.8012 3.63832 60.1124 3.77618 60.3472 4.01146ZM37.3927 6.27751C38.9643 6.93503 39.33 8.94421 38.1017 10.174C37.0976 11.1794 35.7379 11.1867 34.7442 10.1919C32.8671 8.31222 34.9384 5.2508 37.3927 6.27751ZM60.4234 8.92095C60.5526 9.15031 60.8723 9.7142 61.1339 10.174L61.6096 11.0099H59.5031H57.3966L57.9455 10.022C58.833 8.42409 58.753 8.50191 59.5041 8.50297C60.0918 8.50389 60.2219 8.56301 60.4234 8.92095ZM14.2001 11.3071C14.4351 11.5422 14.5728 11.8538 14.5728 12.1499C14.5728 12.4459 14.4351 12.7575 14.2001 12.9927C13.9653 13.2279 13.6541 13.3658 13.3584 13.3658C13.0627 13.3658 12.7515 13.2279 12.5167 12.9927C12.2817 12.7575 12.144 12.4459 12.144 12.1499C12.144 11.8538 12.2817 11.5422 12.5167 11.3071C12.7515 11.0718 13.0627 10.9339 13.3584 10.9339C13.6541 10.9339 13.9653 11.0718 14.2001 11.3071ZM36.9579 13.8598C37.0044 14.1314 37.9279 20.783 39.0106 28.641C40.0931 36.499 41.0128 43.1164 41.0544 43.3462L41.1301 43.7642H36.4319H31.7337L31.8095 43.3462C31.8511 43.1164 32.7708 36.499 33.8533 28.641C34.936 20.783 35.8595 14.1314 35.906 13.8598C35.9785 13.435 36.0521 13.3658 36.4319 13.3658C36.8117 13.3658 36.8854 13.435 36.9579 13.8598ZM62.2561 13.8587C63.6891 14.382 64.5015 14.8989 65.5397 15.9481C67.1858 17.6117 67.926 19.4508 67.926 21.8774C67.926 24.3155 67.1596 26.2041 65.4931 27.8725C63.8268 29.5411 61.9405 30.3085 59.5055 30.3085C57.0705 30.3085 55.1842 29.5411 53.5179 27.8725C51.8515 26.2041 51.085 24.3155 51.085 21.8774C51.085 19.4221 51.8507 17.5514 53.553 15.8469C54.6068 14.7918 56.3963 13.8073 57.7598 13.5325C58.9908 13.2845 61.1029 13.4377 62.2561 13.8587ZM14.2763 16.2166C14.4055 16.4459 14.7252 17.0098 14.9867 17.4696L15.4625 18.3055H13.356H11.2494L11.7983 17.3176C12.6859 15.7197 12.6059 15.7975 13.357 15.7986C13.9446 15.7995 14.0747 15.8586 14.2763 16.2166ZM55.0206 17.3868C54.7806 17.6269 54.6479 17.9324 54.6479 18.2447C54.6479 18.6553 54.8852 18.971 56.1948 20.3035L57.7416 21.8774L56.1948 23.4512C54.8852 24.7837 54.6479 25.0994 54.6479 25.51C54.6479 26.1582 55.2301 26.7411 55.8775 26.7411C56.2875 26.7411 56.6028 26.5035 57.9336 25.1923L59.5055 23.6435L61.0774 25.1923C62.4082 26.5035 62.7235 26.7411 63.1335 26.7411C63.7809 26.7411 64.3631 26.1582 64.3631 25.51C64.3631 25.0994 64.1258 24.7837 62.8163 23.4512L61.2694 21.8774L62.8163 20.3035C64.1258 18.971 64.3631 18.6553 64.3631 18.2447C64.3631 17.5965 63.7809 17.0136 63.1335 17.0136C62.7235 17.0136 62.4082 17.2512 61.0774 18.5624L59.5055 20.1112L57.9336 18.5624C56.6028 17.2512 56.2875 17.0136 55.8775 17.0136C55.5655 17.0136 55.2604 17.1465 55.0206 17.3868ZM16.109 21.1543C17.542 21.6776 18.3544 22.1946 19.3926 23.2438C21.0387 24.9073 21.7789 26.7464 21.7789 29.173C21.7789 31.6111 21.0124 33.4997 19.346 35.1681C17.6797 36.8367 15.7934 37.6041 13.3584 37.6041C10.9234 37.6041 9.0371 36.8367 7.37079 35.1681C5.70433 33.4997 4.93789 31.6111 4.93789 29.173C4.93789 26.7177 5.70357 24.847 7.40586 23.1425C8.45965 22.0874 10.2492 21.103 11.6127 20.8282C12.8436 20.5801 14.9558 20.7333 16.109 21.1543ZM14.928 28.2893L12.1526 31.0534L11.1747 30.1132C10.4012 29.3695 10.0976 29.173 9.72141 29.173C9.07914 29.173 8.50079 29.7601 8.50079 30.412C8.50079 30.8347 8.72363 31.128 10.0646 32.4709C12.2968 34.7059 11.8697 34.8357 16.049 30.6511C19.0779 27.6185 19.4304 27.2138 19.4304 26.7685C19.4304 26.1042 18.8546 25.5252 18.1943 25.5252C17.7606 25.5252 17.3794 25.8477 14.928 28.2893ZM0.372668 47.7851L0 48.1581V59.5714V70.9846L0.372668 71.3576L0.745185 71.7307H6.67919H12.6132L12.9857 71.3576C13.2992 71.0439 13.3584 70.8387 13.3584 70.0656C13.3584 69.5603 13.3754 69.1449 13.3963 69.1426C13.4173 69.1403 15.0396 68.9049 17.0016 68.6194L20.5689 68.1005L31.0019 70.5502L41.435 73L55.8148 67.464C63.7237 64.4193 70.5339 61.7227 70.9485 61.4717C71.7993 60.9566 72.6203 59.8677 72.8785 58.9122C73.1267 57.9929 72.9782 56.281 72.5832 55.5097C72.1192 54.6032 71.2843 53.8204 70.2963 53.3658C68.7551 52.6566 68.7952 52.649 55.2389 56.2075C48.5088 57.9741 42.8742 59.4194 42.7171 59.4194C42.2884 59.4194 37.3209 57.4026 37.4546 57.2828C37.5184 57.2258 38.2194 57.0247 39.0125 56.8358C39.8057 56.6469 40.7793 56.3192 41.1763 56.1075C42.4446 55.4311 43.1111 54.2529 43.1111 52.6878C43.1111 51.4428 42.5572 50.2856 41.6249 49.5832C40.3769 48.643 40.8284 48.6535 28.6949 49.2848C22.6393 49.6001 16.7113 49.8547 15.5215 49.8509L13.3584 49.8439V49.0011C13.3584 48.3088 13.2917 48.0914 12.9857 47.7851L12.6132 47.412H6.67919H0.745185L0.372668 47.7851ZM10.9296 59.5714V69.2988H6.67919H2.4288V59.5714V49.8439H6.67919H10.9296V59.5714ZM40.2153 51.6053C40.5926 51.9233 40.6823 52.1149 40.6823 52.6033C40.6823 53.3233 40.4924 53.7236 40.0337 53.9711C39.8477 54.0712 36.8954 54.8554 33.4731 55.7133C26.7811 57.391 26.7168 57.4164 26.7168 58.3791C26.7168 58.903 27.3103 59.5714 27.7756 59.5714C27.948 59.5714 29.2212 59.2877 30.6047 58.941L33.1201 58.3107L37.8113 60.1846L42.5027 62.0586L55.1407 58.7658C62.0916 56.9547 67.9605 55.4317 68.1825 55.3812C68.7797 55.2455 69.9074 55.7976 70.2787 56.4072C70.8143 57.2868 70.6314 58.6161 69.8813 59.2944C69.5518 59.5926 41.6618 70.3822 41.2136 70.385C41.0467 70.386 36.3729 69.3154 30.8276 68.0057L20.7453 65.6246L17.3934 66.0965C15.5498 66.3561 13.8877 66.6028 13.6999 66.6448L13.3584 66.7208V59.4983V52.2757L16.2805 52.2643C17.8878 52.2581 23.1988 52.0278 28.083 51.7527C32.9671 51.4776 37.5899 51.2434 38.3557 51.2322C39.6474 51.2133 39.782 51.2402 40.2153 51.6053Z" fill="white"/>
</svg>
