<svg width="28" height="28" viewBox="0 0 28 28" fill="none" xmlns="http://www.w3.org/2000/svg">
<path fill-rule="evenodd" clip-rule="evenodd" d="M5.8 0.0569918C6.14001 0.0284959 6.43144 0.111134 6.62002 0.42174C7.04288 1.10564 7.4686 1.78954 7.87147 2.49054C8.33719 3.29983 8.76577 4.13191 9.22292 4.94974C9.34006 5.16916 9.50292 5.36863 9.64007 5.5795C9.76579 5.77897 9.88579 5.98414 10.0029 6.18362C10.2429 6.6367 10.2315 7.09264 9.87436 7.45453C9.36578 7.97316 8.80577 8.45474 8.26576 8.94772C7.81432 9.36091 7.34574 9.757 6.90574 10.1787C6.56287 10.5093 6.4743 10.9225 6.70573 11.3585C7.06288 12.0253 7.41717 12.6921 7.80861 13.3446C9.26006 15.7582 11.1144 17.81 13.4573 19.3915C14.3601 20.0041 15.3002 20.5655 16.2488 21.1012C17.1431 21.6056 17.4916 21.5201 18.1859 20.7479C18.8317 20.0326 19.4545 19.306 20.0974 18.585C20.2517 18.4112 20.4374 18.2573 20.6174 18.1092C20.9831 17.8014 21.3831 17.7672 21.8031 17.9781C21.9203 18.0351 22.046 18.0864 22.1489 18.1605C23.2632 18.9555 24.5089 19.5169 25.6861 20.1922C26.3175 20.5541 26.9318 20.9417 27.5518 21.3121C27.8861 21.5087 28.0204 21.7965 27.9975 22.1926C27.9347 23.3068 27.7489 24.4011 27.1004 25.3414C26.8289 25.7318 26.4432 26.0738 26.0546 26.3502C24.9775 27.1025 23.7746 27.567 22.4946 27.8519C21.3317 28.1112 20.1717 28.0172 19.0574 27.6695C16.9059 27.0084 14.7859 26.2504 12.8344 25.1021C11.063 24.0563 9.45149 22.7939 7.96004 21.3833C6.07144 19.591 4.38569 17.6361 3.02281 15.4106C2.13423 13.9659 1.49993 12.41 0.925635 10.8228C0.577058 9.86529 0.234195 8.91638 0.0799065 7.90192C-0.0972393 6.75353 0.0256199 5.64789 0.394198 4.55935C0.725632 3.57624 1.13992 2.63587 1.76565 1.79524C2.25709 1.14269 2.87138 0.663955 3.66568 0.450236C4.30284 0.28211 4.9457 0.148179 5.58571 0C5.66857 0.0655406 5.73429 0.0655406 5.8 0.0569918Z" fill="#B72BF6"/>
</svg>
