<svg width="77" height="77" viewBox="0 0 77 77" fill="none" xmlns="http://www.w3.org/2000/svg">
<path fill-rule="evenodd" clip-rule="evenodd" d="M33.8548 5.10576C30.1573 8.80409 29.75 9.26232 29.75 9.7232C29.75 10.0583 29.8825 10.3676 30.1336 10.6186C30.4872 10.9724 30.6333 11.0022 32.0086 11.0022H33.5V15.6197V20.2373L33.8836 20.6208L34.267 21.0045H38.5H42.733L43.1164 20.6208L43.5 20.2373V15.6197V11.0022H44.9914C46.3667 11.0022 46.5128 10.9724 46.8664 10.6186C47.1175 10.3676 47.25 10.0583 47.25 9.7232C47.25 9.26232 46.8427 8.80409 43.1452 5.10576C39.3589 1.31867 38.9984 1 38.5 1C38.0016 1 37.6411 1.31867 33.8548 5.10576ZM40.7656 6.31369L42.9489 8.50168H42.358C41.9389 8.50168 41.6555 8.61327 41.3836 8.88536L41 9.26888V13.8865V18.5039H38.5H36V13.8865V9.26888L35.6164 8.88536C35.3445 8.61327 35.0611 8.50168 34.642 8.50168H34.0511L36.2344 6.31369C37.4352 5.1103 38.4547 4.1257 38.5 4.1257C38.5453 4.1257 39.5648 5.1103 40.7656 6.31369ZM11.3836 11.3859L11 11.7694V17.4682C11 20.6025 11.0438 23.2808 11.097 23.4199C11.2444 23.8037 12.0673 24.1707 12.5238 24.0561C12.7417 24.0014 13.3691 23.5254 13.918 22.9982L14.9158 22.0397L18.1617 25.2729C21.1158 28.2155 21.4556 28.5062 21.9416 28.5062C22.4267 28.5062 22.7509 28.2306 25.4878 25.4933C28.2245 22.7558 28.5 22.4315 28.5 21.9463C28.5 21.4602 28.2094 21.1203 25.2675 18.1656L22.035 14.9189L22.9933 13.9209C23.5203 13.3718 23.9963 12.7443 24.0509 12.5263C24.1655 12.0698 23.7986 11.2467 23.4148 11.0993C23.2758 11.046 20.5981 11.0022 17.4645 11.0022H11.767L11.3836 11.3859ZM53.5358 11.1068C53.1963 11.2434 52.8422 12.1003 52.9491 12.5263C53.0037 12.7443 53.4797 13.3718 54.0067 13.9209L54.965 14.9189L51.7325 18.1656C48.7906 21.1203 48.5 21.4602 48.5 21.9463C48.5 22.4315 48.7755 22.7558 51.5122 25.4933C54.2491 28.2306 54.5733 28.5062 55.0584 28.5062C55.5444 28.5062 55.8842 28.2155 58.8383 25.2729L62.0842 22.0397L63.082 22.9982C64.1636 24.0369 64.6745 24.2647 65.2433 23.9617C65.9945 23.5613 65.9898 23.6018 65.995 17.5201L66 11.7694L65.6164 11.3859L65.233 11.0022L59.4836 11.0146C56.3216 11.0213 53.645 11.0629 53.5358 11.1068ZM19.3733 13.9837C18.545 14.9681 18.6164 15.0858 22.2481 18.7329L25.5275 22.0258L23.7744 23.7795L22.0211 25.533L18.7289 22.2529C15.0827 18.6204 14.965 18.5489 13.9808 19.3774L13.5 19.782V16.6424V13.5028H16.6389H19.7778L19.3733 13.9837ZM63.5 16.6424V19.782L63.0192 19.3774C62.035 18.5489 61.9173 18.6204 58.2711 22.2529L54.9789 25.533L53.2256 23.7795L51.4725 22.0258L54.7519 18.7329C58.3836 15.0858 58.455 14.9681 57.6267 13.9837L57.2222 13.5028H60.3611H63.5V16.6424ZM28.8836 23.8887C28.6727 24.0997 28.5 24.427 28.5 24.6162C28.5 24.8053 28.9589 26.6657 29.5198 28.7504L30.5397 32.5407L29.7098 33.3757C28.8323 34.2585 28.4987 35.0118 28.5016 36.1041C28.5033 36.8011 29.0809 38.1352 29.5691 38.5694L29.9011 38.8647L28.9928 39.8359C25.4625 43.6108 22.5889 49.1706 21.4398 54.4495C21.1105 55.9628 21.0828 56.4676 21.0845 60.9353C21.0863 65.7729 21.0869 65.7822 21.5137 67.1565C22.8028 71.3064 25.5044 74.2323 29.2812 75.5692C30.2792 75.9224 30.4297 75.9296 37.9472 75.981C44.6616 76.027 45.7416 76.0013 46.7753 75.7714C50.8909 74.8558 54.0719 71.7099 55.4863 67.1565C55.9131 65.7822 55.9138 65.7729 55.9155 60.9353C55.9172 56.4676 55.8895 55.9628 55.5602 54.4495C54.4111 49.1706 51.5375 43.6108 48.0072 39.8359L47.0989 38.8647L47.4309 38.5694C47.9191 38.1352 48.4967 36.8011 48.4984 36.1041C48.5012 35.0123 48.1675 34.2585 47.2916 33.3771L46.4633 32.5438L47.5009 28.6585C48.1794 26.1177 48.5039 24.6358 48.4386 24.3757C48.3838 24.1569 48.1591 23.8601 47.9395 23.7162C47.5605 23.4677 47.3106 23.4871 42.9811 24.1003L38.4219 24.7463L34.2031 24.1302C31.8828 23.7915 29.823 23.5122 29.6258 23.5097C29.4284 23.5071 29.0945 23.6777 28.8836 23.8887ZM35.1611 26.7941L38.4219 27.2699L41.9066 26.7762C43.8231 26.5046 45.4197 26.3108 45.4545 26.3455C45.4892 26.3804 45.1692 27.6944 44.7433 29.2659C44.3172 30.8372 43.9688 32.1531 43.9688 32.19C43.9688 32.2268 41.5078 32.257 38.5 32.257C35.4922 32.257 33.0312 32.2264 33.0312 32.189C33.0312 32.122 31.6909 27.1237 31.5303 26.5917C31.4236 26.2385 31.3122 26.2324 35.1611 26.7941ZM5.10484 33.8622C1.31859 37.6493 1 38.0099 1 38.5084C1 39.007 1.31859 39.3675 5.10484 43.1546C8.80234 46.8529 9.26047 47.2604 9.72125 47.2604C10.0563 47.2604 10.3655 47.1278 10.6164 46.8767C10.9702 46.523 11 46.3769 11 45.0013V43.5095H15.6164H20.233L20.6164 43.1258L21 42.7423V38.5084V34.2745L20.6164 33.891L20.233 33.5073H15.6164H11V32.0155C11 30.6399 10.9702 30.4938 10.6164 30.1401C10.3655 29.889 10.0563 29.7564 9.72125 29.7564C9.26047 29.7564 8.80234 30.1639 5.10484 33.8622ZM66.3836 30.1401C66.0298 30.4938 66 30.6399 66 32.0155V33.5073H61.3836H56.767L56.3836 33.891L56 34.2745V38.5084V42.7423L56.3836 43.1258L56.767 43.5095H61.3836H66V45.0013C66 46.3769 66.0298 46.523 66.3836 46.8767C66.6345 47.1278 66.9437 47.2604 67.2787 47.2604C67.7395 47.2604 68.1977 46.8529 71.8952 43.1546C75.6814 39.3675 76 39.007 76 38.5084C76 38.0099 75.6814 37.6493 71.8952 33.8622C68.1977 30.1639 67.7395 29.7564 67.2787 29.7564C66.9437 29.7564 66.6345 29.889 66.3836 30.1401ZM8.96078 35.7203C9.28766 35.9849 9.68172 36.0078 13.908 36.0078H18.5V38.5084V41.009H13.908C8.67672 41.009 8.68703 41.0066 8.51375 42.2377L8.42188 42.8913L6.23641 40.6998L4.05109 38.5084L6.23641 36.317L8.42188 34.1255L8.51375 34.7791C8.57172 35.1909 8.73719 35.5391 8.96078 35.7203ZM70.7642 40.6992L68.5781 42.8913L68.4863 42.2377C68.313 41.0066 68.3233 41.009 63.092 41.009H58.5V38.5084V36.0078H63.1164H67.733L68.1164 35.6242C68.3888 35.3519 68.5 35.0689 68.5 34.6482V34.0557L70.7252 36.2813L72.9503 38.507L70.7642 40.6992ZM45.6164 35.1412C45.8583 35.383 46 35.7034 46 36.0078C46 36.3123 45.8583 36.6327 45.6164 36.8744L45.233 37.2581H38.5H31.767L31.3836 36.8744C31.1417 36.6327 31 36.3123 31 36.0078C31 35.7034 31.1417 35.383 31.3836 35.1412L31.767 34.7576H38.5H45.233L45.6164 35.1412ZM45.9559 41.3765C49.3308 44.8814 52.0667 50.1007 53.1362 55.0746C53.3761 56.19 53.4217 57.1301 53.4205 60.9353C53.4191 65.4527 53.4177 65.4716 52.9948 66.7178C51.8767 70.0126 49.3305 72.5815 46.4958 73.2745C45.592 73.4955 44.4747 73.5233 38.1094 73.4837C30.932 73.4392 30.7445 73.4301 29.8342 73.0868C27.1641 72.0792 25.0353 69.7535 24.0052 66.7178C23.5823 65.4716 23.5809 65.4527 23.5795 60.9353C23.5783 57.1301 23.6239 56.19 23.8638 55.0746C24.9333 50.1007 27.6692 44.8814 31.0441 41.3765L32.6022 39.7587H38.5H44.3978L45.9559 41.3765ZM37.25 43.4916V44.7239L36.3886 44.8314C35.2161 44.978 33.5328 45.8482 32.7239 46.726C32.3627 47.118 31.8445 47.9085 31.5727 48.4825C31.1248 49.4279 31.0781 49.6675 31.0781 51.0193C31.0781 52.4282 31.1109 52.5784 31.6617 53.6931C32.3661 55.1188 33.2739 56.0061 34.7212 56.6834C35.7147 57.1485 35.8825 57.1759 38.2648 57.2607C41.1289 57.3628 41.5709 57.5014 42.5391 58.6015C43.4498 59.6363 43.7067 60.8246 43.31 62.1674C43.0564 63.0259 41.762 64.3206 40.9038 64.5742C40.4722 64.7018 38.9433 64.7643 36.2553 64.7643H32.25V66.0146V67.2648H34.75H37.25V68.5151V69.7654H38.5H39.75V68.5331V67.3008L40.6114 67.1933C41.7839 67.0467 43.4672 66.1765 44.2761 65.2986C44.6373 64.9067 45.1555 64.1162 45.4273 63.5421C45.8752 62.5968 45.9219 62.3572 45.9219 61.0053C45.9219 59.5964 45.8891 59.4462 45.3383 58.3316C44.6339 56.9058 43.7261 56.0186 42.2787 55.3412C41.2853 54.8761 41.1175 54.8488 38.7352 54.7639C35.8711 54.6619 35.4291 54.5232 34.4609 53.4231C33.5502 52.3884 33.2933 51.2 33.69 49.8572C33.9436 48.9987 35.238 47.7041 36.0962 47.4504C36.5278 47.3229 38.0567 47.2604 40.7447 47.2604H44.75V46.0101V44.7598H42.25H39.75V43.5095V42.2592H38.5H37.25V43.4916Z" fill="url(#paint0_linear_167_5199)" stroke="url(#paint1_linear_167_5199)"/>
<defs>
<linearGradient id="paint0_linear_167_5199" x1="38.5" y1="1" x2="38.5" y2="76" gradientUnits="userSpaceOnUse">
<stop stop-color="#A031F1"/>
<stop offset="1" stop-color="#D623FF"/>
</linearGradient>
<linearGradient id="paint1_linear_167_5199" x1="38.5" y1="1" x2="38.5" y2="76" gradientUnits="userSpaceOnUse">
<stop stop-color="#A031F1"/>
<stop offset="1" stop-color="#D623FF"/>
</linearGradient>
</defs>
</svg>
