<svg width="77" height="95" viewBox="0 0 77 95" fill="none" xmlns="http://www.w3.org/2000/svg">
<path opacity="0.07" d="M20.288 59.768C16.7893 59.768 13.7387 58.872 11.136 57.08C8.53333 55.288 6.528 52.728 5.12 49.4C3.712 46.072 3.008 42.168 3.008 37.688C3.008 30.8613 4.544 25.4853 7.616 21.56C10.7307 17.592 14.9547 15.608 20.288 15.608C25.6213 15.608 29.824 17.592 32.896 21.56C35.968 25.4853 37.504 30.8613 37.504 37.688C37.504 44.472 35.9467 49.848 32.832 53.816C29.76 57.784 25.5787 59.768 20.288 59.768ZM14.272 47.8C15.68 50.104 17.6853 51.256 20.288 51.256C22.8907 51.256 24.8747 50.104 26.24 47.8C27.6053 45.4533 28.288 42.104 28.288 37.752C28.288 33.3573 27.584 29.9867 26.176 27.64C24.8107 25.2933 22.848 24.12 20.288 24.12C17.6853 24.12 15.68 25.2933 14.272 27.64C12.9067 29.944 12.224 33.2933 12.224 37.688C12.224 42.0827 12.9067 45.4533 14.272 47.8ZM61.4265 30.712C65.5225 30.712 68.8718 31.992 71.4745 34.552C74.1198 37.112 75.4425 40.4187 75.4425 44.472C75.4425 48.952 73.9278 52.6213 70.8985 55.48C67.9118 58.3387 64.0932 59.768 59.4425 59.768C54.6638 59.768 50.7598 58.3387 47.7305 55.48C44.7438 52.6213 43.2505 48.952 43.2505 44.472C43.2505 40.504 44.7225 36.0027 47.6665 30.968L56.1145 16.376H66.1625C65.0532 18.296 63.5598 20.8773 61.6825 24.12C59.8052 27.3627 58.3972 29.7733 57.4585 31.352C58.7812 30.9253 60.1038 30.712 61.4265 30.712ZM59.3785 51.32C61.3838 51.32 63.0265 50.68 64.3065 49.4C65.5865 48.12 66.2265 46.4773 66.2265 44.472C66.2265 42.424 65.5865 40.76 64.3065 39.48C63.0265 38.2 61.3838 37.56 59.3785 37.56C57.3732 37.56 55.7092 38.2 54.3865 39.48C53.1065 40.76 52.4665 42.424 52.4665 44.472C52.4665 46.4773 53.1065 48.12 54.3865 49.4C55.7092 50.68 57.3732 51.32 59.3785 51.32Z" fill="url(#paint0_linear_167_5275)"/>
<line x1="40.5" y1="95" x2="40.5" y2="55" stroke="#B72BF6" stroke-dasharray="2 2"/>
<circle cx="40.5" cy="52.5" r="3.5" transform="rotate(-180 40.5 52.5)" fill="#B72BF6"/>
<defs>
<linearGradient id="paint0_linear_167_5275" x1="41" y1="0" x2="41" y2="65" gradientUnits="userSpaceOnUse">
<stop stop-color="#A031F1"/>
<stop offset="1" stop-color="#D623FF"/>
</linearGradient>
</defs>
</svg>
