<svg width="76" height="76" viewBox="0 0 76 76" fill="none" xmlns="http://www.w3.org/2000/svg">
<circle cx="38" cy="38" r="36" stroke="#B72BF6" stroke-width="4"/>
<path d="M63.6427 29.802L52.8954 19.3778C52.6422 19.134 52.2985 18.9978 51.9414 19H25.0721C24.7149 18.9978 24.3717 19.134 24.1185 19.3778L13.3712 29.802C12.8769 30.3055 12.8764 31.097 13.3708 31.6004L37.5525 57.6609C37.6505 57.7564 37.7639 57.8358 37.8885 57.8956H38.0095C38.3158 58.0348 38.6702 58.0348 38.9766 57.8956H39.0976C39.2222 57.8358 39.3355 57.7564 39.4336 57.6609L63.6153 31.6004C64.1177 31.104 64.1298 30.3126 63.6427 29.802ZM51.3906 21.6059L59.4512 29.4242H49.9265L43.8811 21.6059H51.3906ZM40.5223 21.6059L46.5678 29.4242H30.4466L36.4921 21.6059H40.5223ZM25.6241 21.6059H33.1337L27.0883 29.4242H17.5635L25.6241 21.6059ZM17.3486 32.0306H26.8467L34.4773 50.4682L17.3486 32.0306ZM38.5075 53.2828L29.7485 32.0306H47.2134L38.5075 53.2828ZM42.5378 50.4683L50.1684 32.0307H59.6665L42.5378 50.4683Z" fill="url(#paint0_linear_661_5112)" stroke="url(#paint1_linear_661_5112)"/>
<defs>
<linearGradient id="paint0_linear_661_5112" x1="38.5" y1="19" x2="38.5" y2="58" gradientUnits="userSpaceOnUse">
<stop stop-color="#A031F1"/>
<stop offset="1" stop-color="#D623FF"/>
</linearGradient>
<linearGradient id="paint1_linear_661_5112" x1="38.5" y1="19" x2="38.5" y2="58" gradientUnits="userSpaceOnUse">
<stop stop-color="#A031F1"/>
<stop offset="1" stop-color="#D623FF"/>
</linearGradient>
</defs>
</svg>
