<svg width="99" height="64" viewBox="0 0 99 64" fill="none" xmlns="http://www.w3.org/2000/svg">
<path d="M24.53 63.0126C19.61 63.0126 15.32 61.7526 11.66 59.2326C8 56.7126 5.18 53.1126 3.2 48.4326C1.22 43.7526 0.23 38.2626 0.23 31.9626C0.23 22.3626 2.39 14.8026 6.71 9.28261C11.09 3.70261 17.03 0.912614 24.53 0.912614C32.03 0.912614 37.94 3.70261 42.26 9.28261C46.58 14.8026 48.74 22.3626 48.74 31.9626C48.74 41.5026 46.55 49.0626 42.17 54.6426C37.85 60.2226 31.97 63.0126 24.53 63.0126ZM16.07 46.1826C18.05 49.4226 20.87 51.0426 24.53 51.0426C28.19 51.0426 30.98 49.4226 32.9 46.1826C34.82 42.8826 35.78 38.1726 35.78 32.0526C35.78 25.8726 34.79 21.1326 32.81 17.8326C30.89 14.5326 28.13 12.8826 24.53 12.8826C20.87 12.8826 18.05 14.5326 16.07 17.8326C14.15 21.0726 13.19 25.7826 13.19 31.9626C13.19 38.1426 14.15 42.8826 16.07 46.1826ZM84.001 24.2226C88.441 25.2426 91.981 27.4326 94.621 30.7926C97.321 34.0926 98.671 38.0826 98.671 42.7626C98.671 48.5826 96.661 53.4126 92.641 57.2526C88.621 61.0926 83.551 63.0126 77.431 63.0126C71.491 63.0126 66.601 61.1526 62.761 57.4326C58.981 53.7126 56.971 48.9126 56.731 43.0326H69.601C69.721 45.4326 70.501 47.3826 71.941 48.8826C73.381 50.3226 75.211 51.0426 77.431 51.0426C79.831 51.0426 81.811 50.2326 83.371 48.6126C84.931 46.9926 85.711 44.9226 85.711 42.4026C85.711 39.8226 84.871 37.7826 83.191 36.2826C81.511 34.7826 79.291 34.0326 76.531 34.0326H67.891V31.6026L78.781 13.6026H58.171V2.08262H96.421V4.51262L84.001 24.2226Z" fill="url(#paint0_linear_167_5116)"/>
<defs>
<linearGradient id="paint0_linear_167_5116" x1="49.5" y1="-20.0674" x2="49.5" y2="94.9326" gradientUnits="userSpaceOnUse">
<stop stop-color="#A031F1"/>
<stop offset="1" stop-color="#D623FF"/>
</linearGradient>
</defs>
</svg>
