<svg width="57" height="57" viewBox="0 0 57 57" fill="none" xmlns="http://www.w3.org/2000/svg">
<circle cx="28.5" cy="28.5" r="26" fill="url(#paint0_linear_167_5279)" stroke="#B72BF6" stroke-width="5"/>
<path d="M42.5055 42.0746H14.893C13.8801 42.0746 12.9088 41.6723 12.1926 40.956C11.4765 40.24 11.0742 39.2688 11.0742 38.2559V37.7623C11.0742 37.4507 11.198 37.1519 11.4183 36.9316C11.6386 36.7111 11.9374 36.5873 12.2492 36.5873C12.5608 36.5873 12.8595 36.7111 13.0798 36.9316C13.3004 37.1519 13.4242 37.4507 13.4242 37.7623V38.2559C13.4242 38.6453 13.579 39.0191 13.8543 39.2945C14.1297 39.5699 14.5032 39.7246 14.893 39.7246H42.5055C42.895 39.7246 43.2684 39.5699 43.5438 39.2945C43.8195 39.0191 43.9742 38.6454 43.9742 38.2559V20.0434C43.9742 19.6539 43.8195 19.2801 43.5438 19.0047C43.2684 18.7293 42.895 18.5746 42.5055 18.5746H14.893C14.5032 18.5746 14.1298 18.7293 13.8543 19.0047C13.5789 19.2801 13.4242 19.6539 13.4242 20.0434V30.7943C13.4242 31.1059 13.3004 31.4049 13.0798 31.6252C12.8595 31.8455 12.5608 31.9693 12.2492 31.9693C11.9374 31.9693 11.6386 31.8455 11.4183 31.6252C11.198 31.4049 11.0742 31.1059 11.0742 30.7943V20.0434C11.0742 19.0304 11.4766 18.0592 12.1926 17.3432C12.9088 16.6269 13.8801 16.2246 14.893 16.2246H42.5055C43.5181 16.2246 44.4896 16.6269 45.2056 17.3432C45.9219 18.0592 46.3242 19.0304 46.3242 20.0434V38.2559C46.3242 39.2688 45.9219 40.24 45.2056 40.956C44.4896 41.6723 43.5181 42.0746 42.5055 42.0746Z" fill="white"/>
<path d="M11.9791 32.7217H12.5197C13.0193 32.7217 13.4245 33.2213 13.4245 33.6266V33.6384C13.4245 34.138 13.0196 34.5432 12.5197 34.5432H11.9791C11.4795 34.5432 11.0742 34.0436 11.0742 33.6384V33.6266C11.0742 33.1269 11.4792 32.7217 11.9791 32.7217Z" fill="white"/>
<path d="M28.6978 30.3247C22.8087 30.343 16.9955 28.9913 11.7188 26.3766L12.7644 24.2734C17.7133 26.7336 23.1649 28.014 28.6914 28.014C34.2179 28.014 39.6699 26.7336 44.6183 24.2734L45.664 26.3766C40.3904 28.9892 34.5821 30.3407 28.697 30.3247H28.6978Z" fill="white"/>
<path d="M35.7484 18.5754H21.6484V14.1691C21.6484 13.4681 21.927 12.7956 22.4227 12.2996C22.9184 11.8039 23.5908 11.5254 24.2922 11.5254H33.1047C33.8057 11.5254 34.4782 11.8039 34.9739 12.2996C35.4699 12.7956 35.7484 13.468 35.7484 14.1691V18.5754ZM23.9984 16.2254H33.3984V14.1691C33.3984 14.0912 33.3675 14.0165 33.3124 13.9614C33.2573 13.9063 33.1826 13.8754 33.1047 13.8754H24.2922C24.1298 13.8754 23.9984 14.0068 23.9984 14.1691V16.2254Z" fill="white"/>
<defs>
<linearGradient id="paint0_linear_167_5279" x1="28.5" y1="0" x2="28.5" y2="57" gradientUnits="userSpaceOnUse">
<stop stop-color="#A031F1"/>
<stop offset="1" stop-color="#D623FF"/>
</linearGradient>
</defs>
</svg>
