<svg width="57" height="57" viewBox="0 0 57 57" fill="none" xmlns="http://www.w3.org/2000/svg">
<circle cx="28.5" cy="28.5" r="26" fill="url(#paint0_linear_167_5264)" stroke="#B72BF6" stroke-width="5"/>
<path fill-rule="evenodd" clip-rule="evenodd" d="M35.4475 28.1433C30.1753 28.1433 25.895 32.3681 25.895 37.5717C25.895 42.7754 30.1754 47 35.4475 47C40.7196 47 45 42.7752 45 37.5717C45 32.368 40.7196 28.1433 35.4475 28.1433ZM35.4475 29.8575C39.7611 29.8575 43.2634 33.3143 43.2634 37.5718C43.2634 41.8293 39.7611 45.2861 35.4475 45.2861C31.134 45.2861 27.6316 41.8293 27.6316 37.5718C27.6316 33.3143 31.134 29.8575 35.4475 29.8575ZM35.8938 31.6943C35.6194 31.5307 35.2754 31.5307 35.0012 31.6943L30.6591 34.2657C30.3969 34.4201 30.2369 34.6993 30.2369 35.0004V40.1432C30.2369 40.444 30.3969 40.7235 30.6591 40.8779L35.0012 43.4494C35.2757 43.613 35.6197 43.613 35.8938 43.4494L40.2359 40.8779C40.4982 40.7235 40.6581 40.4443 40.6581 40.1432V35.0004C40.6581 34.6996 40.4982 34.4201 40.2359 34.2657L35.8938 31.6943ZM35.4475 33.4283L38.9213 35.4854V39.658L35.4475 41.7151L31.9737 39.658V35.4854L35.4475 33.4283ZM12.8685 15.4871V18.7143C12.8685 19.833 13.5937 20.786 14.6053 21.1391V33.2858H12.8685C12.3891 33.2858 12 33.6698 12 34.143C12 34.6162 12.3891 35.0002 12.8685 35.0002H24.1584C24.6379 35.0002 25.0269 34.6162 25.0269 34.143C25.0269 33.6698 24.6379 33.2858 24.1584 33.2858H22.4216V29.0001C22.4216 28.5269 22.8107 28.1429 23.2902 28.1429H25.0269C25.5064 28.1429 25.8955 28.5269 25.8955 29.0001V29.8574C25.8955 30.3306 26.2845 30.7146 26.764 30.7146C27.2435 30.7146 27.6325 30.3306 27.6325 29.8574V29.0001C27.6325 27.5807 26.4653 26.4287 25.0272 26.4287H23.2905C21.8523 26.4287 20.6852 27.5807 20.6852 29.0001V33.2858H16.3431V21.1391C16.667 21.026 16.9607 20.8518 17.2116 20.6299C17.6728 21.038 18.2817 21.2857 18.9484 21.2857C19.6154 21.2857 20.224 21.038 20.6852 20.6299C21.1463 21.038 21.7552 21.2857 22.4219 21.2857C23.0889 21.2857 23.6976 21.038 24.1587 20.6299C24.6198 21.038 25.2287 21.2857 25.8955 21.2857C26.5625 21.2857 27.1711 21.038 27.6322 20.6299C28.0934 21.038 28.7022 21.2857 29.369 21.2857C30.036 21.2857 30.6446 21.038 31.1057 20.6299C31.3567 20.8521 31.6504 21.026 31.9743 21.1391V26.4286C31.9743 26.9018 32.3633 27.2858 32.8428 27.2858C33.3223 27.2858 33.7113 26.9018 33.7113 26.4286V21.1391C34.7229 20.7858 35.4481 19.8327 35.4481 18.7143V15.4871C35.9814 15.0164 36.3166 14.3325 36.3166 13.5714C36.3166 12.152 35.1495 11 33.7113 11H14.6056C13.1675 11 12.0003 12.152 12.0003 13.5714C12.0003 14.3325 12.3356 15.0167 12.8688 15.4871H12.8685ZM14.6053 16.1428V18.7143C14.6053 19.1875 14.9943 19.5715 15.4738 19.5715C15.9533 19.5715 16.3424 19.1875 16.3424 18.7143V16.1428H14.6053ZM19.8159 16.1428H18.0791V18.7143C18.0791 19.1875 18.4682 19.5715 18.9477 19.5715C19.4271 19.5715 19.8162 19.1875 19.8162 18.7143V16.1428H19.8159ZM23.2897 16.1428H21.5529V18.7143C21.5529 19.1875 21.942 19.5715 22.4215 19.5715C22.901 19.5715 23.29 19.1875 23.29 18.7143V16.1428H23.2897ZM26.7635 16.1428H25.0268V18.7143C25.0268 19.1875 25.4158 19.5715 25.8953 19.5715C26.3748 19.5715 26.7638 19.1875 26.7638 18.7143V16.1428H26.7635ZM30.2374 16.1428H28.5006V18.7143C28.5006 19.1875 28.8896 19.5715 29.3691 19.5715C29.8486 19.5715 30.2377 19.1875 30.2377 18.7143V16.1428H30.2374ZM33.7112 16.1428H31.9744V18.7143C31.9744 19.1875 32.3635 19.5715 32.843 19.5715C33.3224 19.5715 33.7115 19.1875 33.7115 18.7143V16.1428H33.7112ZM34.5797 13.5714C34.5797 14.0447 34.1907 14.4287 33.7112 14.4287H14.6054C14.126 14.4287 13.7369 14.0447 13.7369 13.5714C13.7369 13.0982 14.126 12.7142 14.6054 12.7142H33.7112C34.1907 12.7142 34.5797 13.0982 34.5797 13.5714Z" fill="white"/>
<defs>
<linearGradient id="paint0_linear_167_5264" x1="28.5" y1="0" x2="28.5" y2="57" gradientUnits="userSpaceOnUse">
<stop stop-color="#A031F1"/>
<stop offset="1" stop-color="#D623FF"/>
</linearGradient>
</defs>
</svg>
