<svg width="57" height="57" viewBox="0 0 57 57" fill="none" xmlns="http://www.w3.org/2000/svg">
<path d="M54.5 28.0169C54.5 42.0695 42.8999 53.5339 28.5 53.5339C14.1001 53.5339 2.5 42.0695 2.5 28.0169C2.5 13.9644 14.1001 2.5 28.5 2.5C42.8999 2.5 54.5 13.9644 54.5 28.0169Z" fill="url(#paint0_linear_706_5110)" stroke="#B72BF6" stroke-width="5"/>
<g clip-path="url(#clip0_706_5110)">
<path d="M17.1017 17.8288V15.1001C17.1017 14.5849 16.6719 14.167 16.1413 14.167C15.6111 14.167 15.181 14.5849 15.181 15.1001V17.6569C14.7322 17.8113 14.3434 18.0966 14.0682 18.4744C13.793 18.852 13.6451 19.3032 13.6445 19.7659V30.9636C13.6451 31.4262 13.793 31.8774 14.0682 32.2552C14.3434 32.6328 14.7322 32.9184 15.181 33.0725V35.6293C15.181 36.1448 15.6111 36.5624 16.1413 36.5624C16.6719 36.5624 17.1017 36.1448 17.1017 35.6293V32.9009C17.8142 32.5012 18.2533 31.7629 18.2542 30.9636V19.7659C18.2534 18.9665 17.8142 18.2284 17.1017 17.8288V17.8288ZM16.3335 19.7659V30.9636C16.3335 31.1698 16.1615 31.3369 15.9495 31.3369C15.7373 31.3369 15.5653 31.1698 15.5653 30.9636V19.7659C15.5653 19.5596 15.7373 19.3927 15.9495 19.3927C16.1614 19.3927 16.3335 19.5596 16.3335 19.7659Z" fill="white"/>
<path d="M23.6332 17.8288V15.1001C23.6332 14.5849 23.2031 14.167 22.6729 14.167C22.1423 14.167 21.7125 14.5849 21.7125 15.1001V17.6569C21.2634 17.8113 20.8746 18.0966 20.5994 18.4744C20.3245 18.852 20.1763 19.3032 20.1758 19.7658V26.4585C20.1763 26.9211 20.3245 27.3724 20.5994 27.7499C20.8746 28.1274 21.2634 28.413 21.7125 28.5672V31.1503C21.7125 31.6655 22.1423 32.0834 22.6729 32.0834C23.2031 32.0834 23.6332 31.6655 23.6332 31.1503V28.392C24.3443 27.9928 24.7833 27.2563 24.7854 26.4585V19.7658C24.7846 18.9665 24.3454 18.2284 23.6332 17.8288ZM22.8647 19.7658V26.4585C22.8647 26.6644 22.693 26.8316 22.4807 26.8316C22.2685 26.8316 22.0965 26.6644 22.0965 26.4585V19.7658C22.0965 19.5596 22.2685 19.3927 22.4807 19.3927C22.693 19.3927 22.8647 19.5596 22.8647 19.7658Z" fill="white"/>
<path d="M30.1605 24.1745V21.4458C30.1605 20.9306 29.7305 20.5127 29.2002 20.5127C28.6697 20.5127 28.2399 20.9306 28.2399 21.4458V24.0028C27.7908 24.157 27.402 24.4426 27.127 24.8201C26.8518 25.1977 26.7037 25.6489 26.7031 26.1116V29.0977C26.7037 29.5603 26.8518 30.0116 27.127 30.3893C27.4019 30.7669 27.7907 31.0525 28.2399 31.2066V33.7634C28.2399 34.2789 28.6697 34.6965 29.2002 34.6965C29.7305 34.6965 30.1605 34.2789 30.1605 33.7634V31.035C30.8728 30.6354 31.3119 29.897 31.313 29.0977V26.1116C31.312 25.3122 30.8728 24.5741 30.1605 24.1745V24.1745ZM29.3923 26.1116V29.0977C29.3923 29.3039 29.2203 29.471 29.0081 29.471C28.7959 29.471 28.6238 29.3039 28.6238 29.0977V26.1116C28.6238 25.9056 28.7959 25.7384 29.0081 25.7384C29.2203 25.7384 29.3923 25.9056 29.3923 26.1116V26.1116Z" fill="white"/>
<path d="M42.8388 17.6569V15.1001C42.8388 14.5849 42.4087 14.167 41.8784 14.167C41.3479 14.167 40.9181 14.5849 40.9181 15.1001V17.8288C40.2056 18.2284 39.7664 18.9665 39.7656 19.7658V23.4984C39.7664 24.2977 40.2056 25.0361 40.9181 25.4358V28.1641C40.9181 28.6797 41.3479 29.0973 41.8784 29.0973C42.4087 29.0973 42.8388 28.6797 42.8388 28.1641V25.6074C43.2876 25.4533 43.6764 25.1676 43.9516 24.7901C44.2268 24.4123 44.3747 23.9611 44.3753 23.4984V19.7658C44.3747 19.3032 44.2268 18.852 43.9516 18.4744C43.6764 18.0967 43.2876 17.8113 42.8388 17.6569V17.6569ZM42.4545 19.7658V23.4984C42.4545 23.7046 42.2825 23.8718 42.0703 23.8718C41.8583 23.8718 41.6863 23.7046 41.6863 23.4984V19.7658C41.6863 19.5596 41.8583 19.3927 42.0703 19.3927C42.2825 19.3927 42.4545 19.5596 42.4545 19.7658Z" fill="white"/>
<path d="M36.3073 17.6569V15.1001C36.3073 14.5849 35.8775 14.167 35.3469 14.167C34.8166 14.167 34.3866 14.5849 34.3866 15.1001V17.8288C33.6743 18.2284 33.2352 18.9665 33.2344 19.7659V38.802C33.2352 39.6013 33.6744 40.3394 34.3866 40.739V43.4677C34.3866 43.9829 34.8166 44.4008 35.3469 44.4008C35.8775 44.4008 36.3073 43.9829 36.3073 43.4677V40.9109C36.7564 40.7565 37.1452 40.4712 37.4204 40.0934C37.6953 39.7158 37.8435 39.2646 37.844 38.802V19.7659C37.8435 19.3032 37.6953 18.852 37.4204 18.4744C37.1452 18.0967 36.7564 17.8113 36.3073 17.6569V17.6569ZM35.9233 19.7659V38.802C35.9233 39.0082 35.7513 39.1751 35.539 39.1751C35.3268 39.1751 35.1551 39.0082 35.1551 38.802V19.7659C35.1551 19.5596 35.3268 19.3927 35.539 19.3927C35.7513 19.3927 35.9233 19.5596 35.9233 19.7659V19.7659Z" fill="white"/>
</g>
<defs>
<linearGradient id="paint0_linear_706_5110" x1="28.5" y1="0" x2="28.5" y2="56.0339" gradientUnits="userSpaceOnUse">
<stop stop-color="#A031F1"/>
<stop offset="1" stop-color="#D623FF"/>
</linearGradient>
<clipPath id="clip0_706_5110">
<rect width="48" height="33.7931" fill="white" transform="translate(5 10.6211)"/>
</clipPath>
</defs>
</svg>
