<svg width="76" height="74" viewBox="0 0 76 74" fill="none" xmlns="http://www.w3.org/2000/svg">
<path opacity="0.07" d="M20.288 68.768C16.7893 68.768 13.7387 67.872 11.136 66.08C8.53333 64.288 6.528 61.728 5.12 58.4C3.712 55.072 3.008 51.168 3.008 46.688C3.008 39.8613 4.544 34.4853 7.616 30.56C10.7307 26.592 14.9547 24.608 20.288 24.608C25.6213 24.608 29.824 26.592 32.896 30.56C35.968 34.4853 37.504 39.8613 37.504 46.688C37.504 53.472 35.9467 58.848 32.832 62.816C29.76 66.784 25.5787 68.768 20.288 68.768ZM14.272 56.8C15.68 59.104 17.6853 60.256 20.288 60.256C22.8907 60.256 24.8747 59.104 26.24 56.8C27.6053 54.4533 28.288 51.104 28.288 46.752C28.288 42.3573 27.584 38.9867 26.176 36.64C24.8107 34.2933 22.848 33.12 20.288 33.12C17.6853 33.12 15.68 34.2933 14.272 36.64C12.9067 38.944 12.224 42.2933 12.224 46.688C12.224 51.0827 12.9067 54.4533 14.272 56.8ZM62.5785 41.184C65.7358 41.9093 68.2532 43.4667 70.1305 45.856C72.0505 48.2027 73.0105 51.04 73.0105 54.368C73.0105 58.5067 71.5812 61.9413 68.7225 64.672C65.8638 67.4027 62.2585 68.768 57.9065 68.768C53.6825 68.768 50.2052 67.4453 47.4745 64.8C44.7865 62.1547 43.3572 58.7413 43.1865 54.56H52.3385C52.4238 56.2667 52.9785 57.6533 54.0025 58.72C55.0265 59.744 56.3278 60.256 57.9065 60.256C59.6132 60.256 61.0212 59.68 62.1305 58.528C63.2398 57.376 63.7945 55.904 63.7945 54.112C63.7945 52.2773 63.1972 50.8267 62.0025 49.76C60.8078 48.6933 59.2292 48.16 57.2665 48.16H51.1225V46.432L58.8665 33.632H44.2105V25.44H71.4105V27.168L62.5785 41.184Z" fill="url(#paint0_linear_630_5110)"/>
<line x1="37.5" y1="-2.18557e-08" x2="37.5" y2="40" stroke="#B72BF6" stroke-dasharray="2 2"/>
<circle cx="37.5" cy="41.5" r="3.5" fill="#B72BF6"/>
<defs>
<linearGradient id="paint0_linear_630_5110" x1="38" y1="9" x2="38" y2="74" gradientUnits="userSpaceOnUse">
<stop stop-color="#A031F1"/>
<stop offset="1" stop-color="#D623FF"/>
</linearGradient>
</defs>
</svg>
