<svg width="55" height="57" viewBox="0 0 55 57" fill="none" xmlns="http://www.w3.org/2000/svg">
<path d="M52.5 28.5C52.5 42.9443 41.2237 54.5 27.5 54.5C13.7763 54.5 2.5 42.9443 2.5 28.5C2.5 14.0557 13.7763 2.5 27.5 2.5C41.2237 2.5 52.5 14.0557 52.5 28.5Z" fill="url(#paint0_linear_167_5247)" stroke="#B72BF6" stroke-width="5"/>
<path d="M30.333 29.4072H29.0981V29.219C29.0981 28.891 28.8305 28.6254 28.5007 28.6254C28.1706 28.6254 27.9033 28.891 27.9033 29.219V29.4072H26.6687C26.3607 29.4075 26.0658 29.5294 25.8479 29.7456C25.6303 29.9619 25.5079 30.2552 25.5076 30.561V33.2684C25.5079 33.5745 25.6303 33.8675 25.8482 34.0838C26.0658 34.3003 26.3607 34.4219 26.6687 34.4221H27.9033V37.0857L26.7024 37.0966L26.7021 36.2094C26.7021 35.8816 26.4348 35.616 26.105 35.616C25.7749 35.616 25.5076 35.8817 25.5076 36.2094V37.0966C25.5079 37.4024 25.6302 37.6957 25.8479 37.912C26.0658 38.1282 26.3607 38.2501 26.6687 38.2504H27.9033V38.4386C27.9033 38.7666 28.1706 39.0322 28.5007 39.0322C28.8304 39.0322 29.098 38.7666 29.098 38.4386V38.2504H30.3329C30.6406 38.2501 30.9358 38.1285 31.1534 37.912C31.3711 37.6957 31.4937 37.4024 31.494 37.0966V34.3886C31.4937 34.0829 31.3711 33.7895 31.1534 33.5733C30.9358 33.357 30.6406 33.2352 30.3329 33.2349H29.098V30.572L30.2992 30.561V31.4483C30.2992 31.776 30.5668 32.0419 30.8965 32.0419C31.2266 32.0419 31.4939 31.776 31.4939 31.4483V30.561C31.4936 30.2552 31.371 29.9619 31.1534 29.7456C30.9358 29.5291 30.6406 29.4075 30.3329 29.4072H30.333ZM30.2993 34.3887L30.333 37.0632L29.0981 37.0745V34.4113L30.2993 34.3887ZM27.9033 33.2462L26.7024 33.2684L26.6687 30.5945L27.9033 30.5833L27.9033 33.2462ZM28.5007 25.8949C26.3857 25.8949 24.3574 26.7299 22.8618 28.216C21.3664 29.702 20.5261 31.7177 20.5261 33.8196C20.5264 35.9213 21.3664 37.9368 22.8618 39.423C24.3576 40.909 26.386 41.7437 28.5009 41.7437C30.6158 41.7437 32.6443 40.909 34.1398 39.423C35.6352 37.9366 36.4755 35.921 36.4755 33.8194C36.4732 31.7183 35.632 29.7041 34.1371 28.2186C32.6419 26.7328 30.6149 25.8973 28.5006 25.8949H28.5007ZM28.5007 40.5566C26.7024 40.5563 24.978 39.8466 23.7065 38.5831C22.435 37.3194 21.7209 35.6058 21.7209 33.8191C21.7209 32.0322 22.4354 30.3186 23.7068 29.0551C24.9783 27.7916 26.7027 27.082 28.501 27.082C30.2993 27.082 32.0237 27.7917 33.2952 29.0551C34.5667 30.3186 35.2808 32.0325 35.2808 33.8191C35.2788 35.6055 34.564 37.3179 33.2928 38.5811C32.0216 39.8441 30.2983 40.5546 28.5006 40.5567L28.5007 40.5566ZM27.9033 12.7965V10.0657C27.9033 9.73802 28.1706 9.4724 28.5007 9.4724C28.8305 9.4724 29.0981 9.73803 29.0981 10.0657V12.7965C29.0981 13.1242 28.8305 13.3901 28.5007 13.3901C28.1706 13.3901 27.9033 13.1242 27.9033 12.7965ZM31.2354 11.4311V8.7006C31.2354 8.3729 31.503 8.10698 31.8328 8.10698C32.1626 8.10698 32.4302 8.3729 32.4302 8.7006V11.4311C32.4302 11.7588 32.1626 12.0247 31.8328 12.0247C31.503 12.0247 31.2354 11.7588 31.2354 11.4311ZM34.3418 10.3227V7.59218C34.3424 7.26476 34.6097 7 34.9392 7C35.2684 7 35.5357 7.26476 35.5366 7.59218V10.3227C35.5357 10.6501 35.2684 10.9148 34.9392 10.9148C34.6097 10.9148 34.3424 10.6501 34.3418 10.3227ZM24.5716 11.4311V8.7006C24.5716 8.37261 24.839 8.10698 25.169 8.10698C25.4988 8.10698 25.7664 8.37262 25.7664 8.7006V11.4311C25.7664 11.7588 25.4988 12.0247 25.169 12.0247C24.839 12.0247 24.5716 11.7588 24.5716 11.4311ZM21.4653 10.3227V7.59218C21.4662 7.26476 21.7332 7 22.0627 7C22.3922 7 22.6592 7.26476 22.66 7.59218V10.3227C22.6592 10.6501 22.3922 10.9148 22.0627 10.9148C21.7332 10.9148 21.4662 10.6501 21.4653 10.3227ZM41.4035 42.8125H33.2951C35.9482 41.4171 37.8519 38.9352 38.5022 36.0231C39.1527 33.1107 38.4847 30.0618 36.6746 27.6819C34.8647 25.3022 32.0951 23.8311 29.098 23.6581V19.0875C29.7323 19.2752 30.3898 19.3739 31.0514 19.3803C31.8928 19.3846 32.7241 19.199 33.4825 18.8372C36.1783 17.5526 37.1805 14.4558 37.2217 14.3243V14.3246C37.2711 14.1673 37.2525 13.9966 37.1703 13.8534C37.0881 13.7102 36.9495 13.6074 36.7879 13.5696C33.7368 12.859 31.3903 13.1276 29.8137 14.3691C29.2634 14.8047 28.8153 15.3542 28.5007 15.9799C28.186 15.3542 27.738 14.8048 27.1877 14.3691C25.6111 13.1272 23.2649 12.8579 20.2134 13.5696C20.0519 13.6074 19.9136 13.7102 19.8313 13.8534C19.7491 13.9966 19.7305 14.1673 19.7799 14.3246C19.8212 14.456 20.8233 17.5529 23.5191 18.8375V18.8372C24.2775 19.199 25.1088 19.3846 25.95 19.3803C26.6115 19.3739 27.269 19.2752 27.9034 19.0875V23.6581C24.9066 23.8313 22.137 25.3021 20.3268 27.6821C18.5169 30.0618 17.8489 33.111 18.4992 36.0233C19.1498 38.9354 21.0532 41.4174 23.7063 42.8128H15.5971C15.2673 42.8128 15 43.0787 15 43.4064C15 43.7341 15.2673 44 15.5971 44H41.4026C41.7327 44 42 43.7341 42 43.4064C42 43.0787 41.7327 42.8128 41.4026 42.8128L41.4035 42.8125ZM30.5667 15.2912C31.7325 14.38 33.5008 14.1426 35.8337 14.5818C35.4342 15.4526 34.5294 17.0253 32.9589 17.7705C31.8455 18.2983 30.5621 18.3284 29.1381 17.8615L29.1384 17.8612C29.2741 16.8573 29.7838 15.9403 30.5668 15.2912L30.5667 15.2912ZM24.0423 17.7705C22.4715 17.0253 21.5667 15.4523 21.1675 14.5818C23.4987 14.1412 25.2682 14.3799 26.4342 15.2912H26.4345C27.2175 15.9399 27.7272 16.8573 27.8628 17.8612C26.4388 18.3283 25.1549 18.2983 24.0423 17.7705L24.0423 17.7705ZM19.4509 33.8196C19.4509 31.4346 20.4041 29.1471 22.1016 27.4606C23.7987 25.7742 26.1006 24.8268 28.5008 24.8268C30.9009 24.8268 33.2026 25.7744 34.8997 27.4609C36.5971 29.1474 37.5505 31.4347 37.5505 33.8199C37.5505 36.2048 36.5969 38.4924 34.8997 40.1788C33.2026 41.8652 30.9008 42.8126 28.5005 42.8126C26.1011 42.81 23.8007 41.8615 22.1042 40.1756C20.4076 38.4897 19.4535 36.2039 19.4509 33.8196V33.8196Z" fill="white"/>
<defs>
<linearGradient id="paint0_linear_167_5247" x1="27.5" y1="0" x2="27.5" y2="57" gradientUnits="userSpaceOnUse">
<stop stop-color="#A031F1"/>
<stop offset="1" stop-color="#D623FF"/>
</linearGradient>
</defs>
</svg>
