<svg width="80" height="80" viewBox="0 0 80 80" fill="none" xmlns="http://www.w3.org/2000/svg">
<circle cx="40" cy="40" r="40" fill="url(#paint0_linear_167_5203)"/>
<path d="M25.7613 59.624C22.9187 59.624 20.44 58.896 18.3253 57.44C16.2107 55.984 14.5813 53.904 13.4373 51.2C12.2933 48.496 11.7213 45.324 11.7213 41.684C11.7213 36.1373 12.9693 31.7693 15.4653 28.58C17.996 25.356 21.428 23.744 25.7613 23.744C30.0947 23.744 33.5093 25.356 36.0053 28.58C38.5013 31.7693 39.7493 36.1373 39.7493 41.684C39.7493 47.196 38.484 51.564 35.9533 54.788C33.4573 58.012 30.06 59.624 25.7613 59.624ZM20.8733 49.9C22.0173 51.772 23.6467 52.708 25.7613 52.708C27.876 52.708 29.488 51.772 30.5973 49.9C31.7067 47.9933 32.2613 45.272 32.2613 41.736C32.2613 38.1653 31.6893 35.4267 30.5453 33.52C29.436 31.6133 27.8413 30.66 25.7613 30.66C23.6467 30.66 22.0173 31.6133 20.8733 33.52C19.764 35.392 19.2093 38.1133 19.2093 41.684C19.2093 45.2547 19.764 47.9933 20.8733 49.9ZM57.6264 52.032H68.1824V59H43.9504V57.388C48.9077 51.6333 52.4437 47.4387 54.5584 44.804C56.7077 42.1347 58.1464 40.0893 58.8744 38.668C59.637 37.2467 60.0184 35.912 60.0184 34.664C60.0184 33.4507 59.6544 32.48 58.9264 31.752C58.1984 31.024 57.245 30.66 56.0664 30.66C54.853 30.66 53.865 31.0413 53.1024 31.804C52.3744 32.532 52.0104 33.52 52.0104 34.768V35.392H44.5744V34.664C44.5744 31.44 45.6144 28.8053 47.6944 26.76C49.7744 24.7147 52.5304 23.692 55.9624 23.692C58.181 23.692 60.1744 24.16 61.9424 25.096C63.7104 25.9973 65.0797 27.28 66.0504 28.944C67.021 30.608 67.5064 32.48 67.5064 34.56C67.5064 36.7787 66.8304 39.1187 65.4784 41.58C64.1264 44.0413 61.509 47.5253 57.6264 52.032Z" fill="white"/>
<defs>
<linearGradient id="paint0_linear_167_5203" x1="40" y1="0" x2="40" y2="80" gradientUnits="userSpaceOnUse">
<stop stop-color="#A031F1"/>
<stop offset="1" stop-color="#D623FF"/>
</linearGradient>
</defs>
</svg>
