<svg width="78" height="64" viewBox="0 0 78 64" fill="none" xmlns="http://www.w3.org/2000/svg">
<path d="M24.53 63.0126C19.61 63.0126 15.32 61.7526 11.66 59.2326C8 56.7126 5.18 53.1126 3.2 48.4326C1.22 43.7526 0.23 38.2626 0.23 31.9626C0.23 22.3626 2.39 14.8026 6.71 9.28261C11.09 3.70261 17.03 0.912614 24.53 0.912614C32.03 0.912614 37.94 3.70261 42.26 9.28261C46.58 14.8026 48.74 22.3626 48.74 31.9626C48.74 41.5026 46.55 49.0626 42.17 54.6426C37.85 60.2226 31.97 63.0126 24.53 63.0126ZM16.07 46.1826C18.05 49.4226 20.87 51.0426 24.53 51.0426C28.19 51.0426 30.98 49.4226 32.9 46.1826C34.82 42.8826 35.78 38.1726 35.78 32.0526C35.78 25.8726 34.79 21.1326 32.81 17.8326C30.89 14.5326 28.13 12.8826 24.53 12.8826C20.87 12.8826 18.05 14.5326 16.07 17.8326C14.15 21.0726 13.19 25.7826 13.19 31.9626C13.19 38.1426 14.15 42.8826 16.07 46.1826ZM55.2221 2.08262H77.1821V61.9326H64.5821V13.3326H55.2221V2.08262Z" fill="url(#paint0_linear_167_5118)"/>
<defs>
<linearGradient id="paint0_linear_167_5118" x1="40.5" y1="-20.0674" x2="40.5" y2="94.9326" gradientUnits="userSpaceOnUse">
<stop stop-color="#A031F1"/>
<stop offset="1" stop-color="#D623FF"/>
</linearGradient>
</defs>
</svg>
