<svg width="77" height="77" viewBox="0 0 77 77" fill="none" xmlns="http://www.w3.org/2000/svg">
<path fill-rule="evenodd" clip-rule="evenodd" d="M2.51355 1.19892C1.90681 1.46332 1.15711 2.35351 1.05354 2.93256C1.00637 3.19608 0.986599 19.1331 1.0096 38.3482L1.05149 73.2848L1.36819 73.8707C1.74158 74.5614 2.45979 75.268 3.17551 75.6487C3.67078 75.9122 4.87678 75.9229 38.6247 75.9634C57.8398 75.9864 73.7769 75.9666 74.0404 75.9194C74.6354 75.8131 75.5173 75.0566 75.7803 74.427C75.9088 74.1194 75.9782 73.3435 75.9782 72.2138C75.9782 70.6762 75.9387 70.3995 75.6377 69.8288C75.0901 68.7908 74.4749 68.5293 72.5725 68.5264L70.9978 68.524V41.0009V13.478L72.0734 13.4236C72.9768 13.3779 73.2349 13.3038 73.6849 12.9606C73.9796 12.7357 74.3196 12.3607 74.4403 12.1272C74.7188 11.5888 74.7239 10.3293 74.4498 9.81308C74.0756 9.10834 66.2866 1.46522 65.6924 1.21972C65.0006 0.933926 64.3947 0.934512 63.7055 1.22162C63.0302 1.50316 55.4321 9.02016 55.02 9.81454C54.655 10.5181 54.6624 11.2929 55.0414 12.0758C55.4669 12.9547 56.1692 13.3545 57.448 13.4459L58.4734 13.5191V40.985V68.4508H57.2282H55.9831L55.9099 54.7545L55.8366 41.0582L55.5113 40.4498C55.0959 39.6729 54.2779 38.9995 53.3927 38.7055C52.8232 38.5164 52.1057 38.483 49.4329 38.5212C46.4151 38.5644 46.1244 38.5918 45.5827 38.8847C44.8921 39.258 44.1854 39.9763 43.8047 40.692C43.5451 41.1799 43.5301 41.8661 43.4924 54.8643L43.4529 68.524H42.2107H40.9685L40.9653 57.5011C40.9622 46.7328 40.9552 46.4629 40.6639 45.8189C40.2992 45.012 39.6232 44.2861 38.8445 43.8651C38.2903 43.5656 38.0682 43.5484 34.7429 43.5484H31.2273L30.4576 43.9748C29.6196 44.4392 29.0121 45.1297 28.7181 45.9522C28.5717 46.362 28.5287 48.9142 28.5238 57.5011L28.5173 68.524H27.2775H26.0375L25.9957 59.3321C25.9566 50.742 25.936 50.0994 25.6811 49.5165C25.3396 48.7356 24.1907 47.6873 23.4249 47.4579C22.6218 47.2173 16.8201 47.222 16.0099 47.4638C15.6413 47.5738 15.1133 47.9298 14.6517 48.3793C13.3959 49.6023 13.4294 49.2937 13.4294 59.6151V68.524H10.9392H8.44895L8.44661 35.6749L8.44412 2.82577L8.11702 2.25082C7.91297 1.89237 7.54661 1.54755 7.14422 1.33529C6.56926 1.03192 6.30486 0.995303 4.72722 1.00043C3.59695 1.00409 2.79568 1.07587 2.51355 1.19892ZM17.1947 1.25385C16.3673 1.63119 11.285 7.28578 11.0761 8.06127C10.9001 8.71503 10.9979 9.36381 11.369 10.0035C11.6069 10.4137 28.9685 33.4091 30.1011 34.8143C30.6596 35.5072 31.5519 35.998 32.2527 35.998C32.4944 35.998 32.9622 35.8754 33.2923 35.7254C33.8208 35.4855 35.0347 33.944 43.4508 22.8267C48.708 15.8824 53.1012 10.0245 53.2135 9.80912C53.4777 9.30287 53.4772 8.12162 53.2128 7.61581C52.96 7.13256 48.0895 1.79789 47.513 1.37279C47.1013 1.06928 47.0337 1.06781 32.4251 1.03412C18.7782 1.00248 17.7117 1.01786 17.1947 1.25385ZM5.95872 36.1557C5.95872 65.2249 5.98362 68.8858 6.18401 69.3657C6.48753 70.092 6.79983 70.4186 7.4968 70.7387C8.05974 70.9973 9.36536 71.0079 40.7854 71.011L73.488 71.0142V72.2594V73.5045H38.9064H4.32483L3.89666 73.0763L3.46848 72.6481V38.0665V3.48495H4.7136H5.95872V36.1557ZM28.6638 3.53827C28.6638 3.59906 24.9158 6.71815 24.7972 6.75609C24.7219 6.78012 21.0466 3.61811 21.0466 3.52919C21.0466 3.50487 22.7605 3.48495 24.8552 3.48495C26.9499 3.48495 28.6638 3.50898 28.6638 3.53827ZM43.3782 3.60229C43.1864 3.76386 40.5424 6.1016 40.0806 6.51776L39.7053 6.856L38.0299 5.45004C37.1082 4.67675 36.2243 3.91825 36.0654 3.76459C35.7807 3.4892 35.8349 3.48495 39.6469 3.48495C41.7756 3.48495 43.4546 3.53769 43.3782 3.60229ZM70.718 10.9557C69.4338 11.0203 69.2176 11.0708 68.8849 11.384L68.5075 11.7392V40.1315V68.524H64.7722H61.0368V40.4208C61.0368 20.2306 60.9911 12.1866 60.8745 11.852C60.6324 11.1575 60.1023 10.9557 58.521 10.9557H57.1625L60.9674 7.23246L64.7722 3.50927L68.4731 7.19584L72.1739 10.8824L70.718 10.9557ZM34.2945 5.56781C35.2963 6.39618 36.1201 7.12318 36.1253 7.18368C36.1304 7.24418 34.3383 7.29223 32.1428 7.29062L28.1511 7.28783L28.8054 6.7413C29.1652 6.44086 30.0551 5.68778 30.783 5.06815C31.5107 4.44838 32.1887 3.9685 32.2896 4.0016C32.3905 4.03471 33.2927 4.73959 34.2945 5.56781ZM19.6727 5.68222L21.4018 7.2203L19.7593 7.26176C18.8561 7.28446 17.3769 7.28446 16.4722 7.26176L14.8276 7.2203L16.2737 5.64047C17.0691 4.77152 17.7702 4.07939 17.8317 4.10238C17.8932 4.12538 18.7218 4.83627 19.6727 5.68222ZM47.7208 5.1329C48.2488 5.71693 48.8968 6.44218 49.1611 6.74423L49.6414 7.29355H46.3913C44.6038 7.29355 43.1633 7.23642 43.1902 7.16654C43.2475 7.01757 46.5719 4.07338 46.6844 4.07191C46.7265 4.07133 47.1929 4.54872 47.7208 5.1329ZM26.3723 18.8292C27.7935 23.8042 29.0871 28.3315 29.2468 28.8899C29.4065 29.4483 29.4806 29.8438 29.4113 29.7688C29.342 29.6938 27.5444 27.3253 25.4165 24.5055C23.2887 21.6856 19.9163 17.2198 17.9224 14.5811L14.297 9.78378H19.0427H23.7882L26.3723 18.8292ZM37.9818 10.0401C37.9396 10.181 36.6388 14.7345 35.0911 20.159C33.5269 25.6407 32.2305 29.935 32.1722 29.8269C32.0603 29.6192 26.4665 10.0757 26.4665 9.89247C26.4665 9.83271 29.0747 9.78378 32.2625 9.78378C37.714 9.78378 38.054 9.79901 37.9818 10.0401ZM48.2712 12.3106C47.2165 13.7003 43.8153 18.1855 40.7129 22.2776C37.6106 26.3696 35.0523 29.6976 35.0278 29.6731C34.9924 29.6378 40.3594 10.6665 40.6027 9.96689C40.6518 9.82553 41.7501 9.78378 45.4276 9.78378H50.1888L48.2712 12.3106ZM53.1399 41.404C53.4107 41.7388 53.4197 42.1789 53.4197 55.137V68.524H49.6843H45.949V55.1827V41.8413L46.3855 41.4048L46.8221 40.9681L49.8412 41.0132C52.8119 41.0575 52.8646 41.0638 53.1399 41.404ZM38.0501 46.3936L38.4782 46.8218V57.6729V68.524H34.7429H31.0075V57.624V46.7239L31.4583 46.3447L31.9089 45.9654H34.7655H37.6219L38.0501 46.3936ZM23.0526 50.1275L23.4636 50.4809V59.4659V68.4508H19.7282H15.9929V59.4659V50.4809L16.4039 50.1275C16.8085 49.7794 16.8598 49.774 19.7282 49.774C22.5967 49.774 22.648 49.7794 23.0526 50.1275Z" fill="url(#paint0_linear_167_5201)" stroke="url(#paint1_linear_167_5201)"/>
<defs>
<linearGradient id="paint0_linear_167_5201" x1="38.4891" y1="1" x2="38.4891" y2="75.973" gradientUnits="userSpaceOnUse">
<stop stop-color="#A031F1"/>
<stop offset="1" stop-color="#D623FF"/>
</linearGradient>
<linearGradient id="paint1_linear_167_5201" x1="38.4891" y1="1" x2="38.4891" y2="75.973" gradientUnits="userSpaceOnUse">
<stop stop-color="#A031F1"/>
<stop offset="1" stop-color="#D623FF"/>
</linearGradient>
</defs>
</svg>
