<svg width="69" height="72" viewBox="0 0 69 72" fill="none" xmlns="http://www.w3.org/2000/svg">
<path opacity="0.07" d="M20.288 71.768C16.7893 71.768 13.7387 70.872 11.136 69.08C8.53333 67.288 6.528 64.728 5.12 61.4C3.712 58.072 3.008 54.168 3.008 49.688C3.008 42.8613 4.544 37.4853 7.616 33.56C10.7307 29.592 14.9547 27.608 20.288 27.608C25.6213 27.608 29.824 29.592 32.896 33.56C35.968 37.4853 37.504 42.8613 37.504 49.688C37.504 56.472 35.9467 61.848 32.832 65.816C29.76 69.784 25.5787 71.768 20.288 71.768ZM14.272 59.8C15.68 62.104 17.6853 63.256 20.288 63.256C22.8907 63.256 24.8747 62.104 26.24 59.8C27.6053 57.4533 28.288 54.104 28.288 49.752C28.288 45.3573 27.584 41.9867 26.176 39.64C24.8107 37.2933 22.848 36.12 20.288 36.12C17.6853 36.12 15.68 37.2933 14.272 39.64C12.9067 41.944 12.224 45.2933 12.224 49.688C12.224 54.0827 12.9067 57.4533 14.272 59.8ZM42.1135 28.44H57.7295V71H48.7695V36.44H42.1135V28.44Z" fill="url(#paint0_linear_167_5315)"/>
<line x1="34.5" y1="-2.18557e-08" x2="34.5" y2="40" stroke="#B72BF6" stroke-dasharray="2 2"/>
<circle cx="34.5" cy="41.5" r="3.5" fill="#B72BF6"/>
<defs>
<linearGradient id="paint0_linear_167_5315" x1="34.5" y1="12" x2="34.5" y2="71" gradientUnits="userSpaceOnUse">
<stop stop-color="#A031F1"/>
<stop offset="1" stop-color="#D623FF"/>
</linearGradient>
</defs>
</svg>
