<svg width="80" height="80" viewBox="0 0 80 80" fill="none" xmlns="http://www.w3.org/2000/svg">
<circle cx="40" cy="40" r="40" fill="url(#paint0_linear_167_5122)"/>
<path d="M25.8375 59.624C22.9948 59.624 20.5162 58.896 18.4015 57.44C16.2868 55.984 14.6575 53.904 13.5135 51.2C12.3695 48.496 11.7975 45.324 11.7975 41.684C11.7975 36.1373 13.0455 31.7693 15.5415 28.58C18.0722 25.356 21.5042 23.744 25.8375 23.744C30.1709 23.744 33.5855 25.356 36.0815 28.58C38.5775 31.7693 39.8255 36.1373 39.8255 41.684C39.8255 47.196 38.5602 51.564 36.0295 54.788C33.5335 58.012 30.1362 59.624 25.8375 59.624ZM20.9495 49.9C22.0935 51.772 23.7228 52.708 25.8375 52.708C27.9522 52.708 29.5642 51.772 30.6735 49.9C31.7829 47.9933 32.3375 45.272 32.3375 41.736C32.3375 38.1653 31.7655 35.4267 30.6215 33.52C29.5122 31.6133 27.9175 30.66 25.8375 30.66C23.7228 30.66 22.0935 31.6133 20.9495 33.52C19.8402 35.392 19.2855 38.1133 19.2855 41.684C19.2855 45.2547 19.8402 47.9933 20.9495 49.9ZM56.2465 36.484C59.8519 36.484 62.8159 37.5587 65.1385 39.708C67.4612 41.8573 68.6225 44.5787 68.6225 47.872C68.6225 51.2347 67.4612 54.0427 65.1385 56.296C62.8159 58.5147 59.9385 59.624 56.5065 59.624C54.2185 59.624 52.1385 59.1387 50.2665 58.168C48.4292 57.1627 46.9905 55.7933 45.9505 54.06C44.9105 52.292 44.3732 50.316 44.3385 48.132H51.8785C51.8785 48.9987 52.0692 49.7787 52.4505 50.472C52.8665 51.1653 53.4212 51.72 54.1145 52.136C54.8425 52.5173 55.6399 52.708 56.5065 52.708C57.8239 52.708 58.9159 52.2573 59.7825 51.356C60.6839 50.42 61.1345 49.2587 61.1345 47.872C61.1345 46.3813 60.6492 45.168 59.6785 44.232C58.7079 43.296 57.4772 42.828 55.9865 42.828H46.2625L45.5865 41.892L47.5105 24.42H66.2305V31.076H53.3865L52.7625 36.484H56.2465Z" fill="white"/>
<defs>
<linearGradient id="paint0_linear_167_5122" x1="40" y1="0" x2="40" y2="80" gradientUnits="userSpaceOnUse">
<stop stop-color="#A031F1"/>
<stop offset="1" stop-color="#D623FF"/>
</linearGradient>
</defs>
</svg>
