<svg width="54" height="57" viewBox="0 0 54 57" fill="none" xmlns="http://www.w3.org/2000/svg">
<path d="M51.5 28.5C51.5 42.9885 40.4053 54.5 27 54.5C13.5947 54.5 2.5 42.9885 2.5 28.5C2.5 14.0115 13.5947 2.5 27 2.5C40.4053 2.5 51.5 14.0115 51.5 28.5Z" fill="url(#paint0_linear_167_5285)" stroke="#B72BF6" stroke-width="5"/>
<path d="M30.369 20.4996C30.6337 20.4996 30.8979 20.3923 31.089 20.1809L37.0502 13.5897L43.0122 20.179C43.3723 20.5752 43.985 20.6099 44.383 20.2473C44.7805 19.8879 44.8114 19.2744 44.4513 18.8774L37.7701 11.4916C37.4015 11.0848 36.6983 11.0848 36.3307 11.4916L29.6495 18.8781C29.2894 19.2751 29.3207 19.8895 29.7175 20.2479C29.9041 20.4167 30.1356 20.499 30.3689 20.499L30.369 20.4996Z" fill="white"/>
<path d="M37.7701 18.1246C37.4015 17.7163 36.6983 17.7163 36.3307 18.1246L29.6495 25.5104C29.2894 25.9079 29.3207 26.5214 29.7175 26.8812C29.9041 27.049 30.1354 27.1321 30.3687 27.1321C30.6333 27.1321 30.8975 27.0241 31.0886 26.8116L37.0498 20.2211L43.0118 26.8116C43.3719 27.2074 43.9846 27.2408 44.3826 26.8795C44.7801 26.5214 44.811 25.9066 44.4509 25.5096L37.7701 18.1246Z" fill="white"/>
<path d="M27.2693 27.7889C27.2417 27.7889 27.2156 27.7914 27.1887 27.7914V15.1824C27.1887 13.0128 23.9184 11.3125 19.7438 11.3125C15.5707 11.312 12.3008 13.0125 12.3008 15.1824V36.1852C12.3008 38.3546 15.5705 40.0545 19.7431 40.0545C19.8727 40.0545 19.9965 40.0452 20.1241 40.0414C21.013 41.6596 23.8326 42.8135 27.2688 42.8135C31.4436 42.8135 34.7137 41.1137 34.7137 38.9442V31.6587C34.7137 29.4893 31.4434 27.7888 27.2688 27.7888L27.2693 27.7889ZM33.7435 31.6589C33.7435 33.0604 31.1422 34.559 27.27 34.559C23.3987 34.559 20.7977 33.0604 20.7977 31.6589C20.7977 30.2596 23.3995 28.7605 27.27 28.7605C31.1421 28.7607 33.7435 30.2599 33.7435 31.6589ZM33.7435 33.5985V35.5595C33.7435 36.9599 31.1422 38.4589 27.27 38.4589C23.3987 38.4589 20.7977 36.9597 20.7977 35.5595V33.5985C20.8235 33.6211 20.8574 33.6417 20.8843 33.6663C20.9971 33.765 21.1161 33.8599 21.2449 33.9511C21.2949 33.9867 21.3454 34.0226 21.3991 34.0583C21.5538 34.1612 21.7178 34.2617 21.8915 34.3549C21.9167 34.3679 21.939 34.3837 21.9644 34.3965C22.166 34.502 22.3805 34.6007 22.6047 34.6914C22.6662 34.718 22.7303 34.7406 22.7925 34.7659C22.9671 34.8325 23.1464 34.8963 23.3332 34.9553C23.4048 34.9779 23.4768 35.002 23.5509 35.0233C23.7845 35.0911 24.025 35.1559 24.2734 35.2112C24.2942 35.2162 24.3123 35.2212 24.3324 35.2255C24.6023 35.2845 24.8818 35.3312 25.1666 35.3751C25.2472 35.3862 25.3311 35.3952 25.4124 35.4073C25.6307 35.4344 25.8514 35.4588 26.0764 35.4756C26.1645 35.4831 26.2512 35.4914 26.3411 35.4964C26.6457 35.5165 26.9538 35.5296 27.2699 35.5296C27.5861 35.5296 27.8945 35.5165 28.1996 35.4964C28.289 35.4914 28.3764 35.4834 28.4645 35.4766C28.6895 35.4593 28.9102 35.4352 29.1277 35.4083C29.2098 35.3965 29.2929 35.3874 29.3743 35.3761C29.659 35.3322 29.9383 35.2855 30.2077 35.2265C30.2286 35.2222 30.2461 35.2172 30.2665 35.2122C30.5166 35.1567 30.7562 35.0916 30.9902 35.0243C31.0648 35.0027 31.1364 34.9786 31.2092 34.9563C31.3953 34.8973 31.5753 34.8332 31.7491 34.7669C31.8124 34.7418 31.8764 34.719 31.9367 34.6924C32.1609 34.6017 32.3766 34.503 32.577 34.3975C32.6029 34.3845 32.6257 34.3687 32.6511 34.3559C32.8249 34.2609 32.9881 34.1623 33.1418 34.0593C33.196 34.0236 33.2465 33.9877 33.2987 33.9521C33.425 33.8609 33.5446 33.766 33.6558 33.6691C33.6834 33.6434 33.7178 33.6231 33.7439 33.5985L33.7435 33.5985ZM26.1546 27.8356C26.1747 27.8173 26.1988 27.8017 26.2186 27.7844V27.8293C26.1973 27.8316 26.1764 27.8331 26.1546 27.8356ZM19.7436 12.283C23.6173 12.283 26.2184 13.7821 26.2184 15.1821C26.2184 16.5821 23.6166 18.0813 19.7436 18.0813C15.8724 18.0813 13.2713 16.5821 13.2713 15.1821C13.2715 13.7822 15.8729 12.283 19.7436 12.283ZM13.2713 17.1207C13.2972 17.1448 13.3311 17.1657 13.3579 17.189C13.4707 17.2869 13.5905 17.3819 13.7185 17.4738C13.7698 17.5102 13.8197 17.5466 13.8727 17.5828C14.0274 17.685 14.1914 17.7837 14.3652 17.8781C14.3903 17.8911 14.4126 17.907 14.439 17.9198C14.6399 18.0245 14.8551 18.1232 15.0793 18.2146C15.1399 18.2404 15.2039 18.2633 15.2669 18.2884C15.4407 18.3549 15.6207 18.419 15.8063 18.4787C15.8791 18.5021 15.9517 18.5255 16.0253 18.547C16.2596 18.6161 16.4994 18.6784 16.749 18.7346C16.7699 18.7389 16.7879 18.7439 16.808 18.7494C17.0772 18.8075 17.3567 18.8549 17.6415 18.8986C17.7228 18.9109 17.806 18.9195 17.8881 18.9313C18.1055 18.9579 18.3258 18.9812 18.5508 18.9996C18.6394 19.0063 18.7266 19.0144 18.8157 19.0194C19.1203 19.0385 19.4285 19.052 19.7446 19.052C20.0615 19.052 20.3704 19.038 20.6742 19.0194C20.7641 19.0139 20.851 19.0063 20.9392 18.9996C21.1642 18.9812 21.3856 18.9579 21.6031 18.9313C21.6855 18.919 21.7683 18.9104 21.8489 18.8986C22.1337 18.8554 22.4142 18.808 22.6832 18.7494C22.7033 18.7439 22.7213 18.7389 22.7412 18.7346C22.9913 18.6784 23.2311 18.6143 23.4654 18.547C23.5388 18.5255 23.6116 18.5021 23.6844 18.4787C23.8695 18.419 24.0495 18.3549 24.2243 18.2884C24.2866 18.2633 24.3506 18.2409 24.4119 18.2163C24.6351 18.1232 24.8508 18.024 25.0522 17.9198C25.0781 17.9067 25.1009 17.8909 25.1261 17.8773C25.2998 17.7842 25.4638 17.685 25.6175 17.5833C25.6712 17.5469 25.7214 17.5104 25.7734 17.4743C25.9007 17.3824 26.0193 17.2875 26.131 17.1913C26.1586 17.1679 26.1933 17.1456 26.2204 17.121V19.0837C26.2204 20.4841 23.6186 21.9828 19.7456 21.9828C15.8743 21.9828 13.2733 20.4837 13.2733 19.0837L13.2728 17.1207L13.2713 17.1207ZM13.2713 21.015C14.5399 22.1799 16.9346 22.9526 19.7436 22.9526C22.5546 22.9526 24.95 22.1799 26.2184 21.015V22.4672C26.2184 23.8677 23.6166 25.3673 19.7436 25.3673C15.8724 25.3673 13.2713 23.8677 13.2713 22.4672V21.015ZM13.2713 24.3995C14.5399 25.5652 16.9346 26.3372 19.7436 26.3372C22.5546 26.3372 24.95 25.5652 26.2184 24.3995V25.8525C26.2184 27.253 23.6166 28.7519 19.7436 28.7519C15.8724 28.7519 13.2713 27.2528 13.2713 25.8525V24.3995ZM13.2713 27.7846C14.5399 28.95 16.9346 29.7232 19.7436 29.7232C20.1215 29.7232 20.4914 29.7056 20.852 29.679C20.2028 30.2545 19.8264 30.9308 19.8264 31.659V32.1349C19.7981 32.1349 19.7722 32.1366 19.7436 32.1366C15.8724 32.1366 13.2713 30.638 13.2713 29.2375L13.2713 27.7846ZM13.2713 31.1681C14.5399 32.3338 16.9346 33.1075 19.7436 33.1075C19.772 33.1075 19.7978 33.104 19.8265 33.104V35.5177C19.7981 35.5177 19.7722 35.5212 19.7436 35.5212C15.8724 35.5212 13.2713 34.0221 13.2713 32.6211V31.1681ZM19.7436 39.0836C15.8724 39.0836 13.2713 37.585 13.2713 36.1844V34.5522C14.5399 35.7179 16.9346 36.4918 19.7436 36.4918C19.772 36.4918 19.7991 36.49 19.8265 36.487V38.9432C19.8265 38.9907 19.8357 39.0356 19.8395 39.0816C19.8071 39.0821 19.7767 39.0836 19.7436 39.0836L19.7436 39.0836ZM27.2695 41.8426C23.3983 41.8426 20.7972 40.344 20.7972 38.9435V37.492C22.0658 38.6569 24.4605 39.4291 27.2695 39.4291C30.0805 39.4291 32.4759 38.6569 33.7431 37.492V38.9435C33.7436 40.3439 31.142 41.8426 27.2695 41.8426Z" fill="white" stroke="white" stroke-width="0.5"/>
<defs>
<linearGradient id="paint0_linear_167_5285" x1="27" y1="0" x2="27" y2="57" gradientUnits="userSpaceOnUse">
<stop stop-color="#A031F1"/>
<stop offset="1" stop-color="#D623FF"/>
</linearGradient>
</defs>
</svg>
