<svg width="72" height="72" viewBox="0 0 72 72" fill="none" xmlns="http://www.w3.org/2000/svg">
<path opacity="0.07" d="M17.288 71.768C13.7893 71.768 10.7387 70.872 8.136 69.08C5.53333 67.288 3.528 64.728 2.12 61.4C0.712 58.072 0.00800014 54.168 0.00800014 49.688C0.00800014 42.8613 1.544 37.4853 4.616 33.56C7.73067 29.592 11.9547 27.608 17.288 27.608C22.6213 27.608 26.824 29.592 29.896 33.56C32.968 37.4853 34.504 42.8613 34.504 49.688C34.504 56.472 32.9467 61.848 29.832 65.816C26.76 69.784 22.5787 71.768 17.288 71.768ZM11.272 59.8C12.68 62.104 14.6853 63.256 17.288 63.256C19.8907 63.256 21.8747 62.104 23.24 59.8C24.6053 57.4533 25.288 54.104 25.288 49.752C25.288 45.3573 24.584 41.9867 23.176 39.64C21.8107 37.2933 19.848 36.12 17.288 36.12C14.6853 36.12 12.68 37.2933 11.272 39.64C9.90667 41.944 9.224 45.2933 9.224 49.688C9.224 54.0827 9.90667 57.4533 11.272 59.8ZM54.7145 43.288C59.1518 43.288 62.7998 44.6107 65.6585 47.256C68.5172 49.9013 69.9465 53.2507 69.9465 57.304C69.9465 61.4427 68.5172 64.8987 65.6585 67.672C62.7998 70.4027 59.2585 71.768 55.0345 71.768C52.2185 71.768 49.6585 71.1707 47.3545 69.976C45.0932 68.7387 43.3225 67.0533 42.0425 64.92C40.7625 62.744 40.1012 60.312 40.0585 57.624H49.3385C49.3385 58.6907 49.5732 59.6507 50.0425 60.504C50.5545 61.3573 51.2372 62.04 52.0905 62.552C52.9865 63.0213 53.9678 63.256 55.0345 63.256C56.6558 63.256 57.9998 62.7013 59.0665 61.592C60.1758 60.44 60.7305 59.0107 60.7305 57.304C60.7305 55.4693 60.1332 53.976 58.9385 52.824C57.7438 51.672 56.2292 51.096 54.3945 51.096H42.4265L41.5945 49.944L43.9625 28.44H67.0025V36.632H51.1945L50.4265 43.288H54.7145Z" fill="url(#paint0_linear_167_5311)"/>
<line x1="37.5" y1="-2.18557e-08" x2="37.5" y2="40" stroke="#B72BF6" stroke-dasharray="2 2"/>
<circle cx="37.5" cy="41.5" r="3.5" fill="#B72BF6"/>
<defs>
<linearGradient id="paint0_linear_167_5311" x1="35.5" y1="12" x2="35.5" y2="71" gradientUnits="userSpaceOnUse">
<stop stop-color="#A031F1"/>
<stop offset="1" stop-color="#D623FF"/>
</linearGradient>
</defs>
</svg>
