<svg width="61" height="71" viewBox="0 0 61 71" fill="none" xmlns="http://www.w3.org/2000/svg">
<path d="M41.3906 49.9219C40.7896 49.9219 40.3013 50.4176 40.3013 51.0312V54.8254L34.5151 58.1922C33.8552 56.5936 32.3039 55.4689 30.4978 55.4689C28.095 55.4689 26.1406 57.4593 26.1406 59.9064C26.1406 62.3535 28.095 64.3439 30.4978 64.3439C32.671 64.3439 34.4615 62.711 34.7873 60.5899L41.9309 56.4317C42.2708 56.2341 42.4799 55.8661 42.4799 55.4689V51.0314C42.4799 50.4178 41.9917 49.922 41.3907 49.922L41.3906 49.9219ZM30.4978 62.125C29.2962 62.125 28.3192 61.13 28.3192 59.9062C28.3192 58.6825 29.2962 57.6875 30.4978 57.6875C31.6994 57.6875 32.6763 58.6825 32.6763 59.9062C32.6763 61.13 31.6994 62.125 30.4978 62.125Z" fill="white"/>
<path d="M30.4978 45.4844C32.9006 45.4844 34.8549 43.494 34.8549 41.0469C34.8549 38.5998 32.9006 36.6094 30.4978 36.6094C28.3246 36.6094 26.534 38.2422 26.2082 40.3634L19.0647 44.5216C18.7247 44.7192 18.5156 45.0871 18.5156 45.4843V49.9218C18.5156 50.5355 19.0039 51.0312 19.6049 51.0312C20.206 51.0312 20.6942 50.5355 20.6942 49.9218V46.1277L26.4805 42.7609C27.1404 44.3595 28.6917 45.4842 30.4978 45.4842L30.4978 45.4844ZM30.4978 38.8281C31.6994 38.8281 32.6764 39.8231 32.6764 41.0469C32.6764 42.2706 31.6994 43.2656 30.4978 43.2656C29.2962 43.2656 28.3192 42.2706 28.3192 41.0469C28.3192 39.8231 29.2962 38.8281 30.4978 38.8281Z" fill="white"/>
<path d="M54.4637 0H49.0173C48.4163 0 47.928 0.495757 47.928 1.10937C47.928 1.72299 48.4163 2.21875 49.0173 2.21875H54.4637C56.8665 2.21875 58.8209 4.20916 58.8209 6.65625V39.9375H52.2852C51.6841 39.9375 51.1959 40.4332 51.1959 41.0469C51.1959 41.6605 51.6841 42.1562 52.2852 42.1562H58.8209V45.4844C58.8209 47.9314 56.8665 49.9219 54.4637 49.9219H49.0173V41.0469C49.0173 40.6462 48.8048 40.2767 48.462 40.0806L35.7615 32.8043L35.0686 27.1643C37.2341 28.085 38.8101 29.3796 40.2242 30.5524C42.7188 32.6226 45.0734 34.5818 49.3416 33.2328C52.163 32.3398 54.3645 29.9878 55.5398 26.6108C57.2977 21.5586 56.3991 15.3783 53.1925 10.4798C46.3325 0.000747721 36.0329 0.000748035 30.4993 0.000748035C24.9657 0.000748035 14.6667 0.000747721 7.80729 10.4798C4.60018 15.379 3.70062 21.5593 5.46003 26.6108C6.63636 29.988 8.83682 32.3395 11.6593 33.2328C12.6362 33.5413 13.5144 33.6765 14.3159 33.6756C17.0128 33.6756 18.8529 32.1482 20.7753 30.5524C22.1893 29.3797 23.7664 28.0851 25.9309 27.1643L25.2379 32.8043L12.5375 40.0806C12.1942 40.2768 11.9821 40.6462 11.9821 41.0469V49.9219H6.53571C4.13294 49.9219 2.17857 47.9315 2.17857 45.4844V42.1563H8.71428C9.31533 42.1563 9.80357 41.6605 9.80357 41.0469C9.80357 40.4333 9.31533 39.9375 8.71428 39.9375H2.17857V6.65627C2.17857 4.20918 4.13294 2.21877 6.53571 2.21877H11.9821C12.5832 2.21877 13.0714 1.72302 13.0714 1.1094C13.0714 0.495783 12.5832 2.53571e-05 11.9821 2.53571e-05H6.53571C2.93136 2.53571e-05 0 2.98646 0 6.65627V45.4844C0 49.1552 2.93136 52.1406 6.53571 52.1406H11.9821V59.9063C11.9821 60.3069 12.1946 60.6764 12.5375 60.8725L29.9661 70.8569C30.1314 70.9525 30.3157 71 30.5 71C30.6843 71 30.8681 70.9525 31.0339 70.8569L48.4625 60.8725C48.8058 60.6764 49.0179 60.3069 49.0179 59.9063V52.1406H54.4643C58.0686 52.1406 61 49.1552 61 45.4844V6.65627C61 2.98646 58.0686 2.53571e-05 54.4643 2.53571e-05L54.4637 0ZM27.5515 24.4062C27.1396 24.1002 26.1418 23.1518 26.1418 21.0781C26.1418 19.7781 27.1329 18.5453 28.281 17.1166C29.0314 16.1835 29.842 15.1752 30.499 13.9994C31.1569 15.1752 31.9661 16.1839 32.7169 17.1166C33.865 18.5454 34.8561 19.7781 34.8561 21.0781C34.8561 23.1517 33.8582 24.1002 33.4464 24.4062H27.5515ZM19.3984 28.8313C17.0239 30.8014 15.4532 32.1059 12.304 31.1119C10.1546 30.4319 8.45219 28.5692 7.51216 25.8667C5.97845 21.4614 6.78565 16.0364 9.61977 11.7073C15.8316 2.21811 25.0129 2.21812 30.4992 2.21812C35.9855 2.21812 45.1666 2.21811 51.3786 11.7087C54.2118 16.0362 55.019 21.4623 53.4862 25.8681C52.5453 28.5706 50.8437 30.4319 48.6954 31.1133C45.5418 32.1053 43.9755 30.8048 41.6 28.8327C40.1163 27.6015 38.3234 26.1301 35.8204 25.0806C36.4521 24.2218 37.0361 22.9327 37.0361 21.079C37.0361 18.9865 35.7572 17.3968 34.4043 15.7119C33.2377 14.2609 32.0316 12.7612 31.5571 10.8262C31.436 10.3325 31.0003 9.98528 30.5004 9.98528C30.0005 9.98528 29.5647 10.3315 29.4437 10.8262C28.9686 12.7612 27.763 14.2619 26.5965 15.7119C25.2436 17.3973 23.9646 18.9865 23.9646 21.079C23.9646 22.9338 24.5472 24.2219 25.1803 25.0806C22.677 26.1301 20.8839 27.601 19.4008 28.8327L19.3984 28.8313ZM28.1925 26.625H32.8045L33.3983 31.4507L31.0325 30.0952C30.7003 29.9065 30.2972 29.9065 29.966 30.0952L27.6002 31.4507L28.194 26.625H28.1925ZM46.8374 59.2571L30.4981 68.6179L14.1588 59.2571V41.696L30.4981 32.3352L46.8374 41.696V59.2571Z" fill="white"/>
<path d="M26.1429 11.0937C26.1429 8.03504 23.6997 5.54688 20.6964 5.54688C17.6931 5.54688 15.25 8.03504 15.25 11.0937C15.25 14.1525 17.6931 16.6406 20.6964 16.6406C23.6997 16.6406 26.1429 14.1525 26.1429 11.0937ZM20.6964 14.4219C18.8947 14.4219 17.4286 12.9287 17.4286 11.0937C17.4286 9.25878 18.8947 7.76562 20.6964 7.76562C22.4982 7.76562 23.9643 9.25878 23.9643 11.0937C23.9643 12.9287 22.4982 14.4219 20.6964 14.4219Z" fill="white"/>
<path d="M14.7026 16.6406C12.0003 16.6406 9.80078 18.8807 9.80078 21.6328C9.80078 24.3849 12.0003 26.625 14.7026 26.625C17.4049 26.625 19.6044 24.3849 19.6044 21.6328C19.6044 18.8807 17.4049 16.6406 14.7026 16.6406ZM14.7026 24.4062C13.2013 24.4062 11.9794 23.1627 11.9794 21.6328C11.9794 20.103 13.2014 18.8594 14.7026 18.8594C16.2037 18.8594 17.4258 20.103 17.4258 21.6328C17.4258 23.1627 16.2037 24.4062 14.7026 24.4062Z" fill="white"/>
<path d="M40.3019 16.6406C43.3052 16.6406 45.7483 14.1525 45.7483 11.0937C45.7483 8.03504 43.3052 5.54688 40.3019 5.54688C37.2986 5.54688 34.8555 8.03504 34.8555 11.0937C34.8555 14.1525 37.2986 16.6406 40.3019 16.6406ZM40.3019 7.76562C42.1036 7.76562 43.5698 9.25878 43.5698 11.0937C43.5698 12.9287 42.1036 14.4219 40.3019 14.4219C38.5002 14.4219 37.034 12.9287 37.034 11.0937C37.034 9.25878 38.5002 7.76562 40.3019 7.76562Z" fill="white"/>
<path d="M41.3906 21.6318C41.3906 24.384 43.5901 26.624 46.2924 26.624C48.9947 26.624 51.1942 24.384 51.1942 21.6318C51.1942 18.8797 48.9947 16.6396 46.2924 16.6396C43.5901 16.6396 41.3906 18.8797 41.3906 21.6318ZM46.2924 18.8584C47.7936 18.8584 49.0156 20.102 49.0156 21.6318C49.0156 23.1617 47.7936 24.4053 46.2924 24.4053C44.7912 24.4053 43.5692 23.1617 43.5692 21.6318C43.5692 20.102 44.7912 18.8584 46.2924 18.8584Z" fill="white"/>
<path d="M20.6942 54.3594C20.6942 54.972 20.2064 55.4687 19.6049 55.4687C19.0034 55.4687 18.5156 54.972 18.5156 54.3594C18.5156 53.7467 19.0034 53.25 19.6049 53.25C20.2064 53.25 20.6942 53.7467 20.6942 54.3594Z" fill="white"/>
<path d="M42.4833 46.5937C42.4833 47.2064 41.9955 47.7031 41.394 47.7031C40.7924 47.7031 40.3047 47.2064 40.3047 46.5937C40.3047 45.9811 40.7924 45.4844 41.394 45.4844C41.9955 45.4844 42.4833 45.9811 42.4833 46.5937Z" fill="white"/>
</svg>
