<svg width="66" height="57" viewBox="0 0 66 57" fill="none" xmlns="http://www.w3.org/2000/svg">
<path d="M27.7499 36.8272L21.8587 33.3285C20.9357 32.7969 19.8665 32.6769 18.8486 32.9861C18.1392 33.2028 17.5094 33.6247 17.0351 34.1861L13.8907 32.2856V23.7818C13.8907 21.6582 12.1747 19.9297 10.0665 19.9297C9.03986 19.9297 8.07959 20.3336 7.37087 21.057C6.64357 21.7797 6.24219 22.7469 6.24219 23.7818V37.0499C6.24219 38.5101 6.6341 39.9329 7.37427 41.1622C8.10157 42.3863 9.16048 43.4009 10.4397 44.0976L18.9901 48.6927V54.1713C18.9901 54.6437 19.371 55.0273 19.8399 55.0273C20.3088 55.0273 20.6897 54.6437 20.6897 54.1713V48.1791C20.6897 47.863 20.5163 47.573 20.2402 47.4239L11.2448 42.59C10.2379 42.0413 9.40321 41.2444 8.83037 40.2795C8.24914 39.315 7.94221 38.1976 7.94221 37.0514V23.7834C7.94221 23.2117 8.16302 22.6767 8.57277 22.2701C8.96809 21.8661 9.4981 21.6433 10.0668 21.6433C11.2381 21.6433 12.1914 22.6037 12.1914 23.7834V32.7718C12.1914 33.0721 12.3477 33.3511 12.6034 33.5055L16.2536 35.7113C16.172 36.0289 16.1253 36.3549 16.1253 36.6828C16.1253 37.9324 16.7271 39.1061 17.7552 39.8363L21.0696 42.0448C21.2141 42.1407 21.9016 42.2897 22.2476 41.8032C22.5067 41.4096 22.399 40.878 22.0078 40.6166L18.7147 38.4226C18.1581 38.0271 17.8258 37.3767 17.8258 36.6823C17.8258 36.3502 17.9032 36.0181 18.0511 35.7208C18.3163 35.1865 18.775 34.7971 19.343 34.6244C19.909 34.4516 20.5031 34.5189 21.007 34.8086L26.899 38.308C28.8357 39.4182 30.0392 41.5078 30.0392 43.7618V54.1712C30.0392 54.6435 30.4201 55.0272 30.889 55.0272C31.358 55.0272 31.7389 54.6435 31.7389 54.1712V43.7618C31.7389 40.8941 30.2066 38.2343 27.7514 36.8272L27.7499 36.8272Z" fill="white"/>
<path d="M59.5128 21.0676C58.7954 20.335 57.8352 19.9307 56.8077 19.9307C54.6994 19.9307 52.9834 21.6592 52.9834 23.7828V32.2866L49.839 34.1871C49.3648 33.6257 48.735 33.2034 48.0255 32.9871C47.0073 32.6764 45.9373 32.7979 45.0059 33.3356L39.1359 36.8213C36.6698 38.2352 35.1367 40.8951 35.1367 43.7628V54.1721C35.1367 54.6445 35.5176 55.0282 35.9866 55.0282C36.4555 55.0282 36.8364 54.6445 36.8364 54.1721V43.7628C36.8364 41.5096 38.0399 39.4199 39.9876 38.3028L45.8583 34.816C46.3716 34.5214 46.9665 34.453 47.5325 34.6261C48.1001 34.8 48.5591 35.1886 48.8244 35.7225C48.9716 36.0186 49.0497 36.3507 49.0497 36.684C49.0497 37.3784 48.7174 38.0288 48.1813 38.4098L44.8669 40.6183C44.4762 40.8793 44.3934 41.3949 44.6271 41.8049C44.9341 42.3441 45.6606 42.1431 45.8052 42.0465L49.14 39.8234C50.1481 39.1076 50.7498 37.9341 50.7498 36.6844C50.7498 36.3565 50.7039 36.0293 50.6215 35.7129L54.2717 33.5071C54.5274 33.3523 54.6837 33.0741 54.6837 32.7733V23.785C54.6837 22.6052 55.6371 21.6449 56.8083 21.6449C57.3759 21.6449 57.907 21.8673 58.3107 22.2801C58.7117 22.6783 58.9329 23.2121 58.9329 23.785V37.053C58.9329 38.2003 58.626 39.3166 58.0421 40.2853C57.4719 41.2457 56.6372 42.0429 55.6345 42.589L46.6345 47.4256C46.3576 47.5747 46.1849 47.8647 46.1849 48.1808V54.173C46.1849 54.6453 46.5659 55.029 47.0348 55.029C47.5037 55.029 47.8846 54.6453 47.8846 54.173V48.6944L56.4384 44.0974C57.7139 43.4023 58.7728 42.388 59.4978 41.1689C60.2406 39.936 60.6322 38.5126 60.6322 37.0523V23.7843C60.6322 22.7502 60.2312 21.783 59.513 21.0691L59.5128 21.0676Z" fill="white"/>
<path d="M48.7352 25.9233V8.80262C48.7352 8.48504 48.561 8.19499 48.283 8.04594L33.8357 0.341646C33.5876 0.209035 33.2882 0.209035 33.0401 0.341646L18.5929 8.04594C18.314 8.19422 18.1406 8.48504 18.1406 8.80262V25.9233C18.1406 26.2409 18.3148 26.5309 18.5929 26.68L33.0401 34.3843C33.3425 34.5471 33.7116 34.4511 33.8357 34.3843L48.283 26.68C48.5618 26.5317 48.7352 26.2409 48.7352 25.9233ZM47.0355 25.4081L33.4381 32.6596L19.8407 25.4081V9.31765L33.4381 2.06739L47.0355 9.31882V25.4081Z" fill="white"/>
<path d="M30.0891 8.67112L24.5363 11.652C24.2593 11.8003 24.0859 12.0911 24.0859 12.4071V18.2197C24.0859 18.6921 24.4669 19.0758 24.9358 19.0758C25.4047 19.0758 25.7856 18.6921 25.7856 18.2197V12.9207L30.289 10.5032C30.7962 11.7528 32.0126 12.6383 33.4342 12.6383C35.3088 12.6383 36.8335 11.1024 36.8335 9.21417C36.8335 7.32591 35.3088 5.79004 33.4342 5.79004C31.7447 5.79004 30.3501 7.04161 30.0891 8.6715L30.0891 8.67112ZM35.1338 9.21379C35.1338 10.1581 34.3716 10.9259 33.4341 10.9259C32.4967 10.9259 31.7345 10.1581 31.7345 9.21379C31.7345 8.26948 32.4967 7.50172 33.4341 7.50172C34.3716 7.50172 35.1338 8.26948 35.1338 9.21379Z" fill="white"/>
<path d="M33.4345 22.0882C31.5599 22.0882 30.0352 23.6241 30.0352 25.5124C30.0352 27.4006 31.5599 28.9365 33.4345 28.9365C35.124 28.9365 36.5186 27.6849 36.7796 26.055L42.3324 23.0742C42.6093 22.9259 42.7827 22.6351 42.7827 22.319V16.5064C42.7827 16.0341 42.4018 15.6504 41.9329 15.6504C41.4639 15.6504 41.083 16.0341 41.083 16.5064V21.8054L36.5797 24.223C36.0724 22.9733 34.8561 22.0879 33.4345 22.0879L33.4345 22.0882ZM33.4345 27.2244C32.497 27.2244 31.7348 26.4567 31.7348 25.5124C31.7348 24.5681 32.497 23.8003 33.4345 23.8003C34.372 23.8003 35.1342 24.5681 35.1342 25.5124C35.1342 26.4567 34.372 27.2244 33.4345 27.2244Z" fill="white"/>
<path d="M25.7856 21.6431C25.7856 22.1159 25.4051 22.4992 24.9358 22.4992C24.4665 22.4992 24.0859 22.1159 24.0859 21.6431C24.0859 21.1704 24.4665 20.7871 24.9358 20.7871C25.4051 20.7871 25.7856 21.1704 25.7856 21.6431Z" fill="white"/>
<path d="M42.7856 13.0826C42.7856 13.5553 42.4051 13.9386 41.9358 13.9386C41.4665 13.9386 41.0859 13.5553 41.0859 13.0826C41.0859 12.6099 41.4665 12.2266 41.9358 12.2266C42.4051 12.2266 42.7856 12.6099 42.7856 13.0826Z" fill="white"/>
</svg>
