<svg width="75" height="55" viewBox="0 0 75 55" fill="none" xmlns="http://www.w3.org/2000/svg">
<path d="M59.4407 21.2639C58.3929 17.4383 54.716 14.9794 50.8179 15.2429L47.9322 4.70866C47.5806 3.42194 46.7331 2.34441 45.5476 1.67451C44.3615 1.00457 42.9834 0.827095 41.6696 1.17162C40.3541 1.5167 39.2525 2.34504 38.5688 3.50465C38.2663 4.01678 38.0683 4.56651 37.9643 5.13063L19.3225 20.7734L6.35256 24.1723C4.4958 24.6596 2.94146 25.829 1.97458 27.466C1.00835 29.103 0.749492 31.0048 1.24768 32.8211L3.13637 39.7142C3.63338 41.5303 4.82898 43.0507 6.50375 43.9964C8.1773 44.9409 10.1217 45.1935 11.9786 44.7074L16.4764 43.5288L18.2688 50.0704C18.6423 51.4335 19.5394 52.5751 20.7958 53.2844C21.6338 53.7578 22.5623 54 23.5019 54C23.9694 54 24.4415 53.9399 24.9049 53.8179C26.3043 53.4508 27.475 52.5688 28.2001 51.3347C28.9228 50.1052 29.1119 48.6802 28.7343 47.3214L27.1753 41.7179L49.0849 45.7393C50.047 46.8561 51.4807 47.5266 52.9995 47.5266C53.4362 47.5266 53.8806 47.4717 54.3221 47.3561C57.0452 46.6422 58.6681 43.8941 57.9381 41.2301L55.0525 30.6958C58.5599 29.0177 60.4886 25.0893 59.4407 21.2639ZM11.1495 41.6864C10.1188 41.9563 9.03674 41.8158 8.10178 41.2875C7.16804 40.7598 6.50145 39.9141 6.22489 38.9054L4.33621 32.0122C4.05964 31.0036 4.20501 29.9445 4.74397 29.0312C5.28353 28.1179 6.14811 27.4659 7.18002 27.1954L18.9604 24.1075L22.9866 38.5834L11.1495 41.6864ZM25.4249 49.7755C25.1259 50.2836 24.6466 50.6454 24.0745 50.7963C22.8908 51.1073 21.674 50.4177 21.3566 49.2616L19.5642 42.7199L23.8251 41.6031L25.644 48.1436C25.7982 48.6933 25.721 49.2732 25.4249 49.7755ZM21.895 22.7354L38.4717 8.82482L47.6389 42.2901L26.2422 38.3623L21.895 22.7354ZM53.4916 44.3328C52.6991 44.5397 51.8925 44.2236 51.4421 43.6062L41.0925 5.82438C41.1191 5.56254 41.1977 5.3053 41.3377 5.06946C41.5954 4.63419 42.0061 4.32378 42.4972 4.19488C42.9871 4.06539 43.5042 4.13418 43.9486 4.38506C44.3936 4.63593 44.711 5.03883 44.8428 5.51801L47.6878 15.9037L52.0025 31.6531L54.8475 42.0388C55.1199 43.037 54.5122 44.0657 53.4916 44.3328ZM54.1973 27.5802L51.6703 18.3576C53.8255 18.4749 55.761 19.9253 56.3496 22.0732C56.9388 24.2218 56.0039 26.424 54.1973 27.5802ZM64.4139 20.1964C64.1846 19.3617 64.6917 18.5033 65.5444 18.2802L71.4223 16.7397C72.2762 16.5172 73.1532 17.0114 73.3813 17.8467C73.6106 18.6814 73.1036 19.5397 72.2508 19.7629L66.3729 21.3033C66.2335 21.3397 66.0946 21.3565 65.9581 21.3565C65.2519 21.3565 64.6048 20.8958 64.4139 20.1964ZM65.5805 7.16154L60.7901 10.8332C60.497 11.0575 60.1495 11.1661 59.8043 11.1661C59.3298 11.1661 58.8594 10.9609 58.5438 10.5667C57.9989 9.88692 58.1213 8.90372 58.8163 8.36952L63.6067 4.69788C64.3016 4.16492 65.308 4.28458 65.853 4.96436C66.3973 5.64472 66.2755 6.62793 65.5805 7.16154ZM73.9841 34.647C73.8706 35.4285 73.1863 35.9921 72.4021 35.9921C72.3276 35.9921 72.2514 35.9869 72.1757 35.9759L66.1502 35.1395C65.2756 35.0176 64.6675 34.2262 64.791 33.3707C64.9157 32.5158 65.7235 31.9199 66.5993 32.0412L72.6248 32.8777C73.4989 32.9996 74.1076 33.7915 73.9841 34.647Z" fill="white" stroke="url(#paint0_linear_215_5179)"/>
<defs>
<linearGradient id="paint0_linear_215_5179" x1="37.5" y1="1" x2="37.5" y2="54" gradientUnits="userSpaceOnUse">
<stop stop-color="#A031F1"/>
<stop offset="1" stop-color="#D623FF"/>
</linearGradient>
</defs>
</svg>
