<svg width="61" height="61" viewBox="0 0 61 61" fill="none" xmlns="http://www.w3.org/2000/svg">
<path d="M24.3553 15.1499L30.0741 18.0093C30.2072 18.0761 30.354 18.1092 30.5 18.1092C30.6459 18.1092 30.7927 18.0761 30.9259 18.0093L36.6447 15.1499C36.9681 14.9878 37.1719 14.658 37.1719 14.2967V8.578C37.1719 8.21675 36.968 7.88698 36.6447 7.72487L30.9259 4.86549C30.6583 4.73103 30.3417 4.73103 30.0728 4.86549L24.354 7.72487C24.0319 7.88699 23.8281 8.21675 23.8281 8.578V14.2967C23.8281 14.658 24.0319 14.9878 24.3553 15.1499H24.3553ZM25.7343 9.16687L30.5 6.78405L35.2656 9.16687V13.7074L30.5 16.0903L25.7343 13.7074V9.16687Z" fill="white"/>
<path d="M60.9762 36.2188C60.9762 36.1273 60.9868 36.0349 60.96 35.9452L58.1006 26.4139C57.9794 26.011 57.6079 25.7344 57.1875 25.7344H40.0312V17.7464C41.2333 15.9364 41.9375 13.7688 41.9375 11.4375C41.9375 5.13075 36.8067 0 30.5 0C24.1933 0 19.0625 5.13075 19.0625 11.4375C19.0625 13.7688 19.7667 15.9364 20.9687 17.7464V25.7344H3.8125C3.3921 25.7344 3.02064 26.011 2.89937 26.4139L0.0399972 35.9452C0.013191 36.0349 0.0238281 36.1273 0.0238281 36.2188H0V60.0469C0 60.5741 0.427207 61 0.953125 61H60.0469C60.5728 61 61 60.5741 61 60.0469V36.2188H60.9762ZM54.3282 38.125V37.1719H59.0938V38.6016C59.0938 39.9159 58.0245 40.9844 56.711 40.9844C55.3974 40.9844 54.3282 39.9159 54.3282 38.6016V38.125ZM49.5625 40.9844C47.986 40.9844 46.7031 39.7015 46.7031 38.125V37.1719H52.4219V38.125C52.4219 39.7015 51.139 40.9844 49.5625 40.9844ZM1.90627 37.1719H6.6719V38.6016C6.6719 39.9159 5.60261 40.9844 4.28909 40.9844C2.97556 40.9844 1.90627 39.9159 1.90627 38.6016V37.1719ZM30.5 22.875C31.8382 22.875 33.1181 22.632 34.3125 22.2078V25.7344H26.6875V22.2078C27.8819 22.632 29.1618 22.875 30.5 22.875ZM46.7031 35.2656V27.6406H52.4219V35.2656H46.7031ZM44.7969 35.2656H39.0781V27.6406H44.7969V35.2656ZM37.1719 35.2656H31.4531V27.6406H37.1719V35.2656ZM29.5469 27.6406V35.2656H23.8281V27.6406H29.5469ZM21.9219 35.2656H16.2031V27.6406H21.9219V35.2656ZM14.2969 35.2656H8.57815V27.6406H14.2969V35.2656ZM8.57815 37.1719H14.2969V38.125C14.2969 39.7015 13.014 40.9844 11.4375 40.9844C9.861 40.9844 8.57815 39.7015 8.57815 38.125V37.1719ZM16.2031 37.1719H21.9219V38.125C21.9219 39.7015 20.639 40.9844 19.0625 40.9844C17.486 40.9844 16.2031 39.7015 16.2031 38.125V37.1719ZM23.8281 37.1719H29.5469V38.125C29.5469 39.7015 28.264 40.9844 26.6875 40.9844C25.111 40.9844 23.8281 39.7015 23.8281 38.125V37.1719ZM31.4531 37.1719H37.1719V38.125C37.1719 39.7015 35.889 40.9844 34.3125 40.9844C32.736 40.9844 31.4531 39.7015 31.4531 38.125V37.1719ZM39.0781 37.1719H44.7969V38.125C44.7969 39.7015 43.514 40.9844 41.9375 40.9844C40.361 40.9844 39.0781 39.7015 39.0781 38.125V37.1719ZM58.7659 35.2656H54.3284V27.6406H56.4784L58.7659 35.2656ZM36.2188 25.7344V21.327C36.903 20.9296 37.54 20.4637 38.125 19.9382V25.7344H36.2188ZM30.5 1.90625C35.7554 1.90625 40.0313 6.18213 40.0313 11.4375C40.0313 16.6929 35.7554 20.9688 30.5 20.9688C25.2447 20.9688 20.9688 16.6929 20.9688 11.4375C20.9688 6.18213 25.2447 1.90625 30.5 1.90625ZM22.875 19.9383C23.4601 20.4634 24.0971 20.9306 24.7813 21.3271V25.734H22.875V19.9383ZM4.52165 27.6403H6.67168V35.2653H2.23415L4.52165 27.6403ZM14.2967 59.0934H8.57793V47.6559H14.2967V59.0934ZM35.2654 47.6559C35.2654 47.13 35.6935 46.7028 36.2186 46.7028C36.7436 46.7028 37.1717 47.13 37.1717 47.6559C37.1717 48.1818 36.7436 48.609 36.2186 48.609C35.6935 48.609 35.2654 48.1818 35.2654 47.6559ZM49.5623 59.0934V56.6285L52.1426 54.0482C52.3217 53.8703 52.4217 53.6282 52.4217 53.3746V50.34C53.5285 49.9455 54.328 48.8971 54.328 47.6559C54.328 46.0793 53.0451 44.7965 51.4686 44.7965C49.8921 44.7965 48.6092 46.0793 48.6092 47.6559C48.6092 48.8967 49.4087 49.9451 50.5155 50.34V52.9802L47.9352 55.5605C47.7561 55.7383 47.6561 55.9804 47.6561 56.234V59.0934H41.9373V56.6285L44.5176 54.0482C44.6967 53.8703 44.7967 53.6282 44.7967 53.3746V50.34C45.9035 49.9455 46.703 48.8971 46.703 47.6559C46.703 46.0793 45.4201 44.7965 43.8436 44.7965C42.2671 44.7965 40.9842 46.0793 40.9842 47.6559C40.9842 48.8967 41.7837 49.9451 42.8905 50.34V52.9802L40.3102 55.5605C40.1311 55.7383 40.0311 55.9804 40.0311 56.234V59.0934H37.1717V50.34C38.2784 49.9456 39.0779 48.8972 39.0779 47.6559C39.0779 46.0794 37.7951 44.7965 36.2186 44.7965C34.642 44.7965 33.3592 46.0794 33.3592 47.6559C33.3592 48.8967 34.1587 49.9452 35.2654 50.34V59.0934H32.4061V56.234C32.4061 55.9804 32.3061 55.7383 32.1269 55.5601L29.5466 52.9802V50.34C30.6533 49.9455 31.4529 48.8971 31.4529 47.6559C31.4529 46.0793 30.17 44.7965 28.5935 44.7965C27.017 44.7965 25.7341 46.0793 25.7341 47.6559C25.7341 48.8967 26.5336 49.9451 27.6404 50.34V53.3746C27.6404 53.6282 27.7404 53.8703 27.9195 54.0486L30.4998 56.6285V59.0934H24.7811V56.234C24.7811 55.9804 24.6811 55.7383 24.5019 55.5601L21.9216 52.9802V50.34C23.0283 49.9455 23.8279 48.8971 23.8279 47.6559C23.8279 46.0793 22.545 44.7965 20.9685 44.7965C19.392 44.7965 18.1091 46.0793 18.1091 47.6559C18.1091 48.8967 18.9086 49.9451 20.0154 50.34V53.3746C20.0154 53.6282 20.1154 53.8703 20.2945 54.0486L22.8748 56.6285V59.0934H16.2029V46.7028C16.2029 46.1756 15.7757 45.7497 15.2498 45.7497H7.62481C7.09889 45.7497 6.67168 46.1756 6.67168 46.7028V59.0934H1.90606V42.1637C2.58856 42.6212 3.4072 42.8901 4.28887 42.8901C5.71474 42.8901 6.97211 42.1829 7.75247 41.1086C8.62645 42.1868 9.94466 42.8901 11.4373 42.8901C13.0014 42.8901 14.3806 42.122 15.2498 40.9544C16.1191 42.122 17.4982 42.8901 19.0623 42.8901C20.6264 42.8901 22.0056 42.122 22.8748 40.9544C23.7441 42.122 25.1232 42.8901 26.6873 42.8901C28.2514 42.8901 29.6306 42.122 30.4998 40.9544C31.3691 42.122 32.7482 42.8901 34.3123 42.8901C35.8764 42.8901 37.2556 42.122 38.1248 40.9544C38.9941 42.122 40.3732 42.8901 41.9373 42.8901C43.5014 42.8901 44.8806 42.122 45.7498 40.9544C46.6191 42.122 47.9982 42.8901 49.5623 42.8901C51.055 42.8901 52.3732 42.1867 53.2471 41.1086C54.0275 42.1829 55.2849 42.8901 56.7107 42.8901C57.5924 42.8901 58.411 42.6212 59.0936 42.1637V59.0934H49.5623ZM50.5154 47.6559C50.5154 47.13 50.9435 46.7028 51.4686 46.7028C51.9936 46.7028 52.4217 47.13 52.4217 47.6559C52.4217 48.1818 51.9936 48.609 51.4686 48.609C50.9435 48.609 50.5154 48.1818 50.5154 47.6559ZM42.8904 47.6559C42.8904 47.13 43.3185 46.7028 43.8436 46.7028C44.3686 46.7028 44.7967 47.13 44.7967 47.6559C44.7967 48.1818 44.3686 48.609 43.8436 48.609C43.3185 48.609 42.8904 48.1818 42.8904 47.6559ZM27.6404 47.6559C27.6404 47.13 28.0685 46.7028 28.5936 46.7028C29.1186 46.7028 29.5467 47.13 29.5467 47.6559C29.5467 48.1818 29.1186 48.609 28.5936 48.609C28.0685 48.609 27.6404 48.1818 27.6404 47.6559ZM20.0154 47.6559C20.0154 47.13 20.4435 46.7028 20.9686 46.7028C21.4936 46.7028 21.9217 47.13 21.9217 47.6559C21.9217 48.1818 21.4936 48.609 20.9686 48.609C20.4435 48.609 20.0154 48.1818 20.0154 47.6559Z" fill="white"/>
</svg>
