<svg width="91" height="82" viewBox="0 0 91 82" fill="none" xmlns="http://www.w3.org/2000/svg">
<path d="M86.4507 9.25872H53.6335L49.4057 2.21182C48.1165 0.052273 45.3107 -0.648641 43.1685 0.658485C42.5239 1.03735 41.993 1.5867 41.6139 2.21182L37.3672 9.25872H4.55C2.04741 9.25872 0 11.3045 0 13.805V77.4537C0 79.9542 2.04741 82 4.55 82H86.45C88.9526 82 91 79.9542 91 77.4537V13.805C91 11.3045 88.9532 9.25872 86.4507 9.25872ZM44.192 3.7652C44.628 3.04537 45.557 2.81803 46.2774 3.25374C46.4859 3.38634 46.6755 3.55683 46.7892 3.7652L59.6241 25.1511C60.0601 25.871 59.8136 26.7992 59.1122 27.2348C58.8847 27.3674 58.6003 27.4432 58.3349 27.4432H32.666C31.8318 27.4432 31.1493 26.7612 31.1493 25.9277C31.1493 25.6626 31.2251 25.3784 31.3578 25.1511L44.192 3.7652ZM28.7031 28.1647C29.4994 29.6044 31.0161 30.4758 32.6653 30.4758H58.3533C60.8748 30.4758 62.9033 28.4489 62.9033 25.9295C62.9033 25.096 62.6758 24.3004 62.2587 23.5995L59.0926 18.3522H81.8998V72.9082H9.09982V18.3522H31.907L28.76 23.5995C27.9069 25.0013 27.8879 26.744 28.7031 28.1647ZM87.9675 77.4538C87.9675 78.2873 87.285 78.9693 86.4508 78.9693H4.55083C3.71667 78.9693 3.03417 78.2873 3.03417 77.4538V13.8052C3.03417 12.9717 3.71667 12.2898 4.55083 12.2898H35.548L33.728 15.3207H6.0675V75.9384H84.9342V15.3207H57.2736L55.4536 12.2898H86.4508C87.285 12.2898 87.9675 12.9717 87.9675 13.8052V77.4538Z" fill="#B72BF6"/>
<path d="M43.9844 7.74316H47.0177V18.3513H43.9844V7.74316Z" fill="#B72BF6"/>
<path d="M43.9844 21.3818H47.0177V24.4127H43.9844V21.3818Z" fill="#B72BF6"/>
<path d="M25.7828 24.4131H15.1661V66.8455H12.1328V69.8764H78.8661V66.8455H75.8328V48.6602H65.2161V66.8455H59.1495V42.5984H48.5328V66.8455H42.4661V36.5366H31.8495V66.8455H25.7828V24.4131ZM18.1995 27.444H22.7495V66.8455H18.1995V27.444ZM68.2495 51.6911H72.7995V66.8455H68.2495V51.6911ZM51.5662 45.6293H56.1161V66.8455H51.5662V45.6293ZM34.8828 39.5675H39.4328V66.8455H34.8828V39.5675Z" fill="#B72BF6"/>
<path d="M70.206 44.5501L72.3482 46.6906L77.9788 41.0646L72.3482 35.4386L70.206 37.5791L72.064 39.4356C63.0588 38.9052 54.2436 36.5373 46.1853 32.4834L44.8203 35.1923C53.3705 39.4924 62.717 41.9739 72.2728 42.4853L70.206 44.5501Z" fill="#B72BF6"/>
</svg>
