<svg width="78" height="85" viewBox="0 0 78 85" fill="none" xmlns="http://www.w3.org/2000/svg">
<path fill-rule="evenodd" clip-rule="evenodd" d="M48.5 1.18967C50.5064 1.56884 52.8036 3.15087 54.0334 5.00037C55.094 6.59537 55.4183 7.83096 55.522 10.6718L55.613 13.1582H56.6442H57.6752V16.3193V19.4805H67.3376H77V51.7402V84H39H1V51.7402V19.4805H10.6624H20.3248V16.3193V13.1582H21.3558H22.387L22.4806 10.686C22.5879 7.85317 22.9236 6.56911 23.9674 4.99924C25.2375 3.0891 27.5058 1.56268 29.6517 1.17443C30.2136 1.07262 32.8703 1 36.0256 1H41.4359V2.20642V3.413L35.6303 3.46277L29.8248 3.5127L28.7301 4.03031C27.4067 4.65621 26.2289 5.78628 25.6349 7.00015C25.0808 8.132 24.8416 9.9105 24.9044 12.4287L24.953 14.374H26.4145H27.8761L27.9573 11.5371C28.0472 8.39624 28.1299 8.09812 29.1625 7.19306C29.4773 6.91715 30.0107 6.61498 30.3482 6.52145C31.1843 6.28963 46.8157 6.28963 47.6518 6.52145C47.9893 6.61498 48.5227 6.91715 48.8375 7.19306C49.8701 8.09812 49.9528 8.39624 50.0427 11.5371L50.1239 14.374H51.5855H53.047L53.0956 12.4287C53.1584 9.9105 52.9192 8.132 52.3651 7.00015C51.7686 5.78125 50.5931 4.65508 49.2699 4.03501C48.2481 3.5563 48.032 3.51788 46.0235 3.45806L43.8718 3.39403V2.19702V1L45.7799 1.01816C46.8295 1.02804 48.0534 1.10537 48.5 1.18967ZM30.7542 9.03365C30.4154 9.2705 30.3932 9.40505 30.3932 11.2221V13.1582H31.4451H32.4973L32.5413 16.2788L32.5855 19.3994H39H45.4145L45.4587 16.2788L45.5027 13.1582H46.5549H47.6068V11.2221C47.6068 9.40505 47.5846 9.2705 47.2458 9.03365C46.9313 8.81367 45.8738 8.78125 39 8.78125C32.1262 8.78125 31.0687 8.81367 30.7542 9.03365ZM47.9316 18.1836V19.4805H51.5855H55.2393V18.1836V16.8867H51.5855H47.9316V18.1836ZM22.7607 18.1836V19.4805H26.4145H30.0684V18.1836V16.8867H26.4145H22.7607V18.1836ZM3.4359 29.1115V36.311L11.7222 42.1614L20.0084 48.0117H26.1752H32.3419V45.4185C32.3419 43.0915 32.2735 42.4463 31.6769 39.1367C30.9511 35.1115 30.9433 34.5717 31.5928 33.3013C32.06 32.387 32.6447 31.8133 33.641 31.2918C34.3593 30.9157 34.4512 30.9092 39 30.9092C43.5488 30.9092 43.6407 30.9157 44.359 31.2918C45.3553 31.8133 45.94 32.387 46.4072 33.3013C47.0532 34.5651 47.0453 35.1114 46.3217 39.1722C45.7309 42.488 45.6581 43.1768 45.6581 45.454V48.0117H51.8848H58.1116L66.3378 42.1604L74.5641 36.309V29.1106V21.9121H39H3.4359V29.1115ZM34.6901 33.5169C34.1027 33.7951 33.7519 34.2342 33.5891 34.895C33.4926 35.2868 34.4804 41.3403 34.6984 41.6924C34.7982 41.8537 43.3846 41.9303 43.3846 41.77C43.3846 41.7251 43.6394 40.2566 43.9507 38.5066C44.5124 35.35 44.5284 34.8162 44.0818 34.1272C43.579 33.3517 43.0858 33.2674 39.0245 33.2635C35.8936 33.2604 35.1383 33.3045 34.6901 33.5169ZM70.8757 41.9441L67.3376 44.4685L67.2564 52.0354L67.1752 59.6025H65.9573H64.7393L64.6581 53.0105L64.5769 46.4183L62.1816 48.121L59.7863 49.8236V62.0484V74.2734H62.2222H64.6581V68.1943V62.1152H65.9573H67.2564V68.1943V74.2734H70.9103H74.5641V56.8467C74.5641 47.262 74.5303 39.4199 74.4889 39.4199C74.4477 39.4199 72.8218 40.5558 70.8757 41.9441ZM3.4359 56.8467V74.2734H7.08844H10.741L10.7829 64.5063L10.8248 54.7393H12.0427H13.2607L13.3026 64.5063L13.3445 74.2734H15.7791H18.2137L18.2082 61.9937L18.2026 49.7139L15.8129 48.0446L13.4231 46.3754L13.3419 49.2604L13.2607 52.1455H12.0427H10.8248L10.7436 48.2771L10.6624 44.4085L7.17094 41.926C5.25064 40.5605 3.62476 39.4381 3.55769 39.4318C3.49062 39.4253 3.4359 47.262 3.4359 56.8467ZM34.813 46.1069L34.859 47.9307H39H43.141L43.187 46.1069L43.2329 44.2832H39H34.7671L34.813 46.1069ZM44.0041 52.7534C43.9497 54.6545 43.8778 55.1961 43.5985 55.8127C43.135 56.8353 42.1894 57.8394 41.2025 58.3566C40.4999 58.7249 40.1798 58.7874 39 58.7874C37.8202 58.7874 37.5001 58.7249 36.7975 58.3566C35.8106 57.8394 34.865 56.8353 34.4015 55.8127C34.1222 55.1961 34.0503 54.6545 33.9959 52.7534L33.9298 50.4434H27.2897H20.6496V62.3584V74.2734H39H57.3504V62.3584V50.4434H50.7103H44.0702L44.0041 52.7534ZM36.4308 52.5103C36.4996 54.8171 36.6718 55.3386 37.5766 55.9828C38.3192 56.5116 39.6808 56.5116 40.4234 55.9828C41.3282 55.3386 41.5004 54.8171 41.5692 52.5103L41.6309 50.4434H39H36.3691L36.4308 52.5103ZM45.0085 64.6279V65.8438H43.7906H42.5726V64.6279V63.4121H43.7906H45.0085V64.6279ZM40.1033 64.5874L40.0556 65.7627H38.8376H37.6197L37.5719 64.5874L37.5242 63.4121H38.8376H40.151L40.1033 64.5874ZM35.1026 64.6279V65.8438H33.8846H32.6667V64.6279V63.4121H33.8846H35.1026V64.6279ZM3.4359 79.1367V81.5684H39H74.5641V79.1367V76.7051H39H3.4359V79.1367Z" fill="#B72BF6" stroke="#B72BF6"/>
</svg>
