<svg width="70" height="70" viewBox="0 0 70 70" fill="none" xmlns="http://www.w3.org/2000/svg">
<path fill-rule="evenodd" clip-rule="evenodd" d="M24.7931 8.17167V16.3432L23.6753 15.6082C16.943 11.182 7.75891 14.3228 5.16291 21.9393C4.93701 22.6019 4.89576 22.6393 4.19421 22.8187C2.51774 23.2475 1.21225 24.3371 0.45108 25.9427L0 26.8944V46.3137V65.733L0.527649 66.7998C1.16309 68.0848 1.98105 68.8851 3.29445 69.5069L4.23814 69.9537H16.8819H29.5257L30.4694 69.5069C31.7823 68.8854 32.6008 68.0848 33.2362 66.8005L33.7639 65.7342L33.8101 62.2266L33.8564 58.719L35.0109 58.7598C36.1258 58.7992 36.1668 58.8128 36.2031 59.1536C36.4723 61.6862 37.8781 64.512 39.8215 66.4275C44.663 71.1996 52.4482 71.1896 57.2457 66.4049C59.2074 64.4486 60.5812 61.6852 60.8504 59.1536L60.888 58.8006L65.444 58.7634L70 58.7261V29.363V0H47.3966H24.7931V8.17167ZM67.7397 29.3676V56.4763L64.3138 56.4385L60.888 56.4006L60.8504 56.0477C60.5812 53.5151 59.1754 50.6893 57.232 48.7738C52.3914 44.0024 44.6621 44.0024 39.8215 48.7738C37.8781 50.6893 36.4723 53.5151 36.2031 56.0477C36.1668 56.3888 36.1265 56.402 35 56.4416L33.8345 56.4826V45.1826V33.8827H49.6569H65.4793V32.7533V31.6239H64.3491H63.219V18.0708V4.5177H58.6983H54.1776V18.0708V31.6239H53.0474H51.9173V21.4591V11.2942H47.3966H42.8759V21.4591V31.6239H41.7457H40.6155V24.8473V18.0708H36.0949H31.5742V20.8845V23.698L30.9688 23.3599C30.6358 23.1739 30.0233 22.9348 29.6077 22.8285L28.852 22.6352L28.467 21.5882C28.2553 21.0125 27.8507 20.1495 27.5679 19.6706L27.0535 18.7997V10.5293V2.25885H47.3966H67.7397V29.3676ZM60.9586 19.2002V31.6239H58.6983H56.4379V19.2002V6.77654H58.6983H60.9586V19.2002ZM49.6569 22.5885V31.6239H47.3966H45.1362V22.5885V13.5531H47.3966H49.6569V22.5885ZM19.9193 16.2921C21.5224 16.8023 22.7143 17.5455 24.0166 18.8468C25.3075 20.1369 26.05 21.3196 26.5871 22.9414C26.9174 23.9387 26.9612 24.2939 26.9612 25.9768C26.9612 27.6596 26.9174 28.0148 26.5871 29.0121C26.05 30.6339 25.3075 31.8166 24.0166 33.1067C22.7256 34.3968 21.5422 35.1388 19.9193 35.6755C18.9213 36.0056 18.5659 36.0494 16.8819 36.0494C15.198 36.0494 14.8425 36.0056 13.8446 35.6755C12.2217 35.1388 11.0382 34.3968 9.74731 33.1067C8.45637 31.8166 7.71384 30.6339 7.17673 29.0121C6.84658 28.0151 6.80264 27.6592 6.80236 25.9768C6.80208 24.3125 6.84757 23.9336 7.16133 22.9884C7.7243 21.292 8.46103 20.1069 9.7353 18.8473C11.3464 17.2548 13.0792 16.3205 15.0967 15.9565C16.3592 15.7286 18.6498 15.8882 19.9193 16.2921ZM15.7518 19.2002C15.7518 20.1512 15.7153 20.3296 15.5209 20.3296C14.4436 20.3296 12.8587 21.574 12.533 22.6754C12.1417 23.9991 12.4176 25.0544 13.416 26.0521C14.3087 26.9442 14.8393 27.1062 16.8694 27.1062C18.3579 27.1062 18.4687 27.1261 18.7955 27.4528C19.2543 27.9112 19.2543 28.56 18.7955 29.0184C18.469 29.3447 18.3571 29.365 16.8819 29.365C15.4068 29.365 15.2949 29.3447 14.9684 29.0184C14.7777 28.8278 14.6216 28.5737 14.6216 28.4537C14.6216 28.2751 14.4166 28.2356 13.4914 28.2356C12.5398 28.2356 12.3613 28.272 12.3613 28.4663C12.3613 29.8669 14.1194 31.6239 15.5209 31.6239C15.7153 31.6239 15.7518 31.8023 15.7518 32.7533V33.8827H16.8819H18.0121V32.7533C18.0121 31.8023 18.0486 31.6239 18.2429 31.6239C19.3203 31.6239 20.9052 30.3795 21.2308 29.2781C21.6222 27.9544 21.3463 26.8991 20.3479 25.9014C19.4552 25.0093 18.9246 24.8473 16.8945 24.8473C15.4059 24.8473 15.2952 24.8274 14.9684 24.5007C14.7497 24.2823 14.6216 23.9929 14.6216 23.7179C14.6216 23.4429 14.7497 23.1535 14.9684 22.9351C15.2949 22.6088 15.4068 22.5885 16.8819 22.5885C18.3571 22.5885 18.469 22.6088 18.7955 22.9351C18.9862 23.1257 19.1423 23.3798 19.1423 23.4998C19.1423 23.6784 19.3473 23.7179 20.2725 23.7179C21.2241 23.7179 21.4026 23.6815 21.4026 23.4872C21.4026 22.4199 20.2722 20.9239 19.1861 20.5541C18.8236 20.4306 18.4111 20.3296 18.2695 20.3296C18.0419 20.3296 18.0121 20.1988 18.0121 19.2002V18.0708H16.8819H15.7518V19.2002ZM38.3552 25.9768V31.6239H36.0949H33.8345V25.9768V20.3296H36.0949H38.3552V25.9768ZM4.45005 31.7651V38.4004H16.8819H29.3138V31.7651C29.3138 28.1156 29.3487 25.1297 29.3915 25.1297C29.9445 25.1297 31.16 26.3928 31.4102 27.2273C31.6519 28.0332 31.6442 64.6014 31.4024 65.4196C31.1731 66.1951 30.0028 67.3646 29.2268 67.5938C28.3905 67.8407 5.3734 67.8407 4.53707 67.5938C3.76107 67.3646 2.59078 66.1951 2.36149 65.4196C2.1219 64.6094 2.11187 28.034 2.3509 27.2363C2.43962 26.9406 2.70478 26.4651 2.94014 26.1798C3.33613 25.6996 4.09617 25.1314 4.3441 25.1303C4.40244 25.13 4.45005 28.1156 4.45005 31.7651ZM8.11548 34.7374C8.46936 35.0909 8.98133 35.5509 9.25328 35.7594L9.74773 36.1385L8.22906 36.14L6.71039 36.1416L6.71195 34.6239L6.7135 33.1062L7.09282 33.6004C7.30147 33.8721 7.76174 34.3838 8.11548 34.7374ZM27.0064 36.0946C26.9748 36.126 26.3066 36.1337 25.5213 36.1114L24.0936 36.071L24.924 35.4076C25.3805 35.0428 26.0307 34.3901 26.3685 33.9574L26.9828 33.1706L27.0232 34.6039C27.0456 35.3922 27.0379 36.0629 27.0064 36.0946ZM49.6569 37.271V38.4004H57.5681H65.4793V37.271V36.1416H57.5681H49.6569V37.271ZM5.78507 40.8521C5.20868 41.1108 4.62297 41.8296 4.51334 42.4131C4.46432 42.6743 4.44595 43.5891 4.47251 44.4462C4.52464 46.1301 4.64557 46.4416 5.49334 47.0741C5.84341 47.3353 6.08428 47.3652 7.84057 47.3652C9.9773 47.3652 10.1951 47.2953 10.8691 46.3932C11.1305 46.0434 11.1604 45.8027 11.1604 44.0475C11.1604 42.2924 11.1305 42.0517 10.8691 41.7019C10.2141 40.825 9.95229 40.733 8.00741 40.6944C6.72918 40.6691 6.09247 40.7143 5.78507 40.8521ZM14.8264 40.8521C14.25 41.1108 13.6643 41.8296 13.5547 42.4131C13.5057 42.6743 13.4873 43.5891 13.5139 44.4462C13.566 46.1301 13.6869 46.4416 14.5347 47.0741C14.8848 47.3353 15.1257 47.3652 16.8819 47.3652C19.0187 47.3652 19.2365 47.2953 19.9105 46.3932C20.1719 46.0434 20.2018 45.8027 20.2018 44.0475C20.2018 42.2924 20.1719 42.0517 19.9105 41.7019C19.2554 40.825 18.9937 40.733 17.0488 40.6944C15.7706 40.6691 15.1338 40.7143 14.8264 40.8521ZM23.8678 40.8521C23.2914 41.1108 22.7057 41.8296 22.5961 42.4131C22.5471 42.6743 22.5287 43.5891 22.5553 44.4462C22.6074 46.1301 22.7283 46.4416 23.5761 47.0741C23.9262 47.3353 24.167 47.3652 25.9233 47.3652C28.06 47.3652 28.2779 47.2953 28.9519 46.3932C29.2132 46.0434 29.2432 45.8027 29.2432 44.0475C29.2432 42.2924 29.2132 42.0517 28.9519 41.7019C28.2968 40.825 28.035 40.733 26.0902 40.6944C24.8119 40.6691 24.1752 40.7143 23.8678 40.8521ZM49.6569 41.7887V42.9181H55.3078H60.9586V41.7887V40.6593H55.3078H49.6569V41.7887ZM63.219 41.7887V42.9181H64.3491H65.4793V41.7887V40.6593H64.3491H63.219V41.7887ZM8.97074 44.0475V45.177H7.84057H6.71039V44.0475V42.9181H7.84057H8.97074V44.0475ZM18.0121 44.0475V45.177H16.8819H15.7518V44.0475V42.9181H16.8819H18.0121V44.0475ZM27.0535 44.0475V45.177H25.9233H24.7931V44.0475V42.9181H25.9233H27.0535V44.0475ZM51.5641 47.916C53.1672 48.4262 54.3591 49.1693 55.6614 50.4707C56.9523 51.7608 57.6948 52.9434 58.2319 54.5653C58.5622 55.5626 58.606 55.9178 58.606 57.6006C58.606 59.2835 58.5622 59.6387 58.2319 60.636C57.6948 62.2578 56.9523 63.4405 55.6614 64.7305C54.3704 66.0206 53.187 66.7627 51.5641 67.2994C50.5661 67.6295 50.2107 67.6733 48.5267 67.6733C46.8428 67.6733 46.4873 67.6295 45.4894 67.2994C43.8665 66.7627 42.683 66.0206 41.3921 64.7305C40.1012 63.4405 39.3586 62.2578 38.8215 60.636C38.4914 59.639 38.4474 59.283 38.4472 57.6006C38.4469 55.9364 38.4924 55.5575 38.8061 54.6123C39.3691 52.9159 40.1058 51.7307 41.3801 50.4711C42.9912 48.8787 44.724 47.9443 46.7415 47.5804C48.004 47.3525 50.2946 47.512 51.5641 47.916ZM5.78507 49.8875C5.20868 50.1461 4.62297 50.865 4.51334 51.4485C4.46432 51.7097 4.44595 52.6245 4.47251 53.4816C4.52464 55.1655 4.64557 55.477 5.49334 56.1095C5.84341 56.3707 6.08428 56.4006 7.84057 56.4006C9.9773 56.4006 10.1951 56.3307 10.8691 55.4286C11.1305 55.0788 11.1604 54.8381 11.1604 53.0829C11.1604 51.3278 11.1305 51.0871 10.8691 50.7373C10.2141 49.8604 9.95229 49.7684 8.00741 49.7298C6.72918 49.7045 6.09247 49.7497 5.78507 49.8875ZM14.8264 49.8875C14.25 50.1461 13.6643 50.865 13.5547 51.4485C13.5057 51.7097 13.4873 52.6245 13.5139 53.4816C13.566 55.1655 13.6869 55.477 14.5347 56.1095C14.8848 56.3707 15.1257 56.4006 16.8819 56.4006C19.0187 56.4006 19.2365 56.3307 19.9105 55.4286C20.1719 55.0788 20.2018 54.8381 20.2018 53.0829C20.2018 51.3278 20.1719 51.0871 19.9105 50.7373C19.2554 49.8604 18.9937 49.7684 17.0488 49.7298C15.7706 49.7045 15.1338 49.7497 14.8264 49.8875ZM23.8678 49.8875C23.2914 50.1461 22.7057 50.865 22.5961 51.4485C22.5471 51.7097 22.5287 52.6245 22.5553 53.4816C22.6074 55.1655 22.7283 55.477 23.5761 56.1095C23.9262 56.3707 24.167 56.4006 25.9233 56.4006C28.06 56.4006 28.2779 56.3307 28.9519 55.4286C29.2132 55.0788 29.2432 54.8381 29.2432 53.0829C29.2432 51.3278 29.2132 51.0871 28.9519 50.7373C28.2968 49.8604 28.035 49.7684 26.0902 49.7298C24.8119 49.7045 24.1752 49.7497 23.8678 49.8875ZM47.3966 50.8241C47.3966 51.7751 47.3601 51.9535 47.1657 51.9535C46.0884 51.9535 44.5035 53.1978 44.1778 54.2993C43.7865 55.623 44.0624 56.6783 45.0608 57.676C45.9535 58.5681 46.4841 58.7301 48.5142 58.7301C50.0027 58.7301 50.1135 58.75 50.4403 59.0766C50.659 59.295 50.7871 59.5845 50.7871 59.8595C50.7871 60.1345 50.659 60.4239 50.4403 60.6423C50.1138 60.9686 50.0019 60.9889 48.5267 60.9889C47.0516 60.9889 46.9397 60.9686 46.6132 60.6423C46.4225 60.4517 46.2664 60.1976 46.2664 60.0776C46.2664 59.899 46.0614 59.8595 45.1362 59.8595C44.1846 59.8595 44.0061 59.8959 44.0061 60.0902C44.0061 61.4908 45.7642 63.2477 47.1657 63.2477C47.3601 63.2477 47.3966 63.4262 47.3966 64.3772V65.5066H48.5267H49.6569V64.3772C49.6569 63.4262 49.6934 63.2477 49.8877 63.2477C50.9651 63.2477 52.55 62.0034 52.8756 60.9019C53.267 59.5783 52.9911 58.5229 51.9927 57.5252C51.1 56.6331 50.5694 56.4712 48.5393 56.4712C47.0507 56.4712 46.94 56.4513 46.6132 56.1246C46.3945 55.9062 46.2664 55.6168 46.2664 55.3418C46.2664 55.0668 46.3945 54.7773 46.6132 54.5589C46.9397 54.2327 47.0516 54.2124 48.5267 54.2124C50.0019 54.2124 50.1138 54.2327 50.4403 54.5589C50.631 54.7495 50.7871 55.0037 50.7871 55.1237C50.7871 55.3022 50.9921 55.3418 51.9173 55.3418C52.8689 55.3418 53.0474 55.3054 53.0474 55.1111C53.0474 54.0438 51.917 52.5477 50.8309 52.178C50.4684 52.0545 50.0559 51.9535 49.9143 51.9535C49.6867 51.9535 49.6569 51.8226 49.6569 50.8241V49.6947H48.5267H47.3966V50.8241ZM8.97074 53.0829V54.2124H7.84057H6.71039V53.0829V51.9535H7.84057H8.97074V53.0829ZM18.0121 53.0829V54.2124H16.8819H15.7518V53.0829V51.9535H16.8819H18.0121V53.0829ZM27.0535 53.0829V54.2124H25.9233H24.7931V53.0829V51.9535H25.9233H27.0535V53.0829ZM5.78507 58.9229C5.20868 59.1815 4.62297 59.9004 4.51334 60.4839C4.46432 60.7451 4.44595 61.6599 4.47251 62.517C4.52464 64.2008 4.64557 64.5124 5.49334 65.1449C5.84341 65.4061 6.08428 65.436 7.84057 65.436C9.9773 65.436 10.1951 65.3661 10.8691 64.464C11.1305 64.1142 11.1604 63.8735 11.1604 62.1183C11.1604 60.3632 11.1305 60.1225 10.8691 59.7727C10.2141 58.8958 9.95229 58.8037 8.00741 58.7652C6.72918 58.7399 6.09247 58.7851 5.78507 58.9229ZM14.8264 58.9229C14.25 59.1815 13.6643 59.9004 13.5547 60.4839C13.5057 60.7451 13.4873 61.6599 13.5139 62.517C13.566 64.2008 13.6869 64.5124 14.5347 65.1449C14.8848 65.4061 15.1257 65.436 16.8819 65.436C19.0187 65.436 19.2365 65.3661 19.9105 64.464C20.1719 64.1142 20.2018 63.8735 20.2018 62.1183C20.2018 60.3632 20.1719 60.1225 19.9105 59.7727C19.2554 58.8958 18.9937 58.8037 17.0488 58.7652C15.7706 58.7399 15.1338 58.7851 14.8264 58.9229ZM23.8678 58.9229C23.2914 59.1815 22.7057 59.9004 22.5961 60.4839C22.5471 60.7451 22.5287 61.6599 22.5553 62.517C22.6074 64.2008 22.7283 64.5124 23.5761 65.1449C23.9262 65.4061 24.167 65.436 25.9233 65.436C28.06 65.436 28.2779 65.3661 28.9519 64.464C29.2132 64.1142 29.2432 63.8735 29.2432 62.1183C29.2432 60.3632 29.2132 60.1225 28.9519 59.7727C28.2968 58.8958 28.035 58.8037 26.0902 58.7652C24.8119 58.7399 24.1752 58.7851 23.8678 58.9229ZM8.97074 62.1183V63.2477H7.84057H6.71039V62.1183V60.9889H7.84057H8.97074V62.1183ZM18.0121 62.1183V63.2477H16.8819H15.7518V62.1183V60.9889H16.8819H18.0121V62.1183ZM27.0535 62.1183V63.2477H25.9233H24.7931V62.1183V60.9889H25.9233H27.0535V62.1183Z" fill="url(#paint0_linear_215_5230)"/>
<defs>
<linearGradient id="paint0_linear_215_5230" x1="35" y1="0" x2="35" y2="70" gradientUnits="userSpaceOnUse">
<stop stop-color="#A031F1"/>
<stop offset="1" stop-color="#D623FF"/>
</linearGradient>
</defs>
</svg>
