<svg width="69" height="69" viewBox="0 0 69 69" fill="none" xmlns="http://www.w3.org/2000/svg">
<path fill-rule="evenodd" clip-rule="evenodd" d="M25.6395 0.0380387C24.2856 0.191707 23.1489 0.755351 22.1199 1.78312C21.677 2.22549 21.2567 2.76104 21.0642 3.12799L20.7443 3.73778H18.5213C15.9835 3.73778 15.5193 3.82052 14.8952 4.38367C14.301 4.9199 14.0907 5.45759 14.0367 6.57825L13.9905 7.53675L8.50918 7.56416L3.0279 7.59168L2.45973 7.82066C1.66193 8.14215 0.730017 9.03333 0.318613 9.86821L0 10.5146V38.2744V66.0343L0.311874 66.692C0.715562 67.5432 1.4197 68.2465 2.27181 68.6498L2.93023 68.9613L26.1239 68.9867C51.7257 69.0148 49.8381 69.0587 50.8563 68.4114C51.3832 68.0765 52.0199 67.4167 52.2557 66.9613C52.7284 66.0481 52.731 66.0246 52.7878 62.1098L52.8418 58.3804L53.8597 59.0186C55.2546 59.8931 55.571 60.0424 56.1581 60.1029C57.3292 60.2237 58.5385 59.4908 58.9409 58.4163C59.128 57.917 59.1418 57.6691 59.1418 54.8104C59.1418 51.9527 59.1536 51.7405 59.3127 51.7386C59.9002 51.7313 61.2051 50.817 61.7079 50.0604C63.2558 47.7308 62.3329 44.7329 59.7443 43.6825L59.1906 43.4578L59.1418 40.111C59.0943 36.8582 59.0866 36.7513 58.8665 36.3051C58.3259 35.2087 57.0096 34.5749 55.8546 34.8548C55.5943 34.9179 54.8099 35.296 54.1115 35.695L52.8418 36.4203L52.7925 23.6159C52.7471 11.8298 52.7298 10.7723 52.5749 10.3192C52.2101 9.25246 51.4501 8.4246 50.3511 7.89667L49.7162 7.59168L44.1838 7.56348L38.6516 7.53538L38.6119 6.49024C38.5849 5.77712 38.5221 5.35222 38.4143 5.1525C38.1898 4.73677 37.6809 4.24522 37.2191 3.99828C36.8482 3.79993 36.6685 3.78461 34.3743 3.75622L31.9255 3.72588L31.6753 3.2196C30.611 1.066 28.1255 -0.244125 25.6395 0.0380387ZM27.9073 2.49165C28.9298 2.96183 29.721 3.86813 30.0801 4.98049C30.3762 5.89772 30.3255 5.88425 33.4959 5.88425C35.5054 5.88425 36.2785 5.91577 36.3641 6.00133C36.5443 6.18134 36.5298 11.0888 36.3487 11.2389C36.2517 11.3193 33.5365 11.3422 26.2638 11.3241L16.3116 11.2992L16.2855 8.67164C16.2654 6.63464 16.2873 6.0265 16.3832 5.96572C16.4513 5.9225 17.7026 5.88659 19.164 5.88572C20.9106 5.88474 21.9031 5.84688 22.0606 5.77517C22.3099 5.6618 22.4889 5.36081 22.7502 4.61588C23.0819 3.67056 24.0318 2.74972 25.0728 2.36433C25.8356 2.08187 27.1442 2.1407 27.9073 2.49165ZM14.038 10.6406C14.1083 12.033 14.4768 12.7186 15.4325 13.2348L15.8232 13.4457L26.1279 13.4738C33.8271 13.4949 36.5387 13.4728 36.8523 13.3867C37.4416 13.2248 37.9841 12.8021 38.3054 12.2546C38.5509 11.8362 38.5836 11.6765 38.6159 10.7351L38.6519 9.68302L43.996 9.71064L49.34 9.73815L49.7459 10.0066C49.9692 10.1542 50.2406 10.4488 50.3491 10.6612C50.5442 11.0432 50.5464 11.1965 50.5464 24.4086V37.7697L48.6662 38.7019C46.4861 39.7828 45.1935 40.3092 43.5793 40.7735L42.4238 41.1059H39.2521C35.6224 41.1059 35.1953 41.1621 33.8441 41.8175C33.1885 42.1354 32.8488 42.3851 32.2293 43.0046C30.3854 44.8481 29.7993 47.3744 30.6638 49.7532C31.3305 51.5879 32.8553 53.0693 34.7232 53.6972C35.1096 53.827 35.7404 53.9346 36.3348 53.972L37.3116 54.0336L37.3604 57.4508L37.4092 60.8681L37.7342 61.5271C38.291 62.6563 39.2948 63.4587 40.4969 63.7355C41.1961 63.8966 42.6096 63.865 42.9208 63.6814C43.4764 63.3535 43.4627 63.4723 43.4933 58.6924C43.5095 56.1497 43.5588 54.2775 43.6096 54.2775C43.7872 54.2775 45.9629 54.9652 46.7055 55.2561C47.1258 55.4207 48.1633 55.8909 49.0109 56.3011L50.5522 57.0469L50.5248 61.4019L50.4976 65.757L50.2151 66.1268C50.0598 66.3301 49.745 66.5795 49.5155 66.6809C49.1097 66.8602 48.4692 66.8646 26.2096 66.84L3.32092 66.8148L2.97154 66.5978C2.77395 66.475 2.50867 66.1725 2.36108 65.9016L2.1 65.4225V38.3334C2.1 14.1035 2.11592 11.206 2.2512 10.8828C2.4528 10.4006 2.75041 10.0917 3.22325 9.87377C3.58738 9.70595 3.96694 9.69346 8.80201 9.69151L13.9902 9.68937L14.038 10.6406ZM38.2093 16.7631C36.9858 17.099 35.7599 18.0533 35.1904 19.1132C33.8146 21.6732 35.0534 24.9292 37.7655 25.8814L38.2883 26.0649L38.3176 26.7242C38.463 30 36.3441 32.8861 33.0846 33.8517C32.5944 33.9969 31.7434 34.025 26.1767 34.0796C20.4301 34.1358 19.7676 34.1588 19.193 34.3208C16.4106 35.1058 14.3285 36.8154 13.1446 39.2875C12.24 41.1767 12.1604 41.8322 12.1604 47.4078V51.7146L11.5797 51.9261C10.4477 52.3383 9.40964 53.3347 8.8908 54.5066C7.63041 57.3533 9.49472 60.6328 12.6501 61.1194C14.6206 61.4233 16.7105 60.2958 17.5772 58.4612C18.3757 56.7712 18.2022 55.0063 17.0886 53.4909C16.6358 52.8749 15.7182 52.1922 14.9828 51.9244L14.3972 51.7111L14.4294 46.7256C14.4611 41.8139 14.4649 41.7308 14.6861 41.1059C15.3521 39.225 16.6433 37.7675 18.3777 36.9389C19.778 36.27 19.4786 36.2963 26.4697 36.2291C32.6793 36.1694 32.8356 36.1633 33.597 35.947C36.2915 35.1815 38.4633 33.372 39.6021 30.9438C40.1443 29.7876 40.4041 28.6934 40.475 27.268L40.5348 26.065L41.041 25.8872C43.2425 25.1142 44.5727 22.7213 44.09 20.4021C43.7344 18.6939 42.3123 17.2213 40.5709 16.7584C39.9286 16.5876 38.8403 16.5898 38.2093 16.7631ZM40.542 19.0346C42.1324 19.845 42.5068 21.9981 41.2719 23.2317C40.0412 24.4611 37.9794 24.1933 37.1423 22.6953C36.3252 21.233 36.9927 19.4972 38.6026 18.8973C39.0964 18.7133 40.0432 18.7804 40.542 19.0346ZM9.58233 21.0112C9.17317 21.3701 9.07091 21.7485 9.26333 22.1922C9.34147 22.3722 9.93738 23.0456 10.5876 23.6888L11.7699 24.8582L10.5097 26.1279C9.81665 26.8263 9.22006 27.4973 9.18402 27.6189C9.09142 27.9307 9.29683 28.4813 9.59229 28.7134C9.75961 28.8449 9.98934 28.9101 10.2853 28.9101C10.7219 28.9101 10.7455 28.8927 12.0066 27.6454L13.2853 26.3806L14.5616 27.6454C15.8214 28.8937 15.8437 28.9101 16.2813 28.9101C16.5781 28.9101 16.8076 28.845 16.9751 28.7134C17.2706 28.4813 17.4679 27.9532 17.3839 27.6193C17.3511 27.4888 16.7778 26.8374 16.1098 26.1717C15.4418 25.5061 14.8953 24.9163 14.8953 24.8609C14.8953 24.8057 15.424 24.2343 16.0702 23.5911C17.4011 22.2665 17.5714 21.9582 17.2945 21.3753C17.0828 20.9299 16.6018 20.6657 16.1546 20.7496C15.8945 20.7983 15.5488 21.0839 14.6021 22.0318C13.9324 22.7025 13.3417 23.2512 13.2897 23.2512C13.2376 23.2512 12.6179 22.6804 11.9126 21.9828C10.7416 20.8246 10.5995 20.7144 10.2755 20.7144C10.0195 20.7144 9.82652 20.7971 9.58233 21.0112ZM56.7976 37.1057C56.9904 37.2983 56.9929 37.4309 56.9929 47.4478C56.9929 57.4647 56.9904 57.5973 56.7976 57.7899C56.5133 58.0738 56.3448 58.0356 55.5034 57.4967L54.7464 57.0119V47.406V37.8002L55.5522 37.3571C55.9955 37.1135 56.413 36.9134 56.4801 36.9123C56.5473 36.9113 56.6901 36.9984 56.7976 37.1057ZM52.5448 55.631C52.5152 55.6606 52.3941 55.6237 52.2757 55.549C51.6085 55.1282 48.7541 53.7507 47.6572 53.3204C46.576 52.896 44.8107 52.3371 43.7815 52.0932L43.5119 52.0292L43.5373 47.5339L43.5627 43.0385L44.5883 42.7254C46.525 42.1339 49.2276 40.9243 51.865 39.4687L52.5487 39.0913L52.5737 47.3343C52.5874 51.868 52.5744 55.6015 52.5448 55.631ZM63.643 40.6637C62.5247 41.7694 62.5115 41.7877 62.5115 42.2327C62.5115 42.618 62.5575 42.7241 62.8305 42.9677C63.0836 43.1937 63.2409 43.2524 63.5928 43.2524C64.0211 43.2524 64.0693 43.2202 65.0208 42.3011C66.0668 41.2907 66.3066 40.9128 66.2096 40.4283C66.1228 39.995 65.5723 39.5449 65.1292 39.5449C64.8078 39.5449 64.6683 39.6499 63.643 40.6637ZM19.6216 40.0308C19.2677 40.1736 18.9976 40.6094 18.9976 41.0378C18.9976 41.4118 19.0614 41.4956 20.2888 42.7337L21.5799 44.0362L20.397 45.2297C19.7464 45.8862 19.1654 46.5192 19.1059 46.6364C18.9513 46.9408 18.9721 47.3256 19.1603 47.6439C19.3568 47.9762 19.6684 48.1308 20.1418 48.1308C20.4645 48.1308 20.6091 48.0183 21.7977 46.8427L23.1 45.5545L24.4023 46.8427C25.6033 48.0308 25.7328 48.1308 26.0676 48.1308C26.7929 48.1308 27.2023 47.7184 27.2023 46.9879C27.2023 46.6655 27.0897 46.5211 25.9128 45.3338L24.6232 44.0329L25.9128 42.7321C27.1446 41.4895 27.2023 41.4134 27.2023 41.0322C27.2023 40.3142 26.4941 39.7791 25.8189 39.9868C25.6934 40.0255 25.0295 40.6099 24.3436 41.2857L23.0965 42.5143L21.9018 41.3329C21.2446 40.6831 20.6109 40.1028 20.4936 40.0432C20.2454 39.9175 19.914 39.9127 19.6216 40.0308ZM41.2674 47.5454V51.8383L38.7034 51.8371C35.9212 51.8359 35.5299 51.784 34.6342 51.297C33.9497 50.9249 33.2126 50.1162 32.8382 49.3268C32.5427 48.7036 32.5255 48.6056 32.5255 47.5433C32.5255 46.4598 32.5376 46.3947 32.861 45.7383C33.4371 44.5694 34.5096 43.6973 35.7488 43.3901C36.0688 43.3108 37.1046 43.2662 38.7523 43.2607L41.2674 43.2524V47.5454ZM59.6543 46.155C60.4935 47.0152 60.5321 48.2171 59.747 49.0416C59.134 49.6856 59.1418 49.7034 59.1418 47.6463C59.1418 46.6249 59.1768 45.7892 59.2196 45.7892C59.2624 45.7892 59.458 45.9538 59.6543 46.155ZM65.1296 46.7605C64.6831 47.0324 64.5278 47.5836 64.76 48.0722C65.0289 48.6383 65.2831 48.7162 66.8625 48.7162C68.3625 48.7162 68.6872 48.6274 68.9009 48.1589C69.0411 47.8512 69.0306 47.2418 68.8816 47.053C68.5392 46.619 68.333 46.5697 66.8607 46.5701C65.6265 46.5704 65.4011 46.5952 65.1296 46.7605ZM62.8903 51.9747C62.4654 52.1648 62.2673 52.4895 62.2673 52.9961C62.2673 53.4121 62.3033 53.4642 63.2605 54.4358C63.8746 55.0592 64.3779 55.485 64.5791 55.5513C65.2738 55.7803 65.9778 55.2419 65.9786 54.4808C65.979 54.1866 65.8503 54.0182 64.8801 53.0423C63.6987 51.8541 63.4539 51.7227 62.8903 51.9747ZM14.137 53.9057C14.648 54.0585 15.4072 54.7511 15.6655 55.2998C16.0761 56.1724 15.9001 57.3789 15.25 58.1482C14.2767 59.2999 12.104 59.2263 11.2444 58.0123C10.84 57.4413 10.7117 57.0679 10.7028 56.4353C10.6923 55.6962 10.8632 55.2142 11.3193 54.6967C12.0234 53.8977 13.1002 53.5954 14.137 53.9057ZM41.2674 57.8405V61.6963L40.9988 61.632C40.3868 61.4853 39.9677 61.1451 39.6672 60.551C39.5315 60.2827 39.5092 59.7981 39.5092 57.1118V53.9848H40.3883H41.2674V57.8405Z" fill="url(#paint0_linear_215_5216)"/>
<defs>
<linearGradient id="paint0_linear_215_5216" x1="34.5" y1="0" x2="34.5" y2="69" gradientUnits="userSpaceOnUse">
<stop stop-color="#A031F1"/>
<stop offset="1" stop-color="#D623FF"/>
</linearGradient>
</defs>
</svg>
