<svg width="74" height="74" viewBox="0 0 74 74" fill="none" xmlns="http://www.w3.org/2000/svg">
<path fill-rule="evenodd" clip-rule="evenodd" d="M48.6469 1.31794C47.6556 1.99445 47.5974 2.17812 47.5464 4.78661C47.4929 7.52866 47.5859 7.97011 48.3662 8.67712L48.9267 9.18493L47.4642 12.1346C45.5778 15.9385 45.3302 16.8842 45.4493 19.8311C45.4938 20.9311 45.5507 21.9249 45.5759 22.0392C45.615 22.2176 45.0074 22.2572 41.2897 22.3177C38.9071 22.3566 35.3808 22.3704 33.4534 22.3484L29.9491 22.3084L29.661 21.3602C28.9084 18.8821 26.7729 17.0391 24.1896 16.6381C20.986 16.1409 17.7718 18.194 16.8166 21.3479L16.5228 22.3177H13.1443C8.31132 22.3177 8.47828 22.1625 8.40831 26.7224L8.36129 29.786L5.85624 31.9016C3.33007 34.0347 2.93363 34.4767 2.53831 35.6002C2.41907 35.9392 2.00138 38.8863 1.61029 42.1495C0.661283 50.0656 0.68071 50.282 2.6653 53.869C3.46043 55.3061 3.76452 55.7326 4.071 55.8408C4.57682 56.0191 5.1598 55.7093 5.35252 55.1599C5.47529 54.8096 5.36477 54.5168 4.39479 52.6231C2.79721 49.5041 2.82649 49.9258 3.69624 42.5391C4.17855 38.4445 4.48658 36.3154 4.64552 35.9795C4.79193 35.6702 5.53005 34.9367 6.59773 34.0392L8.31455 32.5964L8.40043 37.7276C8.49039 43.1085 8.51756 43.3473 9.19345 44.694C9.61058 45.5254 14.4947 50.5546 15.2201 50.8998C15.4738 51.0205 16.0526 51.1175 16.5186 51.1175C18.1077 51.1175 19.3094 50.4405 19.8724 49.2281C20.1965 48.53 20.2079 48.3908 20.2091 45.0914C20.2107 41.3162 20.328 40.4223 21.0635 38.5801C21.6596 37.0873 22.323 36.0443 23.2133 35.2001C24.4024 34.0723 25.3932 34.0447 25.6941 35.1311C25.7857 35.4621 25.8405 38.2093 25.8412 42.5058C25.8419 48.2002 25.8836 49.6737 26.0883 51.2587C26.2237 52.3069 26.331 54.0222 26.3268 55.0704C26.3173 57.3825 26.2082 57.7215 24.1335 61.8821L22.7432 64.6703H15.9864H9.22963V63.9941C9.22963 63.6222 9.13742 62.9628 9.02465 62.5288C8.74211 61.4409 7.58151 58.8221 7.24772 58.5191C6.63279 57.9611 5.56933 58.4134 5.56933 59.2329C5.56933 59.4088 5.89355 60.307 6.2897 61.2291C6.80412 62.4265 7.03077 63.1548 7.08244 63.7775L7.1548 64.6494L6.59168 64.8016C5.89861 64.9886 5.35928 65.4009 5.03858 65.9886C4.83389 66.3638 4.79503 66.8301 4.79503 68.9158C4.79503 71.3658 4.79968 71.4038 5.16965 71.9644C5.88341 73.0459 5.41517 72.9996 15.6283 72.9996C25.7163 72.9996 25.1867 73.0479 25.94 72.0583C26.3299 71.5461 26.3351 71.5125 26.3824 69.2023C26.4381 66.4756 26.3441 66.0326 25.5587 65.321L24.996 64.8112L26.4201 61.9576C28.3412 58.1083 28.5697 57.2415 28.4673 54.194L28.393 51.9765L32.5727 51.9137C34.8715 51.8791 36.8473 51.8498 36.9635 51.8485C37.0796 51.8472 38.7227 51.8886 40.6148 51.9405L44.0549 52.0351L44.2202 52.6856C44.7841 54.9051 46.8958 56.9232 49.2153 57.4592C50.6935 57.8007 52.5341 57.5405 53.9114 56.7951C55.4031 55.9879 56.778 54.2349 57.2249 52.5702L57.3826 51.9829L60.7232 51.9384C65.6105 51.8733 65.4495 52.0275 65.5164 47.3499L65.5611 44.2177L68.0686 42.1002C70.5974 39.9646 70.9916 39.5253 71.391 38.3962C71.623 37.7407 73.0027 26.556 73 25.353C72.9977 24.3165 72.6511 22.8494 72.1905 21.9271C71.9682 21.482 71.0182 19.6248 70.0795 17.8001C67.8118 13.3925 66.9377 11.3448 66.8445 10.2224L66.7721 9.35052L67.3353 9.19834C68.0283 9.01128 68.5676 8.59905 68.8884 8.01134C69.093 7.63609 69.1319 7.16979 69.1319 5.08407C69.1319 2.63412 69.1273 2.59614 68.7573 2.03553C68.0434 0.953566 68.5167 1.0003 58.2562 1.0003H49.1123L48.6469 1.31794ZM67.061 4.88261C67.0834 5.81437 67.0664 6.71972 67.0231 6.89436L66.9445 7.212H61.6417C56.3911 7.212 56.3358 7.21497 56.0131 7.51892C55.4802 8.02094 55.5972 8.77905 56.2606 9.12309C56.5827 9.2901 57.4234 9.32963 60.6577 9.32963H64.6566L64.7355 10.3742C64.8613 12.0432 65.7927 14.1506 70.0771 22.4605C71.0468 24.3412 71.0496 24.5062 70.2307 31.4608C69.7484 35.5555 69.4404 37.6845 69.2814 38.0204C69.135 38.3297 68.3969 39.0632 67.3292 39.9607L65.6124 41.4035L65.5288 36.2723C65.4356 30.5423 65.4084 30.3588 64.435 28.8719C64.1338 28.4118 62.7866 26.9474 61.4415 25.6179C58.7204 22.9282 58.5362 22.8168 56.9598 22.9062C55.7358 22.9755 54.8276 23.5018 54.2128 24.4982L53.7868 25.1888L53.7036 29.1532C53.6155 33.3562 53.5545 33.7937 52.8081 35.5723C52.2324 36.9435 51.5318 38.024 50.7166 38.7971C49.8841 39.5867 49.3809 39.7964 48.8045 39.5936C48.1308 39.3567 48.1016 39.0279 48.0929 31.5647C48.0861 25.8339 48.0426 24.3202 47.8386 22.7413C47.7032 21.693 47.5959 19.9778 47.6002 18.9295C47.6096 16.6174 47.7187 16.2784 49.7934 12.1178C51.0538 9.58996 51.2171 9.32963 51.5419 9.32963C52.6526 9.32963 53.2139 8.39223 52.584 7.58922C52.3166 7.24828 52.2048 7.21963 51.0002 7.18193L49.7041 7.14141L49.665 5.12854L49.626 3.1158L58.323 3.15209L67.0202 3.18851L67.061 4.88261ZM25.0607 19.0532C26.3988 19.6467 27.495 21.0531 27.8261 22.6012C28.0149 23.484 28.5141 24.0998 29.1943 24.2893C29.4797 24.3687 31.1227 24.4341 32.8456 24.4345L35.978 24.4354V27.3864V30.3372L35.0048 30.6337C34.4695 30.7967 33.6302 31.1999 33.1394 31.5297C30.3335 33.4158 29.4183 37.1527 30.9965 40.2802C31.7485 41.7703 33.5978 43.2088 35.3204 43.6438L35.9835 43.8112L35.9456 46.7938L35.9076 49.7763L32.0042 49.8139L28.1007 49.8514L28.0277 49.5315C27.9876 49.3556 27.9386 45.9716 27.9189 42.0117L27.8831 34.8117L27.513 34.0202C26.5547 31.971 24.1758 31.6466 22.1122 33.2838C20.9822 34.1804 19.5566 36.4203 18.8834 38.3571C18.2216 40.2614 18.0991 41.2716 18.0943 44.8645C18.0911 47.282 18.0418 48.2862 17.9183 48.4474C17.6461 48.8031 17.1749 48.9998 16.5958 48.9998C16.0888 48.9998 15.9304 48.8687 13.6549 46.5646C12.2989 45.1915 11.1437 43.8974 11.0063 43.5974C10.8723 43.3048 10.7032 42.7013 10.6304 42.2562C10.5578 41.8112 10.4979 37.6193 10.4975 32.9412L10.4967 24.4354L13.629 24.4345C15.3519 24.4341 16.995 24.3687 17.2803 24.2893C17.9603 24.0998 18.4598 23.484 18.6483 22.6022C18.8785 21.5265 19.1445 20.9873 19.7945 20.2802C20.8947 19.0833 22.0489 18.6029 23.5577 18.7135C24.0437 18.7493 24.72 18.902 25.0607 19.0532ZM46.0086 31.8118C46.0613 40.0554 46.043 39.8955 47.0449 40.9035C48.1729 42.0382 49.9564 42.0618 51.4878 40.9619C52.8199 40.0054 54.2933 37.8011 55.0435 35.6428C55.7053 33.7385 55.8278 32.7283 55.8326 29.1354C55.8358 26.7179 55.8851 25.7137 56.0086 25.5525C56.2809 25.197 56.7519 25.0001 57.3322 24.9995C57.8413 24.9989 57.995 25.1263 60.2706 27.4348C61.6194 28.8029 62.781 30.1064 62.9209 30.4086C63.3851 31.411 63.4373 32.5956 63.3983 41.2352L63.3599 49.7763L59.5988 49.8469C56.5046 49.9049 55.8001 49.9552 55.6259 50.13C55.5097 50.2468 55.3535 50.7736 55.2791 51.3003C55.0349 53.0288 54.1983 54.2391 52.7005 55.03C52.0431 55.3772 51.8095 55.4222 50.6896 55.4171C49.5895 55.4122 49.3246 55.3604 48.6787 55.0244C47.205 54.2575 46.3178 52.9752 46.1125 51.3157C45.9228 49.7812 46.1151 49.8469 41.8072 49.8469H38.1067L38.0631 46.1203C38.0113 41.7065 38.0883 41.9181 36.4434 41.6727C34.6638 41.4073 33.4752 40.5532 32.7055 38.9871C32.4469 38.4608 32.3884 38.1056 32.3894 37.0705C32.3905 35.9565 32.4388 35.7081 32.7813 35.054C33.5592 33.5686 34.7556 32.736 36.4598 32.4939C38.0703 32.2652 38.0114 32.4264 38.0631 28.1023L38.107 24.4354H42.0344H45.9616L46.0086 31.8118ZM24.2619 68.8714L24.3009 70.8841L15.6039 70.8478L6.90675 70.8114L6.86592 69.1173C6.84353 68.1856 6.86071 67.2798 6.90407 67.1044L6.98305 66.7858L15.6029 66.8221L24.2228 66.8585L24.2619 68.8714Z" fill="url(#paint0_linear_165_5226)" stroke="url(#paint1_linear_165_5226)" stroke-width="0.5"/>
<defs>
<linearGradient id="paint0_linear_165_5226" x1="37" y1="1" x2="37" y2="73" gradientUnits="userSpaceOnUse">
<stop stop-color="#A031F1"/>
<stop offset="1" stop-color="#D623FF"/>
</linearGradient>
<linearGradient id="paint1_linear_165_5226" x1="37" y1="1" x2="37" y2="73" gradientUnits="userSpaceOnUse">
<stop stop-color="#A031F1"/>
<stop offset="1" stop-color="#D623FF"/>
</linearGradient>
</defs>
</svg>
