<svg width="75" height="74" viewBox="0 0 75 74" fill="none" xmlns="http://www.w3.org/2000/svg">
<path fill-rule="evenodd" clip-rule="evenodd" d="M11.525 2.4911C11.1193 3.98045 10.8965 4.3452 10.3926 4.3452C10.2455 4.3452 9.52377 4.00804 8.78867 3.59581L7.45228 2.84641L5.15907 5.10811L2.86585 7.3698L3.62569 8.68781C4.4194 10.0646 4.5067 10.3796 4.2015 10.7671C4.06384 10.942 1.47823 11.7506 1.05701 11.7506C1.02212 11.7506 1.01152 13.2025 1.03331 14.977L1.07291 18.2035L2.54445 18.6036C3.96711 18.9903 4.38553 19.2443 4.38553 19.7207C4.38553 19.8411 4.04838 20.5244 3.63629 21.2392L2.8869 22.5389L5.20014 24.8237L7.51323 27.1084L8.89732 26.3203C10.1836 25.5879 10.3094 25.5455 10.678 25.7201C10.9729 25.8598 11.1265 26.0944 11.2764 26.634C11.3872 27.0333 11.5764 27.7031 11.6966 28.1223L11.915 28.8846H15.1847H18.4544L18.8667 27.3728C19.2325 26.0311 19.3247 25.8423 19.6864 25.6945C20.1065 25.523 20.2709 25.5932 22.4286 26.8654L22.878 27.1304L25.1788 24.8493L27.4796 22.5683L26.6724 21.201C25.9401 19.9603 25.8809 19.7966 26.0333 19.4338C26.1821 19.0795 26.3763 18.9874 27.7341 18.6273L29.267 18.2207V17.1636V16.1067H32.8004H36.3339V16.9248C36.3339 17.3748 36.4144 18.0118 36.5129 18.3405C36.7519 19.1381 37.9715 20.341 38.7802 20.5767C39.6481 20.8296 58.9317 20.8296 59.7996 20.5767C60.6083 20.341 61.828 19.1381 62.0669 18.3405C62.1654 18.0118 62.2459 17.3681 62.2459 16.9101V16.0774L64.72 16.1283L67.194 16.1793L68.3063 16.7216C69.6459 17.3748 70.4807 18.2158 71.1289 19.5655L71.5949 20.5354V25.9806V31.4257L71.1289 32.3957C70.4807 33.7453 69.6459 34.5864 68.3061 35.2395L67.1938 35.7818L58.8309 35.8238L50.4677 35.8657V35.042C50.4677 34.589 50.3872 33.9493 50.2887 33.6206C50.0498 32.823 48.8301 31.6201 48.0214 31.3845C47.1535 31.1315 27.8699 31.1315 27.002 31.3845C26.1933 31.6201 24.9737 32.823 24.7347 33.6206C24.6362 33.9493 24.5557 34.5864 24.5557 35.0363V35.8544H16.5589C11.5272 35.8544 8.23804 35.9119 7.68844 36.0096C4.56324 36.5648 1.71954 39.3694 1.15669 42.4516C0.947771 43.5957 0.947771 53.669 1.15669 54.8131C1.53624 56.8918 3.18563 59.1977 5.04187 60.2452C6.65667 61.1563 7.31021 61.3005 10.1642 61.3747L12.7775 61.4427V62.2445C12.7775 62.6856 12.858 63.3154 12.9565 63.6441C13.1955 64.4417 14.4151 65.6446 15.2238 65.8802C16.0917 66.1332 35.3753 66.1332 36.2432 65.8802C37.0519 65.6446 38.2716 64.4417 38.5105 63.6441C38.609 63.3154 38.6895 62.6773 38.6895 62.2263V61.4062L43.4376 61.4446L48.1857 61.4829L48.2249 61.8459C48.5055 64.4507 49.9706 67.3571 51.9958 69.3272C57.0543 74.2479 65.188 74.2207 70.2114 69.2662C75.2666 64.2807 75.2623 56.2313 70.2018 51.2405C65.1578 46.2657 57.0697 46.2345 51.9958 51.1701C49.9706 53.1402 48.5055 56.0466 48.2249 58.6514L48.1857 59.0144L43.4376 59.0528L38.6895 59.0911V58.271C38.6895 57.82 38.609 57.1819 38.5105 56.8532C38.2716 56.0556 37.0519 54.8527 36.2432 54.6171C35.3753 54.3641 16.0917 54.3641 15.2238 54.6171C14.4151 54.8527 13.1955 56.0556 12.9565 56.8532C12.858 57.1819 12.7775 57.8256 12.7775 58.2836V59.1164L10.3114 59.0647C7.89985 59.014 7.82359 59.0028 6.8619 58.5541C5.49371 57.916 4.64083 57.0927 3.97845 55.7706L3.42855 54.6734V48.6324V42.5913L3.97845 41.4941C4.64068 40.1725 5.49313 39.3493 6.8619 38.7099L7.84538 38.2503L16.2005 38.2083L24.5557 38.1664V38.9901C24.5557 39.4431 24.6362 40.0828 24.7347 40.4115C24.9737 41.2091 26.1933 42.412 27.002 42.6476C27.8699 42.9006 47.1535 42.9006 48.0214 42.6476C48.8301 42.412 50.0498 41.2091 50.2887 40.4115C50.3872 40.0828 50.4677 39.4486 50.4677 39.0023V38.1909L58.9701 38.1479L67.4725 38.1051L68.4472 37.7306C69.8525 37.1907 70.626 36.7057 71.5752 35.7696C72.4752 34.8821 73.2363 33.6502 73.6762 32.3695C73.9251 31.6451 73.9505 31.0515 73.9505 25.9806C73.9505 20.8986 73.9255 20.3176 73.6749 19.5916C72.8881 17.3123 71.4193 15.6136 69.4143 14.6645C67.8881 13.9422 66.9768 13.7835 64.3537 13.7835H62.2459V12.9654C62.2459 11.7962 61.9865 11.0944 61.2594 10.2968C60.159 9.08974 60.6445 9.13693 49.3176 9.13693C41.9505 9.13693 39.2297 9.18252 38.7802 9.3135C37.9715 9.54916 36.7519 10.752 36.5129 11.5496C36.4144 11.8784 36.3339 12.5154 36.3339 12.9654V13.7835H32.8004H29.267V12.7727V11.7618L28.6413 11.6005C26.5642 11.0652 26.2484 10.9366 26.0583 10.5486C25.8815 10.1878 25.9251 10.0622 26.6669 8.79497L27.4659 7.42991L25.154 5.15312L22.842 2.87618L21.5524 3.61076C20.8432 4.01472 20.1483 4.3452 20.0081 4.3452C19.4903 4.3452 19.242 3.95838 18.8427 2.52943L18.4369 1.07812L15.1842 1.03906L11.9314 1L11.525 2.4911ZM16.9031 4.38151C17.0737 4.96043 17.2422 5.53457 17.2774 5.65727C17.3127 5.7804 17.9789 6.12831 18.7658 6.4344C20.3568 7.05326 20.1378 7.0746 21.8021 6.13818L22.5084 5.7409L23.53 6.7492L24.5516 7.75749L23.8835 8.91288L23.2152 10.0683L23.6492 11.0183C23.8879 11.5409 24.1454 12.1644 24.2213 12.404C24.3475 12.802 24.4697 12.8692 25.6403 13.1851L26.9212 13.5307L26.8795 14.9914L26.8377 16.4523L25.7017 16.7537C25.0769 16.9194 24.5052 17.1195 24.4313 17.1981C24.3574 17.2766 24.2135 17.6023 24.1117 17.9218C24.0099 18.2412 23.7666 18.8174 23.5712 19.202L23.2156 19.9015L23.8743 21.0171L24.533 22.1327L23.4995 23.1667L22.466 24.2007L21.3142 23.5571L20.1624 22.9136L19.5267 23.2335C19.177 23.4093 18.5588 23.6631 18.1531 23.7973L17.4152 24.0412L17.0727 25.1198C16.8844 25.713 16.7044 26.2801 16.6726 26.3799C16.6313 26.509 16.1952 26.5614 15.1627 26.5614H13.7108L13.3545 25.3028C13.0298 24.1555 12.9592 24.0319 12.5567 23.9081C12.3137 23.8333 11.6815 23.5795 11.1517 23.3441L10.1884 22.916L9.01687 23.5751L7.84538 24.2341L6.82303 23.2265L5.80068 22.2189L6.2035 21.5224C7.15532 19.8769 7.13309 20.0866 6.51827 18.5612C6.21557 17.8102 5.9435 17.1689 5.91361 17.1361C5.88387 17.1031 5.31248 16.9336 4.64392 16.7594L3.42855 16.4424L3.38689 14.9962L3.34522 13.55L4.66335 13.2148C5.83867 12.916 5.99193 12.8385 6.07821 12.499C6.13151 12.2896 6.39195 11.6556 6.65681 11.0901L7.13854 10.0619L6.47675 8.93205L5.81497 7.80222L6.85292 6.77867L7.89073 5.75499L9.04587 6.41334L10.201 7.0717L10.8699 6.73773C11.2378 6.5539 11.8707 6.29645 12.2766 6.16562L13.0144 5.92763L13.3685 4.62821L13.7226 3.32878H15.1577H16.5929L16.9031 4.38151ZM13.7214 8.19078C10.8537 8.80616 8.70489 11.0548 8.208 13.9606C7.62748 17.3549 9.94249 20.7862 13.44 21.7158C15.234 22.1926 17.4163 21.8263 19.0453 20.7752C20.4816 19.8482 21.3955 18.644 21.9109 16.999C22.6497 14.6413 22.0281 12.0856 20.2631 10.2249C19.2579 9.16495 18.0418 8.48046 16.6452 8.1886C15.4442 7.93769 14.8989 7.93813 13.7214 8.19078ZM17.1412 10.7973C18.082 11.2222 18.9459 12.0578 19.4141 12.996C19.7124 13.5938 19.7704 13.9247 19.768 15.0177C19.7655 16.1477 19.7125 16.4228 19.3758 17.0505C18.9091 17.921 18.0967 18.7118 17.1943 19.1744C16.6449 19.456 16.3057 19.5145 15.2068 19.5165C14.099 19.5186 13.7629 19.4614 13.1569 19.1672C10.9974 18.1189 9.97768 15.6583 10.7653 13.3956C11.052 12.5722 11.9237 11.5001 12.6833 11.0371C13.9667 10.2549 15.7299 10.16 17.1412 10.7973ZM59.5289 11.8167C59.8874 12.1701 59.8903 12.1955 59.8903 14.9451C59.8903 17.6947 59.8874 17.7201 59.5289 18.0735L59.1676 18.43H49.2899H39.4123L39.051 18.0735C38.6925 17.7201 38.6895 17.6947 38.6895 14.9451C38.6895 12.1955 38.6925 12.1701 39.051 11.8167L39.4123 11.4602H49.2899H59.1676L59.5289 11.8167ZM41.0452 14.9451V16.1067H42.223H43.4008V14.9451V13.7835H42.223H41.0452V14.9451ZM45.7565 14.9451V16.1067H46.9343H48.1121V14.9451V13.7835H46.9343H45.7565V14.9451ZM50.4677 14.9451V16.1067H51.6456H52.8234V14.9451V13.7835H51.6456H50.4677V14.9451ZM55.179 14.9451V16.1067H56.3568H57.5347V14.9451V13.7835H56.3568H55.179V14.9451ZM47.7507 33.8876C48.1092 34.2411 48.1121 34.2665 48.1121 37.0161C48.1121 39.7656 48.1092 39.791 47.7507 40.1445L47.3894 40.5009H37.5117H27.6341L27.2728 40.1445C26.9143 39.791 26.9113 39.7656 26.9113 37.0161C26.9113 34.2665 26.9143 34.2411 27.2728 33.8876L27.6341 33.5312H37.5117H47.3894L47.7507 33.8876ZM29.267 37.0161V38.1777H30.4448H31.6226V37.0161V35.8544H30.4448H29.267V37.0161ZM33.9783 37.0161V38.1777H35.1561H36.3339V37.0161V35.8544H35.1561H33.9783V37.0161ZM38.6895 37.0161V38.1777H39.8674H41.0452V37.0161V35.8544H39.8674H38.6895V37.0161ZM43.4008 37.0161V38.1777H44.5786H45.7565V37.0161V35.8544H44.5786H43.4008V37.0161ZM64.2335 50.2878C65.9043 50.8126 67.1464 51.5769 68.5036 52.9154C69.8489 54.2423 70.6227 55.4587 71.1825 57.1268C71.5267 58.1525 71.5724 58.5178 71.5724 60.2487C71.5724 61.9795 71.5267 62.3448 71.1825 63.3705C70.6227 65.0386 69.8489 66.255 68.5036 67.5819C67.1582 68.9088 65.9249 69.6719 64.2335 70.224C63.1935 70.5635 62.8231 70.6085 61.0681 70.6085C59.3132 70.6085 58.9427 70.5635 57.9027 70.224C56.2114 69.6719 54.9781 68.9088 53.6327 67.5819C52.2873 66.255 51.5135 65.0386 50.9537 63.3705C50.6097 62.3451 50.5639 61.979 50.5636 60.2487C50.5633 58.537 50.6107 58.1473 50.9377 57.1751C51.5201 55.4431 52.2935 54.2115 53.6202 52.9031C55.2451 51.3005 57.0902 50.3257 59.2278 49.9406C60.52 49.7077 62.9158 49.874 64.2335 50.2878ZM61.7698 59.0478L57.54 63.2195L56.8328 62.5327C56.444 62.1549 56.0594 61.8459 55.9782 61.8459C55.7887 61.8459 54.4429 63.189 54.4429 63.3781C54.4429 63.4566 55.139 64.205 55.9897 65.0413L57.5364 66.5617L62.6149 61.5546C65.4081 58.8007 67.6934 56.4795 67.6934 56.3961C67.6934 56.2065 66.3356 54.8761 66.142 54.8761C66.0637 54.8761 64.0961 56.7533 61.7698 59.0478ZM35.9725 57.1202C36.331 57.4737 36.3339 57.4991 36.3339 60.2487C36.3339 62.9982 36.331 63.0236 35.9725 63.3771L35.6112 63.7335H25.7335H15.8559L15.4946 63.3771C15.1361 63.0236 15.1331 62.9982 15.1331 60.2487C15.1331 57.4991 15.1361 57.4737 15.4946 57.1202L15.8559 56.7638H25.7335H35.6112L35.9725 57.1202ZM17.4888 60.2487V61.4103H18.6666H19.8444V60.2487V59.087H18.6666H17.4888V60.2487ZM22.2001 60.2487V61.4103H23.3779H24.5557V60.2487V59.087H23.3779H22.2001V60.2487ZM26.9113 60.2487V61.4103H28.0892H29.267V60.2487V59.087H28.0892H26.9113V60.2487ZM31.6226 60.2487V61.4103H32.8004H33.9783V60.2487V59.087H32.8004H31.6226V60.2487Z" fill="url(#paint0_linear_165_5229)" stroke="url(#paint1_linear_165_5229)" stroke-width="0.5"/>
<defs>
<linearGradient id="paint0_linear_165_5229" x1="37.5" y1="1" x2="37.5" y2="73" gradientUnits="userSpaceOnUse">
<stop stop-color="#A031F1"/>
<stop offset="1" stop-color="#D623FF"/>
</linearGradient>
<linearGradient id="paint1_linear_165_5229" x1="37.5" y1="1" x2="37.5" y2="73" gradientUnits="userSpaceOnUse">
<stop stop-color="#A031F1"/>
<stop offset="1" stop-color="#D623FF"/>
</linearGradient>
</defs>
</svg>
