<svg width="93" height="72" viewBox="0 0 93 72" fill="none" xmlns="http://www.w3.org/2000/svg">
<path fill-rule="evenodd" clip-rule="evenodd" d="M74.6163 0.34162C73.2332 0.850473 71.9128 2.24617 71.9128 3.19953C71.9128 4.26212 69.4191 5.60212 68.9265 4.8045C68.7497 4.51844 67.9068 4.28429 67.0541 4.28429C64.3912 4.28429 62.1516 8.3654 63.871 10.085C64.6458 10.8599 64.0235 13.4772 63.0648 13.4772C61.6336 13.4772 60.4803 15.4596 60.6576 17.6151C60.7998 19.3477 61.1167 19.8316 62.5512 20.5071C64.383 21.3696 65.7645 23.4774 64.8632 24.0344C63.891 24.6357 64.3382 27.0405 65.6704 28.3724C67.0741 29.7767 69.1271 30.1066 70.1431 29.0905C71.1104 28.1231 73.1818 28.9818 74.1853 30.7663C74.9645 32.1507 75.4316 32.4037 77.2111 32.4037C79.3933 32.4037 81.1047 31.1751 81.1047 29.6091C81.1047 28.5308 83.4048 27.491 84.3986 28.1199C85.7211 28.9575 87.3643 28.6617 88.5803 27.3671C89.8304 26.0363 90.13 23.8014 89.1854 22.8566C88.4679 22.1391 89.1048 19.4255 89.9905 19.4255C91.0167 19.4255 93 17.0451 93 15.8133C93 14.3337 90.9983 11.8549 89.8034 11.8549C88.709 11.8549 87.3378 9.37229 88.1543 8.8683C89.1324 8.26373 88.6939 5.57292 87.4232 4.37838C86.0926 3.12815 83.8579 2.82857 82.9133 3.77327C82.1958 4.49086 79.4826 3.85385 79.4826 2.96809C79.4826 2.05853 77.1511 -0.0509718 76.2038 0.000941036C75.7766 0.0241937 75.0624 0.17777 74.6163 0.34162ZM16.315 1.7503C15.6683 2.43868 15.1395 3.35905 15.1395 3.79491C15.1395 4.82289 11.8732 6.1007 11.134 5.36148C10.8388 5.06623 9.69092 4.82505 8.58249 4.82505C5.25288 4.82505 3.23337 8.39406 5.05498 11.0584C5.66705 11.9539 5.66651 12.4081 5.05336 13.8828C4.60729 14.9556 3.93844 15.6402 3.33665 15.6402C1.84324 15.6402 0 17.9222 0 19.7716C0 21.5507 1.88704 23.7516 3.41288 23.7516C3.92709 23.7516 4.64405 24.5157 5.06201 25.5091C5.68652 26.994 5.68652 27.399 5.06309 28.1204C3.8768 29.4934 4.19527 31.5353 5.84224 33.1138C7.4519 34.656 9.10643 34.9399 10.8983 33.9806C12.316 33.2219 15.1395 34.3132 15.1395 35.6196C15.1395 37.1922 17.4548 38.8928 19.596 38.8928C21.0623 38.8928 21.829 38.5376 22.6698 37.4679C23.2862 36.6844 23.7907 35.7408 23.7907 35.3703C23.7907 34.3294 26.9495 33.1835 27.714 33.9482C28.83 35.0643 31.4821 34.6522 33.088 33.1138C34.7479 31.5234 35.0021 29.9806 33.8753 28.3335C33.2632 27.438 33.2637 26.9837 33.8769 25.5091C34.3229 24.4362 34.9918 23.7516 35.5936 23.7516C37.087 23.7516 38.9302 21.4696 38.9302 19.6202C38.9302 17.8411 37.0432 15.6402 35.5174 15.6402C35.0015 15.6402 34.2916 14.8794 33.8769 13.8828C33.2637 12.4081 33.2632 11.9539 33.8753 11.0584C35.6969 8.39406 33.6774 4.82505 30.3477 4.82505C29.2393 4.82505 28.086 5.07164 27.7848 5.37284C27.0717 6.0861 23.7907 4.98565 23.7907 4.03392C23.7907 3.65701 23.2862 2.70744 22.6698 1.92388C21.1732 0.0204082 18.0209 -0.065572 16.315 1.7503ZM20.6476 4.90562C20.7406 5.84222 21.1818 6.78422 21.6279 6.9989C22.074 7.21358 23.5771 7.89548 24.9678 8.5141L27.4966 9.63942L28.9262 8.51465C30.0082 7.66349 30.5083 7.54182 30.9814 8.01498C31.4545 8.48815 31.4443 8.86668 30.9393 9.57183C29.6632 11.3531 29.6373 11.8463 30.7008 14.1423C31.2896 15.412 31.9077 16.8596 32.0742 17.3588C32.2413 17.8579 33.0593 18.3446 33.892 18.4403C35.8326 18.6636 36.3792 20.5033 34.5089 20.5152C32.7127 20.5271 32.3072 20.9586 30.9501 24.3026C29.5021 27.8695 29.494 27.9928 30.624 29.2419C31.3551 30.0498 31.388 30.3667 30.8133 31.06C30.192 31.8084 29.9779 31.7689 28.8316 30.6917C27.621 29.5539 27.461 29.5334 26.0741 30.3332C25.2641 30.8004 23.7036 31.4715 22.606 31.8246C20.9218 32.3664 20.5844 32.7358 20.4432 34.1926C20.2286 36.4075 18.7709 36.5222 18.3891 34.3543C18.0982 32.7049 17.9998 32.626 13.8905 30.7561L11.2898 29.5723L10.0975 30.6928C9.31298 31.4298 8.64954 31.6553 8.15859 31.352C7.41026 30.8896 7.55463 30.1904 8.73822 28.5492C9.24215 27.8511 9.1286 27.1259 8.18779 25.0343C6.3678 20.9894 6.20883 20.7893 4.67649 20.6066C3.67999 20.487 3.24419 20.1172 3.24419 19.3898C3.24419 18.5857 3.62322 18.344 4.88304 18.344C5.96227 18.344 6.63112 18.0206 6.84091 17.3977C7.01609 16.8769 7.6406 15.412 8.22942 14.1423C9.29297 11.8463 9.26702 11.3531 7.99097 9.57183C7.48596 8.86668 7.47569 8.48815 7.9488 8.01498C8.42191 7.54182 8.91719 7.65971 9.98344 8.49842L11.3936 9.60752L14.7535 8.08636C17.7208 6.74258 18.1334 6.36838 18.2826 4.88399C18.5238 2.4906 20.4086 2.50844 20.6476 4.90562ZM76.5396 4.59847C76.9224 5.647 77.7891 6.24346 80.0222 6.99457C82.7446 7.91008 83.075 7.92198 83.9455 7.13409C85.148 6.04608 85.7141 6.54791 84.8484 7.93441C84.3018 8.8099 84.4337 9.49666 85.6379 12.0426C86.8209 14.543 87.327 15.0995 88.4198 15.0995C89.1546 15.0995 89.7558 15.3428 89.7558 15.6402C89.7558 15.9376 89.2838 16.181 88.7063 16.181C87.46 16.181 87.0886 16.7061 85.9315 20.1004C85.1637 22.3537 85.1523 22.8047 85.839 23.7857C86.8236 25.1911 86.4127 25.6589 84.9804 24.7644C84.045 24.1799 83.4421 24.2961 80.8722 25.5545C78.4282 26.7512 77.8605 27.2811 77.8605 28.3648C77.8605 30.0039 76.9202 30.1423 76.6817 28.5384C76.499 27.3109 76.234 27.1216 72.5876 25.6167C70.3837 24.7071 70.2431 24.7087 69.205 25.6486C67.8776 26.8496 67.2655 26.4154 68.1928 24.9305C68.7578 24.0258 68.701 23.4434 67.857 21.4977C66.4642 18.2862 66.0316 17.8033 64.5474 17.8033C62.9448 17.8033 62.8453 16.8591 64.423 16.6244C65.6504 16.4416 65.8397 16.1767 67.3444 12.5298C68.2539 10.3256 68.2523 10.1851 67.3125 9.14679C66.0857 7.79057 66.4999 7.30281 68.2144 8.0842C70.1647 8.97267 75.157 6.41434 75.157 4.52601C75.157 2.79558 75.895 2.83398 76.5396 4.59847ZM73.1407 9.13165C67.4228 11.7273 67.007 20.1923 72.4405 23.3909C74.6184 24.6731 78.4569 24.6687 80.7072 23.3823C83.0349 22.0509 85.1291 17.893 84.677 15.5007C83.9384 11.5926 80.08 8.09339 76.5087 8.09339C75.914 8.09339 74.3984 8.56061 73.1407 9.13165ZM15.3828 10.9637C11.8202 12.5801 9.31244 17.4458 10.0408 21.329C10.5982 24.3026 13.0838 27.2817 15.9062 28.3599C22.3287 30.8128 28.8565 26.3072 28.8495 19.4255C28.8446 14.3857 25.2565 10.6847 20.088 10.39C18.2729 10.2862 16.3626 10.5192 15.3828 10.9637ZM80.0649 12.8948C81.235 14.065 81.6454 14.9886 81.6454 16.4514C81.6454 18.8875 79.2365 21.5886 77.064 21.5886C74.912 21.5886 72.6833 20.2048 71.9382 18.4051C69.7754 13.183 76.0789 8.90886 80.0649 12.8948ZM21.7804 13.6729C24.2097 14.7015 25.4566 16.2826 25.7886 18.755C26.339 22.8615 23.6425 25.9146 19.4651 25.9146C16.6708 25.9146 14.9589 24.9353 13.7845 22.6641C12.0592 19.3271 13.0611 16.0215 16.4194 13.9736C18.4324 12.7455 19.4548 12.6882 21.7804 13.6729ZM54.4131 24.8726C53.6296 25.4885 52.9884 26.4619 52.9884 27.0356C52.9884 27.7538 52.6104 28.0793 51.7718 28.0836C51.103 28.0869 49.6679 28.2361 48.5838 28.4156C46.9136 28.692 46.5579 28.5719 46.2599 27.6321C46.061 27.0048 45.0996 26.2553 44.049 25.9087C40.1728 24.6293 35.991 28.9321 37.8088 32.3297C38.3144 33.2733 38.1241 33.8238 36.6047 35.8143C35.0621 37.8357 34.6225 38.112 33.5714 37.7232C31.1177 36.8158 28.1163 39.8943 28.1163 43.3184C28.1163 44.8444 29.6302 46.8598 31.042 47.214C32.085 47.4758 32.3451 47.9938 32.6311 50.3753C32.942 52.9628 32.8539 53.3111 31.6654 54.1855C27.5237 57.2348 32.1169 64.8157 36.6809 62.4629C38.0246 61.7702 38.2565 61.8405 40.2111 63.5336C41.8619 64.9634 42.2361 65.6112 41.9863 66.6062C41.5034 68.5318 43.2845 70.9999 45.6895 71.738C48.2854 72.5345 50.6472 71.4714 51.4593 69.1407C51.9416 67.758 52.2795 67.5531 54.0784 67.5531C55.2144 67.5531 56.4856 67.4222 56.903 67.2616C57.3615 67.0858 57.9044 67.5022 58.2742 68.3139C59.1437 70.2228 62.1089 70.7138 64.462 69.3397C66.5999 68.0906 67.472 65.9881 66.7167 63.9029C66.256 62.6311 66.4171 62.0838 67.8289 60.1219C69.1823 58.2412 69.7138 57.8816 70.7795 58.1249C72.7785 58.5824 75.011 57.3933 75.6625 55.5244C76.8667 52.0695 76.0881 49.6999 73.4127 48.6827C72.248 48.2399 71.989 47.7413 71.7868 45.5523C71.5803 43.3179 71.723 42.8101 72.7925 41.9708C76.9191 38.7322 72.4275 31.0394 67.8424 33.4934C66.7464 34.0801 66.3474 33.9498 64.3625 32.354C62.5744 30.9172 62.1835 30.3007 62.4322 29.3106C62.8885 27.4909 61.3984 25.0435 59.4124 24.3508C56.9717 23.5002 56.033 23.598 54.4131 24.8726ZM59.0474 29.8032C58.9171 31.8803 59.0837 32.4448 59.965 32.9164C60.5571 33.2333 62.1635 34.4635 63.5341 35.6499C65.9565 37.747 66.07 37.7848 67.591 36.998C68.4518 36.553 69.5278 36.1891 69.983 36.1891C71.1131 36.1891 71.7652 38.8966 70.7725 39.4677C68.0771 41.0186 67.9662 41.2614 68.6037 44.2323C68.9368 45.7859 69.2093 47.8781 69.2093 48.8807C69.2093 50.457 69.424 50.7506 70.7941 51.0518C72.8844 51.5109 73.5268 52.375 72.9369 53.933C72.513 55.0523 72.2221 55.1481 70.1604 54.8485C67.9003 54.5191 67.83 54.5575 66.3788 56.8866C65.565 58.192 64.4095 59.7034 63.8104 60.2458C62.4922 61.4387 62.4436 62.3012 63.5958 64.0598C64.3008 65.1353 64.3403 65.5528 63.8002 66.2039C62.6793 67.5547 60.9177 67.1626 59.8747 65.33C59.0496 63.8802 58.7219 63.7077 57.4416 64.0516C56.6278 64.2701 54.5234 64.5994 52.7645 64.7844C49.6971 65.1061 49.5409 65.197 48.9315 67.0123C48.2221 69.1272 47.2462 69.5695 45.7322 68.4626C44.8876 67.8451 44.8065 67.4514 45.2542 66.1487C45.955 64.1106 45.6635 63.3816 43.7549 62.3942C42.8935 61.9492 41.3196 60.8212 40.2566 59.8878L38.3246 58.1909L36.3544 59.1307C34.4776 60.0257 34.3505 60.0246 33.6833 59.1118C32.6122 57.6469 32.8301 56.8893 34.6274 55.8272C36.2224 54.8852 36.2613 54.7684 35.9115 51.9689C35.7131 50.3818 35.5547 48.4324 35.559 47.638C35.5693 45.7735 34.9064 44.9931 32.9453 44.5627C31.6508 44.2783 31.3605 43.936 31.3605 42.6933C31.3605 40.8774 32.4359 40.3318 34.4743 41.1148C35.792 41.6204 36.0764 41.5177 37.0378 40.1885C37.6326 39.366 38.9102 37.7956 39.8765 36.6995C41.6175 34.7247 42.136 32.7779 41.093 32.1334C40.1403 31.5445 40.5145 29.7583 41.7267 29.1094C42.7535 28.56 43.0763 28.6898 44.295 30.1472L45.689 31.8132L50.1978 31.4872C52.7088 31.3055 54.7975 30.8972 54.9127 30.5657C56.1342 27.0427 56.2299 26.9242 57.7195 27.0957C59.1329 27.2579 59.1983 27.3925 59.0474 29.8032ZM47.5814 37.0224C45.0855 38.1417 42.8681 40.295 41.5283 42.9015C39.8629 46.1406 40.3041 51.5807 42.4837 54.6819C49.2424 64.2999 63.9645 59.6115 64.0462 47.8154C64.0743 43.7975 62.1397 40.1382 58.8306 37.9476C56.0806 36.1274 50.585 35.6753 47.5814 37.0224ZM56.0157 39.923C59.1069 41.3273 60.7247 43.7975 60.9842 47.5098C61.227 50.9804 59.9774 53.3771 56.8154 55.5082C54.6462 56.9704 50.5244 57.1694 48.1232 55.9273C41.8608 52.6887 41.8473 43.445 48.1005 40.1382C50.9359 38.6382 53.0597 38.5808 56.0157 39.923Z" fill="url(#paint0_linear_165_5220)"/>
<defs>
<linearGradient id="paint0_linear_165_5220" x1="46.5" y1="0" x2="46.5" y2="72" gradientUnits="userSpaceOnUse">
<stop stop-color="#A031F1"/>
<stop offset="1" stop-color="#D623FF"/>
</linearGradient>
</defs>
</svg>
