<svg width="80" height="76" viewBox="0 0 80 76" fill="none" xmlns="http://www.w3.org/2000/svg">
<path d="M49.5479 41.6782C51.1563 39.739 54.0457 42.2349 52.4391 44.1753C52.1388 44.5383 51.8305 44.8836 51.5031 45.2213C49.7567 47.0343 47.0587 44.3233 48.8053 42.5116C49.0613 42.2449 49.3126 41.9624 49.5485 41.6782H49.5479ZM30.9176 35.5561L34.6209 35.1814C35.0415 37.567 36.28 38.855 38.7127 38.855C40.3118 38.855 42.3942 38.1938 42.3942 36.214C42.3942 34.1538 39.143 33.7743 37.6185 33.3857C34.6174 32.6181 31.6262 31.2737 31.6262 27.6031C31.6262 24.3266 34.1596 22.7432 36.9588 22.3374V20.1845H40.1583V22.3451C43.1887 22.7738 45.5243 24.4605 45.6496 28.103L41.8422 28.2363C41.5033 26.1638 40.419 25.4478 38.4183 25.4478C37.2592 25.4478 35.2487 25.8026 35.2487 27.343C35.2487 29.0015 38.1164 29.5147 39.2927 29.8003C42.9444 30.6771 46.2003 31.7841 46.2003 36.1913C46.2003 39.994 43.3326 41.6596 40.1573 42.0385V44.0652H36.9577V42.0126C33.5436 41.5404 31.3801 39.5395 30.916 35.5559L30.9176 35.5561ZM27.0634 53.7092L29.4081 48.3201C23.7529 44.9977 20.2513 38.8611 20.2513 32.1637C20.2513 28.6246 21.2177 25.3169 22.8957 22.4979L18.9489 19.437C17.0448 21.3521 14.4303 22.5344 11.546 22.5344C5.72215 22.5344 1 17.7134 1 11.7675C1 5.82048 5.72215 1 11.546 1C17.371 1 22.0925 5.82108 22.0925 11.7675C22.0925 13.3785 21.7456 14.9072 21.1232 16.2792L25.1811 19.4266C28.6475 15.6567 33.4272 13.5353 38.4969 13.5353C41.8984 13.5353 45.0836 14.485 47.8107 16.1418C48.2094 15.5926 48.6535 14.9824 49.0222 14.4803C48.3986 13.5235 48.0362 12.3748 48.0362 11.1409C48.0362 7.80733 50.683 5.10347 53.9486 5.10347C57.2137 5.10347 59.8627 7.80733 59.8627 11.1409C59.8627 14.4744 57.2131 17.1783 53.9486 17.1783C53.2709 17.1783 52.6192 17.062 52.0112 16.847C51.6574 17.3321 51.23 17.9212 50.844 18.4503C54.1925 21.5965 56.2714 25.8756 56.6706 30.5082H63.9487C64.8098 27.0625 67.8614 24.6411 71.355 24.6411C75.5716 24.6411 79 28.1426 79 32.4463C79 36.7454 75.5664 40.2509 71.355 40.2509C67.8523 40.2509 64.8132 37.8166 63.9492 34.3826H56.6108C56.4187 36.0223 56.012 37.6416 55.404 39.1691C54.4686 41.5301 50.9544 40.0759 51.8904 37.7173C55.7594 27.9905 48.669 17.4113 38.4958 17.4113C30.5154 17.4113 24.045 24.0173 24.045 32.1648C24.045 40.313 30.5154 46.9172 38.4958 46.9172C40.7449 46.9172 42.9257 46.4009 44.9391 45.3749C47.1734 44.2402 48.8634 47.7077 46.6297 48.8422C44.1078 50.1261 41.3144 50.7921 38.4958 50.7921C36.5285 50.7921 34.6335 50.4738 32.86 49.8859L30.5515 55.1922C33.5502 57.1772 35.3692 60.5653 35.3692 64.2325C35.3692 70.1795 30.6459 75 24.8215 75C18.9988 75 14.2767 70.1789 14.2767 64.2325C14.2767 57.3312 20.5279 52.2662 27.0615 53.7093L27.0634 53.7092ZM11.5463 4.87599C7.81756 4.87599 4.7963 7.96159 4.7963 11.7674C4.7963 15.5742 7.81756 18.6587 11.5463 18.6587C15.2738 18.6587 18.2974 15.5742 18.2974 11.7674C18.2974 7.96174 15.2739 4.87599 11.5463 4.87599ZM24.8235 57.3401C21.096 57.3401 18.0747 60.4258 18.0747 64.2315C18.0747 68.0373 21.096 71.1229 24.8235 71.1229C28.5522 71.1229 31.5747 68.0373 31.5747 64.2315C31.5747 60.4247 28.5524 57.3401 24.8235 57.3401ZM53.9507 8.9775C52.7807 8.9775 51.8321 9.94595 51.8321 11.1406C51.8321 12.3352 52.7806 13.3024 53.9507 13.3024C55.1196 13.3024 56.0694 12.3346 56.0694 11.1406C56.0694 9.946 55.1197 8.9775 53.9507 8.9775ZM71.3573 28.5153C69.2317 28.5153 67.51 30.2754 67.51 32.4456C67.51 34.6204 69.2259 36.3746 71.3573 36.3746C73.4932 36.3746 75.2069 34.6262 75.2069 32.4456C75.2069 30.2696 73.4886 28.5153 71.3573 28.5153Z" fill="white" stroke="url(#paint0_linear_167_5145)"/>
<defs>
<linearGradient id="paint0_linear_167_5145" x1="40" y1="1" x2="40" y2="75" gradientUnits="userSpaceOnUse">
<stop stop-color="#A031F1"/>
<stop offset="1" stop-color="#D623FF"/>
</linearGradient>
</defs>
</svg>
