<svg width="73" height="73" viewBox="0 0 73 73" fill="none" xmlns="http://www.w3.org/2000/svg">
<path fill-rule="evenodd" clip-rule="evenodd" d="M41.3477 1.27194V2.54374L40.8843 2.63998C40.6294 2.69302 39.9477 2.96092 39.3694 3.23553L38.318 3.73483L37.4405 2.86511L36.563 1.99552L35.716 2.85142L34.8689 3.70732L35.7499 4.59829L36.6307 5.48926L36.213 6.21028C35.9833 6.60678 35.7061 7.28047 35.5971 7.70735L35.3989 8.4834L34.0902 8.52446L32.7816 8.56552L32.8229 9.73637L32.8643 10.9072L34.1285 10.9785L35.3926 11.0498L35.6417 11.8567C35.7787 12.3004 36.052 12.9519 36.2491 13.3044L36.6072 13.9453L35.7694 14.7744C35.3086 15.2303 34.9316 15.6718 34.9316 15.7553C34.9316 15.9467 36.3878 17.3945 36.5803 17.3945C36.6587 17.3945 37.1003 17.013 37.5616 16.5468L38.4006 15.6991L39.0255 16.0653C39.3691 16.2667 40.0161 16.5445 40.4634 16.6825L41.2764 16.9336L41.3477 18.1977L41.4189 19.4619L42.5898 19.5033L43.7607 19.5446L43.8017 18.2393L43.8428 16.934L44.6496 16.6846C45.0933 16.5476 45.763 16.264 46.1379 16.0546L46.8192 15.6738L47.7191 16.5654L48.6189 17.4573L49.4748 16.6102L50.3307 15.7632L49.4405 14.8651L48.5503 13.9668L48.928 13.2926C49.1357 12.9216 49.4123 12.2492 49.5428 11.7983L49.78 10.9785H51.0531H52.3262V9.7666V8.55469H51.0599H49.7936L49.628 7.89683C49.5369 7.53511 49.2673 6.85259 49.0289 6.38023L48.5953 5.52162L49.3915 4.71705C49.8292 4.27463 50.1875 3.85218 50.1875 3.77832C50.1875 3.70446 49.8205 3.27302 49.3718 2.81977L48.5561 1.99552L47.6805 2.86325L46.805 3.73098L45.9461 3.2974C45.4737 3.05901 44.7911 2.78926 44.4293 2.69815L43.7715 2.53262V1.26624V0H42.5596H41.3477V1.27194ZM12.536 4.0746C12.22 4.4108 12.1843 4.58916 12.1192 6.16508L12.0479 7.88785L11.1211 8.28179L10.1943 8.67574L8.96518 7.47452C7.85221 6.38707 7.68383 6.27344 7.18452 6.27344C6.66454 6.27344 6.51754 6.38978 4.59987 8.31929C2.03631 10.8984 2.05855 10.7815 3.79387 12.5547L5.02133 13.8091L4.6137 14.8159L4.20606 15.8226L2.51979 15.8245C0.84721 15.8262 0.830243 15.8296 0.416766 16.2429L1.05575e-05 16.6597V19.3891C1.05575e-05 23.1242 -0.0259385 23.0855 2.49513 23.0949L4.20606 23.1012L4.6137 24.108L5.02133 25.1147L3.79387 26.3691C2.06369 28.1372 2.04672 28.0396 4.51446 30.5301C5.58594 31.6114 6.63303 32.5556 6.84148 32.6281C7.41136 32.8269 7.9178 32.5359 9.1059 31.3267L10.1561 30.2579L11.102 30.645L12.0479 31.0321L12.1192 32.7569C12.1843 34.3348 12.2198 34.5129 12.536 34.8492L12.8818 35.2168H15.8262H18.7706L19.1135 34.8518C19.4258 34.5193 19.4629 34.3337 19.5304 32.7615L19.6045 31.036L20.5313 30.6398L21.458 30.2435L22.6699 31.4361C23.8121 32.5601 24.0574 32.707 24.7251 32.6668C25.045 32.6475 28.5825 29.2041 28.8955 28.6072C29.2288 27.9715 29.0235 27.5447 27.7801 26.2886L26.634 25.1308L27.0311 24.1142L27.4282 23.0977H29.1046C30.6711 23.0977 30.8071 23.0751 31.181 22.7536L31.5811 22.4094V19.4619V16.5144L31.181 16.1702C30.8071 15.8487 30.6711 15.8262 29.1046 15.8262H27.4282L27.0311 14.8096L26.634 13.793L27.7801 12.6353C28.4104 11.9985 28.9673 11.308 29.0177 11.1008C29.1607 10.5123 28.8297 10.0552 26.8399 8.09131C25.1321 6.40575 24.9586 6.27344 24.4571 6.27344C23.9707 6.27344 23.7919 6.39534 22.6741 7.4892L21.4316 8.70496L20.6606 8.3461C20.2365 8.14862 19.8161 7.98651 19.7261 7.9858C19.6146 7.9848 19.5465 7.42019 19.5123 6.21355C19.4656 4.5712 19.4368 4.41607 19.1163 4.07488L18.7706 3.70703H15.8262H12.8818L12.536 4.0746ZM44.7185 5.42453C45.7537 5.92569 46.5173 6.72071 47.0221 7.82355C47.461 8.78224 47.5136 10.3754 47.1398 11.3863C46.2117 13.8952 43.3543 15.183 40.8194 14.2346C39.6818 13.809 38.5144 12.6346 38.0778 11.4765C37.6442 10.3266 37.7052 8.67246 38.2192 7.63934C38.61 6.85373 39.5828 5.81377 40.2584 5.45917C41.6086 4.75056 43.2988 4.73744 44.7185 5.42453ZM16.9885 7.68624C17.0522 9.54632 17.1376 9.68319 18.5161 10.137C19.0363 10.3083 19.8934 10.6638 20.4208 10.9273C21.8175 11.625 21.9388 11.5972 23.3004 10.2682L24.4663 9.13028L25.3106 9.98361L26.1551 10.8368L25.1414 11.8701C24.5838 12.4384 24.0584 13.0395 23.9738 13.2059C23.7863 13.5749 23.9054 14.0317 24.4912 15.192C24.7308 15.6666 25.0327 16.4192 25.1621 16.8643C25.5215 18.1004 25.7931 18.25 27.6794 18.25H29.2285V19.4619V20.6738H27.6681C26.2491 20.6738 26.0758 20.7029 25.7565 20.9946C25.5631 21.1711 25.2964 21.6683 25.1635 22.0996C25.0306 22.5309 24.7105 23.3008 24.4523 23.8105C23.6587 25.3769 23.6964 25.5755 25.0504 26.9669L26.1477 28.0944L25.3072 28.9438L24.4667 29.7931L23.3803 28.7358C22.7827 28.1543 22.1139 27.6334 21.8939 27.5782C21.5892 27.5018 21.2349 27.6016 20.4066 27.9976C19.8087 28.2835 18.9023 28.6613 18.3926 28.8373C17.1681 29.26 16.9674 29.6313 16.9671 31.4741L16.9668 32.793H15.7549H14.543V31.2564C14.543 29.3724 14.4581 29.2221 13.153 28.7924C12.6236 28.6181 11.7472 28.254 11.2052 27.9832C9.87625 27.3193 9.62403 27.3837 8.26569 28.7336L7.19251 29.8001L6.34859 28.9474L5.50467 28.0944L6.60195 26.9669C7.88201 25.6515 7.95088 25.3644 7.29031 24.0957C7.06575 23.6644 6.73911 22.8624 6.56445 22.3135C6.08325 20.8006 5.88378 20.6738 3.98421 20.6738H2.42384V19.4619V18.25H3.98421C5.88293 18.25 6.08239 18.1232 6.56616 16.6104C6.74167 16.0614 7.06846 15.2664 7.29231 14.8437C7.95801 13.5864 7.88315 13.2735 6.60195 11.9569L5.50467 10.8294L6.34545 9.97976L7.18609 9.13028L8.35195 10.2682C9.71357 11.5972 9.83491 11.625 11.2316 10.9273C11.759 10.6638 12.6236 10.3057 13.153 10.1315C14.4581 9.70173 14.543 9.55145 14.543 7.66742V6.13086H15.7391H16.9353L16.9885 7.68624ZM41.3477 9.7666V10.9785H42.5596H43.7715V9.7666V8.55469H42.5596H41.3477V9.7666ZM14.2936 13.6135C10.5117 14.6783 8.692 18.7276 10.4323 22.2055C12.4756 26.2893 18.2674 26.6306 20.8335 22.8186C22.9648 19.6528 21.5575 15.1677 18.0139 13.8315C16.9419 13.4273 15.2969 13.3309 14.2936 13.6135ZM16.996 16.0477C18.7456 16.6439 19.7351 18.4958 19.3182 20.3941C18.8692 22.4379 16.4012 23.6596 14.4321 22.8125C13.6099 22.4589 12.7773 21.631 12.4444 20.8364C12.1668 20.1735 12.1648 18.7552 12.4404 18.097C13.1882 16.3121 15.1636 15.4234 16.996 16.0477ZM44.2262 24.6716C44.0545 24.8314 43.9035 24.9758 43.8907 24.9924C43.8777 25.0089 43.8297 26.1108 43.7837 27.4409L43.7002 29.8593L42.7734 30.1511C42.2637 30.3117 41.4124 30.6289 40.8817 30.8563L39.9167 31.2695L39.5985 30.9837C37.8059 29.3737 35.8662 27.7922 35.6028 27.7262C35.4235 27.6811 35.1102 27.7078 34.9061 27.7853C34.4934 27.9423 29.0506 34.1651 28.6957 34.8857C28.3555 35.5767 28.6104 35.98 30.3016 37.4265C31.123 38.1291 31.7949 38.755 31.7949 38.8175C31.7949 38.8799 31.5786 39.3624 31.3144 39.8898C31.0501 40.4172 30.6887 41.2497 30.5112 41.7397L30.1884 42.6309H27.6346C25.1133 42.6309 25.0764 42.6353 24.7309 42.9809L24.3809 43.3308V48.0232C24.3809 52.5543 24.391 52.7284 24.6764 53.0911L24.9719 53.4668H27.3726H29.7733L30.2012 54.7144C30.4364 55.4006 30.7756 56.2988 30.9551 56.7107L31.2814 57.4594L29.4708 59.2893C27.5796 61.2007 27.4712 61.3924 27.8633 62.1355C28.1813 62.7381 34.2685 68.7205 34.5826 68.7391C35.2686 68.7797 35.5259 68.6069 37.0849 67.0601L38.7391 65.4185L39.7938 65.9498C40.374 66.2421 41.2336 66.6258 41.7041 66.8026L42.5596 67.1239L42.6388 69.8124C42.6825 71.2912 42.7305 72.5154 42.7458 72.5329C42.761 72.5506 42.9628 72.6628 43.194 72.7824C43.5446 72.9638 44.3531 73 48.0488 73C51.7446 73 52.553 72.9638 52.9036 72.7824C53.1349 72.6628 53.3363 72.5506 53.3513 72.5329C53.3661 72.5154 53.4143 71.3839 53.4582 70.0185L53.5381 67.5361L54.6787 67.1493C55.3061 66.9366 56.1803 66.6011 56.6215 66.4038L57.4236 66.045L59.0453 67.6838C60.908 69.5661 61.3656 69.8423 62.0695 69.5083C62.6766 69.2203 68.5165 63.3533 68.7125 62.8345C68.9512 62.203 68.6207 61.674 66.965 60.0375L65.4625 58.5524L65.8325 57.8275C66.0359 57.4288 66.4105 56.5893 66.6647 55.9619L67.1269 54.8213L69.7197 54.75L72.3125 54.6787L72.6562 54.2786L73 53.8786V49.2607V44.6429L72.6562 44.2428L72.3125 43.8428L69.8958 43.798L67.4791 43.7532L67.2185 42.8712C67.0752 42.3862 66.7527 41.5319 66.5017 40.973L66.0458 39.9565L67.6686 38.3384C69.4806 36.5314 69.805 36.0319 69.5723 35.407C69.4013 34.9475 63.5796 29.0323 62.991 28.7199C62.2542 28.3288 62.0531 28.4391 60.25 30.2217L58.5243 31.9277L57.6709 31.4576C57.2015 31.1991 56.3523 30.8061 55.7837 30.5844L54.75 30.1815V27.7731C54.75 25.2713 54.6327 24.673 54.102 24.4694C53.9751 24.4208 51.7713 24.3809 49.2047 24.3809C44.7055 24.3809 44.527 24.3913 44.2262 24.6716ZM52.3262 29.1492C52.3262 31.9565 52.3336 31.9709 54.1084 32.5733C54.7357 32.7861 55.9762 33.3398 56.8649 33.8034C57.7536 34.2671 58.6455 34.6465 58.8471 34.6465C59.1227 34.6465 59.6161 34.2494 60.8345 33.0473L62.4554 31.4482L64.5883 33.5776L66.7211 35.7068L65.0953 37.3529C64.1305 38.3298 63.4289 39.1614 63.3693 39.3985C63.2906 39.7126 63.4243 40.125 63.9938 41.3243C64.3923 42.1636 64.8795 43.4524 65.0764 44.1881C65.619 46.2157 65.5861 46.1953 68.3197 46.1953H70.5762V49.2607V52.3262H68.2429C65.4426 52.3262 65.3558 52.3657 64.8648 53.8605C64.4489 55.127 63.859 56.4291 63.2382 57.451C62.411 58.8128 62.4623 58.9749 64.3032 60.81L65.8718 62.3738L63.7015 64.5475L61.5312 66.7213L59.8031 65.0131C58.706 63.9283 57.9666 63.3047 57.7776 63.3047C57.6141 63.3047 56.9461 63.5636 56.2933 63.88C55.6405 64.1964 54.4648 64.6519 53.6807 64.8924C52.8965 65.133 52.0705 65.3983 51.8453 65.4824C51.1918 65.7259 51.043 66.2998 51.043 68.5755V70.5762H48.0582H45.0735L45.0285 68.1669C44.9753 65.3209 44.9721 65.3146 43.4277 64.8455C42.8744 64.6774 41.6261 64.1336 40.6537 63.6372C39.6672 63.1334 38.7 62.7344 38.4659 62.7344C38.1243 62.7344 37.7491 63.0248 36.4464 64.2976L34.8467 65.861L32.7195 63.7303L30.5924 61.5996L32.263 59.9082C34.2433 57.9033 34.2624 57.8372 33.3778 56.0726C32.8641 55.0477 32.2453 53.3027 32.0178 52.2372C31.9655 51.9921 31.7606 51.6392 31.5624 51.453C31.2208 51.1318 31.0885 51.1117 29.0034 51.0658L26.8047 51.0174V48.036V45.0547H28.9479C31.6106 45.0547 31.9384 44.948 32.2991 43.9642C33.1297 41.6993 33.4226 41.0237 34.0023 40.0348C34.6154 38.9887 34.75 38.5039 34.5628 38.016C34.4936 37.836 32.4404 35.9877 31.6717 35.4137C31.4929 35.2802 31.7804 34.8776 33.4257 32.9562C34.5984 31.5868 35.4585 30.6971 35.5546 30.754C35.6433 30.8064 36.3574 31.4015 37.1416 32.0764C39.0822 33.7461 39.341 33.9336 39.7064 33.9336C39.8804 33.9336 40.6274 33.651 41.3663 33.3057C42.5714 32.7426 43.9611 32.2621 45.1026 32.0138C45.325 31.9654 45.6618 31.771 45.8511 31.5818C46.1855 31.2474 46.1953 31.1741 46.1953 29.0211V26.8047H49.2607H52.3262V29.1492ZM46.1953 36.7665C43.71 37.312 41.674 38.4592 39.9048 40.3113C38.6998 41.5724 37.9877 42.6679 37.3733 44.2058C35.393 49.1618 36.9883 54.9935 41.2151 58.25C45.3585 61.4425 51.0405 61.6563 55.3674 58.783C63.1366 53.6232 62.4234 42.0052 54.0795 37.8034C51.7688 36.6399 48.644 36.229 46.1953 36.7665ZM50.5856 39.1471C51.9167 39.4176 53.6762 40.2475 54.7845 41.1277C56.3363 42.36 57.5849 44.3194 58.1046 46.3379C58.379 47.4038 58.4185 49.6099 58.1824 50.6865C57.5026 53.7869 55.2674 56.4434 52.3262 57.6469C51.0232 58.18 50.1774 58.3384 48.6191 58.341C44.8381 58.3471 41.6099 56.2994 39.9239 52.8252C38.9739 50.8673 38.7197 48.8865 39.15 46.7953C40.2421 41.4885 45.3374 38.0808 50.5856 39.1471Z" fill="white"/>
</svg>
