<svg width="70" height="72" viewBox="0 0 70 72" fill="none" xmlns="http://www.w3.org/2000/svg">
<path fill-rule="evenodd" clip-rule="evenodd" d="M47.3781 0.0443038C42.7412 0.638655 38.7672 2.57277 35.6079 5.77299C32.6978 8.72078 30.8217 12.4021 30.1722 16.4391C30.0372 17.2776 29.8946 17.947 29.8551 17.927C29.8156 17.9068 29.2859 17.5639 28.6779 17.1647L27.5723 16.4389L27.5647 12.8441L27.557 9.24919H18.3646H9.17216L9.16699 12.8441L9.16196 16.4389L8.20595 17.0199C6.96297 17.7753 4.10571 20.6232 3.17871 22.0309C-1.85772 29.6782 -0.822996 39.5681 5.67 45.8452C7.72235 47.8294 10.0213 49.2434 12.6193 50.1193L13.6965 50.4825L13.7783 51.8345C13.8231 52.578 13.9399 53.3362 14.0377 53.5191C14.1988 53.8204 14.1559 53.9188 13.5818 54.5644C13.2157 54.9763 12.8753 55.541 12.7754 55.9021C12.6508 56.3528 12.615 58.0686 12.6469 62.0545L12.6911 67.5819L13.2276 68.6791C13.8736 70.0005 14.7057 70.8241 16.0406 71.4636L17.0001 71.9233L41.2378 71.9617L65.4756 72V60.3056C65.4756 50.5187 65.5076 48.6112 65.6718 48.6112C65.7797 48.6112 66.3215 48.3817 66.8757 48.1013C68.1003 47.4817 68.9301 46.6101 69.5454 45.2966C69.9571 44.418 70 44.1954 70 42.939C70 41.6296 69.9698 41.49 69.4635 40.4541C68.8175 39.132 67.9859 38.3086 66.6505 37.669C65.7828 37.2533 65.5605 37.2093 64.3266 37.2093C63.0926 37.2093 62.8703 37.2533 62.0026 37.669C60.6875 38.2989 59.8341 39.1352 59.2163 40.3992C58.5076 41.8492 58.4061 43.1748 58.8917 44.6334L59.2357 45.6668L56.8299 47.6518L54.4239 49.6367L53.6658 49.235C53.0107 48.8876 52.7423 48.8331 51.687 48.8331C50.6455 48.8331 50.36 48.8894 49.7441 49.2165C49.0801 49.5691 48.2389 50.3225 47.7663 50.9874C47.5816 51.2472 47.4589 51.2304 44.5075 50.5403L41.4406 49.8232L41.2042 48.9631C40.7616 47.3527 40.0695 46.4574 38.7196 45.7483C38.0757 45.4102 37.7983 45.3551 36.7494 45.3563C35.309 45.3581 34.4497 45.7008 33.5142 46.6468C32.5993 47.5722 32.2451 48.464 32.2342 49.871L32.225 51.0584L28.0663 53.3224C24.4106 55.3126 23.8911 55.5564 23.7706 55.3386C23.6951 55.2023 23.3807 54.8136 23.0718 54.4746C22.5633 53.9169 22.527 53.8265 22.6896 53.5224C22.7884 53.3376 22.906 52.578 22.9509 51.8345L23.0326 50.4825L24.1098 50.1227C30.4628 48.0013 35.3208 42.2999 36.4722 35.6144L36.6329 34.6812L37.6606 35.4563C47.4851 42.8653 61.382 39.5499 66.8823 28.4848C67.5035 27.2351 68.2965 24.8609 68.5895 23.3732C68.9344 21.6231 68.9344 17.7909 68.5895 16.0408C68.2965 14.553 67.5035 12.1788 66.8823 10.9291C64.159 5.4504 58.997 1.47746 53.0877 0.311849C51.9277 0.0830848 48.3747 -0.0833684 47.3781 0.0443038ZM50.753 2.58017C51.7129 2.94329 53.0367 4.12909 53.8735 5.37516C54.4183 6.18637 55.4157 8.19978 55.6308 8.92239L55.7281 9.24919H49.3889H43.0497L43.147 8.92239C43.3621 8.19978 44.3595 6.18637 44.9043 5.37516C45.7157 4.167 47.0673 2.94358 47.9841 2.58729C48.9645 2.20616 49.7593 2.20413 50.753 2.58017ZM43.3564 3.49741C43.3564 3.52922 43.1207 3.90512 42.8326 4.33258C42.2372 5.21597 41.218 7.3527 40.851 8.48665L40.6043 9.24919H38.1742C36.6059 9.24919 35.7439 9.19618 35.7439 9.09988C35.7439 8.77656 38.6146 6.06218 39.7803 5.28337C41.2296 4.315 43.3564 3.25281 43.3564 3.49741ZM56.6709 3.94724C58.4044 4.75714 60.1252 5.99943 61.6335 7.52976C62.4038 8.31119 63.0339 9.01781 63.0339 9.09988C63.0339 9.19618 62.172 9.24919 60.6036 9.24919H58.1735L57.9289 8.48665C57.5825 7.40673 56.5485 5.24851 55.9388 4.33258C55.6543 3.90512 55.4214 3.52922 55.4214 3.49741C55.4214 3.38252 55.6002 3.44701 56.6709 3.94724ZM25.2589 22.0309V32.4887H18.3646H11.4703V22.0309V11.5731H18.3646H25.2589V22.0309ZM39.8616 11.9C39.5655 13.126 39.0788 17.0453 39.0498 18.4361C39.0485 18.4959 37.5077 18.545 35.626 18.545H32.2046L32.3186 17.5646C32.5292 15.7544 33.1553 13.5844 33.8832 12.1414L34.1699 11.5731H37.0552H39.9404L39.8616 11.9ZM56.6712 12.4446C56.8745 13.3514 57.2253 15.9233 57.3596 17.492L57.4496 18.545H49.3853H41.321L41.4131 17.4193C41.5797 15.383 42.1016 12.0205 42.3039 11.6808C42.3401 11.6201 45.5472 11.5874 49.4309 11.6082L56.4921 11.6458L56.6712 12.4446ZM64.9506 12.2631C65.6326 13.6407 66.2494 15.7929 66.449 17.492L66.5727 18.545H63.1703H59.768L59.6789 18.0003C59.63 17.7008 59.5889 17.1615 59.5876 16.802C59.5854 16.1492 59.1242 12.7279 58.9367 11.9726L58.8374 11.5731H61.7232H64.6089L64.9506 12.2631ZM13.7684 15.0591V16.2211H18.3646H22.9608V15.0591V13.8971H18.3646H13.7684V15.0591ZM13.7684 19.707V20.869H18.3646H22.9608V19.707V18.545H18.3646H13.7684V19.707ZM8.41953 22.8838C5.73032 25.7648 4.39585 29.4159 4.62077 33.2768C4.82717 36.8212 6.18592 39.8336 8.7226 42.3708C10.5925 44.2412 12.7176 45.4458 15.2962 46.0969C16.6615 46.4417 20.067 46.4419 21.4315 46.0974C24.1009 45.4231 26.0908 44.28 28.0578 42.291C30.6212 39.6986 31.8853 36.8829 32.1046 33.2768C32.3386 29.4291 31.0018 25.768 28.3096 22.8838L27.5465 22.0662L27.5877 20.5956L27.6288 19.1251L28.7913 20.1267C32.8726 23.643 35.0417 29.3374 34.3026 34.5948C33.792 38.2269 32.2296 41.4131 29.7097 43.9615C23.4109 50.331 13.3182 50.331 7.01942 43.9615C2.08597 38.9726 0.90374 31.68 3.99397 25.299C4.99393 23.2339 6.29264 21.5375 7.96121 20.1169L9.10034 19.1469L9.14142 20.6066L9.18265 22.0662L8.41953 22.8838ZM39.0498 20.9779C39.0788 22.3714 39.5657 26.2889 39.8626 27.5184L39.9426 27.8495L38.0522 27.8089L36.1619 27.7682L35.7286 26.461C35.2218 24.9318 34.1821 22.8722 33.3243 21.698L32.7186 20.869H35.883C37.6235 20.869 39.0485 20.9181 39.0498 20.9779ZM57.3642 21.9946C57.2438 23.4558 56.8948 25.9554 56.6694 26.9693L56.4919 27.7682H49.3889H42.2859L42.1084 26.9693C41.883 25.9554 41.534 23.4558 41.4136 21.9946L41.321 20.869H49.3889H57.4568L57.3642 21.9946ZM66.449 21.922C66.2494 23.6211 65.6326 25.7732 64.9506 27.1509L64.6089 27.8408H61.7232H58.8374L58.9367 27.4414C59.1242 26.6861 59.5854 23.2648 59.5876 22.6119C59.5889 22.2524 59.63 21.7133 59.6789 21.4136L59.768 20.869H63.1703H66.5727L66.449 21.922ZM13.7684 24.3549V25.5169H18.3646H22.9608V24.3549V23.1929H18.3646H13.7684V24.3549ZM18.3646 34.8127H27.5529L27.5909 30.2011L27.6288 25.5895L28.2373 26.6114C30.9043 31.0903 30.1686 36.9404 26.4677 40.683C24.2267 42.949 21.6106 44.0295 18.3646 44.0295C15.1185 44.0295 12.5024 42.949 10.2615 40.683C6.56051 36.9404 5.82483 31.0903 8.49178 26.6114L9.10034 25.5895L9.13826 30.2011L9.17618 34.8127H18.3646ZM13.7684 29.0028V30.1648H18.3646H22.9608V29.0028V27.8408H18.3646H13.7684V29.0028ZM40.8489 30.9273C41.1962 32.0098 42.2298 34.1662 42.8429 35.0872C43.1295 35.5179 43.336 35.8984 43.3018 35.933C43.1787 36.0574 40.9961 34.9428 39.8413 34.1659C39.1931 33.7297 38.2342 32.9615 37.7104 32.4587C36.8644 31.6467 36.7478 31.4676 36.6656 30.8547L36.5731 30.1648H38.5887H40.6043L40.8489 30.9273ZM55.6308 30.4916C55.4157 31.2142 54.4183 33.2276 53.8735 34.0388C52.6258 35.8968 50.831 37.1366 49.3889 37.1366C47.9469 37.1366 46.152 35.8968 44.9043 34.0388C44.3595 33.2276 43.3621 31.2142 43.147 30.4916L43.0497 30.1648H49.3889H55.7281L55.6308 30.4916ZM63.0339 30.308C63.0339 30.6262 60.1521 33.3528 58.9954 34.1287C57.7908 34.9369 55.6011 36.0595 55.476 35.933C55.4418 35.8984 55.6484 35.5179 55.9349 35.0872C56.5481 34.1662 57.5816 32.0098 57.9289 30.9273L58.1735 30.1648H60.6036C62.1049 30.1648 63.0339 30.2195 63.0339 30.308ZM65.3871 39.6372C66.6215 40.006 67.7737 41.6037 67.7737 42.9465C67.7737 44.7463 66.1063 46.4324 64.3266 46.4324C63.4231 46.4324 62.6956 46.1003 61.9518 45.348C60.4986 43.8786 60.4986 42.0161 61.9518 40.5434C62.9593 39.5223 64.0446 39.236 65.3871 39.6372ZM37.6584 47.7925C39.1341 48.4161 39.4939 50.3726 38.3463 51.5332C36.7326 53.1651 34.0882 51.7035 34.5127 49.4142C34.7665 48.0469 36.3402 47.2355 37.6584 47.7925ZM62.9726 48.6112C63.1482 48.6112 63.1775 50.1163 63.1775 59.1416V69.672H62.0285H60.8794V58.644V47.6159L61.8235 48.1135C62.3427 48.3872 62.8598 48.6112 62.9726 48.6112ZM58.5813 59.4321V69.672H57.4323H56.2832V61.2707C56.2832 54.3059 56.2472 52.7485 56.0725 52.1616L55.8618 51.4536L56.3934 51.0128C56.6857 50.7704 57.2815 50.2655 57.7172 49.8909C58.153 49.5163 58.5257 49.2059 58.5454 49.201C58.5651 49.1962 58.5813 53.8001 58.5813 59.4321ZM20.6627 51.8494C20.6627 52.5495 20.6033 52.7513 20.31 53.0477C19.9781 53.3834 19.8644 53.4043 18.3646 53.4043C16.8648 53.4043 16.751 53.3834 16.4191 53.0477C16.1258 52.7513 16.0665 52.5495 16.0665 51.8494V51.0077H18.3646H20.6627V51.8494ZM52.5961 51.2785C54.0717 51.902 54.4315 53.8585 53.2839 55.0192C51.6702 56.651 49.0258 55.1894 49.4504 52.9002C49.7042 51.5328 51.2778 50.7215 52.5961 51.2785ZM43.8654 52.7684L44.7927 53.0039V61.338V69.672H43.6437H42.4946V61.1024C42.4946 53.4721 42.5189 52.5328 42.7164 52.5328C42.8385 52.5328 43.3555 52.6389 43.8654 52.7684ZM40.1965 61.3203V69.672H39.0475H37.8984V62.0571V54.4424L38.6525 54.0846C39.0671 53.888 39.5681 53.5603 39.7656 53.3565C39.9631 53.1529 40.1409 52.9822 40.1606 52.9773C40.1803 52.9725 40.1965 56.7268 40.1965 61.3203ZM34.9564 54.1465L35.6003 54.4347V62.0533V69.672H34.4513H33.3022V61.3756V53.0794L33.8074 53.4689C34.0851 53.6832 34.6022 53.9882 34.9564 54.1465ZM47.6987 55.6556C47.9364 56.1156 49.0777 57.326 49.2736 57.326C49.3371 57.326 49.3889 60.1038 49.3889 63.499V69.672H48.2399H47.0908L47.1004 61.8649C47.1085 55.3503 47.1401 54.1541 47.2918 54.6389C47.3917 54.9585 47.5747 55.416 47.6987 55.6556ZM31.0041 62.0465V69.672H29.8551H28.706V62.6346V55.5972L29.7473 55.0273C30.3201 54.7139 30.8372 54.4492 30.8964 54.4392C30.9556 54.4292 31.0041 57.8525 31.0041 62.0465ZM21.4591 56.0848L21.8117 56.4413V61.5511C21.8117 65.1382 21.7597 66.8388 21.6371 67.2586C21.2724 68.5068 19.6924 69.672 18.3646 69.672C17.0367 69.672 15.4567 68.5068 15.0921 67.2586C14.9694 66.8388 14.9174 65.1382 14.9174 61.5511V56.4413L15.27 56.0848C15.6196 55.7312 15.6448 55.7283 18.3646 55.7283C21.0844 55.7283 21.1095 55.7312 21.4591 56.0848ZM26.4079 63.2811V69.672H24.7106H23.0132L23.5257 68.6287L24.038 67.5854L24.0827 62.8516L24.1272 58.1179L25.2317 57.5075C25.8391 57.1719 26.3523 56.8956 26.372 56.8937C26.3917 56.8918 26.4079 59.7661 26.4079 63.2811ZM53.9851 63.5716V69.672H52.8361H51.687V63.8621V58.0522L52.0102 58.0458C52.188 58.0423 52.6565 57.9203 53.0515 57.7748C53.4465 57.6293 53.8181 57.5013 53.8774 57.4907C53.9367 57.4799 53.9851 60.2164 53.9851 63.5716Z" fill="url(#paint0_linear_165_5204)"/>
<defs>
<linearGradient id="paint0_linear_165_5204" x1="35" y1="0" x2="35" y2="72" gradientUnits="userSpaceOnUse">
<stop stop-color="#A031F1"/>
<stop offset="1" stop-color="#D623FF"/>
</linearGradient>
</defs>
</svg>
