<svg width="72" height="72" viewBox="0 0 72 72" fill="none" xmlns="http://www.w3.org/2000/svg">
<path fill-rule="evenodd" clip-rule="evenodd" d="M16.8314 0.167608C15.6118 0.606984 14.7167 1.65179 14.4776 2.91536C14.3989 3.3312 14.3345 4.74109 14.3345 6.04836V8.42553H8.52365H2.71295L1.98167 8.79062C1.57945 8.99149 1.06103 9.3859 0.829604 9.66726C-0.0745769 10.7663 -0.0223828 9.1667 0.0181344 34.5095L0.0549938 57.5505L0.363234 58.1277C0.532759 58.4451 0.907965 58.913 1.19707 59.1673C2.30384 60.1409 1.54245 60.0837 13.9579 60.1271L25.1878 60.1664L25.0901 60.6205C24.7999 61.9689 24.0654 63.3451 23.0426 64.4569C22.4734 65.0757 22.4362 65.092 21.5971 65.095C20.2472 65.0998 19.0629 65.804 18.4688 66.9552C18.1492 67.5743 18.0629 68.7776 18.2817 69.5637C18.5225 70.429 19.6359 71.5805 20.4706 71.8276C20.9094 71.9574 24.6788 71.999 36.0264 71.999C53.0103 71.999 51.8437 72.0772 52.9304 70.8661C54.9872 68.574 53.4682 65.106 50.4028 65.095C49.5636 65.092 49.5265 65.0757 48.9573 64.4569C47.9345 63.3451 47.2 61.9689 46.9098 60.6205L46.8121 60.1664L58.042 60.1271C70.4574 60.0837 69.6961 60.1409 70.8028 59.1673C71.0919 58.913 71.4671 58.4451 71.6367 58.1277L71.9449 57.5505L71.9818 34.5046C72.0221 9.19701 72.0756 10.8385 71.1741 9.69799C70.937 9.39802 70.4154 8.98895 70.015 8.78907L69.2869 8.42553H61.3361H53.3853L49.4407 4.50287C47.0109 2.08651 45.2801 0.476172 44.9334 0.309274C44.3918 0.0484958 43.8648 0.037219 30.865 0.00789905C19.827 -0.0170511 17.2627 0.0121279 16.8314 0.167608ZM43.1757 6.76924C43.1761 9.21689 43.2378 11.3957 43.3146 11.6726C43.5544 12.5375 44.2348 13.4497 44.9576 13.8754L45.6369 14.2754L50.4201 14.3459L55.2034 14.4164V29.6877V44.9588L54.8087 45.2991L54.4139 45.6393H35.9999H17.586L17.1912 45.2991L16.7965 44.9588L16.756 24.4721C16.7336 13.2044 16.7536 3.77198 16.8004 3.51135C16.8471 3.25071 17.0366 2.88604 17.2215 2.70082L17.5574 2.3642H30.3662H43.1749L43.1757 6.76924ZM49.6464 8.07313L53.5132 11.9496L49.9268 11.945C46.1644 11.9404 46.0683 11.9253 45.7301 11.2893C45.5453 10.9414 45.4908 4.1967 45.673 4.1967C45.7315 4.1967 47.5196 5.94109 49.6464 8.07313ZM20.581 5.02907C20.2639 5.17342 19.8524 5.5051 19.6666 5.76602L19.3288 6.24063L19.2907 15.4491C19.253 24.5423 19.2562 24.664 19.5443 25.1778C19.7049 25.4639 20.0656 25.8556 20.3458 26.0481L20.8555 26.3981L29.6587 26.4411C35.6786 26.4705 38.6267 26.4358 38.9832 26.3317C39.6568 26.1345 40.3487 25.5464 40.5913 24.9644C40.8757 24.2825 40.874 6.9374 40.5895 6.27136C40.3553 5.72274 39.7303 5.1145 39.1914 4.91053C38.9266 4.81016 35.8728 4.76153 29.9765 4.76364C21.6805 4.7666 21.1235 4.78225 20.581 5.02907ZM38.3916 11.701V16.2452L36.3868 14.2452C35.2841 13.1453 34.1964 12.1759 33.9693 12.0911C33.2784 11.8328 32.8979 12.1253 31.2834 14.1553L29.7696 16.0586L29.0511 15.3511C28.2212 14.5339 27.7139 14.2937 27.2171 14.4831C27.0292 14.5547 25.6997 15.9843 24.2628 17.66L21.6501 20.7069V13.9319V7.15688H30.0208H38.3916V11.701ZM24.6748 9.71772C23.5956 10.3601 23.9829 11.9496 25.2187 11.9496C25.8908 11.9496 26.4978 11.2501 26.372 10.6204C26.3246 10.3829 26.1764 10.0789 26.0426 9.94481C25.7219 9.62342 25.027 9.50811 24.6748 9.71772ZM14.367 28.0544C14.4032 44.5047 14.4167 45.3141 14.6668 45.8871C14.9947 46.6385 16.0981 47.6472 16.8336 47.868C17.2527 47.9939 22.039 48.0356 36.0337 48.0356C56.8731 48.0356 55.3891 48.1096 56.504 47.0143C57.6747 45.8644 57.5951 47.164 57.5951 29.2173V13.2887L57.2087 12.6544C56.9963 12.3055 56.5925 11.7505 56.3113 11.421L55.8001 10.8219L62.325 10.8264C69.2032 10.831 69.1093 10.8224 69.46 11.4821C69.5821 11.712 69.6236 16.8443 69.6236 31.7453V51.7006H40.5659H11.508L11.1628 52.0466C10.8229 52.3871 10.7169 52.9658 10.9047 53.4562C11.1612 54.1257 9.82035 54.0969 40.7059 54.0969H69.6236V55.5129C69.6236 56.8178 69.5972 56.9553 69.2877 57.2656C69.1028 57.4508 68.7388 57.6404 68.4787 57.6872C68.2186 57.7339 53.392 57.7539 35.5305 57.7317L3.05538 57.6914L2.71576 57.2959C2.40612 56.9352 2.37629 56.7773 2.37629 55.4986V54.0969H4.97108C7.4982 54.0969 7.576 54.0882 7.9536 53.7628C8.49692 53.2946 8.49692 52.5029 7.9536 52.0347C7.576 51.7093 7.4982 51.7006 4.97108 51.7006H2.37629V31.7453C2.37629 16.8443 2.41779 11.712 2.53991 11.4821C2.88796 10.8275 2.85364 10.831 8.7396 10.8264L14.329 10.8219L14.367 28.0544ZM38.3916 21.921V24.0722H30.2319C25.744 24.0722 22.0722 24.0353 22.0722 23.9902C22.0722 23.8764 27.5781 17.447 27.6756 17.447C27.719 17.447 28.429 18.1131 29.2536 18.9271C30.8254 20.4793 31.0312 20.5834 31.7693 20.201C32.4906 19.8273 32.5573 18.971 31.9216 18.2456L31.501 17.7656L32.5827 16.4025L33.6644 15.0396L36.0281 17.4046L38.3916 19.7698V21.921ZM19.8775 30.1901C19.1632 30.5078 19.0038 31.5362 19.584 32.0825C19.9003 32.38 20.0103 32.3889 23.389 32.3889H26.8682L27.2135 32.0429C27.6873 31.5682 27.6797 30.8605 27.196 30.4047C26.8362 30.0656 26.8087 30.0628 23.5734 30.0295C21.0525 30.0036 20.2147 30.0401 19.8775 30.1901ZM30.6458 30.2001C29.9172 30.597 29.8153 31.4173 30.4132 32.0718L30.703 32.3889H41.4163H52.1296L52.4356 32.0627C52.762 31.7146 52.8413 31.0068 52.6037 30.5619C52.3102 30.0125 51.9069 29.9924 41.2898 29.9982C32.7791 30.0029 30.9436 30.0377 30.6458 30.2001ZM20.1729 34.8862C19.2586 35.1078 18.9418 36.2704 19.6214 36.9104L19.9844 37.2521L30.25 37.2908C37.2439 37.3173 40.6946 37.2814 41.0771 37.1782C41.5087 37.0618 41.6921 36.9143 41.87 36.5404C42.0847 36.0893 42.0847 36.0187 41.8707 35.5689C41.6978 35.2057 41.5058 35.0466 41.106 34.9354C40.5726 34.7869 20.7742 34.7404 20.1729 34.8862ZM45.3231 34.8797C44.8974 34.9684 44.441 35.5817 44.441 36.065C44.441 36.2828 44.5938 36.639 44.7805 36.8565L45.1201 37.2521H48.5677H52.0154L52.3783 36.9104C52.8785 36.4396 52.8786 35.6684 52.3786 35.1974C52.0183 34.858 51.9954 34.8556 48.8263 34.835C47.0721 34.8237 45.4956 34.8438 45.3231 34.8797ZM44.8143 61.0945C45.0222 62.1241 45.5804 63.5469 46.0631 64.2778C46.2542 64.5671 46.4106 64.8687 46.4106 64.948C46.4106 65.0447 42.9923 65.0919 35.9999 65.0919C28.5475 65.0919 25.5893 65.048 25.5893 64.9374C25.5893 64.8525 25.718 64.6019 25.8754 64.3805C26.3139 63.7633 26.8286 62.5138 27.0779 61.461C27.2017 60.9383 27.327 60.4309 27.3566 60.3333C27.399 60.1929 29.2021 60.1636 36.0248 60.1924L44.6394 60.2287L44.8143 61.0945ZM51.0404 67.4111C51.8267 67.8185 51.9256 68.8392 51.241 69.4835L50.8899 69.8141H35.9999H21.11L20.7589 69.4835C20.0857 68.8499 20.1705 67.8317 20.9309 67.4177C21.489 67.1138 50.4543 67.1075 51.0404 67.4111Z" fill="url(#paint0_linear_165_5239)"/>
<defs>
<linearGradient id="paint0_linear_165_5239" x1="36" y1="0" x2="36" y2="72" gradientUnits="userSpaceOnUse">
<stop stop-color="#A031F1"/>
<stop offset="1" stop-color="#D623FF"/>
</linearGradient>
</defs>
</svg>
