<svg width="72" height="73" viewBox="0 0 72 73" fill="none" xmlns="http://www.w3.org/2000/svg">
<path fill-rule="evenodd" clip-rule="evenodd" d="M6.40591 6.4275L0 12.855V42.5543V72.2534L0.372111 72.6266L0.74407 73H27.8894H55.0346L55.4066 72.6266L55.7787 72.2534V66.1284V60.0034L58.3906 64.5626C61.2555 69.5632 61.8442 70.3274 63.4331 71.1082C64.2718 71.5204 64.4725 71.5552 66.0099 71.5552C67.5473 71.5552 67.7479 71.5204 68.5866 71.1082C69.7539 70.5347 70.9132 69.3675 71.4659 68.2094C72.0558 66.9734 72.1749 64.9762 71.7337 63.7229C71.4568 62.9366 63.1271 48.2746 62.6477 47.7298C62.2506 47.2785 61.7439 47.2654 60.9175 47.6856C60.4922 47.9018 60.1244 48.0571 60.1003 48.0305C60.0762 48.004 59.3633 46.7729 58.5158 45.2947L56.9751 42.6072L58.2336 41.3282C61.1406 38.3743 63.0486 34.7771 63.9003 30.6448C64.2825 28.79 64.2903 24.8167 63.9151 22.9279C63.6064 21.3727 62.7701 18.8869 62.1144 17.5757C60.8993 15.1452 58.947 12.6532 56.937 10.9667L55.7787 9.99492V5.37082V0.746577L55.4066 0.373365L55.0346 0H33.9233H12.8118L6.40591 6.4275ZM53.3535 5.46512V8.4969L52.2547 7.99076C42.4268 3.46461 30.7701 7.33954 25.5973 16.8522C25.2476 17.4955 24.9358 18.0526 24.9047 18.0902C24.8737 18.1277 24.6427 17.9521 24.3914 17.7001C23.9882 17.2955 23.9532 17.1927 24.0931 16.8235C24.6425 15.3736 23.7679 13.3429 22.2362 12.512C21.5814 12.1569 19.6587 12.1489 19.0224 12.4988C18.3741 12.8553 17.6609 13.599 17.3335 14.2599C16.8966 15.1417 16.951 16.6188 17.4537 17.5165L17.8519 18.2279L14.7236 23.7112L11.5953 29.1944L11.0066 29.1973C9.02706 29.2065 7.27548 30.9214 7.27548 32.85C7.27548 34.7345 9.03509 36.5 10.9132 36.5C11.8666 36.5 12.6343 36.1522 13.4193 35.3645C14.6421 34.1377 14.875 32.7769 14.1196 31.2743L13.6881 30.4161L16.81 24.9441L19.9318 19.4723L20.5381 19.4627C20.8715 19.4575 21.3986 19.3623 21.7093 19.251L22.274 19.0487L23.1303 19.8294L23.9864 20.61L23.6667 21.9014C22.7115 25.759 22.9267 29.8946 24.2836 33.7538C26.3439 39.6138 31.163 44.3486 37.1341 46.3799C40.9061 47.6631 45.6171 47.7584 49.3514 46.6272C50.2515 46.3545 50.5919 46.3077 50.72 46.4389C50.9402 46.6643 53.8407 51.729 53.7792 51.7804C53.7534 51.8019 53.4399 52.0023 53.0824 52.2259C52.3933 52.6566 52.0708 53.2238 52.2295 53.7259C52.2825 53.8933 52.557 54.4262 52.8397 54.91L53.3535 55.7898V63.1782V70.5667H27.8894H2.42516V42.5833V14.6H8.11595H13.8069L14.1789 14.2266L14.551 13.8534V8.1433V2.43333H33.9523H53.3535V5.46512ZM12.1258 8.2125V12.1667H8.14809H4.17037L8.10913 8.2125C10.2754 6.03771 12.0653 4.25833 12.0869 4.25833C12.1082 4.25833 12.1258 6.03771 12.1258 8.2125ZM47.2661 8.88273C54.7985 10.5331 60.3871 16.4014 61.6241 23.9597C61.9179 25.7546 61.8504 28.8117 61.4789 30.5269C60.4494 35.2823 57.6978 39.3599 53.7314 42.0082C47.4901 46.1751 39.6232 46.1448 33.346 41.9297C31.0998 40.4213 28.564 37.5276 27.3216 35.0552C25.1808 30.7949 24.8082 25.5731 26.321 21.0316C28.4963 14.5024 34.1384 9.75706 41.0133 8.67514C42.2928 8.47363 45.9542 8.59529 47.2661 8.88273ZM41.3035 11.1173C39.3294 11.4 36.8876 12.3549 34.924 13.6121C33.7955 14.3346 31.6964 16.3701 30.8468 17.5656C26.589 23.5573 27.026 31.8397 31.8851 37.2493C35.5198 41.2955 40.8905 43.2189 46.1539 42.3593C49.5348 41.8071 52.4188 40.3063 54.8349 37.8418C56.1542 36.496 56.7598 35.6645 57.5979 34.0481C59.9576 29.4976 60.0017 24.266 57.7191 19.6948C54.6813 13.6109 48.0579 10.15 41.3035 11.1173ZM45.995 13.6145C52.5751 14.7658 57.2823 20.7142 56.9443 27.451C56.484 36.6284 47.3605 42.5344 38.7709 39.2155C34.1088 37.414 30.8393 32.9511 30.375 27.7552L30.2663 26.5385L31.6167 27.7891C32.3594 28.4768 33.5339 29.5718 34.2268 30.2225L35.4866 31.4052L35.306 31.9136C35.0868 32.5305 35.2005 33.8568 35.5266 34.4896C35.8284 35.0751 36.5849 35.8342 37.1685 36.137C37.806 36.4678 39.0559 36.5671 39.8636 36.351C40.3532 36.22 40.7604 35.947 41.3067 35.3837C42.4094 34.2466 42.6842 33.1251 42.2063 31.7127L41.9723 31.021L44.644 27.5977L47.316 24.1741L48.0615 24.2734C49.2267 24.4285 50.1102 24.107 51.0093 23.2011C52.5426 21.6561 52.5426 19.7073 51.0093 18.1688C49.4759 16.6302 47.5306 16.6302 45.9971 18.1688C44.8679 19.3018 44.5637 20.6862 45.1564 21.9957L45.4406 22.6236L42.7841 26.0259C41.3231 27.8971 40.0512 29.4015 39.9577 29.3691C39.4014 29.1757 38.2064 29.1916 37.7116 29.3992L37.1598 29.6304L33.955 26.6397C30.3285 23.2557 30.542 23.6483 31.3047 21.7649C32.653 18.4355 35.4556 15.6413 38.7614 14.3307C41.0392 13.4274 43.5216 13.1817 45.995 13.6145ZM21.4543 14.9734C22.2063 15.7277 21.6735 17.0333 20.6139 17.0333C20.3186 17.0333 20.0079 16.8954 19.7734 16.66C19.5388 16.4247 19.4013 16.1129 19.4013 15.8167C19.4013 15.5204 19.5388 15.2086 19.7734 14.9734C20.0079 14.7379 20.3186 14.6 20.6139 14.6C20.9091 14.6 21.2199 14.7379 21.4543 14.9734ZM49.3437 19.84C50.0956 20.5944 49.5629 21.9 48.5032 21.9C47.8801 21.9 47.2906 21.3085 47.2906 20.6833C47.2906 20.0581 47.8801 19.4667 48.5032 19.4667C48.7985 19.4667 49.1092 19.6046 49.3437 19.84ZM11.7537 32.0067C11.9883 32.242 12.1258 32.5537 12.1258 32.85C12.1258 33.1463 11.9883 33.458 11.7537 33.6933C11.5192 33.9287 11.2085 34.0667 10.9132 34.0667C10.618 34.0667 10.3072 33.9287 10.0728 33.6933C9.83812 33.458 9.70065 33.1463 9.70065 32.85C9.70065 32.5537 9.83812 32.242 10.0728 32.0067C10.3072 31.7713 10.618 31.6333 10.9132 31.6333C11.2085 31.6333 11.5192 31.7713 11.7537 32.0067ZM39.6431 32.0067C40.395 32.761 39.8622 34.0667 38.8026 34.0667C38.1795 34.0667 37.59 33.4752 37.59 32.85C37.59 32.2248 38.1795 31.6333 38.8026 31.6333C39.0978 31.6333 39.4086 31.7713 39.6431 32.0067ZM6.43501 41.74C6.20038 41.9753 6.0629 42.2871 6.0629 42.5833C6.0629 42.8796 6.20038 43.1914 6.43501 43.4266L6.80697 43.8H14.551H22.295L22.6669 43.4266C22.9016 43.1914 23.039 42.8796 23.039 42.5833C23.039 42.2871 22.9016 41.9753 22.6669 41.74L22.295 41.3667H14.551H6.80697L6.43501 41.74ZM56.5595 46.767L58.045 49.336L57.0401 49.9209C56.4347 50.2733 55.9803 50.4506 55.8971 50.3671C55.5899 50.0588 52.8917 45.2471 53.0046 45.2087C53.0715 45.1861 53.5013 44.9339 53.9598 44.6486C54.4183 44.3633 54.8565 44.1452 54.9338 44.1639C55.011 44.1826 55.7425 45.354 56.5595 46.767ZM6.43501 46.6067C6.20038 46.842 6.0629 47.1537 6.0629 47.45C6.0629 47.7463 6.20038 48.058 6.43501 48.2933L6.80697 48.6667H14.551H22.295L22.6669 48.2933C22.9016 48.058 23.039 47.7463 23.039 47.45C23.039 47.1537 22.9016 46.842 22.6669 46.6067L22.295 46.2333H14.551H6.80697L6.43501 46.6067ZM29.474 49.04L29.1019 49.4132V57.5567V65.7H27.8894H26.6768V59.99V54.2799L26.3047 53.9067C25.9357 53.5364 25.9092 53.5333 23.039 53.5333C20.1689 53.5333 20.1423 53.5364 19.7734 53.9067L19.4013 54.2799V59.99V65.7H18.1887H16.9761V62.4234C16.9761 58.079 17.2664 58.4 13.3384 58.4C9.41038 58.4 9.70065 58.079 9.70065 62.4234V65.7H8.86018C8.16976 65.7 7.95301 65.7668 7.64759 66.0734C7.15529 66.5672 7.15529 67.2662 7.64759 67.76L8.01955 68.1333H27.8894H47.7592L48.1311 67.76C48.3658 67.5247 48.5032 67.2129 48.5032 66.9167C48.5032 66.1401 47.93 65.7 46.9185 65.7H46.0781V59.99V54.2799L45.706 53.9067C45.337 53.5364 45.3105 53.5333 42.4403 53.5333C39.5701 53.5333 39.5436 53.5364 39.1747 53.9067L38.8026 54.2799V59.99V65.7H37.59H36.3774V57.5567V49.4132L36.0053 49.04C35.6364 48.6697 35.6099 48.6667 32.7397 48.6667C29.8695 48.6667 29.843 48.6697 29.474 49.04ZM64.8731 56.2976C69.8337 64.9464 69.6135 64.5025 69.5451 65.7154C69.4096 68.1236 67.2408 69.6898 64.9375 69.0426C63.6152 68.6711 63.2065 68.1079 59.2581 61.2135C57.2461 57.7004 55.4709 54.6146 55.3131 54.3564L55.0265 53.8868L58.0929 52.1167C59.7796 51.143 61.2277 50.3476 61.3111 50.3492C61.3945 50.3505 62.9974 53.0274 64.8731 56.2976ZM33.9523 58.4V65.7H32.7397H31.5271V58.4V51.1H32.7397H33.9523V58.4ZM24.2516 60.8333V65.7H23.039H21.8265V60.8333V55.9667H23.039H24.2516V60.8333ZM43.6529 60.8333V65.7H42.4403H41.2277V60.8333V55.9667H42.4403H43.6529V60.8333ZM14.551 63.2667V65.7H13.3384H12.1258V63.2667V60.8333H13.3384H14.551V63.2667Z" fill="url(#paint0_linear_165_5203)"/>
<defs>
<linearGradient id="paint0_linear_165_5203" x1="36" y1="0" x2="36" y2="73" gradientUnits="userSpaceOnUse">
<stop stop-color="#A031F1"/>
<stop offset="1" stop-color="#D623FF"/>
</linearGradient>
</defs>
</svg>
