<svg width="72" height="72" viewBox="0 0 72 72" fill="none" xmlns="http://www.w3.org/2000/svg">
<path fill-rule="evenodd" clip-rule="evenodd" d="M32.679 0.159679C23.793 1.73025 17.0665 8.31649 15.3228 17.1536C14.9607 18.9886 14.9607 22.8814 15.3228 24.7164C16.1749 29.0344 18.1325 32.7178 21.2261 35.8231C23.9891 38.5966 27.2691 40.4243 31.2979 41.4349C32.759 41.8013 33.1838 41.8393 35.8858 41.8442C39.1741 41.8501 40.0862 41.7246 42.5401 40.9285C46.6171 39.6058 50.418 36.8679 52.9451 33.4333C58.6763 25.6436 58.4193 15.2047 52.3095 7.62418C49.4001 4.01421 45.0663 1.377 40.3142 0.324553C38.7672 -0.018018 34.2376 -0.115874 32.679 0.159679ZM6.61886 3.00207C3.23033 3.68095 1.84224 7.78111 4.12198 10.3768C4.94185 11.3103 5.82098 11.7362 7.09729 11.8181C8.65626 11.9181 9.60655 11.5801 10.623 10.564C11.6394 9.54786 11.9774 8.59785 11.8774 7.03934C11.824 6.20718 11.7064 5.75973 11.4063 5.24801C10.4121 3.5518 8.45576 2.634 6.61886 3.00207ZM39.6994 3.30602C49.1508 5.27259 55.4373 14.4551 53.8111 23.919C51.7548 35.8869 38.7631 42.474 27.9451 37.0341C21.8828 33.9856 18.0192 27.7191 18.0192 20.935C18.0192 12.6369 23.6354 5.49319 31.7788 3.43318C34.2395 2.81079 37.0983 2.76483 39.6994 3.30602ZM61.922 4.5757C60.8966 4.91521 60.3808 5.24618 59.7368 5.97758C58.2547 7.66082 58.2673 10.1822 59.7666 11.9573C59.9929 12.2254 60.5987 12.6547 61.1127 12.9114C62.788 13.7485 64.6962 13.4853 66.0998 12.2237C68.0336 10.4855 68.093 7.56357 66.2323 5.7034C65.9025 5.37365 65.3367 4.97292 64.9749 4.81308C64.1053 4.42838 62.6973 4.31892 61.922 4.5757ZM8.43102 6.3403C9.46651 7.26512 8.85524 8.86791 7.46699 8.86791C6.95329 8.86791 6.76088 8.77875 6.39805 8.37267C5.78326 7.68494 5.80678 7.08468 6.47471 6.41694C7.14264 5.7492 7.74308 5.72569 8.43102 6.3403ZM33.8242 6.05651C28.0382 6.95843 23.2909 11.136 21.6005 16.8131C21.0978 18.5017 20.9229 21.5577 21.2225 23.4211C22.0978 28.8645 26.2013 33.5719 31.5373 35.2538C36.97 36.966 42.9493 35.4324 46.8514 31.3258C48.6222 29.4621 49.7131 27.5824 50.4899 25.0568C50.8848 23.7723 50.9124 23.504 50.9124 20.935C50.9124 18.366 50.8848 18.0976 50.4899 16.8131C48.8622 11.5207 44.9006 7.71822 39.5774 6.33923C38.2164 5.98674 35.2174 5.83927 33.8242 6.05651ZM64.1702 7.84859C64.3322 8.01056 64.5011 8.41405 64.5455 8.74532C64.6985 9.88524 63.5821 10.6968 62.4892 10.2403C61.9094 9.99805 61.5253 9.25124 61.6487 8.60594C61.693 8.37405 61.941 8.00629 62.2 7.78844C62.5871 7.46282 62.7777 7.40694 63.2732 7.47335C63.6046 7.51777 64.0082 7.68662 64.1702 7.84859ZM38.483 9.1804C40.8841 9.68525 43.1057 10.9543 44.8464 12.8154C46.5113 14.5956 47.4827 16.6212 47.9052 19.194C48.1222 20.5162 48.1327 20.9539 47.9764 22.1906C47.5972 25.1918 46.5545 27.3261 44.4507 29.4076C42.0041 31.8285 39.4006 32.9135 36.0385 32.9135C33.7349 32.9135 31.7989 32.3858 29.8159 31.2174C28.5758 30.4868 26.4359 28.3227 25.6864 27.0414C22.9713 22.3998 23.6301 16.5967 27.3123 12.7194C28.9597 10.9849 31.2367 9.6825 33.4814 9.19063C34.7771 8.90683 37.159 8.90195 38.483 9.1804ZM33.2084 12.4273C31.6302 12.9633 30.6396 13.6086 29.4428 14.8801C25.4006 19.1751 26.6176 26.1221 31.9044 28.93C34.2926 30.1984 37.6413 30.2244 40.0743 28.9933C41.201 28.4231 42.4155 27.427 42.6908 26.8471C43.1567 25.8655 42.481 24.8278 41.3758 24.8278C40.9577 24.8278 40.6158 24.9907 39.9509 25.5069C38.6699 26.5014 37.6196 26.8663 36.0385 26.8663C33.9116 26.8663 32.197 25.98 31.0998 24.3134C30.3114 23.1159 30.0428 22.1266 30.1074 20.6587C30.2274 17.9277 31.969 15.8121 34.6655 15.1215C36.4306 14.6695 38.173 15.063 39.7759 16.2759C40.9113 17.1349 41.2667 17.2475 41.9473 16.9634C42.5417 16.715 42.9715 15.8889 42.82 15.2855C42.683 14.7402 41.2312 13.4729 40.1125 12.9223C38.7136 12.2338 37.6859 12.0078 35.9621 12.0094C34.7032 12.0106 34.2198 12.084 33.2084 12.4273ZM63.1747 28.7118C61.8538 29.1829 60.778 30.2534 60.3429 31.5295C60.038 32.4239 60.1236 33.967 60.526 34.8271C60.9319 35.6945 62.0041 36.7515 62.8662 37.134C63.7284 37.5165 65.5465 37.4945 66.4404 37.0908C68.0136 36.3803 69.0893 34.6755 69.0754 32.915C69.0613 31.1349 68.1346 29.6968 66.5046 28.9258C65.4659 28.4346 64.1833 28.3522 63.1747 28.7118ZM65.5546 31.8521C66.5997 32.6738 65.9437 34.4455 64.5944 34.4455C63.2039 34.4455 62.5982 32.5625 63.7331 31.7678C64.1911 31.4472 65.0927 31.4889 65.5546 31.8521ZM0.446358 39.4715L0 39.9177V55.5126V71.1075L0.446358 71.5538L0.892716 72H7.51845C14.0341 72 14.1497 71.9947 14.4876 71.68C15.0062 71.197 15.1177 70.7459 15.1189 69.1277L15.12 67.6492L15.6152 67.3136C17.0916 66.3131 18.9738 65.7582 21.3024 65.6371C23.4811 65.5238 24.5581 65.6998 28.4796 66.81C34.9941 68.6544 37.2925 69.103 40.7723 69.2092C42.8882 69.2739 43.596 69.2344 45.1898 68.9625C52.392 67.7339 60.5955 62.848 68.2792 55.2108C71.7566 51.7544 71.9989 51.3564 72 49.1009C72.0005 47.8245 71.9499 47.5474 71.5776 46.7893C70.8518 45.312 69.3371 44.1881 67.3839 43.6778C66.1989 43.3682 63.4537 43.37 61.9451 43.6816C57.5977 44.5792 52.3642 47.2625 47.1147 51.2853L46.0506 52.1007L44.5153 50.5565C39.1439 45.154 30.3835 42.3536 18.7446 42.3185L15.1178 42.3075V41.3633C15.1178 40.2719 14.9682 39.7929 14.4876 39.3453C14.1497 39.0306 14.0341 39.0253 7.51845 39.0253H0.892716L0.446358 39.4715ZM12.0637 55.5126V69.0994H10.5394H9.01527L8.97419 57.4847L8.93327 45.8698L8.43453 45.4245C7.74293 44.8067 7.14371 44.8293 6.47471 45.4981L5.95551 46.0171V57.5638V69.1104L4.46663 69.0668L2.97776 69.0231L2.93836 55.6653C2.91667 48.3185 2.93164 42.2217 2.9718 42.1167C3.02769 41.9699 4.08701 41.9258 7.55418 41.9258H12.0637V55.5126ZM22.524 45.4381C31.6019 46.0797 38.1299 48.4415 42.296 52.5916L43.5908 53.8813L42.9832 54.1068C41.9793 54.4794 39.4566 54.399 37.694 53.9382C35.7202 53.4223 33.2452 52.4216 31.6322 51.4873C29.977 50.5286 29.3518 50.4687 28.693 51.2059C27.6678 52.3529 28.3322 53.2386 31.3188 54.7069C34.8733 56.4542 37.4399 57.1951 40.3142 57.3037C43.5798 57.427 44.6992 57.0148 47.8731 54.5199C53.734 49.9127 58.6548 47.3125 62.9146 46.5714C66.8663 45.884 69.7105 47.357 69.0012 49.7239C68.4894 51.4314 61.8095 57.4847 56.8064 60.7749C49.7029 65.4461 43.6826 67.0381 37.3739 65.9133C35.2169 65.5287 33.4219 65.0854 29.4868 63.9653C25.423 62.8088 24.5752 62.6591 22.0659 62.6565C19.3907 62.6538 17.7147 62.9858 15.3851 63.9803C15.1322 64.0882 15.1178 63.5922 15.1178 54.7764V45.4582L15.4614 45.3921C16.1378 45.2619 20.4254 45.2899 22.524 45.4381Z" fill="url(#paint0_linear_165_5202)"/>
<defs>
<linearGradient id="paint0_linear_165_5202" x1="36" y1="0" x2="36" y2="72" gradientUnits="userSpaceOnUse">
<stop stop-color="#A031F1"/>
<stop offset="1" stop-color="#D623FF"/>
</linearGradient>
</defs>
</svg>
