<svg width="82" height="82" viewBox="0 0 82 82" fill="none" xmlns="http://www.w3.org/2000/svg">
<path d="M79.7884 69.2248L63.4247 52.8612C62.6456 52.0821 61.6062 51.6491 60.5675 51.6491C59.5289 51.6491 58.4894 52.0821 57.7104 52.8612L56.8443 53.7272L49.4846 46.3676C53.7272 41.4323 56.0646 35.1121 56.0646 28.5321C56.0646 21.1725 53.2075 14.2467 48.0129 9.05163C42.8178 3.85652 35.892 1 28.5323 1C21.1726 1 14.2468 3.85714 9.05168 9.05163C3.85654 14.2467 1 21.1725 1 28.5321C1 35.8918 3.85716 42.8175 9.05168 48.0126C14.2468 53.2078 21.1726 56.0643 28.5323 56.0643C35.1123 56.0643 41.433 53.7265 46.3679 49.4843L53.7276 56.844L52.8615 57.71C52.0824 58.4891 51.6494 59.5285 51.6494 60.5672C51.6494 61.6058 52.0824 62.6452 52.8615 63.4243L69.2252 79.7879C70.0043 80.567 71.0437 81 72.0824 81C73.2081 81 74.1605 80.567 74.9395 79.7879L79.7879 74.9396C80.567 74.1605 81 73.1211 81 72.0825C81.0006 71.0431 80.5682 70.0044 79.7885 69.2247L79.7884 69.2248ZM11.4763 45.5019C2.12564 36.1512 2.12564 20.9132 11.4763 11.4759C16.1514 6.80092 22.2989 4.46311 28.4461 4.46311C34.5933 4.46311 40.7406 6.80092 45.4159 11.4759C54.853 20.9124 54.853 36.1512 45.5023 45.5019C36.1516 54.8525 20.9134 54.8525 11.4761 45.5019H11.4763ZM77.3641 72.5149L72.5158 77.3632C72.3425 77.5365 72.1697 77.5365 72.0828 77.5365C71.9964 77.5365 71.8231 77.5365 71.6497 77.3632L55.286 60.9996C55.0263 60.7399 55.0263 60.3932 55.286 60.1335L60.1344 55.2852C60.2207 55.1988 60.3941 55.1119 60.5674 55.1119C60.7407 55.1119 60.9134 55.1982 61.0004 55.2852L77.3641 71.6488C77.5375 71.8221 77.5375 71.9949 77.5375 72.0818C77.5375 72.1688 77.5375 72.3415 77.3641 72.5149Z" fill="white" stroke="url(#paint0_linear_215_5341)"/>
<path d="M43.1713 41.1113L41.0939 43.1841C39.8822 44.3931 37.8917 44.4793 36.5931 43.2702L34.6032 41.4563C34.084 41.7154 33.5648 41.8883 33.0456 42.0612L32.8723 44.8244C32.786 46.5515 31.3147 47.9335 29.5832 47.9335H26.6406C24.9098 47.9335 23.4384 46.5515 23.3516 44.8244L23.1783 42.1474C22.6591 41.9745 22.1399 41.7154 21.6207 41.5425L19.8028 43.2702C18.5048 44.4793 16.5137 44.3931 15.302 43.1841L13.2246 41.1113C12.0129 39.9022 11.9266 37.916 13.1383 36.6203L14.9562 34.6341C14.6965 34.116 14.5233 33.598 14.35 33.0799L11.5807 32.907C9.84981 32.8209 8.46484 31.3528 8.46484 29.6251V26.689C8.46484 24.9619 9.8498 23.4937 11.5807 23.407L14.2636 23.2342C14.4369 22.7161 14.6965 22.198 14.8698 21.6799L13.0519 19.6938C11.8402 18.3986 11.9265 16.4119 13.1382 15.2028L15.2156 13.13C16.4273 11.9209 18.4178 11.8348 19.7164 13.0438L21.7069 14.8577C22.2261 14.5987 22.7453 14.4258 23.2645 14.2529L23.4378 11.5758C23.5241 9.84874 24.9954 8.4668 26.7269 8.4668H29.6695C31.4003 8.4668 32.8717 9.84873 32.9586 11.5758L33.1318 14.2529C33.651 14.4258 34.1703 14.6848 34.6894 14.8577L36.68 13.0438C37.978 11.8348 39.9691 11.9209 41.1808 13.13L43.2581 15.2028C44.4698 16.4118 44.5562 18.398 43.3445 19.6938L41.5266 21.6799C41.7862 22.198 41.9595 22.7161 42.1327 23.2342L44.8157 23.407C46.5465 23.4932 47.9315 24.9613 47.9315 26.689V29.6251C47.9315 31.3522 46.5466 32.8203 44.8157 32.907L42.1327 33.0799C41.9595 33.598 41.6999 34.1161 41.5266 34.6341L43.3445 36.6203C44.4698 37.9155 44.3829 39.9022 43.1712 41.1113H43.1713ZM30.6215 40.0745C30.7948 39.9016 31.0544 39.7293 31.2277 39.7293C32.1798 39.4703 33.1318 39.0383 33.9976 38.6064C34.5168 38.2612 35.2093 38.3474 35.6423 38.7793L38.4122 41.2835C38.5855 41.4564 38.8451 41.4564 38.9314 41.2835L41.0088 39.2107C41.1821 39.0378 41.1821 38.7787 41.0088 38.6926L38.4991 35.9287C38.0662 35.4968 37.9799 34.8058 38.3258 34.2877C38.8451 33.4238 39.1916 32.4738 39.4512 31.5238C39.6245 30.9189 40.1437 30.4876 40.7492 30.4876L44.4706 30.3147C44.7302 30.3147 44.8165 30.1418 44.8165 29.8828V26.9466C44.8165 26.6876 44.6433 26.5147 44.4706 26.5147L40.7492 26.3418C40.1431 26.3418 39.6239 25.9099 39.4512 25.3056C39.1916 24.3556 38.7587 23.4057 38.3258 22.5418C37.9799 22.0237 38.0662 21.3327 38.4991 20.9007L41.0088 18.1368C41.1821 17.9639 41.1821 17.7049 41.0088 17.6188L38.9314 15.5459C38.7581 15.373 38.4985 15.373 38.4122 15.5459L35.6423 18.0501C35.2094 18.482 34.5169 18.5682 33.9976 18.223C33.1319 17.7049 32.1798 17.3591 31.2277 17.1001C30.6215 16.9272 30.1893 16.4091 30.1893 15.8049L30.016 12.0917C30.016 11.9188 29.8427 11.7465 29.5831 11.7465H26.6405C26.4673 11.7465 26.2077 11.9194 26.2077 12.0917L26.0344 15.8049C26.0344 16.4098 25.6015 16.9278 24.996 17.1001C24.0439 17.3591 23.0918 17.7911 22.226 18.223C21.7068 18.5682 21.0143 18.482 20.5814 18.0501L17.8115 15.5459C17.6382 15.373 17.3786 15.373 17.2922 15.5459L15.2153 17.3615C15.0421 17.5344 15.0421 17.7935 15.2153 17.8796L17.725 20.6435C18.1579 21.0754 18.2442 21.7664 17.8983 22.2845C17.3791 23.1484 17.0325 24.0984 16.7729 25.0484C16.5996 25.6532 16.0804 26.0846 15.4749 26.0846L11.7535 26.2575C11.5802 26.2575 11.4076 26.4304 11.4076 26.6894V29.6256C11.4076 29.8846 11.5808 30.0575 11.7535 30.0575L15.4749 30.2304C16.0811 30.2304 16.6003 30.6623 16.7729 31.2665C17.0325 32.2165 17.4654 33.1665 17.8983 34.0304C18.2442 34.5485 18.1579 35.2395 17.725 35.6715L15.2153 38.4353C15.0421 38.6082 15.0421 38.8673 15.2153 38.9534L17.2927 41.0263C17.466 41.1992 17.7256 41.1992 17.8119 41.0263L20.5819 38.5221C21.0147 38.0901 21.7072 38.004 22.2265 38.3492C23.0922 38.8673 24.0444 39.2131 24.9964 39.4721C25.6026 39.645 26.0349 40.1631 26.0349 40.7673L26.2081 44.4805C26.2081 44.6534 26.3814 44.8257 26.641 44.8257H29.5836C29.7569 44.8257 30.0165 44.6528 30.0165 44.4805L30.1897 40.7673C30.2755 40.5932 30.3618 40.2474 30.6214 40.0745L30.6215 40.0745Z" fill="white" stroke="url(#paint1_linear_215_5341)"/>
<path d="M34.5691 34.6256C31.0612 38.1463 25.3598 38.1463 21.7637 34.6256C18.2558 31.1048 18.2558 25.3826 21.7637 21.7734C25.2717 18.2526 30.973 18.2526 34.5691 21.7734C38.1652 25.3826 38.1652 31.1047 34.5691 34.6256ZM23.869 23.8863C21.5008 26.2632 21.5008 30.2242 23.869 32.6011C26.2372 34.978 30.1838 34.978 32.552 32.6011C34.9202 30.2242 34.9202 26.2632 32.552 23.8863C30.1838 21.5095 26.3246 21.5095 23.869 23.8863Z" fill="white" stroke="url(#paint2_linear_215_5341)"/>
<defs>
<linearGradient id="paint0_linear_215_5341" x1="41" y1="1" x2="41" y2="81" gradientUnits="userSpaceOnUse">
<stop stop-color="#A031F1"/>
<stop offset="1" stop-color="#D623FF"/>
</linearGradient>
<linearGradient id="paint1_linear_215_5341" x1="28.1982" y1="8.4668" x2="28.1982" y2="47.9335" gradientUnits="userSpaceOnUse">
<stop stop-color="#A031F1"/>
<stop offset="1" stop-color="#D623FF"/>
</linearGradient>
<linearGradient id="paint2_linear_215_5341" x1="28.1995" y1="19.1328" x2="28.1995" y2="37.2661" gradientUnits="userSpaceOnUse">
<stop stop-color="#A031F1"/>
<stop offset="1" stop-color="#D623FF"/>
</linearGradient>
</defs>
</svg>
