<svg width="28" height="23" viewBox="0 0 28 23" fill="none" xmlns="http://www.w3.org/2000/svg">
<path fill-rule="evenodd" clip-rule="evenodd" d="M13.9994 9.88638C11.7239 9.88638 0 3.32463 0 3.32463V2.29999C0 1.03039 1.04398 0 2.33265 0H25.6662C26.956 0 28 1.03039 28 2.29999L27.9814 3.44998C27.9814 3.44998 16.3845 9.88638 13.9994 9.88638Z" fill="#B72BF6"/>
<path fill-rule="evenodd" clip-rule="evenodd" d="M13.9994 12.7202C16.494 12.7202 27.9814 6.57129 27.9814 6.57129L28 20.3712C28 21.6408 26.956 22.6712 25.6662 22.6712H2.33265C1.04515 22.6712 0 21.6408 0 20.3712L0.0186426 6.57129C0.0174774 6.57129 11.7239 12.7202 13.9994 12.7202Z" fill="#B72BF6"/>
</svg>
