<svg width="87" height="75" viewBox="0 0 87 75" fill="none" xmlns="http://www.w3.org/2000/svg">
<path fill-rule="evenodd" clip-rule="evenodd" d="M22.2519 0.281818C20.7837 0.792835 19.8303 1.68332 19.1738 3.15665C18.9447 3.67091 18.8657 4.51737 18.7954 7.21493L18.7066 10.6233L10.9991 12.5239C6.76003 13.5693 2.9976 14.5575 2.63817 14.72C1.80682 15.0959 0.831494 16.043 0.358553 16.9336C0.0609007 17.4941 -0.00768348 17.9047 0.00065554 19.0772C0.0100157 20.4045 0.556477 22.6918 6.44127 46.0348C10.2437 61.1179 13.0337 71.8624 13.268 72.3262C13.7403 73.2605 14.6567 74.1067 15.7197 74.5897C17.1276 75.2295 18.0694 75.1118 24.9183 73.4407C28.3348 72.607 33.9088 71.2528 37.3052 70.4313L43.4801 68.9374L46.8355 69.751C67.8796 74.8535 68.8808 75.0826 69.7052 74.9848C71.3965 74.784 73.0125 73.6946 73.7139 72.2827C73.9157 71.8763 75.0433 67.6846 76.2197 62.9677C78.2891 54.6706 78.3505 54.3718 78.1082 53.7905C77.8243 53.1092 76.9138 52.6182 76.246 52.7862C75.2246 53.0432 75.1259 53.3196 72.9303 62.0743C71.7887 66.6257 70.7629 70.5323 70.6507 70.7556C70.5384 70.979 70.2016 71.2787 69.9024 71.4217C69.3816 71.6708 69.124 71.6256 63.859 70.3625C60.8343 69.6368 58.2829 69.0168 58.1893 68.9847C58.0957 68.9525 59.288 68.92 60.8387 68.9127C62.8314 68.9032 63.914 68.8231 64.5292 68.64C65.7923 68.264 66.9892 67.2464 67.5748 66.051L68.06 65.0602L68.1066 52.1648L68.1533 39.2694L69.2111 39.0722C70.9993 38.7388 70.8777 38.9454 73.2028 32.2853C74.3464 29.0092 75.2845 26.1195 75.2875 25.8639C75.2933 25.3542 75.0297 25.027 70.7222 20.1973L68.1451 17.3076V15.7185C68.1451 14.8444 68.1841 14.1291 68.2317 14.1291C68.2792 14.1291 71.5896 14.9493 75.5883 15.9517C83.3396 17.8949 83.6318 18.0055 83.6318 18.9965C83.6318 19.242 82.5214 23.8801 81.1642 29.303C79.807 34.7259 78.6965 39.4099 78.6965 39.7117C78.6965 40.091 78.8503 40.415 79.194 40.7595C79.8628 41.4299 80.7066 41.4411 81.4087 40.789C81.8827 40.3486 82.0726 39.6888 84.4896 30.0824C86.8054 20.8781 87.0578 19.7331 86.9909 18.7359C86.947 18.0825 86.7711 17.3418 86.5628 16.9328C86.1781 16.1776 85.1412 15.1559 84.3352 14.7381C84.0556 14.593 80.3177 13.5968 76.0285 12.5242L68.2302 10.574L68.1446 7.19019C68.0695 4.22339 68.0149 3.71067 67.7011 3.02988C67.1783 1.89523 66.3786 1.06822 65.2829 0.528711L64.3159 0.0526712L43.7237 0.01411C24.3026 -0.0220621 23.0814 -0.00687661 22.2519 0.281818ZM63.8658 3.62297C64.1238 3.75674 64.4262 4.06744 64.538 4.31348C64.6932 4.6549 64.7414 11.797 64.7414 34.4577C64.7414 61.8585 64.7195 64.1916 64.4581 64.6353C64.3022 64.9 63.9923 65.1998 63.7693 65.3016C63.4851 65.4313 57.4043 65.4868 43.4441 65.4868C25.1644 65.4868 23.4847 65.4634 23.0446 65.2027C22.7806 65.0464 22.4816 64.7357 22.38 64.5122C22.0829 63.858 22.1346 4.79123 22.433 4.25171C22.9292 3.35406 21.9998 3.39228 43.4344 3.3858C60.3874 3.38068 63.4676 3.41651 63.8658 3.62297ZM36.7589 12.1354C32.6534 14.519 30.416 15.9154 30.2655 16.1877C30.0829 16.518 30.0359 18.0891 30.0359 23.8546C30.0359 29.6202 30.0829 31.1913 30.2655 31.5216C30.5637 32.0615 42.835 39.2108 43.4633 39.2108C43.7056 39.2108 44.9383 38.6156 46.2026 37.8884C54.8246 32.9284 56.4426 31.9408 56.673 31.4986C57.0273 30.8183 57.027 16.8905 56.6728 16.2107C56.4405 15.7654 55.052 14.9167 46.3705 9.91505C45.0091 9.13069 43.7136 8.49853 43.4674 8.49853C43.1978 8.49853 40.556 9.93075 36.7589 12.1354ZM48.6257 15.1528L53.4958 17.9681V23.8546V29.7411L48.6189 32.5564C45.9366 34.1048 43.6229 35.3717 43.4776 35.3717C43.3321 35.3717 41.0147 34.1048 38.3278 32.5564L33.4423 29.7411L33.4428 23.8546L33.4435 17.9681L38.3283 15.1245C41.015 13.5606 43.3351 12.2937 43.4844 12.3092C43.6335 12.3248 45.9471 13.6044 48.6257 15.1528ZM18.7917 15.7185V17.3076L16.2146 20.1973C11.9071 25.027 11.6435 25.3542 11.6492 25.8639C11.6523 26.1195 12.5904 29.0092 13.734 32.2853C16.0591 38.9454 15.9375 38.7388 17.7257 39.0722L18.7835 39.2694L18.8302 52.1648L18.8768 65.0602L19.3516 66.0297C19.8901 67.1288 20.7156 67.9308 21.8463 68.453C22.5133 68.761 23.0497 68.8228 25.7093 68.8977L28.798 68.9845L23.1869 70.3326C17.8177 71.6224 17.5523 71.6695 17.033 71.421C16.7345 71.2784 16.3965 70.979 16.282 70.7556C15.9813 70.1693 3.30495 19.5759 3.30495 18.962C3.30495 18.6561 3.44995 18.3159 3.66268 18.1225C3.90553 17.9019 6.32402 17.2131 11.1933 15.9782C15.1384 14.9774 18.4621 14.152 18.579 14.1439C18.735 14.133 18.7917 14.5528 18.7917 15.7185ZM18.7917 29.1781C18.7917 33.3771 18.7318 35.8061 18.6309 35.7044C18.4503 35.5224 15.388 26.8081 15.388 26.4763C15.388 26.3058 18.595 22.5052 18.7492 22.4931C18.7726 22.4912 18.7917 25.4995 18.7917 29.1781ZM69.9952 24.4989C70.8497 25.4633 71.5488 26.3505 71.5488 26.4706C71.5488 26.8064 68.4885 35.5203 68.3059 35.7044C68.205 35.8061 68.1451 33.3645 68.1451 29.144C68.1451 25.3172 68.2089 22.4912 68.2933 22.5835C68.3748 22.6726 69.1407 23.5346 69.9952 24.4989ZM26.1777 43.8858L25.5991 44.4659V51.7265C25.5991 59.5276 25.6149 59.6791 26.4747 60.1249C27.3557 60.5817 28.4219 60.265 28.7994 59.4344C28.9328 59.1409 29.0075 57.8592 29.0165 55.7105L29.0303 52.4341L30.8162 56.062C32.2531 58.9807 32.6978 59.7396 33.0914 59.9437C33.8589 60.3416 34.5419 60.2614 35.1692 59.6997L35.725 59.202L35.773 51.9848C35.8247 44.1981 35.8053 44.0003 34.9437 43.5536C34.3627 43.2523 33.9269 43.2404 33.3377 43.5096C32.5041 43.8903 32.4073 44.3566 32.3972 48.032L32.3882 51.4103L30.5342 47.7187C29.3763 45.4129 28.5085 43.8916 28.223 43.6664C27.539 43.1269 26.8622 43.1996 26.1777 43.8858ZM40.0834 43.5439C39.2334 44.0162 39.2262 44.0838 39.2197 51.7862C39.2133 59.5259 39.2293 59.6791 40.0894 60.1249C40.9704 60.5817 42.0366 60.265 42.4141 59.4344C42.5455 59.1454 42.6175 57.9928 42.6175 56.1798V53.3725H44.3913C46.0331 53.3725 46.2027 53.3409 46.6687 52.9478C47.2732 52.4378 47.432 51.7738 47.1253 51.0378C46.7778 50.204 46.1251 49.96 44.2427 49.96H42.6175V48.3391V46.7182H44.4815C46.5467 46.7182 47.1132 46.5523 47.4805 45.8403C47.9361 44.957 47.6202 43.8881 46.7918 43.5096C46.1437 43.2134 40.6272 43.2417 40.0834 43.5439ZM51.9963 43.5439C51.191 43.9913 50.9226 44.9744 51.3692 45.8403C51.6942 46.4706 52.3001 46.7182 53.5173 46.7182H54.5304V52.8526C54.5304 59.4508 54.5586 59.6856 55.406 60.1249C56.1703 60.5211 56.7188 60.4262 57.3554 59.7879L57.934 59.2078V52.963V46.7182H58.9637C60.1522 46.7182 60.8457 46.4199 61.1344 45.7845C61.5322 44.9091 61.2453 43.9549 60.4621 43.5488C59.8096 43.2107 52.6037 43.2062 51.9963 43.5439ZM77.3219 45.8519C76.0879 47.0893 77.3345 49.1924 78.9766 48.6437C79.6254 48.4268 80.126 47.6897 80.126 46.9514C80.126 46.4713 80.0042 46.2246 79.5787 45.8434C78.8281 45.171 77.9981 45.174 77.3219 45.8519Z" fill="url(#paint0_linear_167_5200)"/>
<defs>
<linearGradient id="paint0_linear_167_5200" x1="43.5" y1="0" x2="43.5" y2="75" gradientUnits="userSpaceOnUse">
<stop stop-color="#A031F1"/>
<stop offset="1" stop-color="#D623FF"/>
</linearGradient>
</defs>
</svg>
