<svg width="80" height="80" viewBox="0 0 80 80" fill="none" xmlns="http://www.w3.org/2000/svg">
<circle cx="40" cy="40" r="40" fill="url(#paint0_linear_167_5099)"/>
<path d="M25.152 59.624C22.3093 59.624 19.8306 58.896 17.716 57.44C15.6013 55.984 13.972 53.904 12.828 51.2C11.684 48.496 11.112 45.324 11.112 41.684C11.112 36.1373 12.36 31.7693 14.856 28.58C17.3866 25.356 20.8186 23.744 25.152 23.744C29.4853 23.744 32.9 25.356 35.396 28.58C37.892 31.7693 39.14 36.1373 39.14 41.684C39.14 47.196 37.8746 51.564 35.344 54.788C32.848 58.012 29.4506 59.624 25.152 59.624ZM20.264 49.9C21.408 51.772 23.0373 52.708 25.152 52.708C27.2666 52.708 28.8786 51.772 29.988 49.9C31.0973 47.9933 31.652 45.272 31.652 41.736C31.652 38.1653 31.08 35.4267 29.936 33.52C28.8266 31.6133 27.232 30.66 25.152 30.66C23.0373 30.66 21.408 31.6133 20.264 33.52C19.1546 35.392 18.6 38.1133 18.6 41.684C18.6 45.2547 19.1546 47.9933 20.264 49.9ZM58.577 36.016C61.905 36.016 64.6263 37.056 66.741 39.136C68.8903 41.216 69.965 43.9027 69.965 47.196C69.965 50.836 68.7343 53.8173 66.273 56.14C63.8463 58.4627 60.7437 59.624 56.965 59.624C53.0823 59.624 49.9103 58.4627 47.449 56.14C45.0223 53.8173 43.809 50.836 43.809 47.196C43.809 43.972 45.005 40.3147 47.397 36.224L54.261 24.368H62.425C61.5237 25.928 60.3103 28.0253 58.785 30.66C57.2597 33.2947 56.1157 35.2533 55.353 36.536C56.4277 36.1893 57.5023 36.016 58.577 36.016ZM56.913 52.76C58.5423 52.76 59.877 52.24 60.917 51.2C61.957 50.16 62.477 48.8253 62.477 47.196C62.477 45.532 61.957 44.18 60.917 43.14C59.877 42.1 58.5423 41.58 56.913 41.58C55.2837 41.58 53.9317 42.1 52.857 43.14C51.817 44.18 51.297 45.532 51.297 47.196C51.297 48.8253 51.817 50.16 52.857 51.2C53.9317 52.24 55.2837 52.76 56.913 52.76Z" fill="white"/>
<defs>
<linearGradient id="paint0_linear_167_5099" x1="40" y1="0" x2="40" y2="80" gradientUnits="userSpaceOnUse">
<stop stop-color="#A031F1"/>
<stop offset="1" stop-color="#D623FF"/>
</linearGradient>
</defs>
</svg>
