<svg width="76" height="76" viewBox="0 0 76 76" fill="none" xmlns="http://www.w3.org/2000/svg">
<circle cx="38" cy="38" r="36" stroke="#B72BF6" stroke-width="4"/>
<path fill-rule="evenodd" clip-rule="evenodd" d="M50.417 22.2822C49.7591 22.577 49.276 23.2074 49.1321 23.9588C48.9463 24.929 49.2525 25.3601 52.2364 28.3292L55.0739 31.1525L38.8977 31.1901C22.8156 31.2274 22.7192 31.2294 22.3214 31.5227C21.561 32.0831 21.3238 32.5403 21.3238 33.4449C21.3238 34.3495 21.561 34.8067 22.3214 35.3671C22.7201 35.6611 22.7902 35.6622 41.8025 35.7044C54.9126 35.7335 61.0493 35.6993 61.4134 35.5953C62.0705 35.4078 62.7941 34.6174 62.9212 33.9486C63.1584 32.7001 63.1991 32.7524 57.8648 27.4566C52.0921 21.7256 51.9223 21.6076 50.417 22.2822ZM13.3466 40.5115C12.3778 40.9299 11.8383 42.0165 12.0432 43.1362C12.1288 43.6041 12.7928 44.3155 17.2397 48.7035C21.6034 53.0095 22.4268 53.7599 22.954 53.9115C24.6395 54.3963 26.2484 52.8069 25.7527 51.1467C25.6033 50.6462 25.0689 50.0397 22.7295 47.7155L19.888 44.8922L36.0642 44.8546C52.1463 44.8173 52.2427 44.8153 52.6404 44.522C53.4009 43.9616 53.6381 43.5044 53.6381 42.5998C53.6381 41.6952 53.4009 41.238 52.6404 40.6775C52.2415 40.3834 52.1821 40.3824 33.0145 40.3515C17.252 40.3262 13.709 40.355 13.3466 40.5115Z" fill="url(#paint0_linear_661_5111)"/>
<defs>
<linearGradient id="paint0_linear_661_5111" x1="37.5" y1="22" x2="37.5" y2="54" gradientUnits="userSpaceOnUse">
<stop stop-color="#A031F1"/>
<stop offset="1" stop-color="#D623FF"/>
</linearGradient>
</defs>
</svg>
