<svg width="77" height="95" viewBox="0 0 77 95" fill="none" xmlns="http://www.w3.org/2000/svg">
<path opacity="0.07" d="M20.288 59.768C16.7893 59.768 13.7387 58.872 11.136 57.08C8.53333 55.288 6.528 52.728 5.12 49.4C3.712 46.072 3.008 42.168 3.008 37.688C3.008 30.8613 4.544 25.4853 7.616 21.56C10.7307 17.592 14.9547 15.608 20.288 15.608C25.6213 15.608 29.824 17.592 32.896 21.56C35.968 25.4853 37.504 30.8613 37.504 37.688C37.504 44.472 35.9467 49.848 32.832 53.816C29.76 57.784 25.5787 59.768 20.288 59.768ZM14.272 47.8C15.68 50.104 17.6853 51.256 20.288 51.256C22.8907 51.256 24.8747 50.104 26.24 47.8C27.6053 45.4533 28.288 42.104 28.288 37.752C28.288 33.3573 27.584 29.9867 26.176 27.64C24.8107 25.2933 22.848 24.12 20.288 24.12C17.6853 24.12 15.68 25.2933 14.272 27.64C12.9067 29.944 12.224 33.2933 12.224 37.688C12.224 42.0827 12.9067 45.4533 14.272 47.8ZM74.3545 42.872V50.808H70.6425V59H62.0665V50.808H41.6505V49.208L55.6665 16.44H64.6905L53.3625 42.872H62.3225L63.7945 32.696H70.6425V42.872H74.3545Z" fill="url(#paint0_linear_167_5271)"/>
<line x1="40.5" y1="95" x2="40.5" y2="55" stroke="#B72BF6" stroke-dasharray="2 2"/>
<circle cx="40.5" cy="52.5" r="3.5" transform="rotate(-180 40.5 52.5)" fill="#B72BF6"/>
<defs>
<linearGradient id="paint0_linear_167_5271" x1="38.5" y1="0" x2="38.5" y2="65" gradientUnits="userSpaceOnUse">
<stop stop-color="#A031F1"/>
<stop offset="1" stop-color="#D623FF"/>
</linearGradient>
</defs>
</svg>
