<svg width="56" height="57" viewBox="0 0 56 57" fill="none" xmlns="http://www.w3.org/2000/svg">
<path d="M53.5 28.5C53.5 42.9013 42.0417 54.5 28 54.5C13.9583 54.5 2.5 42.9013 2.5 28.5C2.5 14.0987 13.9583 2.5 28 2.5C42.0417 2.5 53.5 14.0987 53.5 28.5Z" fill="url(#paint0_linear_167_5292)" stroke="#B72BF6" stroke-width="5"/>
<path d="M14.4514 15.6514C23.7411 15.6617 33.0309 15.672 42.3211 15.6825L41.5519 14.9133C41.5981 21.939 41.5959 28.9641 41.5452 35.9893C41.8017 35.7328 42.058 35.4765 42.3144 35.2201C34.6602 35.264 27.0059 35.2917 19.351 35.3033C17.1767 35.3067 14.7284 35.9897 14.7039 33.0866C14.687 31.0821 14.676 29.0774 14.6667 27.0729C14.6479 23.0637 14.6488 19.0546 14.6604 15.0454C14.6633 14.0533 13.1249 14.0535 13.122 15.0454C13.1082 19.8563 13.1142 24.6671 13.1403 29.478C13.1495 31.1519 12.0334 36.2723 14.3122 36.818C16.1682 37.2626 18.6464 36.8421 20.5596 36.8392C22.9768 36.8356 25.394 36.8294 27.811 36.8222C32.6454 36.8082 37.4796 36.7854 42.3139 36.7577C42.7356 36.7553 43.0802 36.4095 43.0831 35.9885C43.1338 28.9628 43.136 21.9377 43.0898 14.9125C43.0871 14.4929 42.742 14.1438 42.3206 14.1433C33.0309 14.1331 23.7406 14.1228 14.4509 14.1123C13.4587 14.1112 13.4587 15.6498 14.4509 15.6509L14.4514 15.6514Z" fill="white"/>
<path d="M17.4063 17.3534C17.4572 22.7211 17.5083 28.0883 17.5592 33.4563C17.5686 34.4478 19.1072 34.4487 19.0976 33.4563C19.0467 28.0886 18.9956 22.7214 18.9447 17.3534C18.9353 16.3619 17.3969 16.3608 17.4063 17.3534Z" fill="white"/>
<path d="M16.5527 20.6361H19.6298C20.6219 20.6361 20.6219 19.0977 19.6298 19.0977H16.5527C15.5606 19.0974 15.5606 20.6361 16.5527 20.6361Z" fill="white"/>
<path d="M23.8125 17.2509C23.823 22.6527 23.8337 28.0543 23.8442 33.456C23.8462 34.448 25.3846 34.4482 25.3826 33.456C25.3721 28.0543 25.3614 22.6526 25.3509 17.2509C25.3491 16.2589 23.8105 16.2587 23.8125 17.2509Z" fill="white"/>
<path d="M22.9629 30.6868H25.7834C26.7756 30.6868 26.7756 29.1484 25.7834 29.1484H22.9629C21.9707 29.1484 21.9707 30.6868 22.9629 30.6868Z" fill="white"/>
<path d="M30.4414 17.3017C30.4785 22.8231 30.5155 28.3445 30.5524 33.8662C30.5591 34.8579 32.0975 34.8586 32.0908 33.8662C32.0537 28.3448 32.0167 22.8234 31.9798 17.3017C31.9731 16.3099 30.4347 16.3093 30.4414 17.3017Z" fill="white"/>
<path d="M29.6304 28.7941C30.5883 28.7742 31.5456 28.78 32.5032 28.8115C33.4958 28.8441 33.4927 27.3057 32.5032 27.2731C31.5456 27.2416 30.5882 27.2358 29.6304 27.2557C28.6398 27.2762 28.6378 28.8146 29.6304 28.7941Z" fill="white"/>
<path d="M37.0981 17.5079C37.2705 22.8745 37.3234 28.2405 37.2571 33.6097C37.2448 34.6023 38.7832 34.601 38.7955 33.6097C38.8618 28.2409 38.8089 22.8742 38.6365 17.5079C38.6048 16.5185 37.0663 16.5153 37.0981 17.5079Z" fill="white"/>
<path d="M36.4004 31.8148H39.4774C40.4696 31.8148 40.4696 30.2764 39.4774 30.2764H36.4004C35.4082 30.2761 35.4082 31.8148 36.4004 31.8148Z" fill="white"/>
<path d="M21.783 41.7113C25.9882 41.7698 30.1933 41.8285 34.3985 41.887C35.3911 41.9009 35.3898 40.3624 34.3985 40.3486C30.1933 40.2901 25.9882 40.2314 21.783 40.1729C20.7904 40.1589 20.7917 41.6975 21.783 41.7113Z" fill="white"/>
<path d="M31.625 36.4307C31.6266 37.7324 31.6844 39.0302 31.7982 40.3269C31.8841 41.3072 33.4234 41.3155 33.3366 40.3269C33.2228 39.0303 33.1652 37.7323 33.1634 36.4307C33.1621 35.4385 31.6237 35.4385 31.625 36.4307Z" fill="white"/>
<path d="M22.8819 36.381C22.9852 37.6615 23.075 38.9433 23.1513 40.2256C23.21 41.2113 24.7486 41.2171 24.6897 40.2256C24.6134 38.943 24.5236 37.6615 24.4203 36.381C24.3413 35.399 22.8022 35.3913 22.8819 36.381Z" fill="white"/>
<defs>
<linearGradient id="paint0_linear_167_5292" x1="28" y1="0" x2="28" y2="57" gradientUnits="userSpaceOnUse">
<stop stop-color="#9A22F2"/>
<stop offset="1" stop-color="#CF00FE"/>
</linearGradient>
</defs>
</svg>
