<svg width="80" height="80" viewBox="0 0 80 80" fill="none" xmlns="http://www.w3.org/2000/svg">
<circle cx="40" cy="40" r="40" fill="url(#paint0_linear_167_5167)"/>
<path d="M25.6852 59.624C22.8425 59.624 20.3638 58.896 18.2492 57.44C16.1345 55.984 14.5052 53.904 13.3612 51.2C12.2172 48.496 11.6452 45.324 11.6452 41.684C11.6452 36.1373 12.8932 31.7693 15.3892 28.58C17.9198 25.356 21.3518 23.744 25.6852 23.744C30.0185 23.744 33.4332 25.356 35.9292 28.58C38.4252 31.7693 39.6732 36.1373 39.6732 41.684C39.6732 47.196 38.4078 51.564 35.8772 54.788C33.3812 58.012 29.9838 59.624 25.6852 59.624ZM20.7972 49.9C21.9412 51.772 23.5705 52.708 25.6852 52.708C27.7998 52.708 29.4118 51.772 30.5212 49.9C31.6305 47.9933 32.1852 45.272 32.1852 41.736C32.1852 38.1653 31.6132 35.4267 30.4692 33.52C29.3598 31.6133 27.7652 30.66 25.6852 30.66C23.5705 30.66 21.9412 31.6133 20.7972 33.52C19.6878 35.392 19.1332 38.1133 19.1332 41.684C19.1332 45.2547 19.6878 47.9933 20.7972 49.9ZM60.0462 37.212C62.6115 37.8013 64.6569 39.0667 66.1822 41.008C67.7422 42.9147 68.5222 45.22 68.5222 47.924C68.5222 51.2867 67.3609 54.0773 65.0382 56.296C62.7155 58.5147 59.7862 59.624 56.2502 59.624C52.8182 59.624 49.9929 58.5493 47.7742 56.4C45.5902 54.2507 44.4289 51.4773 44.2902 48.08H51.7262C51.7955 49.4667 52.2462 50.5933 53.0782 51.46C53.9102 52.292 54.9675 52.708 56.2502 52.708C57.6369 52.708 58.7809 52.24 59.6822 51.304C60.5835 50.368 61.0342 49.172 61.0342 47.716C61.0342 46.2253 60.5489 45.0467 59.5782 44.18C58.6075 43.3133 57.3249 42.88 55.7302 42.88H50.7382V41.476L57.0302 31.076H45.1222V24.42H67.2222V25.824L60.0462 37.212Z" fill="white"/>
<defs>
<linearGradient id="paint0_linear_167_5167" x1="40" y1="0" x2="40" y2="80" gradientUnits="userSpaceOnUse">
<stop stop-color="#A031F1"/>
<stop offset="1" stop-color="#D623FF"/>
</linearGradient>
</defs>
</svg>
