<svg width="98" height="64" viewBox="0 0 98 64" fill="none" xmlns="http://www.w3.org/2000/svg">
<path d="M24.53 63.0126C19.61 63.0126 15.32 61.7526 11.66 59.2326C8 56.7126 5.18 53.1126 3.2 48.4326C1.22 43.7526 0.23 38.2626 0.23 31.9626C0.23 22.3626 2.39 14.8026 6.71 9.28261C11.09 3.70261 17.03 0.912614 24.53 0.912614C32.03 0.912614 37.94 3.70261 42.26 9.28261C46.58 14.8026 48.74 22.3626 48.74 31.9626C48.74 41.5026 46.55 49.0626 42.17 54.6426C37.85 60.2226 31.97 63.0126 24.53 63.0126ZM16.07 46.1826C18.05 49.4226 20.87 51.0426 24.53 51.0426C28.19 51.0426 30.98 49.4226 32.9 46.1826C34.82 42.8826 35.78 38.1726 35.78 32.0526C35.78 25.8726 34.79 21.1326 32.81 17.8326C30.89 14.5326 28.13 12.8826 24.53 12.8826C20.87 12.8826 18.05 14.5326 16.07 17.8326C14.15 21.0726 13.19 25.7826 13.19 31.9626C13.19 38.1426 14.15 42.8826 16.07 46.1826ZM79.681 49.8726H97.951V61.9326H56.011V59.1426C64.591 49.1826 70.711 41.9226 74.371 37.3626C78.091 32.7426 80.581 29.2026 81.841 26.7426C83.161 24.2826 83.821 21.9726 83.821 19.8126C83.821 17.7126 83.191 16.0326 81.931 14.7726C80.671 13.5126 79.021 12.8826 76.981 12.8826C74.881 12.8826 73.171 13.5426 71.851 14.8626C70.591 16.1226 69.961 17.8326 69.961 19.9926V21.0726H57.091V19.8126C57.091 14.2326 58.891 9.67261 62.491 6.13262C66.091 2.59262 70.861 0.822615 76.801 0.822615C80.641 0.822615 84.091 1.63262 87.151 3.25262C90.211 4.81261 92.581 7.03261 94.261 9.91262C95.941 12.7926 96.781 16.0326 96.781 19.6326C96.781 23.4726 95.611 27.5226 93.271 31.7826C90.931 36.0426 86.401 42.0726 79.681 49.8726Z" fill="url(#paint0_linear_167_5120)"/>
<defs>
<linearGradient id="paint0_linear_167_5120" x1="55.5" y1="-20.0674" x2="55.5" y2="77.9326" gradientUnits="userSpaceOnUse">
<stop stop-color="#A031F1"/>
<stop offset="1" stop-color="#D623FF"/>
</linearGradient>
</defs>
</svg>
