<svg width="80" height="80" viewBox="0 0 80 80" fill="none" xmlns="http://www.w3.org/2000/svg">
<circle cx="40" cy="40" r="40" fill="url(#paint0_linear_167_5130)"/>
<path d="M25.5328 59.624C22.6902 59.624 20.2115 58.896 18.0968 57.44C15.9822 55.984 14.3528 53.904 13.2088 51.2C12.0648 48.496 11.4928 45.324 11.4928 41.684C11.4928 36.1373 12.7408 31.7693 15.2368 28.58C17.7675 25.356 21.1995 23.744 25.5328 23.744C29.8662 23.744 33.2808 25.356 35.7768 28.58C38.2728 31.7693 39.5208 36.1373 39.5208 41.684C39.5208 47.196 38.2555 51.564 35.7248 54.788C33.2288 58.012 29.8315 59.624 25.5328 59.624ZM20.6448 49.9C21.7888 51.772 23.4182 52.708 25.5328 52.708C27.6475 52.708 29.2595 51.772 30.3688 49.9C31.4782 47.9933 32.0328 45.272 32.0328 41.736C32.0328 38.1653 31.4608 35.4267 30.3168 33.52C29.2075 31.6133 27.6128 30.66 25.5328 30.66C23.4182 30.66 21.7888 31.6133 20.6448 33.52C19.5355 35.392 18.9808 38.1133 18.9808 41.684C18.9808 45.2547 19.5355 47.9933 20.6448 49.9ZM69.4619 45.896V52.344H66.4459V59H59.4779V52.344H42.8899V51.044L54.2779 24.42H61.6099L52.4059 45.896H59.6859L60.8819 37.628H66.4459V45.896H69.4619Z" fill="white"/>
<defs>
<linearGradient id="paint0_linear_167_5130" x1="40" y1="0" x2="40" y2="80" gradientUnits="userSpaceOnUse">
<stop stop-color="#A031F1"/>
<stop offset="1" stop-color="#D623FF"/>
</linearGradient>
</defs>
</svg>
