<svg width="77" height="95" viewBox="0 0 77 95" fill="none" xmlns="http://www.w3.org/2000/svg">
<path opacity="0.07" d="M20.288 59.768C16.7893 59.768 13.7387 58.872 11.136 57.08C8.53333 55.288 6.528 52.728 5.12 49.4C3.712 46.072 3.008 42.168 3.008 37.688C3.008 30.8613 4.544 25.4853 7.616 21.56C10.7307 17.592 14.9547 15.608 20.288 15.608C25.6213 15.608 29.824 17.592 32.896 21.56C35.968 25.4853 37.504 30.8613 37.504 37.688C37.504 44.472 35.9467 49.848 32.832 53.816C29.76 57.784 25.5787 59.768 20.288 59.768ZM14.272 47.8C15.68 50.104 17.6853 51.256 20.288 51.256C22.8907 51.256 24.8747 50.104 26.24 47.8C27.6053 45.4533 28.288 42.104 28.288 37.752C28.288 33.3573 27.584 29.9867 26.176 27.64C24.8107 25.2933 22.848 24.12 20.288 24.12C17.6853 24.12 15.68 25.2933 14.272 27.64C12.9067 29.944 12.224 33.2933 12.224 37.688C12.224 42.0827 12.9067 45.4533 14.272 47.8ZM59.5065 50.424H72.4985V59H42.6745V57.016C48.7758 49.9333 53.1278 44.7707 55.7305 41.528C58.3758 38.2427 60.1465 35.7253 61.0425 33.976C61.9812 32.2267 62.4505 30.584 62.4505 29.048C62.4505 27.5547 62.0025 26.36 61.1065 25.464C60.2105 24.568 59.0372 24.12 57.5865 24.12C56.0932 24.12 54.8772 24.5893 53.9385 25.528C53.0425 26.424 52.5945 27.64 52.5945 29.176V29.944H43.4425V29.048C43.4425 25.08 44.7225 21.8373 47.2825 19.32C49.8425 16.8027 53.2345 15.544 57.4585 15.544C60.1892 15.544 62.6425 16.12 64.8185 17.272C66.9945 18.3813 68.6798 19.96 69.8745 22.008C71.0692 24.056 71.6665 26.36 71.6665 28.92C71.6665 31.6507 70.8345 34.5307 69.1705 37.56C67.5065 40.5893 64.2852 44.8773 59.5065 50.424Z" fill="url(#paint0_linear_167_5267)"/>
<line x1="40.5" y1="95" x2="40.5" y2="55" stroke="#B72BF6" stroke-dasharray="2 2"/>
<circle cx="40.5" cy="52.5" r="3.5" transform="rotate(-180 40.5 52.5)" fill="#B72BF6"/>
<defs>
<linearGradient id="paint0_linear_167_5267" x1="38.5" y1="0" x2="38.5" y2="65" gradientUnits="userSpaceOnUse">
<stop stop-color="#A031F1"/>
<stop offset="1" stop-color="#D623FF"/>
</linearGradient>
</defs>
</svg>
