<svg width="77" height="78" viewBox="0 0 77 78" fill="none" xmlns="http://www.w3.org/2000/svg">
<path fill-rule="evenodd" clip-rule="evenodd" d="M9.42162 1.15189C9.2837 1.23226 7.33245 4.05036 5.08549 7.41413L1 13.5301L1.0562 16.4031C1.11192 19.242 1.1187 19.2892 1.62372 20.3522C2.31559 21.8087 3.24858 22.7752 4.62553 23.4623C5.24876 23.7732 5.85794 24.0276 5.97923 24.0276C6.16463 24.0276 6.19984 27.5776 6.19984 46.2614V68.4953L6.59633 68.8906L6.99265 69.286H15.5075H24.0221L30.2326 72.8696C33.6485 74.8407 36.7424 76.5761 37.1082 76.7264C37.8947 77.0493 38.8842 77.0897 39.6468 76.8299C39.9487 76.7272 43.0737 74.9877 46.5912 72.9645L52.9866 69.286H61.4971H70.0074L70.4037 68.8906L70.8002 68.4953V46.2614C70.8002 27.5776 70.8354 24.0276 71.0208 24.0276C71.1421 24.0276 71.7512 23.7732 72.3745 23.4623C73.7514 22.7752 74.6844 21.8087 75.3763 20.3522C75.8813 19.2892 75.8881 19.242 75.9438 16.4031L76 13.5301L71.9129 7.41171C69.665 4.04665 67.7003 1.2263 67.5471 1.14464C67.177 0.94702 9.75996 0.954268 9.42162 1.15189ZM69.2401 8.08254L72.2543 12.5923H38.5H4.74569L7.75994 8.08254L10.774 3.57281H38.5H66.226L69.2401 8.08254ZM11.3679 16.7209C11.3679 17.5744 11.2795 18.5709 11.1715 18.9355C10.9094 19.8202 9.57149 21.1545 8.68437 21.4159C7.17014 21.862 5.96292 21.5475 4.82159 20.4092C3.82352 19.4137 3.61583 18.7786 3.61583 16.7209V15.1692H7.49185H11.3679V16.7209ZM21.7039 16.7209C21.7039 17.5744 21.6156 18.5709 21.5075 18.9355C21.2454 19.8202 19.9075 21.1545 19.0204 21.4159C17.5062 21.862 16.299 21.5475 15.1576 20.4092C14.1596 19.4137 13.9519 18.7786 13.9519 16.7209V15.1692H17.8279H21.7039V16.7209ZM32.04 16.7209C32.04 17.5744 31.9516 18.5709 31.8436 18.9355C31.5815 19.8202 30.2436 21.1545 29.3565 21.4159C27.8422 21.862 26.635 21.5475 25.4937 20.4092C24.4956 19.4137 24.2879 18.7786 24.2879 16.7209V15.1692H28.1639H32.04V16.7209ZM42.376 16.7209C42.376 17.5744 42.2877 18.5709 42.1796 18.9355C41.9175 19.8202 40.5796 21.1545 39.6925 21.4159C38.1783 21.862 36.9711 21.5475 35.8297 20.4092C34.8317 19.4137 34.624 18.7786 34.624 16.7209V15.1692H38.5H42.376V16.7209ZM52.7121 16.7209C52.7121 17.5744 52.6237 18.5709 52.5157 18.9355C52.2536 19.8202 50.9157 21.1545 50.0286 21.4159C48.5143 21.862 47.3071 21.5475 46.1658 20.4092C45.1677 19.4137 44.96 18.7786 44.96 16.7209V15.1692H48.836H52.7121V16.7209ZM63.0481 16.7209C63.0481 17.5744 62.9598 18.5709 62.8517 18.9355C62.5896 19.8202 61.2517 21.1545 60.3646 21.4159C58.8504 21.862 57.6432 21.5475 56.5018 20.4092C55.5038 19.4137 55.2961 18.7786 55.2961 16.7209V15.1692H59.1721H63.0481V16.7209ZM73.3842 16.7209C73.3842 17.5744 73.2958 18.5709 73.1878 18.9355C72.9257 19.8202 71.5878 21.1545 70.7007 21.4159C69.1864 21.862 67.9792 21.5475 66.8379 20.4092C65.8398 19.4137 65.6321 18.7786 65.6321 16.7209V15.1692H69.5081H73.3842V16.7209ZM13.3807 22.3557C13.8088 22.7648 14.6394 23.3265 15.2263 23.6039C16.1891 24.0589 16.4438 24.1082 17.8279 24.1082C19.212 24.1082 19.4666 24.0589 20.4295 23.6039C21.0164 23.3265 21.8341 22.7772 22.2464 22.3832L22.9959 21.667L23.7455 22.3832C24.1578 22.7772 24.9754 23.3265 25.5623 23.6039C26.5252 24.0589 26.7799 24.1082 28.1639 24.1082C29.548 24.1082 29.8027 24.0589 30.7656 23.6039C31.3525 23.3265 32.1701 22.7772 32.5824 22.3832L33.332 21.667L34.0815 22.3832C34.4938 22.7772 35.3115 23.3265 35.8984 23.6039C36.8613 24.0589 37.1159 24.1082 38.5 24.1082C39.8841 24.1082 40.1388 24.0589 41.1016 23.6039C41.6885 23.3265 42.5062 22.7772 42.9185 22.3832L43.668 21.667L44.4175 22.3832C44.8299 22.7772 45.6475 23.3265 46.2344 23.6039C47.1973 24.0589 47.452 24.1082 48.836 24.1082C50.2201 24.1082 50.4748 24.0589 51.4377 23.6039C52.0246 23.3265 52.8422 22.7772 53.2546 22.3832L54.0041 21.667L54.7536 22.3832C55.1659 22.7772 55.9836 23.3265 56.5705 23.6039C57.5334 24.0589 57.788 24.1082 59.1721 24.1082C60.5562 24.1082 60.8109 24.0589 61.7737 23.6039C62.3606 23.3265 63.1783 22.7772 63.5906 22.3832L64.3401 21.667L65.0669 22.3615C65.8007 23.0627 66.9556 23.7311 67.772 23.9271L68.2161 24.0338V45.3714V66.709H62.8616H57.507L58.4869 66.0775C59.1584 65.6445 59.6107 65.2013 59.925 64.6682L60.3834 63.8904V52.5356V41.1807L59.9355 40.4208C59.6891 40.0029 59.1803 39.4524 58.805 39.1976C57.5826 38.3679 40.2116 28.4335 39.6468 28.2412C38.9448 28.0022 38.0515 28.0028 37.3532 28.2431C36.8068 28.4311 19.9604 38.0593 18.3623 39.0969C17.8344 39.4398 17.3562 39.9262 17.0703 40.411L16.6166 41.1807V52.5356V63.8904L17.075 64.6682C17.3893 65.2013 17.8416 65.6445 18.5131 66.0775L19.493 66.709H14.1384H8.78385V45.3714V24.0338L9.22798 23.9271C10.0658 23.726 11.1928 23.0624 11.8856 22.3623C12.2671 21.977 12.5843 21.6504 12.5906 21.6367C12.5969 21.623 12.9524 21.9464 13.3807 22.3557ZM48.0003 35.8847C53.0344 38.774 57.3168 41.3147 57.5167 41.5307L57.8801 41.9235V52.5356V63.1476L57.5167 63.5404C57.028 64.0685 38.9388 74.4399 38.5065 74.4399C38.0774 74.4399 19.976 64.0656 19.4833 63.5374L19.1199 63.1476V52.5444C19.1199 42.6828 19.1396 41.9174 19.4025 41.6017C19.8031 41.1206 38.0168 30.6505 38.4717 30.6399C38.6819 30.635 42.877 32.9442 48.0003 35.8847ZM37.2887 35.6275C35.7708 36.5114 35.916 34.7121 35.916 52.6412V68.4953L36.3125 68.8906C36.8369 69.4137 37.5791 69.4137 38.1035 68.8906L38.5 68.4953V61.4817V54.4683H41.0105C43.4608 54.4683 43.5308 54.4588 43.9175 54.0729C44.1675 53.8237 44.314 53.4935 44.314 53.1798C44.314 52.8661 44.1675 52.5359 43.9175 52.2867C43.5308 51.9008 43.4608 51.8913 41.0105 51.8913H38.5V44.9484C38.5 38.6863 38.525 38.015 38.7552 38.1031C38.8955 38.1569 39.9482 38.7445 41.0943 39.4089C43.4602 40.7805 44.0571 40.9129 44.6252 40.1926C45.0211 39.6909 45.0516 39.2083 44.7176 38.7329C44.3793 38.2513 38.9711 35.1391 38.4897 35.1489C38.2733 35.1535 37.7329 35.3688 37.2887 35.6275ZM30.564 40.6027L30.1827 40.9104L30.102 49.4061L30.0212 57.9016L27.3598 51.2559C25.642 46.9662 24.5843 44.5305 24.3766 44.3852C23.8808 44.0391 23.1921 44.1111 22.7464 44.5558L22.3499 44.951V53.824V62.6971L22.7464 63.0923C23.2275 63.5723 23.941 63.6085 24.4719 63.18L24.8532 62.8723L24.9339 57.5974L25.0147 52.3225L27.6761 58.9687C29.3939 63.259 30.4516 65.6946 30.6593 65.8399C31.1551 66.186 31.8437 66.114 32.2895 65.6693L32.686 65.2741V53.1798V41.0855L32.2895 40.6903C31.8084 40.2103 31.0949 40.1741 30.564 40.6027ZM47.1172 40.4546C46.6818 40.6299 46.252 41.2305 46.252 41.6639C46.252 42.2067 46.6742 42.6483 47.7853 43.2681L48.836 43.854V53.5976V63.3413L49.2325 63.7366C49.7569 64.2597 50.4992 64.2597 51.0236 63.7366L51.4201 63.3413V54.395C51.4201 49.4746 51.4624 45.4488 51.5141 45.4488C51.5657 45.4488 52.042 45.7025 52.5724 46.0126C53.7714 46.7133 54.4857 46.755 54.9613 46.1519C55.3949 45.6022 55.3856 45.0834 54.9327 44.5785C54.5659 44.1695 47.9254 40.2862 47.6251 40.305C47.5361 40.3106 47.3076 40.378 47.1172 40.4546Z" fill="url(#paint0_linear_167_5202)" stroke="url(#paint1_linear_167_5202)"/>
<defs>
<linearGradient id="paint0_linear_167_5202" x1="38.5" y1="1" x2="38.5" y2="77" gradientUnits="userSpaceOnUse">
<stop stop-color="#A031F1"/>
<stop offset="1" stop-color="#D623FF"/>
</linearGradient>
<linearGradient id="paint1_linear_167_5202" x1="38.5" y1="1" x2="38.5" y2="77" gradientUnits="userSpaceOnUse">
<stop stop-color="#A031F1"/>
<stop offset="1" stop-color="#D623FF"/>
</linearGradient>
</defs>
</svg>
