<svg width="80" height="80" viewBox="0 0 80 80" fill="none" xmlns="http://www.w3.org/2000/svg">
<circle cx="40" cy="40" r="40" fill="url(#paint0_linear_167_5229)"/>
<path d="M30.8903 59.624C28.0476 59.624 25.5689 58.896 23.4543 57.44C21.3396 55.984 19.7103 53.904 18.5663 51.2C17.4223 48.496 16.8503 45.324 16.8503 41.684C16.8503 36.1373 18.0983 31.7693 20.5943 28.58C23.1249 25.356 26.5569 23.744 30.8903 23.744C35.2236 23.744 38.6383 25.356 41.1342 28.58C43.6303 31.7693 44.8783 36.1373 44.8783 41.684C44.8783 47.196 43.6129 51.564 41.0823 54.788C38.5863 58.012 35.1889 59.624 30.8903 59.624ZM26.0023 49.9C27.1463 51.772 28.7756 52.708 30.8903 52.708C33.0049 52.708 34.6169 51.772 35.7263 49.9C36.8356 47.9933 37.3903 45.272 37.3903 41.736C37.3903 38.1653 36.8183 35.4267 35.6743 33.52C34.5649 31.6133 32.9703 30.66 30.8903 30.66C28.7756 30.66 27.1463 31.6133 26.0023 33.52C24.8929 35.392 24.3383 38.1133 24.3383 41.684C24.3383 45.2547 24.8929 47.9933 26.0023 49.9ZM48.6235 24.42H61.3115V59H54.0315V30.92H48.6235V24.42Z" fill="white"/>
<defs>
<linearGradient id="paint0_linear_167_5229" x1="40" y1="0" x2="40" y2="80" gradientUnits="userSpaceOnUse">
<stop stop-color="#A031F1"/>
<stop offset="1" stop-color="#D623FF"/>
</linearGradient>
</defs>
</svg>
