<svg width="83" height="83" viewBox="0 0 83 83" fill="none" xmlns="http://www.w3.org/2000/svg">
<path d="M68.2756 8.03223C64.5846 8.03223 61.582 11.0348 61.582 14.7258C61.582 18.4168 64.5846 21.4193 68.2756 21.4193C71.9666 21.4193 74.9691 18.4168 74.9691 14.7258C74.9691 11.0348 71.9666 8.03223 68.2756 8.03223ZM68.2756 18.7419C66.0613 18.7419 64.2595 16.9401 64.2595 14.7258C64.2595 12.5115 66.0613 10.7096 68.2756 10.7096C70.4899 10.7096 72.2917 12.5115 72.2917 14.7258C72.2917 16.9401 70.4899 18.7419 68.2756 18.7419Z" fill="#B72BF6"/>
<path d="M72.2891 58.9033H74.9665V61.5807H72.2891V58.9033Z" fill="#B72BF6"/>
<path d="M66.9375 58.9033H69.6149V61.5807H66.9375V58.9033Z" fill="#B72BF6"/>
<path d="M61.582 58.9033H64.2595V61.5807H61.582V58.9033Z" fill="#B72BF6"/>
<path d="M37.4844 18.7422H40.1618V21.4196H37.4844V18.7422Z" fill="#B72BF6"/>
<path d="M42.8398 18.7422H45.5173V21.4196H42.8398V18.7422Z" fill="#B72BF6"/>
<path d="M48.1953 18.7422H50.8727V21.4196H48.1953V18.7422Z" fill="#B72BF6"/>
<path d="M80.2037 18.7421H83V10.7098H80.2037C79.8702 10.7098 79.5624 10.4851 79.4029 10.1032C79.254 9.74344 79.3108 9.37111 79.5505 9.13146L81.5328 7.14909L75.851 1.46608L73.8699 3.44844C73.6291 3.68929 73.2555 3.74427 72.8659 3.58351C72.5115 3.43649 72.2903 3.13408 72.2903 2.79523V0H64.2581V2.79523C64.2581 3.13408 64.037 3.43649 63.6515 3.59607C63.2911 3.74488 62.9176 3.6887 62.6785 3.44905L60.6974 1.46668L55.0156 7.14909L56.998 9.13023C57.2376 9.37107 57.2938 9.7434 57.1318 10.1343C56.986 10.4851 56.6782 10.7098 56.3447 10.7098H53.5484V13.3872H34.8065V0.000100968H24.0968V8.03236H18.742V2.67752H8.03227V13.3872H0V42.8388C0 51.8082 5.54792 59.497 13.3871 62.6808V65.5968C13.3871 67.3395 14.5101 68.8121 16.0645 69.3667V78.9839C16.0645 81.1982 17.8664 83 20.0807 83H22.7581C24.9724 83 26.7742 81.1982 26.7742 78.9839V69.3667C27.9079 68.9627 28.8008 68.0692 29.2055 66.9355H39.6433L37.8587 72.2903H32.1292C30.6525 72.2903 29.4518 73.491 29.4518 74.9677V80.3226C29.4518 81.7993 30.6525 83 32.1292 83H66.9357C68.4125 83 69.6131 81.7993 69.6131 80.3226V74.9677C69.6131 73.491 68.4125 72.2903 66.9357 72.2903H61.2062L59.4216 66.9355H77.6449C79.1217 66.9355 80.3223 65.7348 80.3223 64.258V23.5154L81.5326 22.3051L79.5502 20.324C79.3106 20.0831 79.2544 19.7108 79.4163 19.32C79.5622 18.9673 79.8699 18.7426 80.2034 18.7426L80.2037 18.7421ZM53.5488 16.0647V18.7421H56.3451C56.6786 18.7421 56.9864 18.9668 57.146 19.3487C57.2948 19.7091 57.2386 20.0808 57.0001 20.3204L55.0178 22.3028L60.6996 27.9858L62.6807 26.0035C62.9216 25.7626 63.2951 25.7076 63.6847 25.8684C64.0397 26.0154 64.2603 26.3166 64.2603 26.6555V27.7079L55.8677 40.2959C55.5515 40.2164 55.2276 40.1615 54.8876 40.1615C53.8513 40.1615 52.9153 40.5655 52.2036 41.2121L45.0868 37.3794C45.3611 36.5708 45.5165 35.7078 45.5165 34.8066C45.5165 30.377 41.9139 26.7744 37.4843 26.7744C36.8938 26.7744 36.3195 26.8425 35.7655 26.9644C35.4494 26.6782 35.1374 26.3835 34.8069 26.1182V16.0647L53.5488 16.0647ZM69.6133 53.5486H64.2585V32.5346L66.3132 29.4515H69.6133V53.5486ZM34.8069 42.8389C34.8069 50.2203 28.8012 56.226 21.4198 56.226C14.0383 56.226 8.03264 50.2203 8.03264 42.8389C8.03264 35.4575 14.0383 29.4518 21.4198 29.4518C24.4947 29.4518 27.4374 30.5078 29.8135 32.4239C29.5781 33.1775 29.452 33.9777 29.452 34.8066C29.452 35.4574 29.5374 36.0862 29.685 36.6927L22.958 39.5752C21.9779 38.313 20.4611 37.484 18.7422 37.484C15.7892 37.484 13.3873 39.8859 13.3873 42.8389C13.3873 45.7918 15.7892 48.1937 18.7422 48.1937C21.6952 48.1937 24.097 45.7918 24.097 42.8389C24.097 42.5634 24.0558 42.2992 24.0152 42.0345L30.7398 39.1539C31.6918 40.6252 33.1081 41.762 34.7828 42.3614C34.7882 42.5216 34.8067 42.677 34.8067 42.8389L34.8069 42.8389ZM21.4198 42.8389C21.4198 44.3156 20.2191 45.5163 18.7423 45.5163C17.2656 45.5163 16.0649 44.3156 16.0649 42.8389C16.0649 41.3621 17.2656 40.1614 18.7423 40.1614C20.2191 40.1614 21.4198 41.3621 21.4198 42.8389ZM32.1294 34.8066C32.1294 31.8536 34.5313 29.4518 37.4843 29.4518C40.4373 29.4518 42.8391 31.8536 42.8391 34.8066C42.8391 37.7596 40.4373 40.1614 37.4843 40.1614C34.5313 40.1614 32.1294 37.7596 32.1294 34.8066ZM43.8139 39.736L45.5165 40.6528V53.5486H39.9406C41.7724 50.3931 42.8391 46.7427 42.8391 42.8389C42.8391 42.1803 42.7979 41.5217 42.7387 40.8685C43.1326 40.5254 43.4924 40.1465 43.8139 39.736L43.8139 39.736ZM48.194 42.0949L50.9329 43.5698C50.9024 43.7694 50.8713 43.9702 50.8713 44.1776C50.8713 45.9204 51.9943 47.393 53.5488 47.9476V53.5486H48.1939L48.194 42.0949ZM56.2262 44.1776C56.2262 44.9163 55.6262 45.5163 54.8875 45.5163C54.1488 45.5163 53.5488 44.9163 53.5488 44.1776C53.5488 43.4389 54.1488 42.8389 54.8875 42.8389C55.6262 42.8389 56.2262 43.4389 56.2262 44.1776ZM56.2262 47.9475C57.7807 47.3935 58.9037 45.921 58.9037 44.1776C58.9037 43.2763 58.5959 42.4533 58.0927 41.7829L61.5811 36.5512V53.549H56.2263L56.2262 47.9475ZM32.1294 2.67771V24.3097C30.4506 23.3368 28.6541 22.6005 26.7746 22.117V2.6774L32.1294 2.67771ZM24.0972 10.71V21.6055C23.2139 21.4962 22.3233 21.4197 21.4198 21.4197C20.5107 21.4197 19.6221 21.4944 18.7423 21.6055V10.71H24.0972ZM16.0649 5.35513V22.125C14.165 22.6162 12.3685 23.3555 10.7101 24.3177V5.35544L16.0649 5.35513ZM2.6778 16.0648H8.03264V26.1452C5.86255 27.8897 4.03686 30.0425 2.6778 32.4921V16.0648ZM2.6778 42.839C2.6778 32.504 11.0847 24.0971 21.4198 24.0971C25.6779 24.0971 29.7317 25.5201 33.0277 28.1293C32.2711 28.6355 31.6113 29.2714 31.0651 29.9981C28.2926 27.9123 24.9243 26.7745 21.4198 26.7745C12.5616 26.7745 5.35522 33.9809 5.35522 42.839C5.35522 51.6972 12.5616 58.9035 21.4198 58.9035C30.2779 58.9035 37.4843 51.6972 37.4843 42.839C38.419 42.839 39.3118 42.6705 40.1467 42.3759C40.1509 42.53 40.1617 42.6848 40.1617 42.839C40.1617 53.174 31.7547 61.581 21.4197 61.581C11.0847 61.581 2.67775 53.174 2.67775 42.839H2.6778ZM22.7585 80.3229H20.081C19.3424 80.3229 18.7423 79.7229 18.7423 78.9842V69.6132H24.0972V78.9842C24.0972 79.7229 23.4971 80.3229 22.7585 80.3229ZM25.4359 66.9358H17.4036C16.6649 66.9358 16.0649 66.3358 16.0649 65.5971V63.5532C17.7795 63.9973 19.5682 64.2585 21.4198 64.2585C23.2713 64.2585 25.06 63.9973 26.7746 63.5532V65.5971C26.7746 66.3358 26.1746 66.9358 25.4359 66.9358ZM66.939 80.3229H32.1294V74.9681H66.9359L66.939 80.3229ZM58.3862 72.2907H40.6801L42.4646 66.9358H56.6011L58.3862 72.2907ZM29.4532 64.2584V62.6812C32.8669 61.294 35.8402 59.0559 38.1148 56.2261H77.6473V64.2584H29.4532ZM77.6468 53.5487H72.292V26.6567C72.292 26.3178 72.5131 26.0154 72.8986 25.8559C73.2572 25.7046 73.6295 25.762 73.8716 26.0029L75.8527 27.9852L77.6469 26.1911L77.6468 53.5487ZM76.9345 18.32C76.3679 19.679 76.6518 21.2078 77.6588 22.2142L77.7484 22.3026L75.8527 24.1984L75.7642 24.1087C74.7548 23.1023 73.226 22.8154 71.8443 23.3951C70.4889 23.9551 69.6146 25.2346 69.6146 26.6564V26.7741H66.9371V26.6564C66.9371 25.2346 66.0628 23.9551 64.6829 23.3843C63.3257 22.8195 61.797 23.1016 60.7875 24.1098L60.699 24.1983L58.8033 22.3025L58.8929 22.2129C59.8993 21.2076 60.1832 19.6789 59.6065 18.2948C59.0483 16.9399 57.767 16.0644 56.3463 16.0644H56.2274V13.387H56.3463C57.7681 13.387 59.0494 12.5115 59.6166 11.1315C60.1832 9.77252 59.8993 8.24376 58.8923 7.23735L58.8032 7.1489L60.699 5.25313L60.7874 5.34278C61.7969 6.3492 63.3256 6.63607 64.7073 6.05637C66.0628 5.49637 66.9371 4.2169 66.9371 2.79512V2.67738H69.6145V2.79512C69.6145 4.2169 70.4889 5.4964 71.8688 6.06723C73.226 6.63379 74.7547 6.34992 75.7642 5.34169L75.8526 5.25324L77.7484 7.14901L77.6587 7.23866C76.6523 8.24388 76.3684 9.77257 76.9452 11.1567C77.5033 12.5116 78.7846 13.3871 80.2053 13.3871H80.3243V16.0645H80.2053C78.7847 16.0645 77.5034 16.9401 76.9344 18.32H76.9345Z" fill="#B72BF6"/>
</svg>
