<svg width="85" height="85" viewBox="0 0 85 85" fill="none" xmlns="http://www.w3.org/2000/svg">
<path fill-rule="evenodd" clip-rule="evenodd" d="M63.2582 1.22254C61.6204 1.94095 60.8068 4.03096 61.5701 5.55832C61.7129 5.84386 62.7888 7.04527 63.9613 8.22802L66.0927 10.3784L59.6877 16.7863C56.165 20.3106 53.2459 23.1923 53.201 23.1902C53.1559 23.1881 49.2139 19.5764 44.441 15.1644L35.7628 7.14245L20.5579 22.3449L5.35321 37.5476L6.28104 38.4853L7.20871 39.4231L21.507 25.1225L35.8053 10.822L44.5312 18.8858L53.257 26.9496L61.5388 18.6661L69.8205 10.3824L66.8484 7.39377C64.7617 5.29564 63.8933 4.31586 63.9338 4.10559C63.989 3.81891 64.359 3.80609 72.5863 3.80609H81.1811L81.2231 12.3133C81.2658 20.9595 81.2591 21.0734 80.7031 21.0825C80.6186 21.0838 78.9939 19.5352 77.0926 17.641L73.6358 14.1969L73.0094 14.8423C65.2849 22.7992 53.7303 34.7111 53.5005 34.9541C53.1999 35.2723 53.094 35.1738 44.4791 26.5582L35.7619 17.8403L24.5729 29.0324L13.3841 40.2244L14.2691 41.1208C14.7559 41.6137 15.2099 41.9982 15.2782 41.9752C15.3464 41.952 19.9571 37.3884 25.5243 31.8335C31.0913 26.2787 35.7091 21.7339 35.7862 21.7339C35.8632 21.7339 39.7944 25.6034 44.5221 30.3328C49.2498 35.0622 53.167 38.9317 53.2268 38.9317C53.2867 38.9317 57.9185 34.2198 63.5196 28.4608L73.7035 17.99L76.3069 20.576C77.7387 21.9982 79.1438 23.2786 79.4293 23.4214C81.0594 24.236 83.3437 23.2165 83.8626 21.4427C83.9821 21.0337 84.0223 18.0113 83.9884 11.9874L83.9386 3.13311L83.5034 2.47554C83.2642 2.1139 82.7897 1.64469 82.4491 1.43297L81.8299 1.04796L72.8274 1.01097C65.0412 0.97901 63.7483 1.00757 63.2582 1.22254ZM67.9611 34.47V43.799H69.2573H70.5534L70.5956 35.8085L70.6376 27.818L71.9758 27.771L73.314 27.7238V35.7614V43.799H74.6117H75.9093V34.47V25.141H71.9352H67.9611V34.47ZM35.8439 45.178V59.861H35.0469H34.2498L33.6681 58.8207L33.0864 57.7802V45.4357V33.0909H29.1123H25.1382L25.1368 39.8646L25.1355 46.6382L24.1825 46.9353C22.9319 47.3251 21.6991 48.1708 20.9996 49.1187C20.3643 49.9798 19.7853 51.6286 19.7853 52.5771V53.209H21.0496H22.3137L22.5062 52.2908C22.6121 51.7857 22.8584 51.1395 23.0535 50.8547C23.4647 50.2544 24.722 49.4075 25.0278 49.5248C25.1426 49.569 25.323 50.0692 25.4284 50.6364C25.7037 52.1173 26.8601 54.3581 28.1623 55.9341C31.149 59.5484 31.8968 60.7892 32.6308 63.3492C32.9427 64.4367 33.0027 65.0286 33.0013 66.9997C32.9995 69.7122 32.7701 70.8291 31.7743 72.9774C30.9508 74.7538 29.9968 76.0676 28.4933 77.496C26.9932 78.9213 25.3106 79.9285 23.2272 80.6485L21.6507 81.1934L18.4066 81.1909C15.1859 81.1885 15.1511 81.1847 13.6091 80.6664C8.64896 78.999 5.02977 74.9911 3.97136 69.9937C3.58985 68.1925 3.65279 65.3862 4.11557 63.5614C4.74412 61.0829 5.70342 59.3645 7.86922 56.8368C9.98328 54.3699 10.9259 52.6612 11.37 50.4915C11.4842 49.9338 11.6389 49.4775 11.7139 49.4775C11.7888 49.4775 12.1299 49.6202 12.472 49.7948C13.5486 50.3442 13.9961 51.0525 14.3472 52.7629C14.4378 53.2047 14.4513 53.209 15.7332 53.209H17.0278L17.0259 52.6818C17.0233 51.9773 16.6679 50.6833 16.2555 49.8766C15.2463 47.9021 12.8007 46.5637 10.1937 46.559L9.11806 46.5571L9.00468 47.9767C8.76802 50.9404 8.15098 52.3362 5.90229 54.9937C4.1931 57.0136 3.57444 57.906 2.75237 59.5365C-0.584413 66.1542 0.95186 74.4603 6.44325 79.4932C9.6235 82.4079 13.1142 83.8132 17.5955 83.9826C21.1945 84.1187 24.2036 83.4575 27.0236 81.9108L28.179 81.2771H37.7408H47.3028L48.786 82.2285C49.6019 82.7517 50.8012 83.3539 51.451 83.567L52.6325 83.9541H62.2028C71.7411 83.9541 71.7753 83.9529 72.4373 83.5986C74.4295 82.5323 75.2068 79.9082 74.0905 78.0174L73.7012 77.3581L74.1565 76.4555C74.781 75.2171 74.7834 74.0177 74.164 72.8315L73.7163 71.9744L74.164 71.0866C74.4978 70.4246 74.6117 69.9618 74.6117 69.2667C74.6117 68.5644 74.5014 68.1236 74.164 67.4775L73.7163 66.6204L74.164 65.7326C75.1749 63.7282 74.4344 61.419 72.4524 60.3948C71.6867 59.9992 71.4095 59.9538 69.3805 59.8922C68.1448 59.8545 67.1501 59.7562 67.1501 59.6717C67.1501 59.5878 67.604 57.9717 68.1589 56.0803C69.1133 52.826 69.1675 52.5497 69.1675 50.9376C69.1675 49.5347 69.1008 49.0668 68.7902 48.2859C67.8223 45.8528 65.4832 44.1247 62.8067 43.8653C62.0376 43.7908 61.7547 43.84 61.158 44.1522C60.7617 44.3595 60.3035 44.7135 60.1395 44.9389C59.9756 45.1644 59.4546 46.8615 58.9815 48.7102C58.248 51.5772 58.0319 52.2018 57.5125 52.9561C57.1777 53.4424 56.6726 54.016 56.3902 54.2307C55.7957 54.6827 54.9149 55.156 54.6682 55.156C54.5519 55.156 54.4979 52.9423 54.4979 48.1795V41.2031H50.5238H46.5497V50.532V59.861H45.1709H43.7921V45.178V30.495H39.818H35.8439V45.178ZM41.1968 46.476V59.861H39.818H38.4393V46.476V33.0909H39.818H41.1968V46.476ZM30.4911 45.0969C30.4911 50.1832 30.4363 54.3425 30.3694 54.3397C30.1405 54.3303 29.2093 52.955 28.7117 51.8912C27.8135 49.9717 27.7395 49.2367 27.7363 42.2171L27.7335 35.8491H29.1123H30.4911V45.0969ZM57.2554 38.5261V41.2031H58.5531H59.8507V39.824V38.4449H61.2295H62.6083V39.824V41.2031H63.9059H65.2036V38.5261V35.8491H61.2295H57.2554V38.5261ZM51.9025 49.9609V56.1228L51.2831 56.439C50.9423 56.6129 50.3513 57.0159 49.97 57.3346C49.5886 57.6534 49.2469 57.9141 49.2107 57.9141C49.1745 57.9141 49.145 54.7382 49.145 50.8565V43.799H50.5238H51.9025V49.9609ZM63.7645 46.805C64.8042 47.1593 65.6012 47.8839 66.122 48.9487C66.8426 50.4219 66.7456 51.3773 65.4091 55.9672L64.299 59.7799L62.9092 59.8863C61.3992 60.002 60.5646 60.327 59.7917 61.0999C58.5518 62.3402 58.259 64.2593 59.0707 65.8259L59.5073 66.6684L59.0726 67.4425C58.4582 68.5366 58.4574 69.9962 59.0707 71.1799L59.5073 72.0224L59.0726 72.7965C58.4582 73.8906 58.4574 75.3502 59.0707 76.5339L59.5073 77.3764L59.0707 78.1505C58.7081 78.7934 58.6342 79.1238 58.6342 80.1008V81.2771L55.7955 81.2717C52.5374 81.2657 51.9757 81.1367 50.2182 79.9913L49.145 79.292V70.5872V61.8822L50.5643 60.4787C52.1303 58.9299 52.7475 58.5506 54.4859 58.0687C56.3105 57.563 57.5339 56.8642 58.7388 55.6394C60.1052 54.2505 60.6313 53.1558 61.3885 50.1264C62.3434 46.3059 62.2534 46.5571 62.6667 46.5571C62.8704 46.5571 63.3645 46.6687 63.7645 46.805ZM12.9415 59.9611C12.8557 61.6567 12.5773 62.301 11.2589 63.8554C9.71077 65.6808 9.07962 67.343 9.07962 69.5956C9.07962 72.0594 9.90493 73.9878 11.7577 75.8521C13.7121 77.8192 16.3545 78.8313 19.0022 78.627C24.6863 78.1886 28.827 72.7872 27.4854 67.5611C27.1186 66.1327 26.5686 65.1175 25.4145 63.7396C24.1757 62.2604 23.8589 61.5277 23.7288 59.8412L23.6303 58.5631H22.7104C21.4744 58.5631 20.2063 58.9515 19.1852 59.6428L18.3417 60.2139L17.7253 59.7194C16.8758 59.0379 15.882 58.7127 14.3318 58.6085L13.0143 58.5199L12.9415 59.9611ZM16.8028 62.7192C16.9266 63.0153 17.0278 63.406 17.0278 63.5874C17.0278 63.8926 17.1289 63.9171 18.3852 63.9171H19.7427L19.8351 63.2277C19.9052 62.705 20.0731 62.4048 20.5292 61.9867L21.1309 61.4351L21.4934 62.4366C21.9116 63.5915 22.3476 64.2899 23.4305 65.5395C24.7637 67.0779 25.3014 68.8012 24.9841 70.5179C24.7413 71.8319 24.2509 72.7416 23.1734 73.8773L22.2329 74.8685L22.327 73.8077C22.4881 71.994 21.5438 69.0188 20.3904 67.7046C18.8252 65.9218 16.7905 66.4859 15.506 69.0587C14.8052 70.4624 14.3914 72.2445 14.4584 73.5712L14.5175 74.74L14.0544 74.3986C13.4544 73.9563 12.5768 72.7569 12.1248 71.7614C11.8474 71.1502 11.7671 70.667 11.7653 69.5956C11.7625 67.9006 12.1715 66.903 13.5217 65.3111C14.4361 64.2331 15.0375 63.1996 15.3966 62.0902L15.5942 61.48L16.086 61.8303C16.3566 62.0231 16.6791 62.423 16.8028 62.7192ZM46.5497 70.6502V78.6812H38.9061C31.5002 78.6812 31.2695 78.6719 31.4851 78.3814C31.6076 78.2165 32.065 77.6141 32.5018 77.0429C33.4778 75.7665 34.7414 73.1727 35.1813 71.5425C35.9377 68.7404 35.9713 65.1568 35.2626 62.9031C35.1787 62.6363 35.5182 62.6191 40.8615 62.6191H46.5497V70.6502ZM71.4828 62.9842C71.6665 63.185 71.8655 63.5098 71.925 63.7062C72.0514 64.1236 71.665 64.9661 71.2791 65.1143C71.1347 65.1696 69.0017 65.215 66.5391 65.215C62.1651 65.215 62.0527 65.2069 61.686 64.8623C61.1413 64.3504 61.1671 63.4046 61.738 62.9555C62.147 62.6336 62.3586 62.6191 66.6572 62.6191C71.108 62.6191 71.1518 62.6224 71.4828 62.9842ZM71.4085 68.295C71.6335 68.472 71.8639 68.8012 71.9205 69.0266C72.0387 69.4979 71.6746 70.3164 71.2791 70.4683C71.1347 70.5236 69.0017 70.569 66.5391 70.569C62.1651 70.569 62.0527 70.5609 61.686 70.2163C61.1413 69.7044 61.1671 68.7586 61.738 68.3095C62.1466 67.9879 62.3594 67.9732 66.5824 67.9732C70.742 67.9732 71.0231 67.992 71.4085 68.295ZM18.8188 70.0954C19.2712 70.9823 19.8126 73.144 19.6867 73.5606C19.4316 74.4062 18.5756 74.8355 17.765 74.5244C17.2843 74.3399 16.9871 73.5152 17.1088 72.7038C17.2768 71.5831 18.1399 69.4333 18.422 69.4333C18.4544 69.4333 18.633 69.7312 18.8188 70.0954ZM71.4085 73.6491C71.6335 73.8261 71.8639 74.1553 71.9205 74.3806C72.0387 74.8519 71.6746 75.6704 71.2791 75.8223C71.1347 75.8776 69.0017 75.923 66.5391 75.923C62.1651 75.923 62.0527 75.9149 61.686 75.5703C61.1716 75.087 61.182 74.2523 61.7088 73.7255L62.1069 73.3272H66.5532C70.7419 73.3272 71.023 73.3458 71.4085 73.6491ZM71.4085 79.0031C71.6335 79.1801 71.8639 79.5093 71.9205 79.7346C72.0387 80.2059 71.6746 81.0245 71.2791 81.1763C71.1347 81.2316 69.0017 81.2771 66.5391 81.2771C62.1651 81.2771 62.0527 81.269 61.686 80.9243C61.1716 80.441 61.182 79.6063 61.7088 79.0795L62.1069 78.6812H66.5532C70.7419 78.6812 71.023 78.6998 71.4085 79.0031Z" fill="#B72BF6" stroke="#B72BF6" stroke-width="0.5"/>
</svg>
