<svg width="85" height="85" viewBox="0 0 85 85" fill="none" xmlns="http://www.w3.org/2000/svg">
<path d="M65.6576 12.2605L65.4049 11.2482C65.2785 10.8684 64.8989 10.4892 64.5198 10.4892H60.472C60.472 4.16287 56.0451 1 51.7439 1C47.317 1 43.0158 4.28977 43.0158 10.4892H38.968C38.5883 10.4892 38.2093 10.742 38.0829 11.2482L37.8301 12.2605H19.3623V25.7985C15.9469 25.6721 11.0139 26.1783 6.96616 29.4675C2.79196 32.8837 0.768372 38.7033 1.02106 46.4218V66.7924C1.02106 67.0452 1.14743 67.2985 1.27379 67.4249L3.92977 70.3351L1.90678 70.3356C1.40073 70.3356 1.02163 70.7154 1.02163 71.221V82.9876C1.02163 83.4938 1.40131 84 2.03373 84H84V12.2624L65.6576 12.2605ZM30.3663 70.8402H26.9509V60.7185C26.9509 60.4657 26.8246 60.2123 26.5713 59.9595C26.4449 59.8331 17.5905 52.4945 18.3493 42.7532C20.4999 46.0429 23.7883 46.9284 27.5829 45.916C30.6186 50.9767 35.0461 47.1812 35.4252 44.5245C35.6779 42.8796 34.7927 40.8555 33.0219 38.7044L26.1917 31.2394L26.9505 23.5215C26.9505 23.0154 26.6977 22.6362 26.1917 22.5092V19.2194H35.8049V19.4722C35.6785 20.1048 36.0576 20.611 36.69 20.611L66.4162 20.6115C67.0487 20.6115 67.4284 19.979 67.3014 19.4728V19.22H76.9146V77.0407H31.3786V71.7267C31.3792 71.2205 30.8731 70.8413 30.3671 70.8413L30.3663 70.8402ZM43.7741 12.3873C44.2802 12.3873 44.7862 12.0075 44.7862 11.3749V9.85634C44.7862 6.06092 47.8219 3.0245 51.6164 3.0245C55.4109 3.0245 58.4466 6.06092 58.4466 9.85634V11.5012C58.4466 12.0074 58.8263 12.5136 59.4587 12.5136H63.7593L65.2775 18.8399L37.8292 18.8393L39.3474 12.513L43.7743 12.5136L43.7741 12.3873ZM21.2588 14.158H37.0701L36.3113 17.3209H24.4211V24.0264L22.7766 26.0505C22.3969 25.9241 21.8915 25.9241 21.2584 25.7977L21.2588 14.158ZM6.07968 72.1055C6.83845 72.1055 7.34452 71.0931 6.7121 70.4606L2.9176 66.2854V46.2951C2.66429 39.0834 4.43522 33.8965 8.10389 30.8587C13.9226 26.051 22.7771 28.075 22.7771 28.075C23.1568 28.2014 23.5359 28.075 23.7892 27.6953L24.6743 26.5565L24.1683 31.4907C24.1683 31.7435 24.1683 31.9969 24.421 32.2497L31.5046 39.9676C34.6667 43.89 33.0228 45.2816 33.0228 45.2816L32.8965 45.408C32.2641 46.1669 31.6316 46.5467 30.9992 46.4203C29.987 46.2939 29.1018 44.7754 28.8486 44.2692C28.5958 43.8894 28.2161 43.6366 27.7101 43.763C25.3068 44.522 23.2832 44.522 21.765 43.5102C19.3617 42.1187 18.8556 39.0823 18.8556 39.0823C18.7292 38.7025 18.3495 38.3233 17.9704 38.3233C17.4644 38.3233 17.0853 38.5761 16.9583 38.9559C13.6693 50.3427 22.9034 59.1997 24.927 60.9712V71.599C24.927 72.1052 25.3067 72.6114 25.9391 72.6114H29.3545L29.3539 75.395H2.79113V72.2322L6.07968 72.1055ZM2.91757 82.1002V77.2924H29.4804V82.1002H2.91757ZM81.9738 82.1002H31.3781V78.9373H78.8119V17.3216H66.9217L66.1629 14.1588H81.9742L81.9738 82.1002Z" fill="#B72BF6" stroke="#B72BF6"/>
<path d="M51.6187 13.3994C53.6423 13.3994 55.4132 11.7545 55.4132 9.60401C55.4132 7.57993 53.7687 5.80859 51.6187 5.80859C49.5951 5.80859 47.8242 7.45348 47.8242 9.60401C47.8242 11.7545 49.4687 13.3994 51.6187 13.3994ZM51.6187 7.70623C52.6308 7.70623 53.516 8.5916 53.516 9.60401C53.516 10.6164 52.6309 11.5018 51.6187 11.5018C50.6065 11.5018 49.7214 10.6164 49.7214 9.60401C49.7214 8.59165 50.4808 7.70623 51.6187 7.70623Z" fill="#B72BF6" stroke="#B72BF6"/>
<path d="M59.3351 25.293H37.832V36.1737H59.4618L59.4624 25.293H59.3351ZM57.4378 34.2759H39.7288V27.1906H57.5645L57.5639 34.2759H57.4378Z" fill="#B72BF6" stroke="#B72BF6"/>
<path d="M59.3351 39.3369H37.832V50.2177H59.4618L59.4624 39.3369H59.3351ZM57.4378 48.4463H39.7288V41.2347H57.5645L57.5639 48.4463H57.4378Z" fill="#B72BF6" stroke="#B72BF6"/>
<path d="M59.3351 53.5068H37.832V64.3876H59.4618L59.4624 53.5068H59.3351ZM57.4378 62.4904H39.7288V55.4051H57.5645L57.5639 62.4904H57.4378Z" fill="#B72BF6" stroke="#B72BF6"/>
<path d="M74.7648 41.6134L73.3736 40.3477L67.4285 47.0538L65.6576 43.3842L63.8867 44.2702L66.9224 50.3432L74.7648 41.6134Z" fill="#B72BF6" stroke="#B72BF6"/>
<path d="M74.7648 55.7837L73.3736 54.5186L67.4285 61.0976L65.6576 57.555L63.8867 58.3145L66.9224 64.5138L74.7648 55.7837Z" fill="#B72BF6" stroke="#B72BF6"/>
<path d="M74.7648 27.5698L73.3736 26.3047L67.4285 32.8838L65.6576 29.3411L63.8867 30.2265L66.9224 36.2999L74.7648 27.5698Z" fill="#B72BF6" stroke="#B72BF6"/>
<path d="M74.0079 65.7794H47.6985C47.5721 65.7794 47.4458 65.7794 47.3188 65.9057L39.7292 69.7012C38.9705 70.0809 38.9705 71.0927 39.7292 71.3461L47.3188 75.1415C47.4452 75.2679 47.5716 75.2679 47.6985 75.2679L74.0079 75.2684C74.5139 75.2684 75.02 74.8887 75.02 74.2561V66.6647C75.02 66.2855 74.5139 65.7793 74.0079 65.7793V65.7794ZM46.6863 68.3097V72.8647L42.1324 70.5873L46.6863 68.3097ZM73.1238 73.3708H48.584V67.677H72.9971V73.3708H73.1238Z" fill="#B72BF6" stroke="#B72BF6"/>
</svg>
