<svg width="70" height="70" viewBox="0 0 70 70" fill="none" xmlns="http://www.w3.org/2000/svg">
<path fill-rule="evenodd" clip-rule="evenodd" d="M9.79406 0.200421C4.99233 1.06831 1.0389 5.06414 0.19525 9.90215C-0.897333 16.1674 2.88964 22.031 9.0824 23.663C9.609 23.8019 10.24 23.9164 10.4844 23.9177L10.9289 23.9201V33.501V43.0821L11.2647 43.4178C11.7088 43.862 12.3374 43.862 12.7816 43.4178L13.1174 43.0821V39.5879V36.0937H15.8529H18.5885V40.0695C18.5885 42.3104 18.645 44.1508 18.718 44.2872C18.7893 44.4204 22.2354 46.463 26.3762 48.8263L33.9049 53.1232L33.9062 55.0056L33.9076 56.8881L28.9494 56.8522L23.9912 56.8163L23.9548 56.4744C23.6941 54.0216 22.3641 51.3442 20.4648 49.4488C15.7853 44.7788 8.23205 44.7986 3.53769 49.4933C-1.20139 54.2324 -1.17595 61.8249 3.59487 66.5311C8.30331 71.1758 15.8414 71.1499 20.518 66.4731C21.5136 65.4776 22.4779 64.0784 23.0327 62.8245C23.3991 61.9963 23.8782 60.2886 23.9507 59.552L23.9912 59.1416L33.612 59.0732L43.2327 59.0049L43.4942 58.6819C43.8582 58.2323 43.8274 57.628 43.4198 57.2205L43.0842 56.8847H39.5901H36.0961L36.0973 55.004L36.0984 53.1232L43.6239 48.8326C47.7628 46.4727 51.2091 44.4301 51.2822 44.2936C51.3595 44.149 51.4152 42.3818 51.4152 40.0695V36.0937H54.1524H56.8897L56.8538 41.0521L56.8179 46.0105L56.476 46.0469C54.0223 46.3076 51.2846 47.6687 49.4288 49.5503C44.756 54.288 44.811 61.854 49.5523 66.5311C54.2893 71.204 61.8555 71.149 66.5323 66.4075C71.1524 61.7238 71.1524 54.2347 66.5323 49.5503C64.6765 47.6687 61.9388 46.3076 59.4851 46.0469L59.1432 46.0105L59.0748 36.3893L59.0064 26.7683L58.6834 26.5068C58.2339 26.1428 57.6296 26.1736 57.2221 26.5812L56.8863 26.9168V30.4111V33.9052H54.1508H51.4152V29.9295C51.4152 27.5999 51.3598 25.8503 51.2814 25.7038C51.2078 25.5664 47.762 23.5238 43.6239 21.1648L36.1002 16.8757L36.0981 14.9933L36.0961 13.1108L41.045 13.1468L45.994 13.1826L46.174 14.2491C46.5545 16.5018 47.7573 18.768 49.4951 20.5057C54.2341 25.2449 61.8263 25.2195 66.5323 20.4485C71.1815 15.7353 71.1521 8.22041 66.466 3.53423C61.78 -1.15209 54.2659 -1.1815 49.5521 3.46789C47.6706 5.32376 46.3095 8.0616 46.0488 10.5153L46.0125 10.8573L36.3916 10.9257L26.7709 10.9941L26.5094 11.317C26.1455 11.7666 26.1762 12.3709 26.5838 12.7784L26.9195 13.1142H30.4136H33.9076L33.9062 14.995L33.9049 16.8757L26.3762 21.1726C22.2354 23.536 18.7893 25.5786 18.718 25.7118C18.645 25.8482 18.5885 27.6886 18.5885 29.9295V33.9052H15.8529H13.1174V28.9126V23.9201H13.5422C14.7097 23.9201 17.1059 23.0557 18.5562 22.1114C21.3199 20.3119 23.2924 17.3414 23.851 14.1378C25.2973 5.84381 18.0925 -1.29954 9.79406 0.200421ZM14.9639 2.6368C15.5657 2.82843 16.4582 3.21744 16.9471 3.50126C18.088 4.16343 19.8794 5.95487 20.5415 7.09578C21.6222 8.95794 22.0838 11.4426 21.7359 13.5248C21.5723 14.5045 21.1294 15.931 20.9162 16.1656C20.8609 16.2264 20.6088 15.9495 20.3561 15.5501C19.7436 14.5827 18.4312 13.2174 17.6029 12.6858C17.1751 12.4113 16.959 12.1863 17.0058 12.0643C17.6355 10.4232 17.6227 8.97518 16.9657 7.57124C16.394 6.34963 15.6052 5.54972 14.3702 4.9394C13.3936 4.45669 13.2644 4.42851 12.0231 4.42851C10.7819 4.42851 10.6526 4.45669 9.67602 4.9394C7.00036 6.26168 5.87591 9.26885 7.02252 12.0351C7.08955 12.197 6.9354 12.3701 6.44341 12.6858C5.61768 13.2157 4.3031 14.5819 3.69567 15.5416C3.44592 15.9362 3.18809 16.2262 3.12285 16.1858C3.0576 16.1455 2.83643 15.6072 2.63127 14.9895C2.29807 13.9859 2.25868 13.6701 2.26183 12.02C2.26484 10.4154 2.3108 10.0359 2.61239 9.12468C3.15198 7.4945 3.87075 6.33363 5.1038 5.10039C6.61342 3.59072 8.32752 2.6725 10.3134 2.30975C11.5139 2.09035 13.7397 2.24697 14.9639 2.6368ZM60.9213 2.6368C61.5231 2.82843 62.4156 3.21744 62.9045 3.50126C64.0454 4.16343 65.8368 5.95487 66.4989 7.09578C67.5796 8.95794 68.0412 11.4426 67.6933 13.5248C67.5297 14.5045 67.0868 15.931 66.8736 16.1656C66.8183 16.2264 66.5662 15.9495 66.3135 15.5501C65.701 14.5827 64.3886 13.2174 63.5603 12.6858C63.1326 12.4113 62.9164 12.1863 62.9632 12.0643C63.593 10.4232 63.5801 8.97518 62.9231 7.57124C62.3514 6.34963 61.5626 5.54972 60.3277 4.9394C59.3511 4.45669 59.2218 4.42851 57.9805 4.42851C56.7393 4.42851 56.61 4.45669 55.6334 4.9394C52.9578 6.26168 51.8333 9.26885 52.9799 12.0351C53.047 12.197 52.8928 12.3701 52.4008 12.6858C51.5751 13.2157 50.2605 14.5819 49.6531 15.5416C49.4033 15.9362 49.1455 16.2262 49.0803 16.1858C49.015 16.1455 48.7938 15.6072 48.5887 14.9895C48.2555 13.9859 48.2161 13.6701 48.2192 12.02C48.2223 10.4154 48.2682 10.0359 48.5698 9.12468C49.1094 7.4945 49.8282 6.33363 51.0612 5.10039C52.5708 3.59072 54.2849 2.6725 56.2708 2.30975C57.4713 2.09035 59.6971 2.24697 60.9213 2.6368ZM13.0331 6.71498C13.7844 6.93697 14.9175 8.07008 15.1395 8.82143C15.5184 10.1039 15.2512 11.1264 14.2846 12.093C12.9008 13.4768 11.1454 13.4768 9.76164 12.093C8.37786 10.7092 8.37786 8.9552 9.76164 7.56836C10.7211 6.60678 11.7546 6.33718 13.0331 6.71498ZM58.9905 6.71498C60.166 7.06227 61.2632 8.56688 61.2632 9.83144C61.2632 11.5263 59.6754 13.1142 57.9805 13.1142C56.2857 13.1142 54.6979 11.5263 54.6979 9.83144C54.6979 8.97176 55.0108 8.27813 55.7191 7.56836C56.6786 6.60678 57.712 6.33718 58.9905 6.71498ZM8.86246 14.2591C8.94795 14.3621 9.40178 14.6225 9.87093 14.8378C10.6192 15.1811 10.885 15.2294 12.0395 15.2318C13.3231 15.2344 13.3839 15.2199 14.5267 14.6403L15.6984 14.0463L16.2885 14.4547C17.5427 15.3226 18.8215 16.9362 19.1657 18.0848L19.3293 18.6308L18.564 19.3264C17.5472 20.2502 16.2996 20.9747 14.9639 21.4168C14.0023 21.7351 13.6457 21.7796 12.0231 21.7838C10.302 21.7883 10.0952 21.7599 8.97831 21.3655C8.31918 21.1328 7.43751 20.7352 7.01897 20.482C6.00599 19.8692 4.77389 18.7594 4.77389 18.4597C4.77389 18.0697 5.5404 16.6565 6.15234 15.9183C6.79096 15.148 8.1467 14.0753 8.48441 14.0732C8.60682 14.0724 8.77697 14.156 8.86246 14.2591ZM54.8199 14.2591C54.9054 14.3621 55.3592 14.6225 55.8283 14.8378C56.5767 15.1811 56.8424 15.2294 57.997 15.2318C59.2805 15.2344 59.3413 15.2199 60.4841 14.6403L61.6558 14.0463L62.246 14.4547C63.5001 15.3226 64.779 16.9362 65.1231 18.0848L65.2867 18.6308L64.5214 19.3264C63.5046 20.2502 62.257 20.9747 60.9213 21.4168C59.9597 21.7351 59.6031 21.7796 57.9805 21.7838C56.2595 21.7883 56.0527 21.7599 54.9357 21.3655C54.2766 21.1328 53.3949 20.7352 52.9764 20.482C51.9634 19.8692 50.7313 18.7594 50.7313 18.4597C50.7313 18.0697 51.4978 16.6565 52.1098 15.9183C52.7484 15.148 54.1041 14.0753 54.4418 14.0732C54.5642 14.0724 54.7344 14.156 54.8199 14.2591ZM42.1615 22.8258L49.224 26.8609L49.2237 34.9995L49.2235 43.1381L42.1132 47.1975L35.0029 51.2568L27.8927 47.1975L20.7825 43.1381L20.7821 34.9995L20.7818 26.8609L27.8576 22.8062C31.7494 20.5761 34.9706 18.7603 35.0162 18.7711C35.0617 18.782 38.2771 20.6065 42.1615 22.8258ZM34.0444 22.5433C32.6304 22.975 31.7361 23.9035 31.269 25.4247C31.2344 25.5375 29.9049 26.4511 28.3148 27.4548C26.7246 28.4585 25.3628 29.3932 25.2887 29.5317C25.2145 29.6703 25.1538 30.8063 25.1538 32.0559C25.1538 34.2859 25.1601 34.3342 25.4896 34.6637C25.7012 34.8754 25.9816 34.9995 26.248 34.9995C26.5145 34.9995 26.7949 34.8754 27.0065 34.6637C27.3295 34.3407 27.3423 34.2588 27.3423 32.4946V30.661L29.3028 29.415C30.3812 28.7298 31.3507 28.1401 31.4571 28.1045C31.5714 28.0664 31.8189 28.2691 32.0611 28.5995C33.6486 30.7644 37.1099 30.4223 38.3891 27.974C38.9144 26.969 38.9144 25.5218 38.3891 24.5167C37.569 22.9473 35.6203 22.0623 34.0444 22.5433ZM36.1517 25.1436C36.5109 25.5029 36.5748 25.6691 36.5748 26.2454C36.5748 26.8294 36.5125 26.9863 36.1277 27.3712C35.7428 27.7561 35.5859 27.8184 35.0018 27.8184C34.4178 27.8184 34.2609 27.7561 33.876 27.3712C33.4926 26.9878 33.4289 26.8283 33.4289 26.2537C33.4289 25.5507 33.7775 24.9949 34.3863 24.7275C34.8977 24.5029 35.7001 24.6919 36.1517 25.1436ZM42.9972 30.9582C42.3186 31.6367 42.7994 32.8109 43.7556 32.8109C44.3179 32.8109 44.8498 32.279 44.8498 31.7167C44.8498 31.1544 44.3179 30.6224 43.7556 30.6224C43.4892 30.6224 43.2088 30.7465 42.9972 30.9582ZM42.9972 35.3353C42.6741 35.6582 42.6614 35.7402 42.6614 37.5044V39.3379L40.7008 40.5839C39.6225 41.2692 38.653 41.8589 38.5466 41.8944C38.4322 41.9326 38.1848 41.7299 37.9426 41.3994C37.4089 40.6716 36.3201 40.0639 35.375 39.9662C33.1624 39.7379 31.1721 41.5315 31.1721 43.7536C31.1721 45.3636 32.3378 46.9477 33.8452 47.386C35.7179 47.9304 37.5326 47.1369 38.4279 45.3821C38.5747 45.0943 38.6948 44.7686 38.6948 44.6585C38.6948 44.5471 40.0004 43.6272 41.6406 42.583C43.2608 41.5515 44.6456 40.5968 44.7181 40.4613C44.7906 40.3259 44.8498 39.1927 44.8498 37.943C44.8498 35.7131 44.8436 35.6648 44.5141 35.3353C44.3025 35.1235 44.0221 34.9995 43.7556 34.9995C43.4892 34.9995 43.2088 35.1235 42.9972 35.3353ZM25.4896 37.5238C24.8111 38.2022 25.2918 39.3765 26.248 39.3765C26.8103 39.3765 27.3423 38.8446 27.3423 38.2823C27.3423 37.7199 26.8103 37.188 26.248 37.188C25.9816 37.188 25.7012 37.3121 25.4896 37.5238ZM36.1517 42.6518C36.5109 43.0111 36.5748 43.1773 36.5748 43.7536C36.5748 44.3376 36.5125 44.4945 36.1277 44.8794C35.7428 45.2643 35.5859 45.3266 35.0018 45.3266C34.4178 45.3266 34.2609 45.2643 33.876 44.8794C33.4926 44.496 33.4289 44.3365 33.4289 43.7619C33.4289 43.0589 33.7775 42.5031 34.3863 42.2357C34.8977 42.0111 35.7001 42.2001 36.1517 42.6518ZM14.9639 48.5958C15.5657 48.7875 16.4582 49.1765 16.9471 49.4603C18.088 50.1225 19.8794 51.9139 20.5415 53.0548C21.6222 54.917 22.0838 57.4016 21.7359 59.4839C21.5723 60.4635 21.1294 61.89 20.9162 62.1246C20.8609 62.1855 20.6088 61.9085 20.3561 61.5091C19.7436 60.5417 18.4312 59.1764 17.6029 58.6448C17.1751 58.3703 16.959 58.1453 17.0058 58.0233C17.6355 56.3822 17.6227 54.9342 16.9657 53.5303C16.394 52.3087 15.6052 51.5087 14.3702 50.8984C13.3936 50.4157 13.2644 50.3875 12.0231 50.3875C10.7819 50.3875 10.6526 50.4157 9.67602 50.8984C7.00036 52.2207 5.87591 55.2279 7.02252 57.9942C7.08955 58.156 6.9354 58.3292 6.44341 58.6448C5.61768 59.1747 4.3031 60.5409 3.69567 61.5006C3.44592 61.8952 3.18809 62.1852 3.12285 62.1448C3.0576 62.1045 2.83643 61.5662 2.63127 60.9485C2.29807 59.945 2.25868 59.6291 2.26183 57.979C2.26484 56.3744 2.3108 55.9949 2.61239 55.0837C3.15198 53.4535 3.87075 52.2926 5.1038 51.0594C6.61342 49.5497 8.32752 48.6315 10.3134 48.2688C11.5139 48.0494 13.7397 48.206 14.9639 48.5958ZM60.9213 48.5958C61.5231 48.7875 62.4156 49.1765 62.9045 49.4603C64.0454 50.1225 65.8368 51.9139 66.4989 53.0548C67.5796 54.917 68.0412 57.4016 67.6933 59.4839C67.5297 60.4635 67.0868 61.89 66.8736 62.1246C66.8183 62.1855 66.5662 61.9085 66.3135 61.5091C65.701 60.5417 64.3886 59.1764 63.5603 58.6448C63.1326 58.3703 62.9164 58.1453 62.9632 58.0233C63.593 56.3822 63.5801 54.9342 62.9231 53.5303C62.3514 52.3087 61.5626 51.5087 60.3277 50.8984C59.3511 50.4157 59.2218 50.3875 57.9805 50.3875C56.7393 50.3875 56.61 50.4157 55.6334 50.8984C52.9578 52.2207 51.8333 55.2279 52.9799 57.9942C53.047 58.156 52.8928 58.3292 52.4008 58.6448C51.5751 59.1747 50.2605 60.5409 49.6531 61.5006C49.4033 61.8952 49.1455 62.1852 49.0803 62.1448C49.015 62.1045 48.7938 61.5662 48.5887 60.9485C48.2555 59.945 48.2161 59.6291 48.2192 57.979C48.2223 56.3744 48.2682 55.9949 48.5698 55.0837C49.1094 53.4535 49.8282 52.2926 51.0612 51.0594C52.5708 49.5497 54.2849 48.6315 56.2708 48.2688C57.4713 48.0494 59.6971 48.206 60.9213 48.5958ZM13.0331 52.674C14.2086 53.0213 15.3058 54.5259 15.3058 55.7905C15.3058 57.4853 13.7179 59.0732 12.0231 59.0732C11.1628 59.0732 10.47 58.7604 9.76164 58.052C8.37786 56.6682 8.37786 54.9142 9.76164 53.5274C10.7211 52.5658 11.7546 52.2962 13.0331 52.674ZM58.9905 52.674C60.166 53.0213 61.2632 54.5259 61.2632 55.7905C61.2632 57.4853 59.6754 59.0732 57.9805 59.0732C57.1202 59.0732 56.4274 58.7604 55.7191 58.052C54.3353 56.6682 54.3353 54.9142 55.7191 53.5274C56.6786 52.5658 57.712 52.2962 58.9905 52.674ZM8.86246 60.2181C8.94795 60.3211 9.40178 60.5816 9.87093 60.7968C10.6192 61.1402 10.885 61.1885 12.0395 61.1908C13.3231 61.1934 13.3839 61.1789 14.5267 60.5993L15.6984 60.0053L16.2885 60.4137C17.5427 61.2816 18.8215 62.8952 19.1657 64.0438L19.3293 64.5898L18.564 65.2854C17.5472 66.2092 16.2996 66.9337 14.9639 67.3758C14.0023 67.6941 13.6457 67.7386 12.0231 67.7428C10.302 67.7473 10.0952 67.7189 8.97831 67.3245C8.31918 67.0919 7.43751 66.6942 7.01897 66.4411C6.00599 65.8283 4.77389 64.7184 4.77389 64.4187C4.77389 64.0287 5.5404 62.6155 6.15234 61.8773C6.79096 61.1071 8.1467 60.0343 8.48441 60.0322C8.60682 60.0314 8.77697 60.115 8.86246 60.2181ZM54.8199 60.2181C54.9054 60.3211 55.3592 60.5816 55.8283 60.7968C56.5767 61.1402 56.8424 61.1885 57.997 61.1908C59.2805 61.1934 59.3413 61.1789 60.4841 60.5993L61.6558 60.0053L62.246 60.4137C63.5001 61.2816 64.779 62.8952 65.1231 64.0438L65.2867 64.5898L64.5214 65.2854C63.5046 66.2092 62.257 66.9337 60.9213 67.3758C59.9597 67.6941 59.6031 67.7386 57.9805 67.7428C56.2595 67.7473 56.0527 67.7189 54.9357 67.3245C54.2766 67.0919 53.3949 66.6942 52.9764 66.4411C51.9634 65.8283 50.7313 64.7184 50.7313 64.4187C50.7313 64.0287 51.4978 62.6155 52.1098 61.8773C52.7484 61.1071 54.1041 60.0343 54.4418 60.0322C54.5642 60.0314 54.7344 60.115 54.8199 60.2181Z" fill="url(#paint0_linear_215_5237)"/>
<defs>
<linearGradient id="paint0_linear_215_5237" x1="35" y1="0" x2="35" y2="70" gradientUnits="userSpaceOnUse">
<stop stop-color="#A031F1"/>
<stop offset="1" stop-color="#D623FF"/>
</linearGradient>
</defs>
</svg>
