<svg width="71" height="70" viewBox="0 0 71 70" fill="none" xmlns="http://www.w3.org/2000/svg">
<path fill-rule="evenodd" clip-rule="evenodd" d="M31.9283 4.29338V8.58662L30.9611 8.87605C30.4291 9.03506 29.8981 9.20145 29.7812 9.24574C29.6002 9.3141 29.5684 9.15031 29.5684 8.14939V6.97266H28.3884H27.2085V8.79566V10.6187L26.4797 11.113C26.0789 11.385 25.298 12.0501 24.7444 12.591L23.738 13.5745V9.11148V4.64844H22.558H21.3781V10.9576V17.2666L20.9623 18.5451C19.6505 22.5781 19.9321 26.4187 21.8115 30.1282C23.3279 33.1209 25.7185 35.4469 28.7852 36.9131C30.6005 37.7811 32.2438 38.2389 34.1114 38.3969C37.1854 38.6571 39.8636 38.1495 42.5453 36.7983C46.9668 34.5706 49.9912 30.4272 50.7438 25.5664C51.1072 23.2184 50.909 20.9928 50.1203 18.5682L49.6971 17.2666V12.7349V8.20312H48.5171H47.3372V10.8958V13.5885L46.2984 12.5714C45.7271 12.012 45.1962 11.5335 45.1184 11.5079C45.0278 11.4782 44.9772 10.2434 44.9772 8.05506V4.64844H43.7973H42.6173V7.24609C42.6173 8.6748 42.5947 9.84375 42.5671 9.84375C42.5395 9.84375 42.1044 9.65959 41.6002 9.43441C39.9837 8.71254 38.1762 8.31756 36.1276 8.2384L34.2882 8.16744V4.08379V0H33.1083H31.9283V4.29338ZM42.6173 1.16211V2.32422H43.7973H44.9772V1.16211V0H43.7973H42.6173V1.16211ZM27.2085 3.48633V4.64844H28.3884H29.5684V3.48633V2.32422H28.3884H27.2085V3.48633ZM57.4416 2.53641C57.1496 2.69254 57.0009 2.95025 56.7778 3.68799C56.2883 5.30688 55.1232 6.44957 53.4832 6.9192C52.5102 7.1977 52.1958 7.50613 52.1958 8.18193C52.1958 8.84857 52.45 9.07812 53.5944 9.44576C55.2944 9.99168 56.3207 11.0659 56.864 12.868C57.0881 13.6109 57.4725 13.9453 58.1023 13.9453C58.6084 13.9453 59.0686 13.5223 59.2178 12.9199C59.6529 11.1629 60.9036 9.89147 62.7187 9.36059C63.6003 9.10273 64.0541 8.59482 63.9335 8.00064C63.8176 7.42984 63.4986 7.17322 62.589 6.9192C61.0054 6.47719 59.7735 5.26271 59.333 3.70932C58.9854 2.48363 58.3163 2.06869 57.4416 2.53641ZM58.8438 7.36777L59.6615 8.17305L58.8537 8.96041L58.0459 9.74764L57.2312 8.95781L56.4165 8.16813L57.1866 7.38103C57.6102 6.94805 57.9725 6.58684 57.9915 6.57822C58.0105 6.56961 58.3942 6.92494 58.8438 7.36777ZM38.7998 10.9278C39.4106 11.0852 40.5038 11.5054 41.2291 11.8619L42.5479 12.5098L42.6173 15.5859L42.6867 18.6621L43.832 18.7018L44.9772 18.7415L44.9829 16.651L44.9885 14.5605L45.4106 15.0391C46.5752 16.3595 47.5737 18.2168 48.0565 19.9609C48.3304 20.9501 48.3783 21.4486 48.3783 23.3105C48.3783 25.8959 48.2037 26.7106 47.2057 28.7793C46.4247 30.3983 45.5796 31.538 44.3098 32.6847C37.9067 38.4664 27.7472 36.577 23.8771 28.8847C22.2182 25.5876 22.1494 21.3963 23.699 18.0454C24.3106 16.7228 25.0361 15.6801 26.1443 14.5312C28.0838 12.5202 30.309 11.309 33.1267 10.7304C34.4773 10.4531 37.3439 10.5529 38.7998 10.9278ZM33.6445 13.0009C31.8307 13.2995 29.7448 14.3486 28.3044 15.6868C26.3018 17.5473 25.232 19.7069 24.9168 22.5244L24.8213 23.3789H25.998H27.1747L27.3276 22.3664C27.6389 20.3052 28.3015 19.0009 29.7676 17.5643C30.3274 17.0155 31.1169 16.4127 31.6071 16.1595C32.5288 15.6834 34.3179 15.1758 35.0739 15.1758H35.5376V14.0137V12.8516L34.9476 12.8676C34.623 12.8763 34.0367 12.9363 33.6445 13.0009ZM34.2882 18.0983V18.6966L33.533 18.7582C32.0815 18.8769 30.9914 19.9801 30.8543 21.4694C30.7257 22.8665 31.566 24.1551 32.8906 24.592C33.1527 24.6786 34.3083 24.9048 35.4587 25.095C37.5857 25.4466 37.8975 25.5788 37.8975 26.1297C37.8975 26.7017 37.5609 26.7969 35.5376 26.7969C33.4486 26.7969 33.1777 26.7094 33.1777 26.0352C33.1777 25.7097 33.1545 25.7031 31.9977 25.7031H30.8177V26.2232C30.8177 27.59 32.0918 28.9361 33.5233 29.0816L34.2741 29.1579L34.3158 29.7206L34.3576 30.2832H35.5376H36.7175L36.7593 29.7206L36.8011 29.1579L37.5418 29.0827C40.3885 28.7932 41.2419 25.002 38.7955 23.513C38.4526 23.3043 37.6053 23.0925 36.0509 22.8271C34.8142 22.6159 33.6925 22.4008 33.5582 22.349C33.241 22.2268 33.1121 21.7042 33.3095 21.3408C33.4563 21.0708 33.5775 21.0547 35.4632 21.0547C37.6324 21.0547 37.8975 21.1377 37.8975 21.8163C37.8975 22.1419 37.9207 22.1484 39.0775 22.1484H40.2574V21.626C40.2574 21.3272 40.0942 20.7866 39.8757 20.3623C39.3691 19.3784 38.596 18.8444 37.5553 18.7593L36.7869 18.6966V18.0983V17.5H35.5376H34.2882V18.0983ZM43.8015 24.0283C43.5063 26.3577 42.4825 28.2327 40.7154 29.6803C39.5042 30.6726 37.498 31.4453 36.1331 31.4453H35.5376V32.6074V33.7695H36.2789C38.0727 33.7695 40.5177 32.8181 42.2386 31.4502C44.4518 29.6912 45.7967 27.1947 46.1635 24.165L46.2585 23.3789H45.0711H43.8838L43.8015 24.0283ZM21.1698 45.0369C19.2591 45.4006 16.8355 46.4368 15.5496 47.4399L15.0218 47.8516H7.51092H0V49.0137V50.1758H7.07975H14.1595V58.9258V67.6758H7.07975H0V68.8379V70L23.9115 69.9984C49.507 69.9966 48.4304 70.0246 49.8224 69.3238C50.9184 68.772 69.0924 56.7678 69.623 56.2453C69.9069 55.9658 70.3333 55.3317 70.5708 54.8364C70.9497 54.0462 71.0024 53.7929 70.9999 52.7734C70.9977 51.7954 70.9358 51.479 70.6094 50.776C69.6081 48.6184 67.029 47.3979 64.8183 48.0353C64.404 48.1547 61.0039 49.8771 57.2627 51.8626C53.5215 53.8482 50.4443 55.4594 50.4244 55.4433C50.4045 55.427 50.4917 55.1426 50.6183 54.8114C50.9492 53.9446 50.9466 52.2061 50.613 51.3211C50.0347 49.7868 48.7878 48.6132 47.2185 48.1257C46.3847 47.8666 45.9555 47.8516 39.4188 47.8516H32.5013L31.3769 47.1103C30.1155 46.2788 28.6766 45.6471 27.0939 45.2303C25.7237 44.8693 22.5883 44.7671 21.1698 45.0369ZM27.2423 47.7113C28.4614 48.1147 29.7951 48.8287 31.22 49.8408L31.6917 50.1758H38.9343H46.1768L46.9304 50.5518C49.4483 51.8081 48.8947 55.3937 46.1022 55.9152C45.6633 55.9973 42.7428 56.0547 39.0133 56.0547H32.6708L32.3602 56.3803C31.7466 57.0236 32.0121 57.9991 32.8675 58.2445C33.2228 58.3464 36.028 58.3801 41.7844 58.3518L50.1829 58.3105L57.6646 54.3201C61.8359 52.0953 65.376 50.2916 65.6657 50.2435C68.0199 49.8516 69.6302 52.6996 68.0571 54.4729C67.5546 55.0393 48.673 67.3688 48.0586 67.5318C47.6841 67.6311 42.6289 67.6659 32.05 67.6422L16.5888 67.6074L16.5532 58.6197L16.5175 49.6321L17.1084 49.2074C18.0807 48.5086 19.5483 47.8423 20.8839 47.4932C21.9837 47.2057 22.3767 47.1707 24.0156 47.214C25.6887 47.2583 26.0347 47.3117 27.2423 47.7113ZM7.05921 58.5691C4.6693 59.4099 3.99548 62.4898 5.81053 64.2774C7.50204 65.9431 10.3716 65.4962 11.4749 63.395C11.8246 62.7289 11.8827 61.3672 11.5933 60.6207C10.9093 58.8569 8.86746 57.9329 7.05921 58.5691ZM9.09887 61.0388C9.83322 61.7619 9.30807 62.9453 8.25277 62.9453C7.60712 62.9453 7.16304 62.5079 7.16304 61.8721C7.16304 60.8327 8.36466 60.3155 9.09887 61.0388Z" fill="url(#paint0_linear_215_5239)"/>
<defs>
<linearGradient id="paint0_linear_215_5239" x1="35.5" y1="0" x2="35.5" y2="70" gradientUnits="userSpaceOnUse">
<stop stop-color="#A031F1"/>
<stop offset="1" stop-color="#D623FF"/>
</linearGradient>
</defs>
</svg>
