<svg width="70" height="70" viewBox="0 0 70 70" fill="none" xmlns="http://www.w3.org/2000/svg">
<path fill-rule="evenodd" clip-rule="evenodd" d="M6.10244 0.270679C5.76816 0.533638 5.74219 0.630999 5.74219 1.62362V2.69309L4.63518 2.74342C3.62305 2.78936 3.50014 2.82642 3.19963 3.1758C2.79795 3.64278 2.78578 3.9443 3.15014 4.40745C3.4043 4.73058 3.52967 4.76586 4.5515 4.80196L5.67383 4.84161L5.71348 5.96414C5.74957 6.98616 5.78484 7.11156 6.10791 7.36576C7.06945 8.12223 7.79297 7.42306 7.79297 5.73728V4.77324H8.88672C10.1069 4.77324 10.5273 4.54324 10.5273 3.87538C10.5273 3.05957 9.96557 2.72208 8.6074 2.72208H7.82195L7.77164 1.61473C7.72789 0.65069 7.67977 0.473744 7.40018 0.247296C6.98359 -0.0900505 6.55102 -0.0822561 6.10244 0.270679ZM62.5998 0.247296C62.3202 0.473744 62.2721 0.65069 62.2284 1.61473L62.178 2.72208H61.3926C60.0344 2.72208 59.4727 3.05957 59.4727 3.87538C59.4727 4.54064 59.894 4.77324 61.0992 4.77324H62.179L62.2271 5.9476C62.2698 6.98575 62.3129 7.15244 62.5982 7.3834C63.0149 7.72089 63.4482 7.71501 63.8921 7.36576C64.2152 7.11156 64.2504 6.98616 64.2865 5.96414L64.3262 4.84161L65.4485 4.80196C66.4703 4.76586 66.5957 4.73058 66.8499 4.40745C67.2142 3.9443 67.202 3.64278 66.8004 3.1758C66.4999 2.82642 66.377 2.78936 65.3648 2.74342L64.2578 2.69309V1.62362C64.2578 0.630999 64.2318 0.533638 63.8976 0.270679C63.449 -0.0822561 63.0164 -0.0900505 62.5998 0.247296ZM33.8382 0.468548C33.1086 0.862506 32.936 1.11343 31.708 3.56566C31.0424 4.89453 30.4485 6.01241 30.3882 6.04974C30.3278 6.08694 29.1516 6.28043 27.7744 6.47953C24.9497 6.88798 24.9774 6.88101 24.3689 7.33117C23.5189 7.95978 23.1391 9.30821 23.5223 10.3367C23.6012 10.5483 24.5666 11.6264 25.6677 12.7323L27.6697 14.743L27.2188 17.3683C26.9592 18.8796 26.8007 20.1959 26.8453 20.4705C27.0349 21.6393 28.1855 22.5946 29.4101 22.5998C30.0403 22.6026 30.4772 22.4061 34.1454 20.4709L34.9996 20.0202L35.9911 20.5388C39.659 22.4579 39.9827 22.6026 40.603 22.5998C41.8141 22.5945 42.9661 21.6332 43.1547 20.4705C43.1993 20.1959 43.0408 18.8796 42.7812 17.3683L42.3303 14.743L44.3323 12.7323C45.4334 11.6264 46.3988 10.5483 46.4777 10.3367C46.8546 9.32503 46.4651 7.95691 45.6155 7.30874C45.1098 6.92299 44.9266 6.8821 41.1523 6.31038L39.5801 6.07231L38.3299 3.61092C36.816 0.630179 36.559 0.360794 35.1632 0.292285C34.51 0.26015 34.1307 0.310609 33.8382 0.468548ZM35.2203 2.27972C35.3038 2.33496 35.9331 3.494 36.6189 4.85529C38.2427 8.07916 38.0384 7.93161 41.6047 8.45807C43.0808 8.67591 44.352 8.89347 44.4295 8.94133C44.8574 9.20592 44.5164 9.70148 42.6379 11.5455C41.5752 12.5887 40.6216 13.6435 40.5188 13.8894C40.2571 14.516 40.2809 14.915 40.7422 17.6271C40.966 18.9433 41.1499 20.095 41.1507 20.1863C41.1517 20.2777 41.0331 20.4162 40.8875 20.4941C40.6703 20.6105 40.1692 20.4028 38.0942 19.3366C36.1013 18.3125 35.4458 18.0374 35.0003 18.0374C34.554 18.0374 33.9023 18.3118 31.9093 19.3385C29.8208 20.4144 29.3375 20.6146 29.1158 20.4959C28.9684 20.417 28.8483 20.2777 28.8493 20.1863C28.8501 20.095 29.034 18.9433 29.2578 17.6271C29.7206 14.9061 29.7433 14.5169 29.4764 13.878C29.3701 13.6233 28.4286 12.5828 27.3573 11.536C25.4812 9.70271 25.1401 9.20743 25.5705 8.94133C25.648 8.89347 26.9194 8.67591 28.3958 8.45794C31.9761 7.92942 31.7512 8.09119 33.3685 4.88045C34.5015 2.63088 34.7744 2.17935 35 2.17935C35.0376 2.17935 35.1367 2.22447 35.2203 2.27972ZM15.6118 12.573C15.3523 12.8147 15.3125 12.9966 15.3125 13.9404V15.029H14.4442C13.3562 15.029 12.7966 15.2195 12.597 15.6576C12.38 16.1338 12.4004 16.3074 12.7204 16.7144C12.9746 17.0375 13.1 17.0728 14.1218 17.1089L15.2441 17.1485L15.2838 18.2711C15.3199 19.2931 15.3552 19.4185 15.6782 19.6727C16.2984 20.1606 16.9583 19.979 17.2122 19.2506C17.2953 19.0121 17.3633 18.4263 17.3633 17.9486V17.0802H18.457C19.6772 17.0802 20.0977 16.8502 20.0977 16.1823C20.0977 15.3638 19.5362 15.029 18.1632 15.029H17.3633V14.2289C17.3633 13.2836 17.1578 12.6137 16.8111 12.428C16.4117 12.2143 15.9347 12.272 15.6118 12.573ZM53.1475 12.4651C52.8091 12.722 52.6367 13.3137 52.6367 14.2174V15.029H51.8368C50.4638 15.029 49.9023 15.3638 49.9023 16.1823C49.9023 16.8502 50.3228 17.0802 51.543 17.0802H52.6367V17.9486C52.6367 18.4263 52.7047 19.0121 52.7878 19.2506C53.0417 19.979 53.7016 20.1606 54.3218 19.6727C54.6448 19.4185 54.6801 19.2931 54.7162 18.2711L54.7559 17.1485L55.8782 17.1089C56.9 17.0728 57.0254 17.0375 57.2796 16.7144C57.5996 16.3074 57.62 16.1338 57.403 15.6576C57.2034 15.2195 56.6438 15.029 55.5558 15.029H54.6875V13.9404C54.6875 12.9966 54.6477 12.8147 54.3882 12.573C54.0509 12.2586 53.4842 12.2094 53.1475 12.4651ZM3.08506 22.6768C2.9173 22.8622 2.8242 23.2677 2.77088 24.0443L2.69527 25.1481H1.68328C0.790918 25.1481 0.631367 25.1878 0.335645 25.4838C-0.0921484 25.9115 -0.0921484 26.4358 0.335645 26.8635C0.631504 27.1596 0.790918 27.1992 1.6852 27.1992H2.69924L2.7624 28.2915C2.83801 29.5973 3.05648 29.9341 3.82812 29.9341C4.59977 29.9341 4.81824 29.5973 4.89385 28.2915L4.95701 27.1992H5.97105C6.86533 27.1992 7.02475 27.1596 7.32061 26.8635C7.7484 26.4358 7.7484 25.9115 7.32061 25.4838C7.02488 25.1878 6.86533 25.1481 5.97297 25.1481H4.96098L4.88537 24.0443C4.79541 22.7329 4.58814 22.4132 3.82812 22.4132C3.50355 22.4132 3.23859 22.5073 3.08506 22.6768ZM65.4288 22.6768C65.2611 22.8622 65.1679 23.2677 65.1146 24.0443L65.039 25.1481H64.027C63.1347 25.1481 62.9751 25.1878 62.6794 25.4838C62.4948 25.6684 62.3438 25.9788 62.3438 26.1736C62.3438 26.3685 62.4948 26.6789 62.6794 26.8635C62.9753 27.1596 63.1347 27.1992 64.0289 27.1992H65.043L65.1061 28.2915C65.1818 29.5973 65.4002 29.9341 66.1719 29.9341C66.9435 29.9341 67.162 29.5973 67.2376 28.2915L67.3008 27.1992H68.3148C69.2091 27.1992 69.3685 27.1596 69.6644 26.8635C70.0921 26.4358 70.0921 25.9115 69.6644 25.4838C69.3686 25.1878 69.2091 25.1481 68.3167 25.1481H67.3047L67.2291 24.0443C67.1392 22.7329 66.9319 22.4132 66.1719 22.4132C65.8473 22.4132 65.5823 22.5073 65.4288 22.6768ZM25.6319 27.6584C24.8207 28.0361 24.1664 28.6555 23.7527 29.4372C23.4946 29.9248 23.4466 30.2697 23.4034 31.9474L23.3535 33.8923L14.1035 33.9301C4.91312 33.9678 4.84996 33.9699 4.30664 34.2641C3.65818 34.6152 2.86453 35.4208 2.51016 36.0876C2.26803 36.5433 2.25408 37.2048 2.21853 49.967L2.18121 63.3679L1.64432 63.6757C0.420684 64.3772 0 65.4066 0 67.6987C0 69.2469 0.0168164 69.3455 0.335645 69.6643L0.671152 70H5.87891H11.0867L11.4222 69.6643C11.8789 69.2076 11.8686 68.6027 11.3976 68.2323C11.0497 67.9585 10.8828 67.9488 6.54404 67.9488H2.05078V67.1215C2.05078 66.1665 2.28977 65.6093 2.79891 65.3774C3.07357 65.2521 10.6064 65.214 35.0133 65.214C69.6752 65.214 67.4216 65.1626 67.7858 65.9622C67.8757 66.1594 67.9492 66.6871 67.9492 67.1348V67.9488H42.0595H16.1697L15.8095 68.2323C15.3385 68.6027 15.3281 69.2076 15.7849 69.6643L16.1204 70H42.7246H69.3288L69.6644 69.6643C69.9832 69.3455 70 69.2469 70 67.6987C70 65.405 69.5786 64.3753 68.3536 63.6757L67.8146 63.3679L67.8136 52.4678C67.8125 41.9212 67.8036 41.5439 67.5404 40.8401C67.1949 39.9165 66.3146 39.0392 65.3756 38.6823C64.7429 38.4417 64.3206 38.4122 61.5219 38.4122C58.5612 38.4122 58.363 38.4281 58.1055 38.6857C57.7429 39.0483 57.7429 39.8272 58.1055 40.1899C58.3624 40.4468 58.5611 40.4634 61.3936 40.4634C64.7363 40.4634 65.0029 40.5193 65.4938 41.3247C65.7526 41.749 65.7608 42.0911 65.7612 52.4626L65.7617 63.1628H56.1914H46.6211V51.8131V40.4634H50.0481C54.0669 40.4634 54.2705 40.4123 54.2753 39.4036C54.2765 39.1393 54.1666 38.8484 54.0039 38.6857C53.7446 38.4263 53.5482 38.4122 50.183 38.4122H46.6357L46.5942 34.2073C46.5544 30.1716 46.5406 29.9798 46.2505 29.4372C45.8311 28.6532 45.1772 28.0353 44.3681 27.6584L43.6816 27.3387H35H26.3184L25.6319 27.6584ZM43.9913 29.8552L44.502 30.3233L44.5378 46.743L44.5736 63.1628H35H25.4264L25.4622 46.743L25.498 30.3233L26.0087 29.8552L26.5195 29.3871H35H43.4805L43.9913 29.8552ZM33.1543 33.9902C32.6586 34.1251 32.4023 34.467 32.4023 34.9936C32.4023 35.6579 32.7157 35.9226 33.5654 35.9761L34.248 36.0192L34.2817 40.2582C34.3145 44.3865 34.323 44.5036 34.6045 44.7366C35.0053 45.0683 35.716 45.0443 36.0384 44.688C36.2843 44.4162 36.2988 44.1267 36.2988 39.4956C36.2988 33.6278 36.4189 34.0111 34.5618 33.9519C33.9381 33.9321 33.3047 33.9493 33.1543 33.9902ZM23.3789 49.5568V63.1628H13.8086H4.23828V50.1924V37.222L4.55 36.7592C4.72145 36.5049 5.01375 36.2198 5.19941 36.1257C5.45918 35.9943 7.5965 35.9544 14.458 35.9529L23.3789 35.9508V49.5568ZM12.714 39.7706C11.4115 40.1669 10.3811 41.349 10.3489 42.4842C10.3312 43.1106 10.9296 43.6741 11.4695 43.5394C11.9466 43.4203 12.2605 43.1196 12.3714 42.6753C12.5012 42.1553 12.8201 41.8491 13.3323 41.753C14.3195 41.5677 15.0857 42.4571 14.7898 43.4449C14.464 44.5323 13.2355 46.2869 11.4635 48.1951C10.3075 49.4402 10.0989 49.8834 10.4089 50.4362L10.606 50.7875L13.4035 50.8289C15.7943 50.8642 16.2637 50.8374 16.6306 50.6445C17.1687 50.3614 17.3659 49.9512 17.1973 49.4652C17.0227 48.9618 16.817 48.8946 15.1915 48.8102L13.7718 48.7363L14.389 47.9795C15.4463 46.6827 16.3945 45.1151 16.6796 44.1921C17.0101 43.1218 17.0152 42.9113 16.7341 41.9582C16.2609 40.354 14.3015 39.2876 12.714 39.7706ZM54.8819 44.4791C53.8932 44.9263 52.9102 46.2205 52.9102 47.0755C52.9102 47.5445 53.4107 48.121 53.8177 48.121C54.3644 48.121 54.6878 47.8697 54.9609 47.2322C55.253 46.5509 55.5555 46.3433 56.257 46.3433C57.3355 46.3433 57.8413 47.6641 57.0615 48.4443C56.8481 48.6576 56.5486 48.8047 56.3279 48.8047C55.7416 48.8047 55.2344 49.2851 55.2344 49.8403C55.2344 50.4398 55.584 50.7894 56.2974 50.9035C57.4176 51.0826 57.8383 52.3955 57.0012 53.1C56.162 53.8063 55.2632 53.41 54.9043 52.1753C54.749 51.6408 54.6008 51.4072 54.3423 51.2894C53.8549 51.0673 53.6847 51.0868 53.2704 51.4128C52.9718 51.6476 52.9107 51.8057 52.9132 52.3359C52.9211 54.0129 54.4646 55.5052 56.1914 55.5052C57.4645 55.5052 58.825 54.5637 59.2822 53.3662C59.6118 52.503 59.4984 51.1831 59.0341 50.4813L58.6746 49.9383L59.0845 49.1322C59.4422 48.4288 59.4881 48.2108 59.4459 47.421C59.3868 46.3183 58.8834 45.4044 57.9887 44.7756C57.4751 44.4146 57.2657 44.357 56.3512 44.3253C55.6757 44.3019 55.153 44.3566 54.8819 44.4791ZM29.3945 48.9415C28.9874 49.3487 29.0299 50.0805 29.4813 50.4357C29.8313 50.7111 29.9883 50.7191 35 50.7191C40.0117 50.7191 40.1687 50.7111 40.5187 50.4357C40.9701 50.0805 41.0126 49.3487 40.6055 48.9415C40.3413 48.6773 40.1498 48.668 35 48.668C29.8502 48.668 29.6587 48.6773 29.3945 48.9415ZM8.68164 53.2758C8.18945 53.4012 7.92969 53.7462 7.92969 54.2745C7.92969 55.2571 7.77274 55.2317 13.8324 55.2317C18.8926 55.2317 19.2493 55.2158 19.4612 54.9816C19.7858 54.6229 19.7527 53.829 19.3998 53.5094C19.1289 53.2639 18.8193 53.2477 14.0336 53.2274C11.2405 53.2157 8.83203 53.2374 8.68164 53.2758ZM29.873 53.2758C29.3809 53.4012 29.1211 53.7462 29.1211 54.2745C29.1211 55.2571 28.9641 55.2317 35.0238 55.2317C40.084 55.2317 40.4407 55.2158 40.6526 54.9816C40.9772 54.6229 40.9441 53.829 40.5912 53.5094C40.3203 53.2639 40.0107 53.2477 35.225 53.2274C32.4319 53.2157 30.0234 53.2374 29.873 53.2758ZM8.28994 58.1133C7.8385 58.4684 7.79598 59.2002 8.20312 59.6075C8.46727 59.8717 8.65881 59.881 13.8086 59.881C18.9584 59.881 19.1499 59.8717 19.4141 59.6075C19.8212 59.2002 19.7787 58.4684 19.3272 58.1133C18.9772 57.8379 18.8203 57.8298 13.8086 57.8298C8.79689 57.8298 8.63994 57.8379 8.28994 58.1133ZM29.4813 58.1133C29.0299 58.4684 28.9874 59.2002 29.3945 59.6075C29.6587 59.8717 29.8502 59.881 35 59.881C40.1498 59.881 40.3413 59.8717 40.6055 59.6075C41.0126 59.2002 40.9701 58.4684 40.5187 58.1133C40.1687 57.8379 40.0117 57.8298 35 57.8298C29.9883 57.8298 29.8313 57.8379 29.4813 58.1133ZM50.6728 58.1133C50.2213 58.4684 50.1788 59.2002 50.5859 59.6075C50.8501 59.8717 51.0416 59.881 56.1914 59.881C61.3412 59.881 61.5327 59.8717 61.7969 59.6075C62.204 59.2002 62.1615 58.4684 61.7101 58.1133C61.3601 57.8379 61.2031 57.8298 56.1914 57.8298C51.1797 57.8298 51.0228 57.8379 50.6728 58.1133Z" fill="url(#paint0_linear_215_5241)"/>
<defs>
<linearGradient id="paint0_linear_215_5241" x1="35" y1="0" x2="35" y2="70" gradientUnits="userSpaceOnUse">
<stop stop-color="#A031F1"/>
<stop offset="1" stop-color="#D623FF"/>
</linearGradient>
</defs>
</svg>
