<svg width="71" height="71" viewBox="0 0 71 71" fill="none" xmlns="http://www.w3.org/2000/svg">
<path d="M65.0842 9.46668V11.8333C66.025 11.836 66.9263 12.2111 67.5914 12.8762C68.2565 13.5413 68.6316 14.4425 68.6342 15.3833V44.9667H63.9008V5.91667C63.9008 4.34763 63.2774 2.8427 62.1681 1.73267C61.0582 0.623298 59.5531 0 57.9841 0H13.0168C11.4478 0 9.94284 0.623366 8.8328 1.73267C7.72341 2.84257 7.1001 4.34763 7.1001 5.91667V42.6H9.4668V11.8333H61.5341V44.9667H2.36671V15.3833C2.36935 14.4425 2.74443 13.5413 3.40953 12.8762C4.07464 12.2111 4.97588 11.836 5.91674 11.8333V9.46668C4.34769 9.46668 2.84274 10.09 1.73269 11.1993C0.623306 12.3092 0 13.8143 0 15.3833V50.8833C0 52.4524 0.623374 53.9573 1.73269 55.0673C2.8426 56.1767 4.34769 56.8 5.91674 56.8H24.6961L23.8086 63.9H22.4832C21.2148 63.9 20.043 64.5767 19.4086 65.675C18.7747 66.7733 18.7747 68.1267 19.4086 69.225C20.0431 70.3233 21.2148 71 22.4832 71H48.5168C49.7852 71 50.957 70.3233 51.5914 69.225C52.2253 68.1267 52.2253 66.7733 51.5914 65.675C50.9569 64.5767 49.7852 63.9 48.5168 63.9H47.1914L46.3039 56.8H65.0833C66.6523 56.8 68.1573 56.1766 69.2673 55.0673C70.3767 53.9574 71 52.4524 71 50.8833V15.3833C71 13.8143 70.3766 12.3094 69.2673 11.1993C68.1574 10.09 66.6523 9.46668 65.0833 9.46668H65.0842ZM9.46681 9.46668V5.91668C9.46945 4.97583 9.84454 4.0746 10.5096 3.4095C11.1747 2.7444 12.076 2.36933 13.0168 2.36669H57.9841C58.9249 2.36933 59.8262 2.74441 60.4913 3.4095C61.1564 4.0746 61.5315 4.97583 61.5341 5.91668V9.46668H9.46681ZM48.5173 66.2667C49.1708 66.2667 49.7006 66.7965 49.7006 67.45C49.7006 68.1035 49.1708 68.6333 48.5173 68.6333H22.4836C21.8302 68.6333 21.3003 68.1035 21.3003 67.45C21.3003 66.7965 21.8302 66.2667 22.4836 66.2667H48.5173ZM26.1879 63.9L27.0754 56.8H43.9262L44.8138 63.9H26.1879ZM68.6342 50.8833C68.6316 51.8242 68.2565 52.7254 67.5914 53.3905C66.9263 54.0556 66.0251 54.4307 65.0842 54.4333H5.91678C4.97592 54.4307 4.07468 54.0556 3.40957 53.3905C2.74446 52.7254 2.36939 51.8242 2.36675 50.8833V47.3333H68.6342L68.6342 50.8833Z" fill="url(#paint0_linear_215_5218)"/>
<path d="M61.5352 49.7002H63.9019V52.0669H61.5352V49.7002Z" fill="url(#paint1_linear_215_5218)"/>
<path d="M11.832 4.7334H14.1987V7.10006H11.832V4.7334Z" fill="url(#paint2_linear_215_5218)"/>
<path d="M16.5664 4.7334H18.9331V7.10006H16.5664V4.7334Z" fill="url(#paint3_linear_215_5218)"/>
<path d="M21.3008 4.7334H23.6675V7.10006H21.3008V4.7334Z" fill="url(#paint4_linear_215_5218)"/>
<path d="M15.3823 22.4834V27.2167H14.199C13.5455 27.2167 13.0156 27.7466 13.0156 28.4001V37.8667C13.0156 38.1805 13.1403 38.4816 13.3622 38.7035C13.5841 38.9254 13.8852 39.0501 14.199 39.0501H18.9324C19.2462 39.0501 19.5473 38.9254 19.7692 38.7035C19.991 38.4816 20.1157 38.1805 20.1157 37.8667V28.4001C20.1157 28.0863 19.991 27.7852 19.7692 27.5633C19.5473 27.3414 19.2462 27.2167 18.9324 27.2167H17.749V22.4834H15.3823ZM17.749 36.6834H15.3823V29.5834H17.749V36.6834Z" fill="url(#paint5_linear_215_5218)"/>
<path d="M27.2178 39.05V34.3167H28.4011C28.7149 34.3167 29.016 34.192 29.2379 33.9701C29.4598 33.7482 29.5845 33.4471 29.5845 33.1333V18.9333C29.5845 18.6195 29.4598 18.3184 29.2379 18.0965C29.016 17.8747 28.7149 17.75 28.4011 17.75H23.6677C23.0142 17.75 22.4844 18.2799 22.4844 18.9333V33.1333C22.4844 33.4471 22.609 33.7482 22.8309 33.9701C23.0528 34.192 23.3539 34.3167 23.6677 34.3167H24.8511V39.05H27.2178ZM24.8511 20.1167H27.2178V31.95H24.8511V20.1167Z" fill="url(#paint6_linear_215_5218)"/>
<path d="M34.3159 15.3838V24.8505H33.1326C32.4791 24.8505 31.9492 25.3803 31.9492 26.0338V30.7671C31.9492 31.0809 32.0739 31.382 32.2958 31.6039C32.5176 31.8258 32.8188 31.9505 33.1326 31.9505H34.3159V34.3171H36.6826V31.9505H37.866C38.1798 31.9505 38.4809 31.8258 38.7028 31.6039C38.9246 31.382 39.0493 31.0809 39.0493 30.7671V26.0338C39.0493 25.72 38.9246 25.4189 38.7028 25.197C38.4809 24.9751 38.1798 24.8505 37.866 24.8505H36.6826V15.3838H34.3159ZM36.6826 29.5838H34.3159V27.2171H36.6826V29.5838Z" fill="url(#paint7_linear_215_5218)"/>
<path d="M43.7847 15.3838V20.1171H42.6013C41.9478 20.1171 41.418 20.647 41.418 21.3005V26.0338C41.418 26.3476 41.5426 26.6487 41.7645 26.8706C41.9864 27.0924 42.2875 27.2171 42.6013 27.2171H43.7847V35.5005H46.1514V27.2171H47.3347C47.6485 27.2171 47.9496 27.0924 48.1715 26.8706C48.3934 26.6487 48.5181 26.3476 48.5181 26.0338V21.3005C48.5181 20.9867 48.3934 20.6855 48.1715 20.4637C47.9496 20.2418 47.6485 20.1171 47.3347 20.1171H46.1514V15.3838H43.7847ZM46.1514 24.8505H43.7847V22.4838H46.1514V24.8505Z" fill="url(#paint8_linear_215_5218)"/>
<path d="M53.2495 17.75V22.4833H52.0662C51.4127 22.4833 50.8828 23.0132 50.8828 23.6667V35.5C50.8828 35.8138 51.0075 36.1149 51.2294 36.3368C51.4512 36.5587 51.7524 36.6833 52.0662 36.6833H53.2495V41.4167H55.6162V36.6833H56.7996C57.1134 36.6833 57.4145 36.5587 57.6363 36.3368C57.8582 36.1149 57.9829 35.8138 57.9829 35.5V23.6667C57.9829 23.3529 57.8582 23.0518 57.6363 22.8299C57.4145 22.608 57.1134 22.4833 56.7996 22.4833H55.6162V17.75H53.2495ZM55.6162 34.3167H53.2495V24.85H55.6162V34.3167Z" fill="url(#paint9_linear_215_5218)"/>
<defs>
<linearGradient id="paint0_linear_215_5218" x1="35.5" y1="0" x2="35.5" y2="71" gradientUnits="userSpaceOnUse">
<stop stop-color="#A031F1"/>
<stop offset="1" stop-color="#D623FF"/>
</linearGradient>
<linearGradient id="paint1_linear_215_5218" x1="62.7185" y1="49.7002" x2="62.7185" y2="52.0669" gradientUnits="userSpaceOnUse">
<stop stop-color="#A031F1"/>
<stop offset="1" stop-color="#D623FF"/>
</linearGradient>
<linearGradient id="paint2_linear_215_5218" x1="13.0154" y1="4.7334" x2="13.0154" y2="7.10006" gradientUnits="userSpaceOnUse">
<stop stop-color="#A031F1"/>
<stop offset="1" stop-color="#D623FF"/>
</linearGradient>
<linearGradient id="paint3_linear_215_5218" x1="17.7498" y1="4.7334" x2="17.7498" y2="7.10006" gradientUnits="userSpaceOnUse">
<stop stop-color="#A031F1"/>
<stop offset="1" stop-color="#D623FF"/>
</linearGradient>
<linearGradient id="paint4_linear_215_5218" x1="22.4841" y1="4.7334" x2="22.4841" y2="7.10006" gradientUnits="userSpaceOnUse">
<stop stop-color="#A031F1"/>
<stop offset="1" stop-color="#D623FF"/>
</linearGradient>
<linearGradient id="paint5_linear_215_5218" x1="16.5657" y1="22.4834" x2="16.5657" y2="39.0501" gradientUnits="userSpaceOnUse">
<stop stop-color="#A031F1"/>
<stop offset="1" stop-color="#D623FF"/>
</linearGradient>
<linearGradient id="paint6_linear_215_5218" x1="26.0344" y1="17.75" x2="26.0344" y2="39.05" gradientUnits="userSpaceOnUse">
<stop stop-color="#A031F1"/>
<stop offset="1" stop-color="#D623FF"/>
</linearGradient>
<linearGradient id="paint7_linear_215_5218" x1="35.4993" y1="15.3838" x2="35.4993" y2="34.3171" gradientUnits="userSpaceOnUse">
<stop stop-color="#A031F1"/>
<stop offset="1" stop-color="#D623FF"/>
</linearGradient>
<linearGradient id="paint8_linear_215_5218" x1="44.968" y1="15.3838" x2="44.968" y2="35.5005" gradientUnits="userSpaceOnUse">
<stop stop-color="#A031F1"/>
<stop offset="1" stop-color="#D623FF"/>
</linearGradient>
<linearGradient id="paint9_linear_215_5218" x1="54.4329" y1="17.75" x2="54.4329" y2="41.4167" gradientUnits="userSpaceOnUse">
<stop stop-color="#A031F1"/>
<stop offset="1" stop-color="#D623FF"/>
</linearGradient>
</defs>
</svg>
