<svg width="72" height="72" viewBox="0 0 72 72" fill="none" xmlns="http://www.w3.org/2000/svg">
<path fill-rule="evenodd" clip-rule="evenodd" d="M14.5553 0.27468C14.0139 0.431575 13.548 0.581435 13.5199 0.607748C13.4557 0.667692 15.7541 9.73552 15.8885 9.9532C15.9605 10.0697 16.2495 10.0486 16.9589 9.8751C17.4933 9.74452 17.9842 9.58932 18.0499 9.53036C18.139 9.45043 16.3307 1.94002 15.8065 0.21333C15.7178 -0.0789312 15.7878 -0.082449 14.5553 0.27468ZM49.9565 0.466754C49.4597 0.814878 49.3799 1.08167 49.01 3.62562C48.8175 4.94987 48.5942 6.15648 48.5136 6.30705C48.2633 6.77492 47.7317 7.03777 47.2497 6.93181C46.8931 6.85343 46.5211 6.44551 45.1983 4.68237C43.4905 2.40578 43.1133 2.08791 42.4285 2.34851C42.2222 2.42703 41.2455 3.1016 40.2581 3.84766L38.4627 5.20428L37.186 5.12379C33.4722 4.89007 29.4187 5.75756 25.9117 7.53702C23.6837 8.66737 21.9729 9.9138 20.1806 11.7123C16.4578 15.4476 14.2722 19.93 13.6187 25.1698C13.4536 26.4933 13.4286 26.5618 13.1105 26.5618C12.9264 26.5618 12.603 26.736 12.3917 26.9488C12.0671 27.2758 11.9441 27.6467 11.598 29.3409C11.3726 30.4438 11.1367 31.3461 11.0736 31.3461C11.0106 31.3461 10.2177 30.8259 9.31162 30.1898C6.94297 28.5273 7.13352 28.4895 4.49331 31.1475C2.71784 32.9349 2.39073 33.3301 2.39073 33.6878C2.39073 33.9887 2.73725 34.6174 3.5861 35.8572C4.24355 36.8173 4.78146 37.6375 4.78146 37.6797C4.78146 37.7221 3.87974 37.941 2.77747 38.1666C1.08427 38.5129 0.713563 38.636 0.386736 38.9608L0 39.345V42.1106V44.8762L0.386736 45.2608C0.71286 45.5851 1.08188 45.7085 2.74231 46.0479C3.82517 46.2694 4.73857 46.4724 4.77218 46.4992C4.80565 46.5259 4.27589 47.3667 3.59496 48.3673C2.48524 49.9977 2.3657 50.2352 2.44417 50.6534C2.51167 51.0132 2.99193 51.5799 4.54141 53.1275C7.14604 55.7291 6.9417 55.6879 9.27365 54.0809C10.236 53.4177 11.0605 52.8752 11.1059 52.8752C11.1512 52.8752 11.3726 53.7774 11.598 54.8803C11.9441 56.5745 12.0671 56.9454 12.3917 57.2724L12.7758 57.6594H15.5398H18.3037L18.6878 57.2724C19.0124 56.9454 19.1354 56.5745 19.4815 54.8803C19.7069 53.7775 19.9283 52.8752 19.9736 52.8752C20.019 52.8752 20.8435 53.4177 21.8059 54.0809C23.9961 55.5902 24.0662 55.5911 25.537 54.1293L26.5491 53.1232L26.6045 55.3562C26.6517 57.2654 26.7036 57.6856 26.9621 58.255C27.3567 59.1241 27.8828 59.804 28.4742 60.2095L28.9506 60.5361L28.9955 64.4097L29.0404 68.2832L29.4343 69.1275C29.9462 70.2248 30.7659 71.0491 31.8365 71.5431C32.6793 71.9321 32.7567 71.9412 35.6434 71.9888C38.862 72.0419 39.9323 71.9171 40.8534 71.3813C41.7003 70.8887 42.4666 70.0618 42.8767 69.1979C43.2414 68.4296 43.2444 68.3957 43.2905 64.484L43.3368 60.544L43.8923 60.1555C44.1977 59.9418 44.6379 59.4669 44.8704 59.1002C45.6041 57.9428 45.7052 57.3429 45.7052 54.1456C45.7052 49.4785 46.1213 48.5077 48.9934 46.4748C50.8849 45.1361 51.2528 44.7996 51.104 44.5449C51.0352 44.4272 50.6908 44.0125 50.3388 43.6236L49.6988 42.9165L49.2138 43.3233C48.947 43.547 48.1391 44.1526 47.4185 44.6691C45.3733 46.1347 44.3491 47.4304 43.7126 49.3573C43.4478 50.1587 43.4001 50.7092 43.3272 53.8012L43.2441 57.3304L42.8501 57.8468C42.1089 58.8183 42.2548 58.7989 36.0348 58.7546L30.4467 58.7147L29.9875 58.387C29.0928 57.7485 29.0489 57.544 28.9581 53.5787C28.8658 49.5508 28.7625 49.0386 27.716 47.4263C27.0292 46.368 26.3819 45.7452 24.7511 44.5742C23.0015 43.3176 22.1105 42.5402 20.9321 41.2423C18.4633 38.5227 16.7672 35.0384 16.0117 31.135C15.7205 29.6304 15.7643 25.3917 16.0867 23.8883C17.3848 17.8345 20.9469 12.9203 26.1067 10.0645C28.7993 8.57435 31.5682 7.7547 34.7711 7.49987C35.8132 7.41699 35.861 7.42614 35.861 7.70967C35.861 8.13406 36.0067 8.36722 37.6348 10.5484C39.1447 12.5713 39.3491 13.063 38.9152 13.6285C38.4801 14.1956 38.2317 14.2093 35.5049 13.8173C32.6367 13.405 32.2534 13.4402 31.9322 14.1455C31.6796 14.7003 30.7303 21.6408 30.8452 22.0924C31.0068 22.7268 31.4778 22.9041 33.9613 23.2652C35.2453 23.4519 36.4526 23.6441 36.6442 23.6923C37.3595 23.8718 37.6535 24.9173 37.1587 25.5221C37.025 25.6855 36.0226 26.488 34.9308 27.3055C32.9354 28.7999 32.7671 28.9777 32.7671 29.5938C32.7671 29.9731 37.2124 36.0158 37.6729 36.2623C38.2804 36.5876 38.6421 36.422 40.7391 34.858C41.8848 34.0036 42.9619 33.2692 43.1326 33.2261C43.5981 33.1088 44.2027 33.3629 44.4337 33.7731C44.6165 34.0974 44.6036 34.3963 44.3156 36.5057C44.1377 37.8085 44.0138 39.1212 44.0401 39.4231C44.1207 40.3486 44.3817 40.4492 48.1074 40.9907C52.0161 41.5587 52.6293 41.5849 53.0145 41.1995C53.3576 40.8562 53.3656 40.8215 53.7854 37.8892C54.0994 35.6961 54.1584 35.4708 54.4949 35.1805C54.8605 34.8652 55.3163 34.7833 55.7595 34.9534C55.8877 35.0026 56.6595 35.9367 57.4745 37.0289C58.2896 38.1213 59.0829 39.1258 59.2373 39.2612C59.8926 39.8357 60.2573 39.6607 63.5651 37.1827C66.6906 34.8414 67.05 34.4755 66.8823 33.8069C66.8418 33.645 66.1186 32.5942 65.2753 31.4714C64.4321 30.3488 63.7008 29.2998 63.6501 29.1404C63.5212 28.7336 63.7684 28.1675 64.198 27.8858C64.5433 27.6594 64.6985 27.6661 67.2227 28.0176C69.9448 28.3966 70.3345 28.3846 70.7283 27.9099C70.8934 27.7108 71.9907 20.8786 72 19.9914C72.0018 19.8215 71.8609 19.5179 71.6868 19.3167C71.3947 18.9788 71.1607 18.9199 68.6487 18.5505C66.9714 18.304 65.8512 18.0743 65.729 17.9522C65.403 17.6259 65.2612 16.9255 65.4456 16.5518C65.5359 16.369 66.4628 15.5733 67.5056 14.7835C69.6184 13.1833 70.0344 12.771 70.0344 12.2769C70.0344 12.0601 69.2699 10.9123 67.9073 9.08359C65.2254 5.48387 65.1984 5.45489 64.5323 5.45489C64.0808 5.45489 63.7064 5.67764 61.9218 7.00864C60.7761 7.86305 59.7009 8.59701 59.5326 8.63936C59.0498 8.76108 58.4509 8.39354 58.2817 7.87177C58.1643 7.5093 58.2019 6.92238 58.4535 5.19992C58.8591 2.42309 58.8601 2.18204 58.4675 1.72543C58.1676 1.3766 57.9519 1.32848 54.354 0.807138C52.2656 0.504465 50.492 0.254981 50.4125 0.252729C50.3329 0.250337 50.1277 0.346725 49.9565 0.466754ZM56.2168 3.54302C56.2477 3.57398 56.1673 4.31765 56.0381 5.19555C55.7032 7.46962 55.7273 8.21511 56.1634 9.07614C57.0322 10.7918 59.1696 11.5373 60.8212 10.7008C61.0542 10.5827 61.9276 9.97909 62.7618 9.35925C63.596 8.73941 64.2978 8.25634 64.3214 8.28589C64.8887 8.99579 66.9667 11.8362 67.0115 11.9631C67.0464 12.0619 66.4854 12.5696 65.7288 13.1237C63.5109 14.7484 62.9689 15.5228 62.9681 17.0689C62.9674 18.5005 63.7989 19.7713 65.0896 20.3109C65.3678 20.4273 66.4479 20.6478 67.4895 20.8009C68.5312 20.9541 69.4011 21.0971 69.4228 21.1188C69.4443 21.1403 69.3073 22.1681 69.1183 23.4025C68.9293 24.6372 68.7733 25.6841 68.7717 25.7292C68.7701 25.7744 67.9618 25.691 66.9757 25.5438C65.9895 25.3966 64.8584 25.3067 64.4623 25.3441C62.3416 25.5442 60.8869 27.5225 61.3211 29.6156C61.4483 30.2282 61.7203 30.6988 62.7329 32.0572C63.4227 32.9827 63.9872 33.7634 63.9872 33.7922C63.9872 33.8209 63.1391 34.4816 62.1025 35.2603L60.2179 36.6761L58.9734 35.0351C57.3666 32.916 56.8097 32.5407 55.2791 32.5454C54.003 32.5493 53.3132 32.8559 52.5358 33.7648C51.937 34.4646 51.6996 35.2255 51.4599 37.2124C51.3649 38.0011 51.2411 38.7207 51.185 38.8116C51.1084 38.9357 50.5205 38.8974 48.8159 38.6568C46.204 38.2883 46.4324 38.5378 46.7599 36.4117C47.0762 34.3587 47.0396 33.6206 46.5781 32.7366C45.8794 31.3986 44.5568 30.6753 43.0842 30.8263C42.1615 30.9208 41.7561 31.1367 39.9619 32.4882L38.4942 33.5938L37.1073 31.7423C36.3445 30.724 35.7203 29.8468 35.7203 29.7929C35.7203 29.7391 36.4148 29.1699 37.2636 28.5283C38.1123 27.8865 38.9682 27.1286 39.1654 26.8438C40.3522 25.1302 39.8385 22.7539 38.055 21.7081C37.5906 21.4358 36.9648 21.2797 35.4228 21.0515C34.3102 20.8867 33.3807 20.7366 33.3572 20.7179C33.2878 20.6623 33.9262 16.2287 34.0191 16.1204C34.0658 16.0659 34.9583 16.1474 36.0022 16.3015C38.5328 16.6749 39.423 16.5032 40.4897 15.4361C41.1387 14.7865 41.3801 14.2233 41.4543 13.184C41.54 11.9871 41.2916 11.4151 39.8711 9.53838C39.2792 8.75629 38.8149 8.05963 38.8397 7.99025C38.8829 7.86882 42.4048 5.17346 42.5203 5.17346C42.5514 5.17346 43.1232 5.90123 43.7908 6.79053C44.4585 7.67998 45.2415 8.56169 45.5308 8.7501C47.0247 9.72257 48.787 9.50798 50.0947 8.19443C50.7281 7.55798 50.9606 6.87285 51.2626 4.75132C51.3893 3.86131 51.5139 3.06389 51.5395 2.97918C51.5717 2.87266 52.2895 2.92698 53.8733 3.15592C55.1313 3.33786 56.1859 3.51206 56.2168 3.54302ZM3.85752 7.5017C3.49623 8.00827 3.22411 8.4411 3.25266 8.46347C3.75514 8.85564 11.3426 14.2233 11.4561 14.2669C11.5983 14.3215 13.0216 12.5194 12.9123 12.4231C12.5857 12.1354 4.70834 6.58059 4.62691 6.58059C4.56503 6.58059 4.2188 6.99513 3.85752 7.5017ZM49.4129 11.5749C46.5055 12.2076 44.1129 14.0889 42.8369 16.7457C42.0924 18.2956 41.8642 19.2987 41.8685 21.0037C41.8747 23.5649 42.8018 25.7707 44.6563 27.6367C45.6046 28.5911 46.0157 28.888 47.1209 29.4172C48.8622 30.2512 49.6689 30.4333 51.5414 30.4154C52.799 30.4033 53.2987 30.3321 54.2134 30.0341C56.8261 29.1828 58.7884 27.4597 59.9939 24.958C61.7738 21.2637 60.8403 16.6161 57.7568 13.8215C56.7004 12.864 54.7434 11.8621 53.3696 11.5752C52.1663 11.324 50.5665 11.3239 49.4129 11.5749ZM26.3303 14.2482C22.9727 16.6926 20.6021 20.3835 19.7768 24.4511C18.4692 30.8961 21.1131 37.557 26.509 41.412C27.1278 41.8541 28.5847 42.6757 29.7466 43.2379C31.6828 44.1746 31.9372 44.3426 32.7934 45.2506C33.8685 46.391 34.5434 47.6703 34.758 48.975C35.0343 50.6541 34.8725 50.483 36.1856 50.483H37.3484L37.2514 49.5332C37.1191 48.2381 37.0029 47.7517 36.5693 46.6791C36.0747 45.4555 35.3262 44.352 34.3365 43.3874C33.2589 42.337 32.7464 42.003 30.8122 41.0902C28.7078 40.097 27.5515 39.3401 26.2536 38.1066C23.8758 35.8466 22.3176 32.6978 21.9312 29.3717C21.356 24.4213 23.5285 19.3206 27.4583 16.3949C27.9804 16.0062 28.4075 15.6373 28.4075 15.575C28.4075 15.4721 27.2867 13.6162 27.2245 13.6162C27.21 13.6162 26.8076 13.9006 26.3303 14.2482ZM53.0598 13.9665C55.6039 14.6295 57.6332 16.6421 58.3109 19.1744C58.9332 21.4995 58.1741 24.172 56.3818 25.9654C53.57 28.7788 49.1641 28.7616 46.3303 25.9261C43.5032 23.0973 43.5244 18.6756 46.3787 15.8813C48.2385 14.0603 50.7063 13.3531 53.0598 13.9665ZM5.95194 19.4336C3.46319 20.065 1.38803 20.6212 1.34036 20.6696C1.24473 20.7669 1.66747 22.6261 1.82568 22.8041C1.90049 22.8882 10.29 20.9043 11.2017 20.587C11.4141 20.513 10.8614 18.2543 10.6354 18.2727C10.5483 18.2799 8.44069 18.8024 5.95194 19.4336ZM14.3975 34.1508C14.523 34.5711 14.6257 34.9288 14.6257 34.9458C14.6257 34.9627 14.2935 35.0539 13.8873 35.1484C11.0119 35.8181 8.69875 38.4498 8.36109 41.436C8.07702 43.9479 9.4905 46.837 11.6415 48.1413C15.0528 50.2096 19.2562 49.3258 21.4468 46.0796L21.9021 45.4048L22.3071 45.735C22.5297 45.9166 23.1322 46.3608 23.6459 46.7223C24.7574 47.5047 25.5955 48.4217 26.015 49.3146L26.321 49.9658L25.049 51.2384L23.777 52.5111L22.3578 51.5505C21.5772 51.0221 20.699 50.529 20.4062 50.4546C19.4177 50.2036 18.3081 50.7434 17.8069 51.7188C17.6989 51.9291 17.464 52.8137 17.2851 53.6843L16.9597 55.2673H15.5308H14.1017L13.865 54.075C13.3558 51.5093 12.9372 50.8238 11.6721 50.4829C10.8549 50.2628 10.3036 50.4626 8.69425 51.5623L7.30411 52.5124L6.22406 51.4317L5.14401 50.351L6.10016 48.9502C6.62612 48.1798 7.11158 47.3071 7.17909 47.0111C7.44868 45.8287 6.68772 44.5918 5.4676 44.2293C5.08607 44.1159 4.23764 43.9165 3.5823 43.7864L2.39073 43.5495V42.111V40.6725L3.97171 40.3575C4.84137 40.1841 5.71976 39.9559 5.92381 39.8502C6.82807 39.3823 7.40283 38.1908 7.18485 37.2356C7.12058 36.9536 6.64834 36.1081 6.1356 35.3567C5.62286 34.6054 5.20336 33.9481 5.20336 33.8961C5.20336 33.844 5.67518 33.3327 6.25176 32.7595L7.30003 31.7176L8.78074 32.7211C10.3765 33.8026 10.9009 33.9844 11.7555 33.7527C12.6963 33.4976 13.3484 32.7094 13.5723 31.5571C13.6805 31.0009 13.6846 31.0084 13.9256 32.1903C14.0596 32.8482 14.2721 33.7303 14.3975 34.1508ZM15.9794 38.1355C16.7978 39.7518 17.7097 41.0696 19.2526 42.8657L20.0221 43.7615L19.6905 44.3871C19.2346 45.247 18.1458 46.1866 17.1854 46.5491C16.5363 46.7941 16.1694 46.8404 15.2585 46.7919C13.375 46.6914 12.052 45.7897 11.2175 44.0378C10.8247 43.2131 10.7994 43.0645 10.8586 41.9271C10.9037 41.0581 11.0117 40.5166 11.2312 40.059C11.944 38.5728 13.5844 37.4433 15.0803 37.4088C15.5763 37.3974 15.626 37.4375 15.9794 38.1355ZM58.9245 45.7691V46.9652H63.0731H67.2218V45.7691V44.5731H63.0731H58.9245V45.7691ZM57.6615 51.6888C57.2472 52.1999 56.971 52.6592 57.0409 52.7211C57.1101 52.7826 58.7124 54.1198 60.6017 55.6928L64.0367 58.5526L64.7821 57.7191C65.192 57.2606 65.5288 56.8396 65.5308 56.7837C65.5333 56.7062 59.8957 51.9339 58.63 50.9422C58.4409 50.794 58.2977 50.9043 57.6615 51.6888ZM35.0172 54.6341V56.393H36.2126H37.4079V54.6341V52.8752H36.2126H35.0172V54.6341ZM51.7523 58.2166V62.4436H52.9498H54.1473L54.11 58.2574L54.0727 54.0712L52.9125 54.0304L51.7523 53.9895V58.2166ZM40.9237 62.3733V63.5693H36.1422H31.3608V62.4671C31.3608 61.8608 31.403 61.3226 31.4546 61.2711C31.5061 61.2194 33.6577 61.1772 36.236 61.1772H40.9237V62.3733ZM40.9237 66.8316C40.9237 67.915 40.5599 68.7141 39.8466 69.1979C39.3384 69.5426 39.2675 69.5505 36.2937 69.5886C32.8802 69.6325 32.6591 69.5837 31.8862 68.6154C31.5712 68.2209 31.4599 67.9086 31.4004 67.2531C31.2732 65.8473 30.848 65.9615 36.2082 65.9615H40.9237V66.8316Z" fill="url(#paint0_linear_165_5223)"/>
<defs>
<linearGradient id="paint0_linear_165_5223" x1="36" y1="0" x2="36" y2="72" gradientUnits="userSpaceOnUse">
<stop stop-color="#A031F1"/>
<stop offset="1" stop-color="#D623FF"/>
</linearGradient>
</defs>
</svg>
