<svg width="103" height="103" viewBox="0 0 103 103" fill="none" xmlns="http://www.w3.org/2000/svg">
<g clip-path="url(#clip0_167_5150)">
<path d="M86.2484 21.1571L83.7424 19.542C83.7259 19.0645 83.6898 18.5937 83.6378 18.1256L85.8656 16.1523C86.428 15.6548 86.5885 14.8325 86.2484 14.1524L82.8268 7.30696C82.4867 6.63013 81.7343 6.26867 81.0114 6.43802L78.1199 7.09153C77.7765 6.76671 77.4167 6.45801 77.0536 6.16262L77.253 3.16106C77.3055 2.4015 76.8406 1.70854 76.1276 1.47315L68.9343 -0.91493C68.2245 -1.15701 67.449 -0.86829 67.0465 -0.228667L65.4567 2.31208C64.9825 2.32873 64.5181 2.36538 64.0564 2.41813L62.1069 0.156118C61.6129 -0.414103 60.7953 -0.573456 60.1343 -0.231994L54.3409 2.74625C51.3442 1.79459 48.1225 1.27383 44.9527 1.27383C32.6237 1.27383 21.432 8.80225 17.0916 20.0163C15.8156 23.3828 15.5215 26.9945 16.228 30.447C16.5127 31.9295 16.8725 32.8284 16.9903 33.0905C18.0308 34.9944 16.1891 39.4751 15.2301 41.1963C13.1364 44.1246 12.5248 46.3505 13.3621 47.9983C14.2718 49.7929 16.326 49.8423 16.2734 49.8056C17.32 49.9944 17.5429 52.5086 17.5034 53.4075C17.4673 54.2831 18.1053 55.0392 18.9657 55.132C19.7378 55.2148 20.1174 55.3708 20.2154 55.3541C20.1207 55.6562 19.7313 56.2231 19.3551 56.5912C18.7335 57.1881 18.6749 58.1696 19.2143 58.8432C20.8501 60.8731 19.751 63.5128 19.7083 63.6127C19.6398 63.7688 19.5938 63.9342 19.5741 64.1036C19.4597 65.1185 19.7899 66.0635 20.4996 66.7704C22.7341 68.989 28.6517 68.3723 30.6178 68.0835C32.2958 67.6393 33.7257 67.7815 34.9946 68.5443C37.9157 70.2989 38.9951 74.6902 39.0049 74.733C39.1588 75.3698 39.6692 75.8573 40.3033 75.9734C40.4014 75.9933 40.4994 76 40.5947 76C41.1314 76 41.6412 75.7346 41.949 75.2738C45.5897 69.8148 59.9767 64.7338 65.2102 63.238C65.6451 63.1119 66.0114 62.8099 66.2212 62.4023C66.4271 61.9976 66.4599 61.5201 66.3094 61.0892C65.6746 59.2752 65.776 56.7446 66.6007 53.6036C67.7261 49.6036 69.6856 46.1013 69.679 46.1013H69.6757C70.8991 44.3234 71.8936 42.3602 72.6982 40.2942L78.8054 37.1566C79.4729 36.8152 79.8295 36.0556 79.6657 35.3193L79.0211 32.3844C79.3415 32.0396 79.646 31.6748 79.934 31.3034L82.8945 31.5055C83.6273 31.5388 84.3238 31.0874 84.5594 30.3678L86.9148 23.0748C87.1541 22.3558 86.8759 21.5663 86.2483 21.1582L86.2484 21.1571ZM63.4568 52.722C62.6556 55.7731 62.436 58.3371 62.8056 60.5092C58.5888 61.829 46.8682 65.8422 41.1987 71.1685C40.3646 69.3478 38.9446 67.0659 36.6877 65.7028C34.6434 64.4691 32.3143 64.1903 29.9819 64.8438C26.9069 65.2653 23.4951 65.0693 22.8702 64.5224C23.2399 63.4413 23.9562 60.6185 22.5301 57.9223C23.1747 57.0134 23.8187 55.6635 23.3609 54.2939C23.0044 53.2328 22.1276 52.4961 20.7437 52.1018C20.5345 49.8198 19.5597 47.0242 16.8412 46.5434C16.7465 46.5234 16.3801 46.4868 16.2854 46.5001C16.2854 46.4935 16.1052 45.6345 17.9798 42.9977C18.4053 42.2448 22.069 35.5353 19.9393 31.6582C19.9097 31.5888 19.6545 30.9186 19.4355 29.7943C18.8533 26.9454 19.0987 23.9805 20.1419 21.221C23.989 11.278 33.9627 4.59499 44.9537 4.59499C47.5479 4.59499 50.1777 4.98976 52.6574 5.70601L53.1678 8.01748C52.8474 8.36229 52.5429 8.72707 52.2548 9.09853L49.2943 8.89642C48.5189 8.85644 47.8617 9.31451 47.6295 10.0341L45.2741 17.3271C45.0419 18.05 45.3201 18.8396 45.9543 19.2477L48.4603 20.8529C48.4767 21.3271 48.5095 21.8012 48.5648 22.2693L46.3338 24.2459C45.7714 24.7467 45.6142 25.5657 45.951 26.2458L49.3726 33.0912C49.7094 33.768 50.4618 34.1228 51.1848 33.9602L54.0795 33.3066C54.4196 33.6315 54.7794 33.9402 55.1425 34.2355L54.9431 37.2371C54.8906 37.9933 55.3555 38.6896 56.0685 38.925L63.2618 41.3131C63.4289 41.3697 63.6019 41.3925 63.7689 41.3925C64.3188 41.3925 64.8418 41.1104 65.1495 40.6263L66.7394 38.0855C67.2136 38.0656 67.678 38.0322 68.1397 37.9795L69.471 39.522C68.7875 41.1872 67.9759 42.7889 66.9262 44.3276C66.8385 44.4836 64.7153 48.2381 63.4558 52.7222L63.4568 52.722ZM81.8546 28.1092L79.2769 27.9332C78.7177 27.9198 78.1613 28.1619 77.8312 28.6328C77.3241 29.3657 76.7419 30.0525 76.1105 30.6728C75.6982 31.0742 75.5218 31.6611 75.6461 32.2252L76.2086 34.782L71.724 37.0868L70.0264 35.1169C69.6469 34.6794 69.068 34.4667 68.5149 34.5728C67.6611 34.7221 66.8007 34.7815 65.8655 34.7749C65.2801 34.8282 64.7664 35.0569 64.4586 35.5444L63.0715 37.7564L58.2956 36.1679L58.4692 33.5543C58.5086 32.9774 58.2468 32.42 57.7791 32.0886C57.0563 31.5744 56.3821 30.9842 55.7704 30.3407C55.3712 29.9259 54.7956 29.7505 54.2365 29.8732L51.7147 30.4434L49.4475 25.8932L51.3872 24.1721C51.816 23.7906 52.0186 23.2104 51.9239 22.6429C51.7733 21.7673 51.7114 20.8651 51.7245 19.9633C51.7344 19.3831 51.4463 18.839 50.9655 18.5274L48.7804 17.131L50.3472 12.2889L52.925 12.4649C53.4842 12.4882 54.0406 12.2395 54.3707 11.7653C54.8778 11.0324 55.46 10.3456 56.0913 9.72533C56.5037 9.3239 56.68 8.73702 56.5557 8.17018L55.9933 5.61665L60.4779 3.31186L62.1755 5.28177C62.5517 5.71652 63.1207 5.91862 63.687 5.82589C64.5407 5.67987 65.4405 5.61712 66.3332 5.62378C66.8956 5.61712 67.4356 5.34172 67.7434 4.85423L69.1306 2.64225L73.9065 4.22739L73.7329 6.84091C73.6934 7.4178 73.9552 7.97525 74.4229 8.30665C75.1425 8.8208 75.8199 9.411 76.4382 10.0578C76.8341 10.4726 77.413 10.6514 77.9694 10.522L80.488 9.95509L82.7579 14.5018L80.8215 16.2163C80.3927 16.5978 80.1901 17.1747 80.2849 17.7455C80.4355 18.6177 80.5006 19.5199 80.4875 20.4283C80.4776 21.0052 80.7657 21.546 81.2432 21.8547L83.425 23.2611L81.8546 28.1092Z" fill="white"/>
<path d="M66 8C59.3849 8 54 13.3843 54 20C54 26.6151 59.3843 32 66 32C72.6185 32 78 26.6157 78 20C78 13.3849 72.6185 8 66 8ZM66 28.7095C61.1981 28.7095 57.2916 24.803 57.2916 20.0011C57.2916 15.1992 61.1981 11.2928 66 11.2928C70.8019 11.2928 74.7084 15.1992 74.7084 20.0011C74.7084 24.8025 70.8019 28.7095 66 28.7095Z" fill="white"/>
</g>
<defs>
<clipPath id="clip0_167_5150">
<rect width="103" height="103" fill="white"/>
</clipPath>
</defs>
</svg>
