<svg width="95" height="95" viewBox="0 0 95 95" fill="none" xmlns="http://www.w3.org/2000/svg">
<path d="M50.1085 24.5749H58.7418C59.7229 24.5749 60.6645 24.185 61.3581 23.4913C62.0517 22.7975 62.4417 21.856 62.4417 20.8749V6.07493C62.4417 5.09377 62.0519 4.1522 61.3581 3.45857C60.6644 2.76494 59.7228 2.375 58.7418 2.375H39.0085C38.0274 2.375 37.0858 2.76482 36.3922 3.45857C35.6985 4.15233 35.3086 5.0939 35.3086 6.07493V20.8749C35.3086 21.8561 35.6984 22.7977 36.3922 23.4913C37.0859 24.1849 38.0275 24.5749 39.0085 24.5749H47.6418V27.0415H42.7085V29.5082H55.0418V27.0415H50.1085V24.5749ZM39.0085 22.1082C38.3274 22.1082 37.7752 21.5559 37.7752 20.8749V6.07486C37.7752 5.39378 38.3274 4.84153 39.0085 4.84153H58.7418C59.0688 4.84153 59.3827 4.97147 59.6139 5.20272C59.8452 5.43397 59.9751 5.74781 59.9751 6.07486V20.8749C59.9751 21.2019 59.8452 21.5158 59.6139 21.747C59.3827 21.9782 59.0688 22.1082 58.7418 22.1082H39.0085Z" fill="white"/>
<path d="M50.6979 14.5951L46.6686 10.6753C46.4044 10.4188 46.0388 10.2938 45.6726 10.3345C45.3065 10.3758 44.9778 10.5779 44.7768 10.8862L40.4414 17.5341L42.5061 18.882L46.0232 13.49L50.0195 17.3771V17.3777C50.2788 17.6299 50.6367 17.756 50.9968 17.7213C51.3575 17.6871 51.6845 17.4961 51.8915 17.1988L57.2862 9.44468L55.2611 8.03516L50.6979 14.5951Z" fill="white"/>
<path d="M85.2719 52.3515C83.2088 51.1451 80.8622 50.5098 78.4726 50.5098C76.0831 50.5098 73.7364 51.1452 71.6734 52.3515C71.3007 52.5744 71.0727 52.9764 71.0727 53.4108V57.9741C68.9607 56.7474 66.4687 56.3477 64.0785 56.852C61.689 57.3564 59.5709 58.7295 58.1349 60.7051C56.6989 62.6812 56.0471 65.1197 56.3053 67.5485C56.5635 69.9772 57.7132 72.2241 59.5324 73.8544C61.3515 75.4841 63.7109 76.3817 66.1533 76.3722C68.5958 76.3634 70.948 75.4489 72.755 73.8054C76.749 75.7605 81.462 75.5568 85.2722 73.2636C85.6444 73.0417 85.8723 72.6403 85.8729 72.207V53.411C85.8729 52.9765 85.6449 52.5746 85.2722 52.3516L85.2719 52.3515ZM66.1391 73.9087C64.1762 73.9087 62.2943 73.1291 60.9062 71.7416C59.5187 70.3535 58.7391 68.4716 58.7391 66.5087C58.7391 64.5458 59.5187 62.6639 60.9062 61.2759C62.2943 59.8883 64.1762 59.1087 66.1391 59.1087C68.102 59.1087 69.9838 59.8883 71.3719 61.2759C72.7594 62.6639 73.539 64.5458 73.539 66.5087C73.5368 68.4705 72.7566 70.3519 71.3696 71.7393C69.9821 73.1263 68.1008 73.9065 66.1391 73.9087ZM83.4057 71.4816C80.601 72.8912 77.3271 73.031 74.4122 71.8665C75.2491 70.5825 75.7733 69.1196 75.9428 67.5966C76.783 67.688 77.6271 67.737 78.4722 67.742C80.1301 67.7448 81.7829 67.5746 83.4055 67.2349L83.4057 71.4816ZM83.4057 64.6735C80.9445 65.2467 78.4019 65.3887 75.8922 65.0925C75.6186 63.204 74.801 61.4355 73.539 60.0039V59.8348C76.7931 60.511 80.1517 60.511 83.4057 59.8348V64.6735ZM83.4057 57.2934C80.16 58.0483 76.7847 58.0483 73.539 57.2934V54.1358C76.6417 52.5709 80.303 52.5709 83.4057 54.1358V57.2934Z" fill="white"/>
<path d="M65.5248 64.0418H66.7581C66.9216 64.0418 67.0785 64.1068 67.1942 64.2224C67.3098 64.338 67.3747 64.4949 67.3747 64.6585H69.8414C69.8414 63.9476 69.5958 63.2594 69.146 62.7088C68.6967 62.1582 68.0712 61.78 67.3748 61.6379V60.3418H64.9081V61.6379C63.9017 61.8444 63.0642 62.5387 62.6749 63.489C62.2851 64.4394 62.3947 65.5218 62.9662 66.3753C63.5382 67.2282 64.4973 67.7408 65.5247 67.7419H66.7581C67.0989 67.7419 67.3747 68.0177 67.3747 68.3585C67.3747 68.6994 67.0989 68.9752 66.7581 68.9752H65.5247C65.1839 68.9752 64.9081 68.6994 64.9081 68.3585H62.4414C62.4414 69.0694 62.687 69.7576 63.1368 70.3082C63.5861 70.8588 64.2116 71.237 64.908 71.3791V72.6752H67.3747V71.3791C68.3811 71.1726 69.2186 70.4783 69.6079 69.528C69.9977 68.5777 69.8882 67.4952 69.3166 66.6417C68.7446 65.7888 67.7855 65.2762 66.7581 65.2751H65.5248C65.1839 65.2751 64.9081 64.9993 64.9081 64.6585C64.9081 64.3176 65.1839 64.0418 65.5248 64.0418Z" fill="white"/>
<path d="M25.2962 57.9637C26.7322 56.9506 27.6681 55.3725 27.868 53.6266C28.0684 51.88 27.5134 50.1314 26.3434 48.8198C25.1734 47.5077 23.499 46.7578 21.7416 46.7578C19.9842 46.7578 18.3097 47.5077 17.1398 48.8198C15.9698 50.1313 15.4149 51.88 15.6153 53.6266C15.8152 55.3725 16.7512 56.9505 18.1871 57.9637C16.4339 58.2247 14.8323 59.1056 13.6738 60.4474C12.5153 61.7892 11.8773 63.5021 11.875 65.275V75.1417C11.875 75.4687 12.0049 75.7826 12.2362 76.0138C12.4674 76.2451 12.7813 76.375 13.1083 76.375H30.3749C30.702 76.375 31.0158 76.2451 31.2471 76.0138C31.4783 75.7826 31.6083 75.4687 31.6083 75.1417V65.275C31.6061 63.5021 30.9679 61.7893 29.8094 60.4474C28.6509 59.1055 27.0493 58.2246 25.2962 57.9637ZM18.0415 52.9417C18.0415 51.9605 18.4313 51.0189 19.1251 50.3253C19.8188 49.6317 20.7604 49.2417 21.7414 49.2417C22.7224 49.2417 23.6641 49.6316 24.3578 50.3253C25.0514 51.0191 25.4413 51.9606 25.4413 52.9417C25.4413 53.9227 25.0515 54.8644 24.3578 55.558C23.664 56.2517 22.7224 56.6416 21.7414 56.6416C20.7604 56.6416 19.8187 56.2518 19.1251 55.558C18.4314 54.8643 18.0415 53.9227 18.0415 52.9417ZM29.1415 73.9083H14.3415V65.275C14.3415 63.9668 14.8613 62.7119 15.7863 61.7864C16.7118 60.8614 17.9667 60.3417 19.2748 60.3417H24.2081C25.5163 60.3417 26.7712 60.8614 27.6967 61.7864C28.6217 62.712 29.1415 63.9668 29.1415 65.275V73.9083Z" fill="white"/>
<path d="M30.2501 17.181L22.7588 17.921L23.0054 20.3755L26.4934 20.0314C21.8448 25.4047 19.2823 32.27 19.2734 39.3743C19.2767 40.6616 19.3588 41.9478 19.5201 43.2246L21.9697 42.9234V42.924C21.8199 41.7462 21.7434 40.5607 21.7401 39.3742C21.7473 32.9285 24.0488 26.6957 28.2322 21.7918L27.3083 25.3933L29.6984 26.01L31.5683 18.7185L31.5688 18.7179C31.6707 18.327 31.5744 17.9113 31.3117 17.6046C31.0485 17.298 30.6521 17.1394 30.2502 17.1801L30.2501 17.181Z" fill="white"/>
<path d="M48.875 66.5082C46.0487 66.5115 43.2391 66.0699 40.5501 65.2011L44.0612 63.9936L43.2584 61.6602L36.1409 64.1081C35.7605 64.2391 35.4675 64.5475 35.3563 64.934C35.2456 65.321 35.3299 65.7378 35.5837 66.0506L40.32 71.9018L42.2376 70.3491L40.0281 67.6181C42.8907 68.5189 45.8743 68.9764 48.8751 68.9748C50.1623 68.9715 51.4485 68.8894 52.7253 68.7281L52.4241 66.2785H52.4247C51.2469 66.4283 50.0615 66.5048 48.8749 66.5081L48.875 66.5082Z" fill="white"/>
<path d="M76.0108 39.3749C76.0108 40.084 75.9739 40.7921 75.9183 41.4975L73.9378 38.668L71.9177 40.0813L75.4079 45.0692C75.3931 45.1369 75.3831 45.2063 75.3683 45.2751L75.5852 45.323L76.2338 46.248V46.2486C76.4651 46.5778 76.8417 46.7738 77.2442 46.7738C77.6466 46.7738 78.0232 46.5778 78.2545 46.2486L82.5712 40.0819L80.551 38.6686L78.3691 41.7839C78.4346 40.9784 78.4776 40.1806 78.4776 39.375C78.4787 35.114 77.5592 30.9031 75.7824 27.0301C74.0057 23.1572 71.4129 19.7139 68.1815 16.9355L66.5781 18.8054C69.5392 21.353 71.9144 24.5096 73.5426 28.0598C75.1707 31.6095 76.0125 35.4697 76.0109 39.375L76.0108 39.3749Z" fill="white"/>
</svg>
