<?xml version="1.0" encoding="utf-8"?><svg viewBox="0 0 57 58" xmlns="http://www.w3.org/2000/svg" xmlns:xlink="http://www.w3.org/1999/xlink"><style>:root>svg{display:none}:root>svg:target{display:block}</style><svg fill="none" viewBox="0 0 34 33" id="Layer" xmlns="http://www.w3.org/2000/svg"><path fill-rule="evenodd" clip-rule="evenodd" d="M17.105.197c8.999 0 16.294 7.296 16.294 16.295 0 9-7.295 16.295-16.294 16.295-9 0-16.295-7.295-16.295-16.295 0-9 7.295-16.295 16.295-16.295zm-4.787 10.145a6.15 6.15 0 110 12.3 6.15 6.15 0 010-12.3zm9.84.486c1.719 0 3.112 2.536 3.112 5.664 0 3.128-1.393 5.664-3.112 5.664s-3.111-2.536-3.111-5.664c0-3.128 1.392-5.664 3.111-5.664zm4.799.486c.598 0 1.083 2.318 1.083 5.178s-.485 5.179-1.083 5.179c-.6 0-1.085-2.318-1.085-5.179 0-2.86.486-5.179 1.085-5.179z" fill="#353535"/></svg><svg fill="none" viewBox="0 0 32 33" id="Reddit" xmlns="http://www.w3.org/2000/svg"><path fill-rule="evenodd" clip-rule="evenodd" d="M32 16.5C32 25.613 24.837 33 16 33S0 25.613 0 16.5 7.163 0 16 0s16 7.387 16 16.5zm-6.932-2.952c1.47 0 2.665 1.228 2.665 2.737 0 .998-.524 1.87-1.302 2.347.032.228.049.458.049.691 0 3.892-4.603 7.058-10.26 7.058-5.658 0-10.26-3.166-10.26-7.058 0-.25.02-.5.057-.744A2.752 2.752 0 014.8 16.285c0-1.509 1.196-2.736 2.666-2.737.653 0 1.252.244 1.716.647 1.77-1.15 4.132-1.872 6.736-1.924l1.522-4.94a.511.511 0 01.606-.355l3.942.953c.353-.773 1.116-1.311 2-1.311 1.219 0 2.21 1.017 2.21 2.269 0 1.25-.99 2.268-2.21 2.268-1.193 0-2.166-.977-2.205-2.193l-3.508-.848-1.286 4.173c2.445.125 4.653.842 6.323 1.944a2.613 2.613 0 011.756-.683z" fill="#353535"/><path fill-rule="evenodd" clip-rule="evenodd" d="M26.15 17.545c-.375-.991-1.058-1.898-1.972-2.67.256-.172.562-.273.89-.273.904 0 1.639.755 1.639 1.683 0 .502-.217.952-.558 1.26zM23.989 7.673c.652 0 1.183.545 1.183 1.215s-.53 1.214-1.183 1.214-1.183-.545-1.183-1.214c0-.67.53-1.215 1.183-1.215zM16.22 25.327c5.09 0 9.233-2.693 9.233-6.003a4.04 4.04 0 00-.243-1.364c-.304-.844-.88-1.62-1.667-2.287a7.86 7.86 0 00-.85-.625c-1.667-1.068-3.954-1.729-6.473-1.729-2.484 0-4.74.642-6.402 1.684-.304.19-.589.395-.851.611-.82.676-1.42 1.47-1.734 2.334a4.07 4.07 0 00-.247 1.376c0 3.31 4.142 6.003 9.234 6.003zm-3.377-8.907c.866 0 1.568.746 1.568 1.634 0 .89-.702 1.61-1.568 1.61a1.61 1.61 0 01-1.592-1.61c0-.888.726-1.634 1.592-1.634zm6.87 0c-.865 0-1.594.745-1.594 1.634 0 .889.729 1.61 1.595 1.61s1.568-.72 1.568-1.61c0-.89-.703-1.635-1.569-1.635zm-3.434 6.422c1.433 0 2.41-.29 2.991-.885a.505.505 0 01.728 0c.2.206.2.54 0 .746-.784.802-2 1.193-3.72 1.193l-.012-.001h-.006l-.006.001c-1.72 0-2.936-.39-3.718-1.194a.536.536 0 010-.745.504.504 0 01.726 0c.58.596 1.558.885 2.992.885a.03.03 0 01.006 0l.006.001h.006l.007-.001zM5.827 16.285c0-.927.735-1.683 1.639-1.683.305 0 .59.089.835.239-.914.763-1.598 1.66-1.984 2.641a1.697 1.697 0 01-.49-1.197z" fill="#353535"/></svg><svg fill="none" viewBox="0 0 33 33" id="Telegram" xmlns="http://www.w3.org/2000/svg"><path fill-rule="evenodd" clip-rule="evenodd" d="M16.5 33C25.613 33 33 25.613 33 16.5S25.613 0 16.5 0 0 7.387 0 16.5 7.387 33 16.5 33z" fill="#353535"/><path fill-rule="evenodd" clip-rule="evenodd" d="M13.475 24.063c.412 0 .594-.189.825-.412l2.2-2.14-2.745-1.655" fill="#fff"/><path fill-rule="evenodd" clip-rule="evenodd" d="M13.755 19.856l6.65 4.913c.758.419 1.306.202 1.495-.704l2.706-12.755c.277-1.111-.423-1.615-1.149-1.286L7.563 16.153c-1.085.435-1.078 1.04-.197 1.31l4.078 1.273 9.443-5.957c.446-.27.855-.125.519.173" fill="#fff"/></svg><svg fill="none" viewBox="0 0 32 33" id="Twitter" xmlns="http://www.w3.org/2000/svg"><path fill-rule="evenodd" clip-rule="evenodd" d="M16 0C7.163 0 0 7.387 0 16.5S7.163 33 16 33s16-7.387 16-16.5S24.837 0 16 0zm-.446 13.982l-.033-.57a3.337 3.337 0 012.182-3.356c.515-.187 1.388-.21 1.959-.047.224.07.649.303.951.513l.548.384.605-.198c.336-.105.783-.28.985-.396.19-.105.358-.163.358-.128 0 .198-.414.874-.761 1.247-.47.524-.336.57.615.221.571-.198.582-.198.47.023-.067.117-.414.525-.783.897-.627.641-.66.711-.66 1.247 0 .827-.38 2.552-.761 3.496-.706 1.77-2.216 3.6-3.727 4.52-2.127 1.294-4.958 1.62-7.342.863-.795-.256-2.16-.909-2.16-1.026 0-.034.414-.081.918-.093a6.157 6.157 0 003-.862l.603-.373-.693-.245c-.985-.349-1.87-1.153-2.093-1.91-.067-.245-.045-.257.582-.257l.649-.011-.549-.268c-.649-.338-1.242-.91-1.533-1.492-.213-.42-.481-1.48-.403-1.561.023-.035.258.035.526.128.772.291.873.221.426-.268-.84-.886-1.097-2.202-.694-3.449l.19-.56.739.758c1.51 1.527 3.29 2.435 5.327 2.703l.56.07z" fill="#353535"/></svg><svg fill="none" viewBox="0 0 33 33" id="Youtube" xmlns="http://www.w3.org/2000/svg"><path fill-rule="evenodd" clip-rule="evenodd" d="M16.5 0C7.387 0 0 7.387 0 16.5S7.387 33 16.5 33 33 25.613 33 16.5 25.613 0 16.5 0zm6.876 10.828c.758.208 1.354.82 1.556 1.598.368 1.409.368 4.35.368 4.35s0 2.94-.368 4.349a2.235 2.235 0 01-1.556 1.598c-1.372.377-6.876.377-6.876.377s-5.504 0-6.876-.377a2.235 2.235 0 01-1.556-1.598c-.368-1.41-.368-4.35-.368-4.35s0-2.94.368-4.35a2.234 2.234 0 011.556-1.597c1.372-.378 6.876-.378 6.876-.378s5.504 0 6.876.378z" fill="#353535"/><path fill-rule="evenodd" clip-rule="evenodd" d="M14.85 19.8v-5.5l4.4 2.75-4.4 2.75z" fill="#353535"/></svg><svg fill="none" viewBox="0 0 7 12" id="btn-next" xmlns="http://www.w3.org/2000/svg"><path d="M1 1l5 5-5 5" stroke="currentColor" stroke-width="2" stroke-linecap="round" stroke-linejoin="round"/></svg><svg fill="none" viewBox="0 0 7 12" id="btn-prev" xmlns="http://www.w3.org/2000/svg"><path d="M6 11L1 6l5-5" stroke="currentColor" stroke-width="2" stroke-linecap="round" stroke-linejoin="round"/></svg><svg fill="none" viewBox="0 0 34 33" id="discord" xmlns="http://www.w3.org/2000/svg"><g clip-path="url(#hclip0_165_5324)"><path fill-rule="evenodd" clip-rule="evenodd" d="M34 16.5C34 7.387 26.389 0 17 0S0 7.387 0 16.5C0 25.61 7.611 33 17 33s17-7.389 17-16.5zM19.793 9.378c2.484.184 4.588 1.782 4.588 1.782s2.348 3.306 2.753 9.796c-2.37 2.652-5.965 2.672-5.965 2.672l-.751-.972a9.237 9.237 0 003.963-2.59c-1.487 1.091-3.728 2.227-7.341 2.227s-5.856-1.137-7.341-2.227a9.22 9.22 0 003.963 2.59l-.751.972s-3.597-.02-5.965-2.672C7.35 14.466 9.7 11.16 9.7 11.16s1.98-1.542 4.588-1.782l.223.435c-2.05.45-3.277 1.298-4.352 2.237 1.855-.919 3.688-1.78 6.882-1.78 3.194 0 5.026.861 6.882 1.78-1.077-.939-2.107-1.703-4.354-2.237l.225-.435zm-7.341 8.016c0 .984.718 1.781 1.606 1.781.887 0 1.606-.797 1.606-1.781 0-.984-.719-1.781-1.606-1.781-.888 0-1.606.797-1.606 1.78zm5.964 0c0 .984.719 1.781 1.606 1.781.886 0 1.606-.797 1.606-1.781 0-.984-.718-1.781-1.606-1.781-.887 0-1.606.797-1.606 1.78z" fill="#353535"/></g><defs><clipPath id="hclip0_165_5324"><path fill="#fff" d="M0 0h34v33H0z"/></clipPath></defs></svg><svg fill="none" viewBox="0 0 13 13" id="list-collections-note" xmlns="http://www.w3.org/2000/svg"><circle cx="6.027" cy="6.027" r="6.027" fill="currentColor"/><path d="M5.37 3.933V2.71h1.313v1.224H5.37zm0 5.508v-4.86h1.313v4.86H5.37z" fill="#fff"/></svg><svg fill="none" viewBox="0 0 29 29" id="list-collections-social-1" xmlns="http://www.w3.org/2000/svg"><path fill-rule="evenodd" clip-rule="evenodd" d="M14.428 28.856c7.968 0 14.428-6.46 14.428-14.428C28.856 6.46 22.396 0 14.428 0 6.46 0 0 6.46 0 14.428c0 7.968 6.46 14.428 14.428 14.428zM14.03 7h.938l.195.025c.147.018.294.036.44.059 2.064.323 3.716 1.335 4.956 3.008.884 1.192 1.346 2.543 1.43 4.022a7.247 7.247 0 01-.12 1.757l-.298-.1c-.237-.08-.472-.16-.709-.229-.156-.046-.224-.11-.163-.274.01-.028.01-.06.01-.097v-.058l-.264.001c-.21.002-.416.004-.622-.005a1.69 1.69 0 01-.455-.075 579.995 579.995 0 01-3.577-1.184h1.296l-.215-1.858-1.738.166v1.702h.32c-.825.135-1.343.603-1.567 1.441l-.019-.18h-1.957l.215 1.902.074-.01.103-.013.344-.038c.278-.032.556-.064.834-.085l.028-.002c.366-.028.367-.028.367-.411v-.538c.044.09.08.183.107.28.082.243.162.487.242.73v.001c.198.603.396 1.206.61 1.804.194.543.347 1.084.286 1.667.002.035.007.07.017.105l.227-.164.513 1.54-.362.038c-.256.028-.507.055-.759.064-1.592.051-3.065-.35-4.388-1.24-1.77-1.192-2.86-2.844-3.253-4.945a9.35 9.35 0 01-.083-.57c-.011-.09-.022-.18-.035-.269v-.937l.03-.237c.02-.172.04-.345.07-.515a7.369 7.369 0 012.06-4.037 7.34 7.34 0 014.048-2.127c.185-.032.371-.055.558-.08.088-.01.178-.022.266-.034zm-5.739 8.122c.004.745.575 2.348.957 2.73l1.643-.585-.237-2.145H8.292zm.941-3.978a6.229 6.229 0 00-.949 2.705h2.372l.239-2.113-1.662-.592zm8.872.592l.236 2.113h2.374a6.23 6.23 0 00-.952-2.704l-1.658.59zm-5.981.254c-.07.616-.14 1.232-.213 1.858v.001h1.959v-1.69l-1.746-.17zm.33-1.216l1.413.13V8.466c-.76.605-1.102 1.423-1.413 2.308zm2.68.132V8.468c.757.602 1.096 1.422 1.411 2.305l-1.41.133zm-1.265 7.186l-1.42.136.097.254c.066.175.128.338.198.497.228.521.507 1.01.936 1.398.035.032.075.06.12.09l.07.051v-2.426zm5.087-7.965a6.225 6.225 0 00-1.864-1.306l.718 1.688 1.146-.382zm-7.05-1.305a6.13 6.13 0 00-1.86 1.306l1.144.379.716-1.685zm0 11.355l-.718-1.686-1.144.382c.567.569 1.18.995 1.862 1.304zm3.75-5.047a5.573 5.573 0 01-.092-.023l-.078.033c-.066.027-.139.056-.196.103-.173.144-.196.334-.125.545l.947 2.843c.333.993.664 1.987.994 2.981.048.145.118.267.26.336.262.13.54.01.658-.29.322-.826.64-1.654.954-2.483a.3.3 0 01.193-.195c.825-.314 1.649-.63 2.47-.947.243-.094.366-.263.357-.48-.01-.211-.137-.364-.381-.446-1.941-.648-3.883-1.294-5.824-1.94-.042-.014-.085-.024-.138-.037z" fill="currentColor"/></svg><svg fill="none" viewBox="0 0 29 29" id="list-collections-social-2" xmlns="http://www.w3.org/2000/svg"><path fill-rule="evenodd" clip-rule="evenodd" d="M14.428 28.856c7.968 0 14.428-6.46 14.428-14.428C28.856 6.46 22.396 0 14.428 0 6.46 0 0 6.46 0 14.428c0 7.968 6.46 14.428 14.428 14.428zm-2.645-7.815c.35 0 .511-.156.705-.345l.016-.016 1.733-1.685 3.606 2.664c.663.366 1.142.176 1.307-.616l2.367-11.154c.242-.971-.37-1.412-1.005-1.124l-13.898 5.36c-.948.38-.943.91-.173 1.145l3.567 1.113 8.257-5.209c.39-.236.747-.11.453.151l-6.69 6.038-.245 3.678z" fill="currentColor"/></svg><svg fill="none" viewBox="0 0 29 29" id="list-collections-social-3" xmlns="http://www.w3.org/2000/svg"><g clip-path="url(#lclip0_723_3347)"><path fill-rule="evenodd" clip-rule="evenodd" d="M28.904 14.428C28.904 6.459 22.444 0 14.476 0 6.508 0 .048 6.46.048 14.428c0 7.967 6.46 14.428 14.428 14.428 7.968 0 14.428-6.46 14.428-14.428zM16.846 8.2c2.108.16 3.894 1.557 3.894 1.557s1.993 2.891 2.336 8.567c-2.011 2.318-5.062 2.336-5.062 2.336l-.638-.85a7.82 7.82 0 003.364-2.265c-1.262.954-3.164 1.947-6.23 1.947-3.067 0-4.97-.994-6.23-1.947a7.805 7.805 0 003.363 2.265l-.638.85s-3.052-.018-5.062-2.336c.342-5.676 2.336-8.567 2.336-8.567s1.68-1.348 3.894-1.557l.19.38c-1.741.393-2.782 1.135-3.694 1.956 1.574-.804 3.13-1.558 5.84-1.558s4.266.754 5.841 1.558c-.914-.821-1.788-1.49-3.695-1.957l.19-.38zm-6.23 7.008c0 .861.61 1.558 1.362 1.558.754 0 1.363-.697 1.363-1.558 0-.86-.61-1.557-1.363-1.557s-1.362.697-1.362 1.557zm5.062 0c0 .861.61 1.558 1.363 1.558.751 0 1.362-.697 1.362-1.558 0-.86-.61-1.557-1.362-1.557-.754 0-1.364.697-1.364 1.557z" fill="currentColor"/></g><defs><clipPath id="lclip0_723_3347"><path fill="#fff" transform="translate(.048)" d="M0 0h28.856v28.856H0z"/></clipPath></defs></svg><svg fill="none" viewBox="0 0 29 29" id="list-collections-social-4" xmlns="http://www.w3.org/2000/svg"><path fill-rule="evenodd" clip-rule="evenodd" d="M14.524 0C6.556 0 .096 6.46.096 14.428c0 7.968 6.46 14.428 14.428 14.428 7.969 0 14.428-6.46 14.428-14.428C28.952 6.46 22.492 0 14.524 0zm-.402 12.226l-.03-.499c-.09-1.294.707-2.476 1.968-2.934.464-.163 1.251-.183 1.766-.04.202.06.585.264.858.447l.494.337.545-.174c.303-.091.707-.244.889-.346.171-.092.322-.143.322-.112 0 .173-.373.764-.686 1.09-.424.459-.303.5.555.194.515-.174.525-.174.424.02-.06.102-.373.459-.706.785-.566.56-.596.621-.596 1.09 0 .723-.343 2.231-.686 3.056-.636 1.549-1.998 3.149-3.36 3.953-1.918 1.131-4.471 1.417-6.621.755-.717-.225-1.948-.795-1.948-.897 0-.03.374-.071.828-.082a5.682 5.682 0 002.704-.754l.545-.326-.625-.214c-.888-.305-1.686-1.008-1.888-1.67-.06-.214-.04-.225.525-.225l.586-.01-.495-.234c-.585-.296-1.12-.795-1.383-1.304-.191-.367-.434-1.294-.363-1.366.02-.03.232.031.474.113.697.254.788.193.384-.235-.757-.774-.99-1.925-.626-3.016l.172-.489.666.663c1.362 1.334 2.967 2.129 4.804 2.363l.504.061z" fill="currentColor"/></svg><svg fill="none" viewBox="0 0 29 29" id="list-collections-social-5" xmlns="http://www.w3.org/2000/svg"><path fill-rule="evenodd" clip-rule="evenodd" d="M14.572 0C22.54 0 29 6.46 29 14.428c0 7.968-6.46 14.428-14.428 14.428-7.968 0-14.428-6.46-14.428-14.428C.144 6.46 6.604 0 14.572 0zm-4.238 8.983a5.445 5.445 0 110 10.89 5.445 5.445 0 010-10.89zm8.713.43c1.521 0 2.755 2.245 2.755 5.015 0 2.77-1.233 5.015-2.755 5.015-1.522 0-2.756-2.245-2.756-5.015 0-2.77 1.234-5.015 2.756-5.015zm4.248.43c.53 0 .96 2.052.96 4.585s-.43 4.585-.96 4.585-.96-2.052-.96-4.585.43-4.585.96-4.585z" fill="currentColor"/></svg><svg fill="none" viewBox="0 0 20 21" id="list-collections-star" xmlns="http://www.w3.org/2000/svg"><path d="M10 .808l3.09 6.115 6.91.98-5 4.76 1.18 6.722L10 16.21l-6.18 3.174L5 12.663l-5-4.76 6.91-.98L10 .808z" fill="currentColor"/></svg><svg fill="none" viewBox="0 0 17 10" id="name-attribute-arrow" xmlns="http://www.w3.org/2000/svg"><path d="M16 1.928L15.117 1l-6.18 6.495a.61.61 0 01-.442.192.61.61 0 01-.442-.192L1.884 1.01 1 1.941l6.168 6.482c.352.37.83.577 1.327.577s.974-.208 1.326-.577L16 1.928z" fill="#B72BF6" stroke="currentColor"/></svg><svg fill="none" viewBox="0 0 26 26" id="name-collection-copy" xmlns="http://www.w3.org/2000/svg"><path fill-rule="evenodd" clip-rule="evenodd" d="M13 26c7.18 0 13-5.82 13-13S20.18 0 13 0 0 5.82 0 13s5.82 13 13 13zM9.398 8.826V9.4l-.54.001C7.78 9.403 7 10.176 7 11.252v5.906c-.002.112.005.225.023.336.162.893.877 1.496 1.784 1.504.369.003.737.002 1.106.001h4.843c.707 0 1.242-.31 1.606-.91.16-.272.242-.584.236-.9v-.588h.584c1.015-.006 1.808-.781 1.812-1.795.007-2.001.007-4.003 0-6.004a1.771 1.771 0 00-1.792-1.797 826.688 826.688 0 00-6.005 0c-1.024.004-1.796.796-1.8 1.82zm1.56 1.779l.848-.002 2.911-.001c.453 0 .68.229.68.685v5.821c0 .46-.232.694-.689.694H8.886c-.453 0-.69-.24-.69-.696v-1.54c.001-1.423.002-2.845-.004-4.267-.002-.405.248-.71.703-.701.688.011 1.376.009 2.064.007zm5.818 4.79a9.09 9.09 0 01-.177.003l.001-.19v-3.937c0-1.1-.777-1.874-1.878-1.874H10.61a7.4 7.4 0 00-.004-.227c-.005-.169-.01-.334.011-.495.031-.242.2-.398.44-.458.082-.017.167-.024.25-.021h5.78c.486 0 .715.228.715.717l-.001 1.526c-.001 1.418-.002 2.835.005 4.253.002.41-.245.739-.711.706a4.065 4.065 0 00-.32-.002z" fill="currentColor"/></svg><svg fill="none" viewBox="0 0 26 26" id="name-collection-repost" xmlns="http://www.w3.org/2000/svg"><path fill-rule="evenodd" clip-rule="evenodd" d="M26 13c0 7.18-5.82 13-13 13S0 20.18 0 13 5.82 0 13 0s13 5.82 13 13zm-13.783 5.382H11.1c-.745.002-1.49.002-2.236 0-.87-.004-1.558-.586-1.712-1.442a1.748 1.748 0 01-.02-.307v-6.68c0-.878.583-1.569 1.445-1.724.092-.014.186-.02.28-.02h3.606c.422 0 .705.338.62.729-.06.275-.3.462-.606.463-.511.002-1.023.001-1.534 0H8.925c-.39 0-.602.208-.602.595v6.595c0 .387.211.597.6.597h6.582c.397 0 .606-.208.606-.605v-3.256c0-.38.26-.637.62-.627a.58.58 0 01.567.549c.008.172.007.345.006.517l-.001.185v.898c.002.598.002 1.197 0 1.796-.004.872-.581 1.558-1.439 1.713-.12.018-.242.026-.363.022-1.095.002-2.189.003-3.284.002zm3.685-10.065h.377l.036.052a.985.985 0 00-.14.1l-4.259 4.26c-.042.04-.082.081-.12.125a.592.592 0 00-.1.61.587.587 0 00.495.391c.237.034.417-.069.578-.231 1.43-1.432 2.86-2.862 4.292-4.292a2.875 2.875 0 01.142-.134v.63c-.002.292-.002.584 0 .877a.932.932 0 00.039.283.606.606 0 00.686.4.608.608 0 00.505-.6c.003-1.04.003-2.081 0-3.122a.601.601 0 00-.593-.585H16.25l-.505-.001c-.337 0-.673-.002-1.01 0a.617.617 0 00-.556.883.604.604 0 00.294.287c.106.043.22.064.335.064.365.005.729.004 1.093.003z" fill="currentColor"/></svg><svg fill="none" viewBox="0 0 16 33" id="name-collection-slide-next" xmlns="http://www.w3.org/2000/svg"><path d="M1.856 33L0 31.057l12.99-13.596a1.41 1.41 0 00.384-.973 1.41 1.41 0 00-.385-.973L.022 1.945 1.882 0l12.963 13.57A4.227 4.227 0 0116 16.488a4.227 4.227 0 01-1.155 2.919L1.856 33z" fill="currentColor"/></svg><svg fill="none" viewBox="0 0 16 33" id="name-collection-slide-prev" xmlns="http://www.w3.org/2000/svg"><path d="M14.144 33L16 31.057 3.01 17.461a1.41 1.41 0 01-.384-.973c0-.365.138-.714.385-.973l12.967-13.57L14.118 0 1.156 13.57A4.228 4.228 0 000 16.488c0 1.095.415 2.145 1.155 2.919L14.144 33z" fill="currentColor"/></svg><svg fill="none" viewBox="0 0 57 58" id="name-collection-social-1" xmlns="http://www.w3.org/2000/svg"><circle cx="29" cy="29" r="28" fill="#fff"/><path fill-rule="evenodd" clip-rule="evenodd" d="M28.58.368C44.276.368 57 13.092 57 28.788c0 15.696-12.724 28.42-28.42 28.42-15.696 0-28.42-12.724-28.42-28.42C.16 13.092 12.884.368 28.58.368zm-8.348 17.694c5.924 0 10.726 4.803 10.726 10.726 0 5.924-4.802 10.726-10.726 10.726-5.923 0-10.725-4.803-10.725-10.726 0-5.923 4.802-10.726 10.725-10.726zm17.162.848c2.998 0 5.427 4.422 5.427 9.878s-2.43 9.879-5.427 9.879c-2.998 0-5.427-4.423-5.427-9.879 0-5.456 2.43-9.878 5.427-9.878zm8.37.846c1.042 0 1.889 4.043 1.889 9.032 0 4.99-.846 9.032-1.89 9.032s-1.89-4.043-1.89-9.032.846-9.032 1.89-9.032z" fill="currentColor"/></svg><svg fill="none" viewBox="0 0 56 57" id="name-collection-social-2" xmlns="http://www.w3.org/2000/svg"><path fill-rule="evenodd" clip-rule="evenodd" d="M0 28.5C0 12.76 12.536 0 28 0s28 12.76 28 28.5S43.464 57 28 57 0 44.24 0 28.5z" fill="currentColor"/><path fill-rule="evenodd" clip-rule="evenodd" d="M27.161 23.165l.06.986-.98-.12c-3.565-.463-6.679-2.033-9.323-4.67l-1.292-1.308-.333.966c-.705 2.154-.255 4.428 1.214 5.958.783.845.607.966-.744.462-.47-.16-.882-.281-.92-.22-.138.14.332 1.971.704 2.696.51 1.006 1.547 1.992 2.683 2.576l.96.463-1.136.02c-1.097 0-1.136.02-1.018.443.391 1.308 1.939 2.697 3.662 3.3l1.215.423-1.058.644a10.88 10.88 0 01-5.249 1.49c-.881.02-1.606.1-1.606.16 0 .202 2.39 1.329 3.78 1.772 4.172 1.308 9.127.744 12.848-1.49 2.644-1.59 5.288-4.75 6.522-7.809.666-1.63 1.332-4.608 1.332-6.037 0-.926.059-1.047 1.155-2.154.647-.644 1.254-1.348 1.371-1.55.196-.382.177-.382-.822-.04-1.665.604-1.9.523-1.078-.382.608-.644 1.332-1.811 1.332-2.154 0-.06-.293.04-.626.222-.353.201-1.136.503-1.724.684l-1.058.342-.96-.664c-.528-.362-1.272-.765-1.664-.886-.999-.281-2.527-.241-3.427.081-2.449.906-3.996 3.24-3.82 5.796z" fill="#fff"/></svg><svg fill="none" viewBox="0 0 57 57" id="name-collection-social-3" xmlns="http://www.w3.org/2000/svg"><g clip-path="url(#wclip0_62_2090)"><path d="M28.5 0C44.24 0 57 12.76 57 28.5 57 44.237 44.24 57 28.5 57S0 44.238 0 28.5C0 12.76 12.76 0 28.5 0z" fill="currentColor"/><path d="M40.873 19.276s-3.527-2.76-7.692-3.077l-.377.75c3.767.923 5.493 2.243 7.3 3.865-3.113-1.587-6.184-3.076-11.538-3.076s-8.428 1.489-11.538 3.076c1.802-1.622 3.859-3.088 7.297-3.865l-.374-.75c-4.373.414-7.692 3.077-7.692 3.077s-3.94 5.71-4.615 16.922c3.97 4.579 10 4.615 10 4.615l1.26-1.68c-2.141-.744-4.558-2.075-6.645-4.473 2.49 1.882 6.25 3.845 12.307 3.845s9.814-1.96 12.307-3.845c-2.09 2.398-4.507 3.729-6.645 4.473l1.26 1.68s6.027-.036 10-4.615c-.678-11.211-4.615-16.922-4.615-16.922zM23.566 33.121c-1.488 0-2.692-1.377-2.692-3.077 0-1.699 1.205-3.076 2.692-3.076 1.488 0 2.692 1.377 2.692 3.076 0 1.7-1.204 3.077-2.692 3.077zm10 0c-1.488 0-2.693-1.377-2.693-3.077 0-1.699 1.205-3.076 2.692-3.076 1.488 0 2.692 1.377 2.692 3.076 0 1.7-1.207 3.077-2.691 3.077z" fill="#fff"/></g><defs><clipPath id="wclip0_62_2090"><path fill="#fff" d="M0 0h57v57H0z"/></clipPath></defs></svg><svg fill="none" viewBox="0 0 56 57" id="name-collection-social-4" xmlns="http://www.w3.org/2000/svg"><path fill-rule="evenodd" clip-rule="evenodd" d="M28 57c15.464 0 28-12.76 28-28.5S43.464 0 28 0 0 12.76 0 28.5 12.536 57 28 57z" fill="currentColor"/><path fill-rule="evenodd" clip-rule="evenodd" d="M22.867 41.563c.7 0 1.009-.326 1.4-.713L28 37.155l-4.657-2.858" fill="#fff"/><path fill-rule="evenodd" clip-rule="evenodd" d="M23.343 34.297l11.284 8.486c1.287.723 2.217.349 2.538-1.217l4.593-22.031c.47-1.92-.719-2.79-1.95-2.22L12.835 27.9c-1.84.752-1.83 1.797-.335 2.263l6.921 2.199 16.024-10.29c.756-.467 1.45-.216.88.3" fill="#fff"/></svg><svg fill="none" viewBox="0 0 57 58" id="name-collection-social-5" xmlns="http://www.w3.org/2000/svg"><path fill-rule="evenodd" clip-rule="evenodd" d="M28.42 57.712c15.696 0 28.42-12.724 28.42-28.42 0-15.696-12.724-28.42-28.42-28.42C12.724.872 0 13.596 0 29.292c0 15.696 12.724 28.42 28.42 28.42z" fill="currentColor"/><g clip-path="url(#yclip0_825_5110)" fill="#fff"><path d="M27.864 14.956h1.693c.382.05.767.091 1.148.151 3.726.583 6.708 2.412 8.948 5.433 1.595 2.15 2.43 4.59 2.581 7.26a13.07 13.07 0 01-.215 3.174c-.617-.204-1.213-.416-1.82-.595-.28-.082-.404-.197-.294-.494.029-.076.012-.169.018-.28-.546 0-1.073.014-1.6-.007a3.054 3.054 0 01-.821-.136c-2.177-.712-4.349-1.438-6.458-2.139h2.34l-.39-3.354-3.137.3v3.074h.576c-1.488.243-2.423 1.088-2.829 2.602l-.033-.327h-3.534c.13 1.152.258 2.283.39 3.436.149-.02.234-.032.317-.041.71-.077 1.417-.17 2.128-.224.71-.053.712-.036.712-.745v-.97c.082.16.147.33.195.503.509 1.528.995 3.063 1.537 4.578.35.98.627 1.958.518 3.01a.846.846 0 00.03.19l.41-.295.926 2.782c-.695.064-1.358.159-2.023.182-2.876.092-5.536-.631-7.925-2.24-3.195-2.152-5.163-5.134-5.873-8.929-.094-.5-.142-1.007-.212-1.513v-1.693c.059-.453.102-.908.179-1.358.477-2.817 1.713-5.255 3.72-7.288 2.026-2.054 4.463-3.343 7.309-3.841.493-.085.991-.138 1.489-.206zM17.501 29.62c.006 1.345 1.038 4.24 1.727 4.928l2.967-1.055-.428-3.872-4.266-.002zm1.7-7.182c-.932 1.483-1.532 3.102-1.715 4.884h4.283l.431-3.816-3-1.069zm16.018 1.068l.428 3.816h4.285a11.252 11.252 0 00-1.719-4.883l-2.994 1.067zm-10.8.458l-.383 3.358h3.537v-3.052l-3.154-.306zm.598-2.196l2.55.236v-4.403c-1.372 1.093-1.99 2.57-2.55 4.167zm4.84-4.163v4.402l2.546-.24c-.57-1.594-1.181-3.074-2.547-4.163zM27.57 34.983l-2.565.245c.193.495.348.933.533 1.357.411.94.916 1.823 1.69 2.523.097.088.212.159.342.256v-4.381zm9.184-14.383c-1.03-1.03-2.132-1.802-3.365-2.357.424 1.002.848 1.999 1.296 3.047l2.07-.69zm-12.729-2.356a11.07 11.07 0 00-3.359 2.358l2.067.685 1.292-3.043zm0 20.503l-1.296-3.043-2.067.689c1.026 1.027 2.13 1.797 3.363 2.355z"/><path d="M30.631 29.593c.177.046.298.07.414.11 3.505 1.165 7.01 2.333 10.515 3.502.442.148.672.424.69.805.014.393-.206.697-.645.867-1.484.572-2.971 1.142-4.461 1.71a.54.54 0 00-.348.351 548.134 548.134 0 01-1.724 4.485c-.212.541-.714.757-1.187.524-.256-.126-.383-.346-.47-.608a44086.071 44086.071 0 00-3.504-10.516c-.128-.38-.088-.724.226-.983.146-.122.35-.177.494-.247z"/></g><defs><clipPath id="yclip0_825_5110"><path fill="#fff" transform="translate(15.168 14.956)" d="M0 0h27.085v27.085H0z"/></clipPath></defs></svg></svg>